<svg width="234" height="24" viewBox="0 0 234 24" fill="none" xmlns="http://www.w3.org/2000/svg">
<path d="M208.882 0H203.201L197.891 24H203.572L208.882 0Z" fill="#0D0D0E"/>
<path d="M233.503 0H227.821L222.512 24H228.193L233.503 0Z" fill="#0D0D0E"/>
<path d="M214.564 0L222.511 24H216.829L208.883 0H214.564Z" fill="#0D0D0E"/>
<path d="M74.0404 18.3151L78.0925 0H72.4115L67.1016 24H97.4015L98.6588 18.3151H74.0404Z" fill="#0D0D0E"/>
<path d="M105.107 0L99.7969 24H120.931C125.993 24 131.005 19.8935 132.125 14.8283L127.702 9.14348H133.383C134.5 4.09382 131.315 0.000469474 126.269 0.000469474L105.107 0ZM122.218 18.3147H106.736L107.507 14.8279H126.445L126.439 14.8565C126.016 16.7663 124.126 18.3147 122.218 18.3147ZM127.703 9.14301H108.765L109.53 5.68486H125.012C126.921 5.68486 128.125 7.23319 127.703 9.14301Z" fill="#0D0D0E"/>
<path d="M195.491 24L197.52 14.8283L193.097 9.14348H198.778C199.895 4.09382 196.71 0 191.664 0H170.501L165.191 23.9995H170.872L172.902 14.8279H191.839L189.81 23.9995L195.491 24ZM193.097 9.14348H174.159L174.925 5.68533H190.406C192.315 5.68533 193.519 7.23366 193.097 9.14348Z" fill="#0D0D0E"/>
<path d="M137.802 0L132.492 24H162.792L168.102 0H137.802ZM158.368 18.3151H139.431L142.225 5.68533H161.163L158.368 18.3151Z" fill="#0D0D0E"/>
<path d="M54.2615 0H47.9776L33.1992 24H38.8802L54.2615 0H60.5449L64.7039 24H59.0229L54.2615 0Z" fill="#0D0D0E"/>
<path d="M30.4284 0L28.4026 9.15757H9.46509L11.4909 0H5.8099L0.5 24H6.18147L9.46509 9.15757L13.8883 14.8429H27.1448L25.1185 24H30.7999L36.1094 0H30.4284Z" fill="#0D0D0E"/>
</svg>
