<svg width="897" height="325" viewBox="0 0 897 325" fill="none" xmlns="http://www.w3.org/2000/svg">
<rect x="596.5" y="223.5" width="101" height="101" rx="22.5" stroke="#2A2A2B"/>
<rect x="596.5" y="122.5" width="101" height="101" rx="22.5" stroke="#2A2A2B"/>
<rect x="412.5" y="65.5" width="59" height="59" rx="18.5" stroke="#2A2A2B"/>
<rect x="478.5" y="130.5" width="48" height="93" rx="22.5" stroke="#2A2A2B"/>
<path fill-rule="evenodd" clip-rule="evenodd" d="M628 241.5C624.41 241.5 621.5 244.41 621.5 248V302C621.5 305.59 624.41 308.5 628 308.5H668C671.59 308.5 674.5 305.59 674.5 302V268.5V267.5V267.485C674.5 265.761 673.815 264.108 672.596 262.889L653.111 243.404C651.892 242.185 650.239 241.5 648.515 241.5H648H647H628ZM647 242.5H628C624.962 242.5 622.5 244.962 622.5 248V302C622.5 305.038 624.962 307.5 628 307.5H668C671.038 307.5 673.5 305.038 673.5 302V268.5H652.5C649.462 268.5 647 266.038 647 263V242.5ZM673.5 267.5V267.485C673.5 266.027 672.921 264.628 671.889 263.596L652.404 244.111C651.372 243.079 649.973 242.5 648.515 242.5H648V263C648 265.485 650.015 267.5 652.5 267.5H673.5Z" fill="#2A2A2B"/>
<rect x="248.5" y="316.5" width="186" height="230" rx="22.5" transform="rotate(-90 248.5 316.5)" stroke="#2A2A2B"/>
<rect x="478.5" y="223.5" width="48" height="93" rx="22.5" stroke="#2A2A2B"/>
<path d="M225 223C237.15 223 247 213.15 247 201H248C248 213.703 237.703 224 225 224V223Z" fill="#2A2A2B"/>
<path d="M225 224C237.15 224 247 233.85 247 246H248C248 233.297 237.703 223 225 223V224Z" fill="#2A2A2B"/>
<path d="M227 223.5L72 223.5" stroke="#2A2A2B"/>
<path d="M57 223.5L0 223.5" stroke="#2A2A2B" stroke-dasharray="4 4"/>
<path d="M406.008 108C406.008 120.15 415.858 130 428.008 130L428.008 131C415.305 131 405.008 120.703 405.008 108L406.008 108Z" fill="#2A2A2B"/>
<path d="M405.008 108C405.008 120.15 395.158 130 383.008 130L383.008 131C395.71 131 406.008 120.703 406.008 108L405.008 108Z" fill="#2A2A2B"/>
<path d="M405 82C405 69.8497 395.15 60 383 60L383 59C395.703 59 406 69.2975 406 82L405 82Z" fill="#2A2A2B"/>
<path d="M406 82C406 69.8497 415.85 60 428 60L428 59C415.297 59 405 69.2975 405 82L406 82Z" fill="#2A2A2B"/>
<path d="M405.5 110L405.5 82" stroke="#2A2A2B"/>
<path d="M479.008 108C479.008 120.15 488.858 130 501.008 130L501.008 131C488.305 131 478.008 120.703 478.008 108L479.008 108Z" fill="#2A2A2B"/>
<path d="M478.008 108C478.008 120.15 468.158 130 456.008 130L456.008 131C468.71 131 479.008 120.703 479.008 108L478.008 108Z" fill="#2A2A2B"/>
<path d="M478 82C478 69.8497 468.15 60 456 60L456 59C468.703 59 479 69.2975 479 82L478 82Z" fill="#2A2A2B"/>
<path d="M479 82C479 69.8497 488.85 60 501 60L501 59C488.297 59 478 69.2975 478 82L479 82Z" fill="#2A2A2B"/>
<path d="M478.5 110L478.5 82" stroke="#2A2A2B"/>
<path d="M548.504 223.504C536.354 223.504 526.504 233.354 526.504 245.504L525.504 245.504C525.504 232.801 535.801 222.504 548.504 222.504L548.504 223.504Z" fill="#2A2A2B"/>
<path d="M548.504 222.504C536.354 222.504 526.504 212.654 526.504 200.504L525.504 200.504C525.504 213.206 535.801 223.504 548.504 223.504L548.504 222.504Z" fill="#2A2A2B"/>
<path d="M574 222.496C586.15 222.496 596 212.646 596 200.496L597 200.496C597 213.199 586.703 223.496 574 223.496L574 222.496Z" fill="#2A2A2B"/>
<path d="M574 223.496C586.15 223.496 596 233.346 596 245.496L597 245.496C597 232.794 586.703 222.496 574 222.496L574 223.496Z" fill="#2A2A2B"/>
<path d="M546.504 222.996L574.504 222.996" stroke="#2A2A2B"/>
<path d="M719.504 223.504C707.354 223.504 697.504 233.354 697.504 245.504L696.504 245.504C696.504 232.801 706.801 222.504 719.504 222.504L719.504 223.504Z" fill="#2A2A2B"/>
<path d="M719.504 222.504C707.354 222.504 697.504 212.654 697.504 200.504L696.504 200.504C696.504 213.206 706.801 223.504 719.504 223.504L719.504 222.504Z" fill="#2A2A2B"/>
<path d="M718.5 222.996L896.5 222.996" stroke="#2A2A2B" stroke-dasharray="1 4"/>
<path d="M550.5 30C550.5 46.2924 537.292 59.5 521 59.5L500.813 59.5C488.49 59.5 478.5 49.5103 478.5 37.1875L478.5 22.8125C478.5 10.4896 488.49 0.500002 500.813 0.500003L521 0.500005C537.292 0.500006 550.5 13.7076 550.5 30Z" stroke="#2A2A2B"/>
<path d="M406.5 37.1875C406.5 49.5104 396.51 59.5 384.188 59.5L364 59.5C347.708 59.5 334.5 46.2924 334.5 30C334.5 13.7076 347.708 0.500002 364 0.500004L384.188 0.500006C396.51 0.500007 406.5 10.4897 406.5 22.8125L406.5 37.1875Z" stroke="#2A2A2B"/>
<rect x="358" y="19" width="29" height="1" fill="#2A2A2B"/>
<rect x="358" y="39" width="29" height="1" fill="#2A2A2B"/>
<rect x="358" y="29" width="29" height="1" fill="#2A2A2B"/>
<rect x="478.5" y="59.5" width="72" height="59" rx="19.5" transform="rotate(-180 478.5 59.5)" stroke="#2A2A2B"/>
<rect x="424.156" y="41.8071" width="29" height="1" transform="rotate(-60 424.156 41.8071)" fill="#2A2A2B"/>
<rect x="434.156" y="41.8071" width="29" height="1" transform="rotate(-60 434.156 41.8071)" fill="#2A2A2B"/>
<rect x="444.156" y="41.8071" width="29" height="1" transform="rotate(-60 444.156 41.8071)" fill="#2A2A2B"/>
<mask id="path-39-inside-1_4420_21187" fill="white">
<path d="M677.117 188.778C673.914 194.892 668.926 199.887 662.815 203.098C656.705 206.309 649.761 207.584 642.909 206.753C636.056 205.922 629.619 203.026 624.452 198.448C619.286 193.87 615.635 187.828 613.985 181.125C612.336 174.423 612.765 167.377 615.217 160.924C617.669 154.471 622.026 148.917 627.711 145.001C633.395 141.085 640.137 138.992 647.04 139C653.943 139.008 660.679 141.117 666.355 145.046L647 173L677.117 188.778Z"/>
</mask>
<path d="M677.117 188.778C673.914 194.892 668.926 199.887 662.815 203.098C656.705 206.309 649.761 207.584 642.909 206.753C636.056 205.922 629.619 203.026 624.452 198.448C619.286 193.87 615.635 187.828 613.985 181.125C612.336 174.423 612.765 167.377 615.217 160.924C617.669 154.471 622.026 148.917 627.711 145.001C633.395 141.085 640.137 138.992 647.04 139C653.943 139.008 660.679 141.117 666.355 145.046L647 173L677.117 188.778Z" stroke="#2A2A2B" stroke-width="2" mask="url(#path-39-inside-1_4420_21187)"/>
<mask id="path-40-inside-2_4420_21187" fill="white">
<path d="M668.74 148.378C674.459 152.105 678.555 157.86 680.202 164.485C681.849 171.11 680.926 178.113 677.618 184.085L654 171L668.74 148.378Z"/>
</mask>
<path d="M668.74 148.378C674.459 152.105 678.555 157.86 680.202 164.485C681.849 171.11 680.926 178.113 677.618 184.085L654 171L668.74 148.378Z" stroke="#2A2A2B" stroke-width="2" mask="url(#path-40-inside-2_4420_21187)"/>
<mask id="mask0_4420_21187" style="mask-type:alpha" maskUnits="userSpaceOnUse" x="654" y="148" width="27" height="37">
<path d="M668.74 148.378C674.459 152.105 678.555 157.86 680.202 164.485C681.849 171.11 680.926 178.113 677.618 184.085L654 171L668.74 148.378Z" fill="#D9D9D9"/>
</mask>
<g mask="url(#mask0_4420_21187)">
<line x1="676.712" y1="143.772" x2="654.357" y2="178.126" stroke="#2A2A2B"/>
<line x1="675.712" y1="151.713" x2="653.357" y2="186.068" stroke="#2A2A2B"/>
<line x1="680.271" y1="151.713" x2="657.916" y2="186.068" stroke="#2A2A2B"/>
<line x1="684.829" y1="151.713" x2="662.474" y2="186.068" stroke="#2A2A2B"/>
<line x1="689.388" y1="151.713" x2="667.033" y2="186.068" stroke="#2A2A2B"/>
<line x1="693.388" y1="152.713" x2="671.033" y2="187.068" stroke="#2A2A2B"/>
</g>
<path d="M365.499 180C309.344 180 282.453 223.5 282.453 223.5C282.453 223.5 309.344 267 365.499 267C421.653 267 448.544 223.5 448.544 223.5C448.544 223.5 421.653 180 365.499 180Z" stroke="#2A2A2B"/>
<path d="M365.501 185.537C320.024 185.537 287.992 223.5 287.992 223.5C287.992 223.5 319.629 261.464 365.501 261.464C411.374 261.464 443.01 223.5 443.01 223.5C443.01 223.5 410.979 185.537 365.501 185.537Z" stroke="#2A2A2B"/>
<circle cx="366.293" cy="223.5" r="29.5545" stroke="#2A2A2B"/>
<circle cx="366.288" cy="223.501" r="24.0182" stroke="#414141"/>
<circle cx="366.29" cy="223.499" r="18.4818" stroke="#2A2A2B"/>
<circle cx="366.289" cy="223.5" r="12.9455" stroke="#2A2A2B"/>
<rect x="275" y="149.997" width="12" height="1" fill="#2A2A2B"/>
<rect x="275" y="153.997" width="12" height="1" fill="#2A2A2B"/>
<rect x="275" y="157.997" width="12" height="1" fill="#2A2A2B"/>
<path d="M291 154.497H325" stroke="#2A2A2B" stroke-dasharray="2 2"/>
<rect x="329" y="159.193" width="10.6563" height="1" transform="rotate(-66.6887 329 159.193)" fill="#2A2A2B"/>
<rect x="333" y="159.193" width="10.6563" height="1" transform="rotate(-66.6887 333 159.193)" fill="#2A2A2B"/>
<rect x="337" y="159.193" width="10.6563" height="1" transform="rotate(-66.6887 337 159.193)" fill="#2A2A2B"/>
<path d="M346.137 154.497H380.137" stroke="#2A2A2B" stroke-dasharray="2 2"/>
<rect x="384.137" y="149.997" width="12" height="1" fill="#2A2A2B"/>
<rect x="384.137" y="153.997" width="12" height="1" fill="#2A2A2B"/>
<rect x="384.137" y="157.997" width="12" height="1" fill="#2A2A2B"/>
<path d="M400.137 154.497H434.137" stroke="#2A2A2B" stroke-dasharray="2 2"/>
<rect x="438.137" y="159.193" width="10.6563" height="1" transform="rotate(-66.6887 438.137 159.193)" fill="#2A2A2B"/>
<rect x="442.137" y="159.193" width="10.6563" height="1" transform="rotate(-66.6887 442.137 159.193)" fill="#2A2A2B"/>
<rect x="446.137" y="159.193" width="10.6563" height="1" transform="rotate(-66.6887 446.137 159.193)" fill="#2A2A2B"/>
<rect x="275" y="288.997" width="12" height="1" fill="#2A2A2B"/>
<rect x="275" y="292.997" width="12" height="1" fill="#2A2A2B"/>
<rect x="275" y="296.997" width="12" height="1" fill="#2A2A2B"/>
<path d="M291 293.497H325" stroke="#2A2A2B" stroke-dasharray="2 2"/>
<rect x="329" y="298.193" width="10.6563" height="1" transform="rotate(-66.6887 329 298.193)" fill="#2A2A2B"/>
<rect x="333" y="298.193" width="10.6563" height="1" transform="rotate(-66.6887 333 298.193)" fill="#2A2A2B"/>
<rect x="337" y="298.193" width="10.6563" height="1" transform="rotate(-66.6887 337 298.193)" fill="#2A2A2B"/>
<path d="M346.137 293.497H380.137" stroke="#2A2A2B" stroke-dasharray="2 2"/>
<rect x="384.137" y="288.997" width="12" height="1" fill="#2A2A2B"/>
<rect x="384.137" y="292.997" width="12" height="1" fill="#2A2A2B"/>
<rect x="384.137" y="296.997" width="12" height="1" fill="#2A2A2B"/>
<path d="M400.137 293.497H434.137" stroke="#2A2A2B" stroke-dasharray="2 2"/>
<rect x="438.137" y="298.193" width="10.6563" height="1" transform="rotate(-66.6887 438.137 298.193)" fill="#2A2A2B"/>
<rect x="442.137" y="298.193" width="10.6563" height="1" transform="rotate(-66.6887 442.137 298.193)" fill="#2A2A2B"/>
<rect x="446.137" y="298.193" width="10.6563" height="1" transform="rotate(-66.6887 446.137 298.193)" fill="#2A2A2B"/>
</svg>
