<svg width="227" height="48" viewBox="0 0 227 48" fill="none" xmlns="http://www.w3.org/2000/svg">
<path fill-rule="evenodd" clip-rule="evenodd" d="M78.069 30.9024L75.8033 28.5968C74.9429 29.4036 74.0729 30.0428 73.1929 30.5136C72.3137 30.984 71.262 31.2192 70.0382 31.2192C69.0822 31.2192 68.1979 31.0322 67.3852 30.6574C66.5727 30.2826 65.8699 29.769 65.2771 29.1154C64.6842 28.4622 64.2258 27.6986 63.9004 26.8246C63.5751 25.9506 63.4131 25.0136 63.4131 24.0152C63.4131 23.016 63.5751 22.084 63.9004 21.2192C64.2258 20.355 64.6842 19.601 65.2771 18.9572C65.8699 18.3137 66.5727 17.8048 67.3852 17.43C68.1979 17.0556 69.0822 16.8681 70.0382 16.8681C71.1853 16.8681 72.2084 17.0987 73.1071 17.5598C74.006 18.0205 74.8569 18.6259 75.6594 19.3751L77.9255 16.753C77.4476 16.2919 76.9411 15.8693 76.4054 15.4848C75.8704 15.1006 75.2872 14.769 74.656 14.4906C74.0249 14.2118 73.3318 13.9961 72.5764 13.8425C71.8211 13.6885 70.9845 13.6115 70.0669 13.6115C68.5373 13.6115 67.1416 13.8856 65.8796 14.4331C64.6173 14.9805 63.5275 15.7297 62.6098 16.6807C61.6918 17.6318 60.9798 18.741 60.4728 20.0092C59.9659 21.2772 59.7129 22.6318 59.7129 24.0726C59.7129 25.5326 59.9711 26.8966 60.4872 28.1648C61.0035 29.4324 61.7159 30.5322 62.6241 31.4642C63.5323 32.3958 64.6076 33.1306 65.8506 33.6688C67.0936 34.2068 68.4515 34.4756 69.9234 34.4756C70.8607 34.4756 71.7162 34.3938 72.4907 34.2306C73.2649 34.0672 73.9773 33.8274 74.6274 33.5106C75.2775 33.1932 75.8847 32.8184 76.4488 32.3864C77.0127 31.9542 77.5529 31.4592 78.069 30.9024Z" fill="white"/>
<path fill-rule="evenodd" clip-rule="evenodd" d="M123.58 19.3237C123.58 18.6526 123.865 18.0824 124.436 17.613C125.006 17.1429 125.805 16.9082 126.832 16.9082C127.745 16.9082 128.648 17.0858 129.542 17.4404C130.436 17.7949 131.339 18.3078 132.252 18.9785L134.134 16.3046C133.108 15.4803 132.01 14.8526 130.84 14.4216C129.67 13.9903 128.353 13.7746 126.889 13.7746C125.9 13.7746 124.987 13.9135 124.155 14.1916C123.319 14.4694 122.606 14.867 122.011 15.3845C121.417 15.9023 120.951 16.5203 120.609 17.2391C120.271 17.9579 120.1 18.7581 120.1 19.6399C120.1 20.579 120.247 21.3746 120.542 22.0264C120.837 22.678 121.27 23.2338 121.831 23.694C122.391 24.154 123.09 24.5372 123.917 24.8442C124.749 25.151 125.696 25.4284 126.765 25.6778C127.697 25.9078 128.453 26.1282 129.038 26.3388C129.618 26.5498 130.074 26.7752 130.412 27.0144C130.744 27.2542 130.973 27.5176 131.097 27.805C131.22 28.0928 131.282 28.4184 131.282 28.7826C131.282 29.5688 130.963 30.1918 130.326 30.6516C129.689 31.112 128.829 31.3416 127.745 31.3416C126.49 31.3416 125.367 31.1162 124.379 30.666C123.39 30.2156 122.411 29.5688 121.44 28.7252L119.33 31.2556C120.528 32.348 121.831 33.1578 123.238 33.685C124.645 34.2122 126.119 34.4756 127.659 34.4756C128.705 34.4756 129.666 34.3414 130.54 34.0734C131.41 33.8046 132.161 33.4116 132.78 32.894C133.402 32.3766 133.887 31.7444 134.239 30.9968C134.586 30.2494 134.762 29.3962 134.762 28.4378C134.762 27.5944 134.624 26.8612 134.348 26.2382C134.072 25.6152 133.664 25.0694 133.131 24.5994C132.599 24.13 131.924 23.732 131.115 23.4062C130.308 23.0806 129.375 22.7836 128.329 22.515C127.374 22.285 126.589 22.0644 125.967 21.8536C125.349 21.643 124.864 21.413 124.507 21.1636C124.155 20.9146 123.913 20.6462 123.779 20.3586C123.647 20.0708 123.58 19.726 123.58 19.3237Z" fill="white"/>
<path fill-rule="evenodd" clip-rule="evenodd" d="M162.628 19.6084V33.9866H166.114V13.9375H162.371L156.286 23.418L150.2 13.9375H146.458V33.9866H149.943V19.6656L156.2 29.0602H156.314L162.628 19.6084Z" fill="white"/>
<path fill-rule="evenodd" clip-rule="evenodd" d="M195.397 24.0726C195.397 25.0524 195.23 25.9794 194.896 26.8538C194.562 27.7278 194.1 28.4864 193.507 29.1298C192.916 29.7734 192.205 30.2826 191.375 30.6574C190.545 31.0322 189.634 31.2194 188.641 31.2194C187.649 31.2194 186.732 31.0272 185.893 30.643C185.053 30.2586 184.332 29.74 183.731 29.0872C183.13 28.4336 182.663 27.67 182.328 26.7958C181.995 25.9218 181.827 24.9946 181.827 24.0152C181.827 23.035 181.995 22.108 182.328 21.234C182.663 20.3596 183.125 19.601 183.717 18.9572C184.309 18.3137 185.02 17.8048 185.85 17.43C186.68 17.0556 187.591 16.8681 188.584 16.8681C189.576 16.8681 190.493 17.0602 191.332 17.4447C192.171 17.8289 192.892 18.3475 193.493 19.0007C194.095 19.6535 194.562 20.4176 194.896 21.2916C195.23 22.1656 195.397 23.093 195.397 24.0726ZM199.091 24.0152C199.091 22.5932 198.832 21.2484 198.317 19.9801C197.802 18.7126 197.086 17.6077 196.17 16.6664C195.254 15.7247 194.157 14.9805 192.877 14.4331C191.599 13.8856 190.187 13.6115 188.641 13.6115C187.095 13.6115 185.683 13.8903 184.404 14.4475C183.125 15.0046 182.018 15.7585 181.083 16.7095C180.148 17.6605 179.423 18.7702 178.907 20.038C178.392 21.306 178.135 22.6508 178.135 24.0726C178.135 25.4942 178.392 26.8386 178.907 28.107C179.423 29.3752 180.138 30.4798 181.055 31.421C181.97 32.3624 183.068 33.107 184.347 33.6544C185.625 34.2018 187.038 34.4756 188.584 34.4756C190.13 34.4756 191.542 34.1968 192.82 33.64C194.1 33.0828 195.206 32.329 196.142 31.3776C197.077 30.427 197.802 29.3172 198.317 28.0494C198.832 26.7814 199.091 25.4366 199.091 24.0152Z" fill="white"/>
<path fill-rule="evenodd" clip-rule="evenodd" d="M213.736 19.3237C213.736 18.6526 214.021 18.0824 214.592 17.613C215.164 17.1429 215.962 16.9082 216.989 16.9082C217.9 16.9082 218.804 17.0858 219.698 17.4404C220.591 17.7949 221.495 18.3078 222.409 18.9785L224.292 16.3046C223.265 15.4803 222.166 14.8526 220.995 14.4216C219.827 13.9903 218.509 13.7746 217.046 13.7746C216.057 13.7746 215.144 13.9135 214.312 14.1916C213.476 14.4694 212.763 14.867 212.168 15.3845C211.573 15.9023 211.107 16.5203 210.765 17.2391C210.428 17.9579 210.257 18.7581 210.257 19.6399C210.257 20.579 210.404 21.3746 210.699 22.0264C210.994 22.678 211.426 23.2338 211.987 23.694C212.548 24.154 213.247 24.5372 214.075 24.8442C214.907 25.151 215.852 25.4284 216.923 25.6778C217.855 25.9078 218.609 26.1282 219.194 26.3388C219.773 26.5498 220.231 26.7752 220.57 27.0144C220.902 27.2542 221.129 27.5176 221.254 27.805C221.378 28.0928 221.439 28.4184 221.439 28.7826C221.439 29.5688 221.119 30.1918 220.484 30.6516C219.845 31.112 218.985 31.3416 217.9 31.3416C216.646 31.3416 215.524 31.1162 214.537 30.666C213.547 30.2156 212.568 29.5688 211.597 28.7252L209.487 31.2556C210.685 32.348 211.987 33.1578 213.394 33.685C214.801 34.2122 216.274 34.4756 217.815 34.4756C218.862 34.4756 219.821 34.3414 220.697 34.0734C221.567 33.8046 222.319 33.4116 222.936 32.894C223.559 32.3766 224.045 31.7444 224.395 30.9968C224.743 30.2494 224.919 29.3962 224.919 28.4378C224.919 27.5944 224.781 26.8612 224.505 26.2382C224.23 25.6152 223.82 25.0694 223.288 24.5994C222.755 24.13 222.08 23.732 221.272 23.4062C220.464 23.0806 219.533 22.7836 218.486 22.515C217.53 22.285 216.746 22.0644 216.123 21.8536C215.506 21.643 215.02 21.413 214.664 21.1636C214.312 20.9146 214.069 20.6462 213.935 20.3586C213.804 20.0708 213.736 19.726 213.736 19.3237Z" fill="white"/>
<path fill-rule="evenodd" clip-rule="evenodd" d="M101.978 17.9511L92.428 27.5342C92.305 27.2944 92.1937 27.0446 92.0942 26.7854C91.7606 25.9148 91.594 24.991 91.594 24.0152C91.594 23.0388 91.7606 22.1154 92.0942 21.2446C92.428 20.3734 92.8906 19.6178 93.4819 18.9764C94.0733 18.3353 94.7839 17.8283 95.6135 17.4549C96.4435 17.0819 97.3539 16.8952 98.3457 16.8952C99.3378 16.8952 100.253 17.0866 101.092 17.4696C101.404 17.6118 101.699 17.7722 101.978 17.9511ZM101.135 30.6324C100.306 31.0058 99.3949 31.1922 98.4033 31.1922C97.4112 31.1922 96.4954 31.0008 95.6563 30.6182C95.3448 30.4756 95.0496 30.3152 94.7711 30.136L104.321 20.5536C104.444 20.793 104.555 21.0424 104.655 21.302C104.988 22.1726 105.155 23.0964 105.155 24.0726C105.155 25.0486 104.988 25.972 104.655 26.8432C104.321 27.7138 103.858 28.4696 103.267 29.1106C102.676 29.7516 101.965 30.259 101.135 30.6324ZM102.58 33.6038C103.858 33.0488 104.965 32.2976 105.899 31.3498C106.834 30.4028 107.558 29.2974 108.073 28.0342C108.589 26.7712 108.846 25.4314 108.846 24.0152C108.846 22.5988 108.589 21.259 108.073 19.9955C107.768 19.2464 107.392 18.5546 106.946 17.9198L113.157 11.6872L110.689 9.21054L104.459 15.4621C103.899 15.0795 103.292 14.7487 102.637 14.4694C101.359 13.924 99.948 13.651 98.4033 13.651C96.8579 13.651 95.4467 13.9287 94.1686 14.4837C92.8906 15.0388 91.7843 15.7898 90.8496 16.7372C89.9151 17.6847 89.1902 18.7901 88.6752 20.0532C88.1603 21.3164 87.9028 22.6562 87.9028 24.0726C87.9028 25.4888 88.1603 26.8282 88.6752 28.0916C88.981 28.841 89.357 29.5328 89.8032 30.1682L83.5923 36.4L86.0604 38.8766L92.2903 32.6254C92.8496 33.008 93.4569 33.3388 94.1115 33.618C95.3896 34.1634 96.8008 34.4362 98.3457 34.4362C99.8909 34.4362 101.302 34.1584 102.58 33.6038Z" fill="white"/>
<path fill-rule="evenodd" clip-rule="evenodd" d="M24.2595 4.14328C24.0701 3.96816 23.9723 3.96484 23.956 3.96484C23.9395 3.96484 23.8418 3.96816 23.6525 4.14328C23.458 4.32302 23.2257 4.63318 22.9753 5.11172C22.4755 6.0669 21.9972 7.51064 21.585 9.37358C21.1214 11.4685 20.755 14.0291 20.5239 16.8955C21.6401 17.4382 22.788 18.0281 23.9556 18.6617C25.1234 18.028 26.2715 17.438 27.3879 16.8952C27.1568 14.0289 26.7904 11.4684 26.3268 9.37358C25.9146 7.51064 25.4363 6.0669 24.9365 5.11172C24.6863 4.63318 24.4538 4.32302 24.2595 4.14328ZM22.9787 19.1994C22.1212 18.7415 21.2765 18.3085 20.4493 17.9016C20.3866 18.8244 20.3378 19.7755 20.3038 20.7502C20.7413 20.487 21.1851 20.2246 21.635 19.9639C22.0848 19.7031 22.533 19.4482 22.9787 19.1994ZM19.6234 16.4646C20.2932 8.60458 21.9805 3.02734 23.956 3.02734C25.9313 3.02734 27.6184 8.60444 28.2884 16.4644C35.4018 13.1171 41.055 11.7959 42.0428 13.5138C43.0305 15.2317 39.0644 19.4875 32.6207 24C39.0644 28.5126 43.0305 32.7682 42.0428 34.4862C41.055 36.2042 35.4018 34.883 28.2884 31.5356C27.6184 39.3956 25.9313 44.9726 23.956 44.9726C21.9805 44.9726 20.2932 39.3954 19.6234 31.5354C12.5098 34.8828 6.8562 36.2042 5.86845 34.4862C4.88074 32.7682 8.84693 28.5126 15.2905 24C8.84693 19.4875 4.88074 15.2317 5.86845 13.5138C6.8562 11.7958 12.5098 13.1172 19.6234 16.4646ZM16.1127 23.432C13.756 21.7978 11.7307 20.1988 10.1556 18.748C8.75509 17.458 7.74911 16.3202 7.17521 15.408C6.88767 14.9509 6.73642 14.5938 6.67861 14.335C6.62232 14.0829 6.66832 13.9967 6.67632 13.9828C6.68439 13.9688 6.736 13.8854 6.98182 13.8082C7.23416 13.729 7.61798 13.682 8.15597 13.7036C9.22977 13.7465 10.7142 14.0525 12.527 14.6254C14.5656 15.2698 16.9571 16.2315 19.5447 17.4637C19.4546 18.7056 19.3895 19.9986 19.3521 21.3306C18.2218 22.0294 17.1389 22.7326 16.1127 23.432ZM16.1127 24.568C13.756 26.2022 11.7307 27.8012 10.1556 29.252C8.75509 30.542 7.74911 31.6798 7.17521 32.592C6.88767 33.049 6.73642 33.4062 6.67861 33.665C6.62232 33.917 6.66834 34.0034 6.67632 34.0172C6.68435 34.0312 6.73592 34.1146 6.98182 34.1918C7.23416 34.271 7.61796 34.318 8.15597 34.2964C9.22977 34.2534 10.7142 33.9476 12.527 33.3746C14.5656 32.7302 16.9571 31.7686 19.5447 30.5364C19.4546 29.2944 19.3895 28.0014 19.3521 26.6694C18.2218 25.9706 17.1389 25.2674 16.1127 24.568ZM19.3273 25.551C18.5036 25.0342 17.7076 24.516 16.943 24C17.7076 23.484 18.5036 22.9658 19.3273 22.449C19.3191 22.961 19.3148 23.4784 19.3148 24C19.3148 24.5216 19.3191 25.039 19.3273 25.551ZM20.2719 26.1356C20.256 25.434 20.2478 24.7216 20.2478 24C20.2478 23.2786 20.256 22.566 20.2719 21.8644C20.869 21.4998 21.4793 21.1366 22.1013 20.7758C22.7237 20.415 23.3424 20.0658 23.9556 19.7287C24.5689 20.0658 25.1875 20.415 25.8099 20.7758C26.4323 21.1366 27.0428 21.5 27.6399 21.8648C27.6558 22.5662 27.664 23.2786 27.664 24C27.664 24.7214 27.6558 25.4338 27.6399 26.1352C27.0428 26.5 26.4323 26.8634 25.8099 27.2242C25.1875 27.585 24.5689 27.9342 23.9556 28.2714C23.3424 27.9342 22.7237 27.585 22.1013 27.2242C21.4793 26.8634 20.869 26.5002 20.2719 26.1356ZM20.3038 27.2498C20.3378 28.2244 20.3866 29.1756 20.4493 30.0984C21.2765 29.6916 22.1212 29.2584 22.9787 28.8006C22.533 28.5518 22.0848 28.297 21.635 28.0362C21.1851 27.7754 20.7413 27.513 20.3038 27.2498ZM23.9556 29.3384C22.788 29.9718 21.6401 30.5618 20.5239 31.1046C20.755 33.971 21.1214 36.5316 21.585 38.6264C21.9972 40.4894 22.4755 41.9332 22.9753 42.8884C23.2257 43.3668 23.458 43.677 23.6525 43.8568C23.8418 44.0318 23.9395 44.0352 23.956 44.0352C23.9723 44.0352 24.0701 44.0318 24.2595 43.8568C24.4538 43.677 24.6863 43.3668 24.9365 42.8884C25.4363 41.9332 25.9146 40.4894 26.3268 38.6264C26.7904 36.5316 27.1568 33.971 27.3879 31.1048C26.2715 30.562 25.1234 29.972 23.9556 29.3384ZM28.3672 30.5366C30.9546 31.7686 33.3459 32.7302 35.3843 33.3746C37.1971 33.9476 38.6814 34.2534 39.7552 34.2964C40.2933 34.318 40.677 34.271 40.9294 34.1918C41.1754 34.1146 41.227 34.0312 41.2349 34.0172C41.2429 34.0034 41.2889 33.9172 41.2325 33.665C41.1748 33.4062 41.0235 33.049 40.7361 32.592C40.1621 31.6798 39.1561 30.542 37.7557 29.252C36.1806 27.8012 34.1552 26.2022 31.7985 24.568C30.7724 25.2672 29.6898 25.9704 28.5597 26.669C28.5222 28.0012 28.4572 29.2944 28.3672 30.5366ZM31.7985 23.432C34.1552 21.7978 36.1806 20.1988 37.7557 18.748C39.1561 17.458 40.1621 16.3202 40.7361 15.408C41.0235 14.9509 41.1748 14.5938 41.2325 14.335C41.2889 14.0829 41.2429 13.9966 41.2349 13.9827C41.227 13.9688 41.1754 13.8854 40.9294 13.8082C40.677 13.729 40.2933 13.682 39.7552 13.7036C38.6814 13.7465 37.1971 14.0525 35.3843 14.6254C33.3459 15.2697 30.9546 16.2313 28.3672 17.4634C28.4572 18.7055 28.5222 19.9987 28.5597 21.331C29.6898 22.0296 30.7724 22.7328 31.7985 23.432ZM28.5845 22.4494C29.408 22.966 30.2038 23.4842 30.9683 24C30.2038 24.5158 29.408 25.034 28.5845 25.5506C28.5927 25.0386 28.5971 24.5216 28.5971 24C28.5971 23.4784 28.5927 22.9614 28.5845 22.4494ZM27.608 20.7506C27.5742 19.7757 27.5252 18.8243 27.4625 17.9013C26.6351 18.3083 25.7902 18.7414 24.9325 19.1994C25.3784 19.4482 25.8264 19.7031 26.2762 19.9639C26.7263 20.2248 27.1703 20.4872 27.608 20.7506ZM27.4625 30.0988C26.6351 29.6918 25.7902 29.2586 24.9325 28.8006C25.3784 28.5518 25.8264 28.297 26.2762 28.0362C26.7263 27.7752 27.1703 27.5128 27.608 27.2494C27.5742 28.2244 27.5252 29.1758 27.4625 30.0988Z" fill="white"/>
<path fill-rule="evenodd" clip-rule="evenodd" d="M10.6154 18.1267C11.426 18.1267 12.0831 18.7873 12.0831 19.6022C12.0831 20.4172 11.426 21.0778 10.6154 21.0778C9.80476 21.0778 9.14764 20.4172 9.14764 19.6022C9.14764 18.7873 9.80476 18.1267 10.6154 18.1267Z" fill="white"/>
<path fill-rule="evenodd" clip-rule="evenodd" d="M33.9422 13.0739C34.7533 13.0739 35.4107 13.7345 35.4107 14.5495C35.4107 15.3644 34.7533 16.025 33.9422 16.025C33.1311 16.025 32.4736 15.3644 32.4736 14.5495C32.4736 13.7345 33.1311 13.0739 33.9422 13.0739Z" fill="white"/>
<path fill-rule="evenodd" clip-rule="evenodd" d="M20.9984 36.2332C21.8093 36.2332 22.4668 36.8934 22.4668 37.708C22.4668 38.5224 21.8093 39.1828 20.9984 39.1828C20.1873 39.1828 19.5299 38.5224 19.5299 37.708C19.5299 36.8934 20.1873 36.2332 20.9984 36.2332Z" fill="white"/>
<path fill-rule="evenodd" clip-rule="evenodd" d="M23.8742 21.491C25.2474 21.491 26.3605 22.6094 26.3605 23.989C26.3605 25.3688 25.2474 26.4872 23.8742 26.4872C22.5012 26.4872 21.3882 25.3688 21.3882 23.989C21.3882 22.6094 22.5012 21.491 23.8742 21.491Z" fill="white"/>
</svg>
