<svg width="192" height="158" viewBox="0 0 192 158" fill="none" xmlns="http://www.w3.org/2000/svg">
<g clip-path="url(#clip0_118_8783)">
<mask id="mask0_118_8783" style="mask-type:alpha" maskUnits="userSpaceOnUse" x="0" y="0" width="192" height="158">
<rect width="192" height="158" fill="url(#paint0_linear_118_8783)"/>
</mask>
<g mask="url(#mask0_118_8783)">
<path d="M96.4873 213.225C59.3756 195.059 35.4672 156.764 35.4672 115.293V66.7163L96.4873 37.7711L157.507 66.7266V115.304C157.507 156.761 133.599 195.056 96.4873 213.222V213.225Z" fill="url(#paint1_linear_118_8783)"/>
<path fill-rule="evenodd" clip-rule="evenodd" d="M152.444 163.296C154.942 157.882 157.013 152.279 158.637 146.54L159.995 141.233C161.968 132.731 162.963 124.03 162.962 115.301V64.9912C162.961 63.9333 162.353 62.9693 161.398 62.5154L97.6566 32.2632C96.9163 31.9123 96.0576 31.9123 95.3173 32.2632L31.5626 62.5154C30.6089 62.9693 30.0013 63.9333 30 64.9912V115.291C29.9974 124.021 30.9927 132.721 32.9652 141.223L34.3355 146.523C35.9593 152.262 38.0307 157.865 40.5288 163.28L42.9798 168.287C44.437 171.083 46.0152 173.823 47.7158 176.509C49.8223 179.841 52.0978 183.061 54.5323 186.158L58.1793 190.581C68.4957 202.428 81.1371 212.013 95.3176 218.737C96.058 219.088 96.9166 219.088 97.657 218.737C111.836 212.012 124.478 202.428 134.795 190.581L138.457 186.158C140.892 183.061 143.167 179.841 145.273 176.509C146.968 173.826 148.541 171.085 149.995 168.287L152.444 163.296ZM35.4672 115.293C35.4672 156.764 59.3756 195.059 96.4873 213.225V213.222C133.599 195.056 157.507 156.761 157.507 115.304V66.7266L96.4873 37.7711L35.4672 66.7163V115.293Z" fill="url(#paint2_linear_118_8783)"/>
<path d="M151.309 66.8909L97.7553 41.5323C96.9492 41.1481 96.0142 41.1481 95.2081 41.5323L41.6546 66.8996C40.6161 67.3916 39.9545 68.438 39.9531 69.5878V114.21C39.956 133.421 45.056 152.287 54.7295 168.882C64.4044 185.477 78.3067 199.204 95.0161 208.661C95.9242 209.175 97.0349 209.175 97.943 208.661C114.658 199.202 128.563 185.469 138.237 168.871C147.912 152.271 153.008 133.398 153.006 114.18V69.5805C153.005 68.4307 152.343 67.3843 151.305 66.8924L151.309 66.8909Z" fill="url(#paint3_linear_118_8783)"/>
</g>
</g>
<defs>
<linearGradient id="paint0_linear_118_8783" x1="96" y1="0" x2="96" y2="158" gradientUnits="userSpaceOnUse">
<stop stop-color="#2E7579"/>
<stop offset="0.848958" stop-color="#2E7579" stop-opacity="0"/>
</linearGradient>
<linearGradient id="paint1_linear_118_8783" x1="96.481" y1="32" x2="96.481" y2="219" gradientUnits="userSpaceOnUse">
<stop stop-color="#6CE9F0"/>
<stop offset="1" stop-color="#66C5CA" stop-opacity="0"/>
</linearGradient>
<linearGradient id="paint2_linear_118_8783" x1="96.481" y1="32" x2="96.481" y2="219" gradientUnits="userSpaceOnUse">
<stop stop-color="#6CE9F0"/>
<stop offset="1" stop-color="#66C5CA" stop-opacity="0"/>
</linearGradient>
<linearGradient id="paint3_linear_118_8783" x1="96.4797" y1="41.2441" x2="96.4797" y2="209.046" gradientUnits="userSpaceOnUse">
<stop stop-color="#47B4BA"/>
<stop offset="1" stop-color="#346A6D"/>
</linearGradient>
<clipPath id="clip0_118_8783">
<rect width="192" height="158" fill="white"/>
</clipPath>
</defs>
</svg>
