<svg width="66" height="310" viewBox="0 0 66 310" fill="none" xmlns="http://www.w3.org/2000/svg">
<g clip-path="url(#clip0_124_43213)">
<path d="M3.85156 146.708V11.7363L44.8732 35.2097V166.27L3.85156 146.708Z" fill="#0E0E0E"/>
<path d="M2.8125 142.797C4.11478 140.189 8.67274 134.973 16.4864 134.973C24.3 134.973 32.1137 136.929 43.8342 162.358V307.111L4.76591 285.594L2.8125 142.797Z" fill="#0E0E0E"/>
<path d="M64.4074 138.885L44.8732 158.446L42.9198 35.2104L3.85156 11.737L23.5742 0.787109L63.6456 25.178L64.4074 138.885Z" fill="#0E0E0E"/>
<path d="M44.875 158.446C58.9396 158.446 63.758 144.101 64.4091 134.973L44.875 146.709V158.446Z" fill="#0E0E0E"/>
<path fill-rule="evenodd" clip-rule="evenodd" d="M57.9502 150.322C60.5357 146.367 61.6034 141.259 61.9212 136.803L64.7426 137.005C64.4093 141.677 63.2809 147.34 60.3168 151.874C57.2965 156.494 52.4124 159.862 44.875 159.862V157.029C51.4022 157.029 55.421 154.191 57.9502 150.322Z" fill="#D2D2D2"/>
<path fill-rule="evenodd" clip-rule="evenodd" d="M37.5047 33.4042L3.73438 14.0802L5.29367 11.3477L39.064 30.6717C42.9809 32.913 45.3982 37.0843 45.3982 41.6019V160.018H42.2554V41.6019C42.2554 38.2137 40.4424 35.0852 37.5047 33.4042Z" fill="#D2D2D2"/>
<path fill-rule="evenodd" clip-rule="evenodd" d="M18.4627 0.682808C20.8508 -0.752046 23.8265 -0.78374 26.2446 0.599918L60.9031 20.4322C63.3022 21.805 64.7828 24.3599 64.7828 27.1269V291.811C64.7828 294.519 63.3637 297.029 61.0444 298.422L44.562 308.326C44.1393 308.58 43.6149 308.595 43.1782 308.366L5.52558 288.616C2.9883 287.285 1.39844 284.654 1.39844 281.785V15.3012C1.39844 12.5928 2.81754 10.0829 5.13682 8.68942L18.4627 0.682808ZM24.8412 3.05921C23.3114 2.18383 21.4288 2.20388 19.918 3.11165L6.5921 11.1183C5.1248 11.9999 4.22701 13.5877 4.22701 15.3012V281.785C4.22701 283.6 5.23284 285.265 6.83806 286.107L42.4201 304.771V159.722H45.2487V304.61L59.5891 295.994C61.0564 295.112 61.9542 293.524 61.9542 291.811V27.1269C61.9542 25.3763 61.0175 23.76 59.4997 22.8915L24.8412 3.05921Z" fill="#D2D2D2"/>
<path fill-rule="evenodd" clip-rule="evenodd" d="M16.4857 136.389C9.34751 136.389 5.20915 141.163 4.07683 143.431L1.54688 142.164C3.0191 139.215 7.99667 133.557 16.4857 133.557C20.5766 133.557 24.8569 134.084 29.6 138.042C34.2403 141.914 39.2309 148.993 45.1176 161.765L42.5494 162.952C36.7157 150.295 31.9392 143.681 27.7892 140.218C23.7418 136.84 20.2086 136.389 16.4857 136.389Z" fill="#D2D2D2"/>
<g clip-path="url(#clip1_124_43213)">
<path fill-rule="evenodd" clip-rule="evenodd" d="M11.8367 51.087C12.9495 57.2384 18.7464 63.5125 24.7845 65.1006C30.8224 66.6888 34.8153 62.9896 33.7024 56.8382C32.5895 50.6868 26.7927 44.4127 20.7546 42.8246C14.7166 41.2364 10.7239 44.9356 11.8367 51.087ZM8.493 50.2075C9.94616 58.2402 17.516 66.4333 25.4007 68.5071C33.2855 70.581 38.4993 65.7505 37.0461 57.7177C35.593 49.685 28.0231 41.4919 20.1384 39.4181C12.2537 37.3442 7.03984 42.1748 8.493 50.2075Z" fill="#D2D2D2"/>
</g>
<g clip-path="url(#clip2_124_43213)">
<path fill-rule="evenodd" clip-rule="evenodd" d="M12.1056 156.788C13.1912 162.789 18.8462 168.909 24.7365 170.459C30.6268 172.008 34.5217 168.399 33.4362 162.398C32.3507 156.398 26.6956 150.277 20.8053 148.728C14.915 147.178 11.02 150.787 12.1056 156.788ZM8.76188 155.908C10.1878 163.791 17.6158 171.83 25.3528 173.865C33.0897 175.9 38.2058 171.16 36.7799 163.278C35.354 155.396 27.926 147.356 20.189 145.321C12.4521 143.286 7.33595 148.026 8.76188 155.908Z" fill="#D2D2D2"/>
</g>
<g clip-path="url(#clip3_124_43213)">
<path d="M11.7435 257.507L11.744 264.499L20.9389 269.815L20.9388 268.265L13.0836 263.723L13.0832 258.281L11.7435 257.507ZM34.849 270.865L34.8493 276.307L26.9942 271.766L26.9944 273.316L36.1891 278.632L36.1887 271.64L34.849 270.865ZM20.9509 252.189L20.9517 262.83L26.9938 266.323V264.925L22.2914 262.206L22.2907 252.964L20.9509 252.189ZM11.7422 239.873L11.7427 246.866L13.0824 247.64L13.082 242.198L20.9372 246.739L20.9371 245.189L11.7422 239.873ZM26.9925 248.69L26.9927 250.24L34.8478 254.782L34.8482 260.224L36.1879 260.999L36.1874 254.006L26.9925 248.69Z" fill="#D2D2D2"/>
</g>
</g>
<defs>
<clipPath id="clip0_124_43213">
<rect width="66" height="310" fill="white"/>
</clipPath>
<clipPath id="clip1_124_43213">
<rect width="29.8571" height="31.4721" fill="white" transform="translate(7.85938 37.7656)"/>
</clipPath>
<clipPath id="clip2_124_43213">
<rect width="29.8571" height="29.8985" fill="white" transform="translate(7.85938 144.771)"/>
</clipPath>
<clipPath id="clip3_124_43213">
<rect width="26.7143" height="40.9137" fill="white" transform="translate(11 239.188)"/>
</clipPath>
</defs>
</svg>
