<svg width="224" height="152" viewBox="0 0 224 152" fill="none" xmlns="http://www.w3.org/2000/svg">
<path d="M177.444 83.5617C178.294 73.8993 169.288 71.0792 165.718 71.0792C151.867 71.0747 138.005 71.0792 124.154 71.0679C126.148 66.7255 128.579 55.2163 125.52 39.358C124.311 33.0872 120.612 28.9173 115.899 29.0012C112.107 29.067 108.48 31.9937 108.099 35.6463C107.684 39.662 106.697 45.3746 105.765 49.2859C102.781 61.782 86.8206 78.2779 76.7302 84.0336V145.076C83.5773 148.944 91.0005 150.301 98.9295 150.149C111.456 149.908 147.236 150.117 153.72 150.076C158.308 150.044 162.885 147.855 165.088 142.313C168.095 134.749 160.343 130.967 160.343 130.967C160.343 130.967 168.83 131.386 170.767 123.77C172.756 115.957 164.951 112.862 164.951 112.862C170.231 112.286 173.611 110.911 174.888 106.151C176.394 100.543 172.787 96.3346 167.079 93.898C167.941 93.8164 176.659 92.4075 177.444 83.5617ZM67.9416 74.3348H51.8024C49.4255 74.3348 47.5 76.2633 47.5 78.6386V147.696C47.5 150.076 49.4278 152 51.8024 152H67.9416C70.3185 152 72.244 150.074 72.244 147.696V78.6386C72.244 76.2633 70.3208 74.3348 67.9416 74.3348Z" fill="url(#paint0_linear_118_13259)"/>
<path d="M203.481 29.1872C203.769 25.9664 200.721 25.0264 199.512 25.0264C194.824 25.0249 190.133 25.0264 185.445 25.0226C186.119 23.5752 186.942 19.7388 185.907 14.4527C185.498 12.3624 184.246 10.9724 182.65 11.0004C181.367 11.0223 180.139 11.9979 180.01 13.2154C179.87 14.554 179.536 16.4582 179.221 17.762C178.21 21.9273 172.809 27.426 169.393 29.3445V49.692C171.711 50.9813 174.223 51.4336 176.907 51.3829C181.147 51.3027 193.257 51.3723 195.451 51.3587C197.004 51.3481 198.553 50.6183 199.299 48.7709C200.317 46.2495 197.693 44.9889 197.693 44.9889C197.693 44.9889 200.565 45.1288 201.221 42.5901C201.894 39.9856 199.253 38.9541 199.253 38.9541C201.04 38.762 202.184 38.3037 202.616 36.7171C203.126 34.8477 201.905 33.4449 199.973 32.6327C200.265 32.6055 203.215 32.1358 203.481 29.1872ZM166.419 26.1116H160.956C160.152 26.1116 159.5 26.7544 159.5 27.5462V50.5654C159.5 51.3587 160.152 52 160.956 52H166.419C167.223 52 167.875 51.3579 167.875 50.5654V27.5462C167.875 26.7544 167.224 26.1116 166.419 26.1116Z" fill="url(#paint1_linear_118_13259)"/>
<path d="M223.485 72.0538C223.708 69.565 221.352 68.8386 220.419 68.8386C216.796 68.8374 213.171 68.8386 209.548 68.8357C210.069 67.7172 210.705 64.7527 209.905 60.668C209.589 59.0528 208.622 57.9787 207.389 58.0003C206.397 58.0173 205.449 58.7711 205.349 59.7119C205.24 60.7463 204.982 62.2177 204.739 63.2252C203.958 66.4438 199.784 70.6928 197.145 72.1753V87.8983C198.936 88.8947 200.877 89.2441 202.951 89.205C206.227 89.143 215.585 89.1968 217.281 89.1863C218.481 89.1781 219.678 88.6142 220.254 87.1866C221.04 85.2383 219.013 84.2641 219.013 84.2641C219.013 84.2641 221.232 84.3723 221.739 82.4105C222.259 80.398 220.218 79.6009 220.218 79.6009C221.599 79.4525 222.483 79.0983 222.817 77.8723C223.211 76.4278 222.267 75.3438 220.774 74.7162C221 74.6951 223.28 74.3322 223.485 72.0538ZM194.846 69.6772H190.625C190.004 69.6772 189.5 70.1739 189.5 70.7857V88.5733C189.5 89.1863 190.004 89.6818 190.625 89.6818H194.846C195.468 89.6818 195.972 89.1857 195.972 88.5733V70.7857C195.972 70.1739 195.469 69.6772 194.846 69.6772Z" fill="url(#paint2_linear_118_13259)"/>
<path d="M53.4853 47.0538C53.7077 44.565 51.3522 43.8386 50.4186 43.8386C46.796 43.8374 43.1706 43.8386 39.5481 43.8357C40.0695 42.7172 40.7053 39.7527 39.9052 35.668C39.589 34.0528 38.6215 32.9787 37.3889 33.0003C36.3971 33.0173 35.4486 33.7711 35.349 34.7119C35.2404 35.7463 34.9824 37.2177 34.7386 38.2252C33.958 41.4438 29.7838 45.6928 27.1448 47.1753V62.8983C28.9356 63.8947 30.8771 64.2441 32.9508 64.205C36.2269 64.143 45.5848 64.1968 47.2807 64.1863C48.4807 64.1781 49.6777 63.6142 50.2537 62.1866C51.0402 60.2383 49.0127 59.2641 49.0127 59.2641C49.0127 59.2641 51.2324 59.3723 51.739 57.4105C52.2592 55.398 50.2181 54.6009 50.2181 54.6009C51.599 54.4525 52.4828 54.0983 52.8168 52.8723C53.2106 51.4278 52.2675 50.3438 50.7745 49.7162C50.9999 49.6951 53.28 49.3322 53.4853 47.0538ZM24.8463 44.6772H20.6253C20.0036 44.6772 19.5 45.1739 19.5 45.7857V63.5733C19.5 64.1863 20.0042 64.6818 20.6253 64.6818H24.8463C25.4679 64.6818 25.9715 64.1857 25.9715 63.5733V45.7857C25.9715 45.1739 25.4685 44.6772 24.8463 44.6772Z" fill="url(#paint3_linear_118_13259)"/>
<path d="M24.4896 85.9203C24.6466 84.1635 22.9839 83.6508 22.3249 83.6508C19.7678 83.6499 17.2086 83.6508 14.6516 83.6487C15.0196 82.8592 15.4685 80.7666 14.9036 77.8833C14.6805 76.7431 13.9976 75.985 13.1275 76.0002C12.4274 76.0122 11.7579 76.5443 11.6875 77.2084C11.6109 77.9385 11.4288 78.9772 11.2567 79.6883C10.7056 81.9604 7.75918 84.9596 5.89634 86.0061V97.1047C7.16043 97.808 8.53087 98.0547 9.99468 98.027C12.3072 97.9833 18.9128 98.0213 20.1099 98.0138C20.9569 98.0081 21.8019 97.61 22.2085 96.6023C22.7637 95.227 21.3325 94.5394 21.3325 94.5394C21.3325 94.5394 22.8993 94.6157 23.2569 93.231C23.6241 91.8103 22.1833 91.2477 22.1833 91.2477C23.1581 91.1429 23.782 90.8929 24.0177 90.0275C24.2957 89.0078 23.63 88.2427 22.5761 87.7996C22.7352 87.7848 24.3447 87.5286 24.4896 85.9203ZM4.27384 84.2427H1.29429C0.855486 84.2427 0.5 84.5933 0.5 85.0252V97.5811C0.5 98.0138 0.855904 98.3636 1.29429 98.3636H4.27384C4.71265 98.3636 5.06813 98.0134 5.06813 97.5811V85.0252C5.06813 84.5933 4.71307 84.2427 4.27384 84.2427Z" fill="url(#paint4_linear_118_13259)"/>
<path d="M92.4896 20.9203C92.6466 19.1635 90.9839 18.6508 90.3249 18.6508C87.7678 18.6499 85.2086 18.6508 82.6516 18.6487C83.0196 17.8592 83.4685 15.7666 82.9036 12.8833C82.6805 11.7431 81.9976 10.985 81.1275 11.0002C80.4274 11.0122 79.7579 11.5443 79.6875 12.2084C79.6109 12.9385 79.4288 13.9772 79.2567 14.6883C78.7056 16.9604 75.7592 19.9596 73.8963 21.0061V32.1047C75.1604 32.808 76.5309 33.0547 77.9947 33.027C80.3072 32.9833 86.9128 33.0213 88.1099 33.0138C88.9569 33.0081 89.8019 32.61 90.2085 31.6023C90.7637 30.227 89.3325 29.5394 89.3325 29.5394C89.3325 29.5394 90.8993 29.6157 91.2569 28.231C91.6241 26.8103 90.1833 26.2477 90.1833 26.2477C91.1581 26.1429 91.782 25.8929 92.0177 25.0275C92.2957 24.0078 91.63 23.2427 90.5761 22.7996C90.7352 22.7848 92.3447 22.5286 92.4896 20.9203ZM72.2738 19.2427H69.2943C68.8555 19.2427 68.5 19.5933 68.5 20.0252V32.5811C68.5 33.0138 68.8559 33.3636 69.2943 33.3636H72.2738C72.7126 33.3636 73.0681 33.0134 73.0681 32.5811V20.0252C73.0681 19.5933 72.7131 19.2427 72.2738 19.2427Z" fill="url(#paint5_linear_118_13259)"/>
<path d="M149.491 11.6803C149.628 10.1431 148.173 9.69442 147.597 9.69442C145.359 9.6937 143.12 9.69442 140.883 9.69262C141.205 9.00179 141.597 7.17078 141.103 4.64786C140.908 3.65024 140.31 2.98684 139.549 3.0002C138.936 3.01067 138.351 3.47627 138.289 4.05737C138.222 4.69622 138.063 5.60505 137.912 6.2273C137.43 8.21532 134.852 10.8397 133.222 11.7553V21.4666C134.328 22.082 135.527 22.2978 136.808 22.2737C138.831 22.2354 144.611 22.2686 145.659 22.2621C146.4 22.2571 147.139 21.9088 147.495 21.027C147.981 19.8236 146.728 19.222 146.728 19.222C146.728 19.222 148.099 19.2887 148.412 18.0771C148.734 16.834 147.473 16.3417 147.473 16.3417C148.326 16.25 148.872 16.0313 149.078 15.2741C149.321 14.3819 148.739 13.7123 147.817 13.3247C147.956 13.3117 149.364 13.0876 149.491 11.6803ZM131.802 10.2124H129.195C128.811 10.2124 128.5 10.5192 128.5 10.8971V21.8835C128.5 22.2621 128.811 22.5682 129.195 22.5682H131.802C132.186 22.5682 132.497 22.2617 132.497 21.8835V10.8971C132.497 10.5192 132.186 10.2124 131.802 10.2124Z" fill="url(#paint6_linear_118_13259)"/>
<path d="M32.4896 9.92032C32.6466 8.1635 30.9839 7.65077 30.3249 7.65077C27.7678 7.64994 25.2086 7.65077 22.6516 7.64871C23.0196 6.85919 23.4685 4.7666 22.9036 1.88327C22.6805 0.74313 21.9976 -0.0150361 21.1275 0.00022626C20.4274 0.0121886 19.7579 0.544307 19.6875 1.20842C19.6109 1.93854 19.4288 2.9772 19.2567 3.68834C18.7056 5.96036 15.7592 8.95961 13.8963 10.0061V21.1047C15.1604 21.808 16.5309 22.0547 17.9947 22.027C20.3072 21.9833 26.9128 22.0213 28.1099 22.0138C28.9569 22.0081 29.8019 21.61 30.2085 20.6023C30.7637 19.227 29.3325 18.5394 29.3325 18.5394C29.3325 18.5394 30.8993 18.6157 31.2569 17.231C31.6241 15.8103 30.1833 15.2477 30.1833 15.2477C31.1581 15.1429 31.782 14.8929 32.0177 14.0275C32.2957 13.0078 31.63 12.2427 30.5761 11.7996C30.7352 11.7848 32.3447 11.5286 32.4896 9.92032ZM12.2738 8.2427H9.29429C8.85549 8.2427 8.5 8.59332 8.5 9.0252V21.5811C8.5 22.0138 8.8559 22.3636 9.29429 22.3636H12.2738C12.7126 22.3636 13.0681 22.0134 13.0681 21.5811V9.0252C13.0681 8.59332 12.7131 8.2427 12.2738 8.2427Z" fill="url(#paint7_linear_118_13259)"/>
<defs>
<linearGradient id="paint0_linear_118_13259" x1="112.5" y1="29" x2="112.5" y2="152" gradientUnits="userSpaceOnUse">
<stop stop-color="#EFEFEF"/>
<stop offset="1" stop-color="#01A567" stop-opacity="0"/>
</linearGradient>
<linearGradient id="paint1_linear_118_13259" x1="181.5" y1="11" x2="181.5" y2="52" gradientUnits="userSpaceOnUse">
<stop stop-color="#EFEFEF"/>
<stop offset="1" stop-color="#01A567" stop-opacity="0"/>
</linearGradient>
<linearGradient id="paint2_linear_118_13259" x1="206.5" y1="58" x2="206.5" y2="89.6818" gradientUnits="userSpaceOnUse">
<stop stop-color="#EFEFEF"/>
<stop offset="1" stop-color="#01A567" stop-opacity="0"/>
</linearGradient>
<linearGradient id="paint3_linear_118_13259" x1="36.5" y1="33" x2="36.5" y2="64.6818" gradientUnits="userSpaceOnUse">
<stop stop-color="#EFEFEF"/>
<stop offset="1" stop-color="#01A567" stop-opacity="0"/>
</linearGradient>
<linearGradient id="paint4_linear_118_13259" x1="12.5" y1="76" x2="12.5" y2="98.3636" gradientUnits="userSpaceOnUse">
<stop stop-color="#EFEFEF"/>
<stop offset="1" stop-color="#01A567" stop-opacity="0"/>
</linearGradient>
<linearGradient id="paint5_linear_118_13259" x1="80.5" y1="11" x2="80.5" y2="33.3636" gradientUnits="userSpaceOnUse">
<stop stop-color="#EFEFEF"/>
<stop offset="1" stop-color="#01A567" stop-opacity="0"/>
</linearGradient>
<linearGradient id="paint6_linear_118_13259" x1="139" y1="3" x2="139" y2="22.5682" gradientUnits="userSpaceOnUse">
<stop stop-color="#EFEFEF"/>
<stop offset="1" stop-color="#01A567" stop-opacity="0"/>
</linearGradient>
<linearGradient id="paint7_linear_118_13259" x1="20.5" y1="0" x2="20.5" y2="22.3636" gradientUnits="userSpaceOnUse">
<stop stop-color="#EFEFEF"/>
<stop offset="1" stop-color="#01A567" stop-opacity="0"/>
</linearGradient>
</defs>
</svg>
