<svg fill="none" height="1440" viewBox="0 0 2560 1440" width="2560" xmlns="http://www.w3.org/2000/svg" xmlns:xlink="http://www.w3.org/1999/xlink"><filter id="a" color-interpolation-filters="sRGB" filterUnits="userSpaceOnUse" height="1315.63" width="1602.57" x="951.467" y="60.3076"><feFlood flood-opacity="0" result="BackgroundImageFix"/><feBlend in="SourceGraphic" in2="BackgroundImageFix" mode="normal" result="shape"/><feGaussianBlur result="effect1_foregroundBlur_35_24" stdDeviation="124.268"/></filter><filter id="b" color-interpolation-filters="sRGB" filterUnits="userSpaceOnUse" height="863.42" width="731.168" x="1080.62" y="389.459"><feFlood flood-opacity="0" result="BackgroundImageFix"/><feBlend in="SourceGraphic" in2="BackgroundImageFix" mode="normal" result="shape"/><feGaussianBlur result="effect1_foregroundBlur_35_24" stdDeviation="4.97072"/></filter><filter id="c" color-interpolation-filters="sRGB" filterUnits="userSpaceOnUse" height="1042.98" width="928.013" x="906.353" y="340.97"><feFlood flood-opacity="0" result="BackgroundImageFix"/><feBlend in="SourceGraphic" in2="BackgroundImageFix" mode="normal" result="shape"/><feGaussianBlur result="effect1_foregroundBlur_35_24" stdDeviation="17.3975"/></filter><filter id="d" color-interpolation-filters="sRGB" filterUnits="userSpaceOnUse" height="1338.07" width="1239.05" x="588.089" y="270.601"><feFlood flood-opacity="0" result="BackgroundImageFix"/><feBlend in="SourceGraphic" in2="BackgroundImageFix" mode="normal" result="shape"/><feGaussianBlur result="effect1_foregroundBlur_35_24" stdDeviation="24.8536"/></filter><filter id="e" color-interpolation-filters="sRGB" filterUnits="userSpaceOnUse" height="1498.77" width="1488.66" x="414.698" y="85.5219"><feFlood flood-opacity="0" result="BackgroundImageFix"/><feBlend in="SourceGraphic" in2="BackgroundImageFix" mode="normal" result="shape"/><feGaussianBlur result="effect1_foregroundBlur_35_24" stdDeviation="67.1047"/></filter><filter id="f" color-interpolation-filters="sRGB" filterUnits="userSpaceOnUse" height="1784.67" width="2055.93" x="49.7204" y="-201.417"><feFlood flood-opacity="0" result="BackgroundImageFix"/><feBlend in="SourceGraphic" in2="BackgroundImageFix" mode="normal" result="shape"/><feGaussianBlur result="effect1_foregroundBlur_35_24" stdDeviation="166.519"/></filter><filter id="g" color-interpolation-filters="sRGB" filterUnits="userSpaceOnUse" height="1431.61" width="1419.34" x="394.585" y="252.139"><feFlood flood-opacity="0" result="BackgroundImageFix"/><feBlend in="SourceGraphic" in2="BackgroundImageFix" mode="normal" result="shape"/><feGaussianBlur result="effect1_foregroundBlur_35_24" stdDeviation="77.0461"/></filter><filter id="h" color-interpolation-filters="sRGB" filterUnits="userSpaceOnUse" height="797.951" width="992.653" x="471.083" y="290.723"><feFlood flood-opacity="0" result="BackgroundImageFix"/><feBlend in="SourceGraphic" in2="BackgroundImageFix" mode="normal" result="shape"/><feGaussianBlur result="effect1_foregroundBlur_35_24" stdDeviation="4.97072"/></filter><filter id="i" color-interpolation-filters="sRGB" filterUnits="userSpaceOnUse" height="1044.97" width="1164.15" x="391.382" y="266.774"><feFlood flood-opacity="0" result="BackgroundImageFix"/><feBlend in="SourceGraphic" in2="BackgroundImageFix" mode="normal" result="shape"/><feGaussianBlur result="effect1_foregroundBlur_35_24" stdDeviation="17.3975"/></filter><filter id="j" color-interpolation-filters="sRGB" filterUnits="userSpaceOnUse" height="1305.7" width="1479.12" x="183.087" y="238.123"><feFlood flood-opacity="0" result="BackgroundImageFix"/><feBlend in="SourceGraphic" in2="BackgroundImageFix" mode="normal" result="shape"/><feGaussianBlur result="effect1_foregroundBlur_35_24" stdDeviation="24.8536"/></filter><filter id="k" color-interpolation-filters="sRGB" filterUnits="userSpaceOnUse" height="1329.47" width="1716.68" x="-47.8563" y="303.912"><feFlood flood-opacity="0" result="BackgroundImageFix"/><feBlend in="SourceGraphic" in2="BackgroundImageFix" mode="normal" result="shape"/><feGaussianBlur result="effect1_foregroundBlur_35_24" stdDeviation="67.1047"/></filter><filter id="l" color-interpolation-filters="sRGB" filterUnits="userSpaceOnUse" height="1751.75" width="2162.48" x="-409.92" y="216.074"><feFlood flood-opacity="0" result="BackgroundImageFix"/><feBlend in="SourceGraphic" in2="BackgroundImageFix" mode="normal" result="shape"/><feGaussianBlur result="effect1_foregroundBlur_35_24" stdDeviation="166.519"/></filter><filter id="m" color-interpolation-filters="sRGB" filterUnits="userSpaceOnUse" height="1389.58" width="1617.29" x="160.067" y="322.692"><feFlood flood-opacity="0" result="BackgroundImageFix"/><feBlend in="SourceGraphic" in2="BackgroundImageFix" mode="normal" result="shape"/><feGaussianBlur result="effect1_foregroundBlur_35_24" stdDeviation="77.0461"/></filter><linearGradient id="n" gradientUnits="userSpaceOnUse" x1="1341.82" x2="1596.33" y1="453.751" y2="1096.62"><stop offset="0" stop-color="#c4c4c4"/><stop offset=".943414" stop-color="#c4c4c4" stop-opacity="0"/></linearGradient><linearGradient id="o"><stop offset="0" stop-color="#c4c4c4"/><stop offset="1" stop-color="#c4c4c4" stop-opacity="0"/></linearGradient><linearGradient id="p" gradientUnits="userSpaceOnUse" x1="1570.24" x2="892.575" xlink:href="#o" y1="722.86" y2="1151.04"/><linearGradient id="q" gradientUnits="userSpaceOnUse" x1="1000.45" x2="1084.1" xlink:href="#o" y1="251.69" y2="1248.81"/><clipPath id="r"><path d="m0 0h2560v1440h-2560z"/></clipPath><mask id="s" height="1440" maskUnits="userSpaceOnUse" width="2560" x="0" y="0"><path d="m0 0h2560v1440h-2560z" fill="#fff"/></mask><mask id="t" height="2270" maskUnits="userSpaceOnUse" width="1975" x="187" y="-514"><path d="m187.996-55.5704 1235.734-457.7956 658.77 1087.677 79.17 349.572-571.86 743.527-582.41 87.6-476.234-963.793z" fill="url(#n)"/></mask><mask id="u" height="2402" maskUnits="userSpaceOnUse" width="2125" x="176" y="-571"><path d="m1073.09 1830.11c543.99-269.71 1198.97-672.02 1226.95-683.66l-857.67-1717.415-1266.326 506.2498z" fill="url(#p)"/></mask><mask id="v" height="1662" maskUnits="userSpaceOnUse" width="2385" x="-318" y="-79"><path d="m2066.12 1324.32c-70.96-603.03-161.6-1372.278-162.75-1402.5867l-2221.215 257.7487 162.755 1402.578z" fill="url(#q)"/></mask><g clip-path="url(#r)"><path d="m0 0h2560v1440h-2560z" fill="#0e0e0e"/><g mask="url(#s)" opacity=".8"><g filter="url(#a)"><ellipse fill="#25fe02" rx="377.857" ry="574.511" transform="matrix(.363017 -.931783 -.931783 -.363017 1752.75 718.122)"/></g><g mask="url(#t)"><g mask="url(#u)"><path d="m1772.85 619.463c-93.15-188.513-366.43-250.677-541.21-164.313s-366.445 276.012-266.505 478.27c49.525 100.23-7.179 279.66 138.695 355.73 148.5 77.44 373.27-67.91 461.43-111.48 174.79-86.36 300.73-369.694 207.59-558.207z" fill="#02fe85"/><g filter="url(#b)"><path d="m1758.99 629.118c-99.9-202.176-322.75-272.078-458.45-205.028-135.69 67.05-276.08 231.321-176.18 433.497 49.51 100.188 15.38 268.403 141.77 354.043 128.66 87.18 300.12-31.82 368.57-65.64 135.69-67.05 224.19-314.696 124.29-516.872z" fill="#02fe85"/></g><g filter="url(#c)"><path d="m1755.97 622.998c-111.97-226.6-379-296.423-546.55-213.63-167.56 82.793-345.198 276.938-233.23 503.537 55.49 112.295-9.117 313.845 140.24 406.025 152.05 93.84 379.48-56.96 464.01-98.73 167.55-82.79 287.5-370.602 175.53-597.202z" fill="#02fe85"/></g><g filter="url(#d)"><path d="m1688.27 623.801c-183.67-257.319-538.42-370.353-755.196-263.236-216.782 107.116-380.969 364.913-246.686 636.674 66.544 134.671-84.18 424.541 102.832 531.201 190.371 108.57 578.33-103.2 687.68-157.24 216.79-107.12 424.15-449.309 211.37-747.399z" fill="#02fe85"/></g><g filter="url(#e)"><path d="m1597.12 577.667c-144.59-292.616-558.69-427.416-770.643-322.688-211.948 104.729-365.527 370.84-220.939 663.456 71.65 145.005 77.76 361.035 268.432 481.165 194.1 122.28 675.83-9.35 782.75-62.18 211.94-104.73 84.98-467.137-59.6-759.753z" fill="#02fe85"/></g><g filter="url(#f)"><path d="m1445.92 484.686c-149.42-302.391-563.724-421.5612-780.505-314.445-216.781 107.117-373.061 380.917-223.642 683.309 74.044 149.85 477.875 228.68 673.797 353.37 199.44 126.93 474.74-60.37 584.1-114.4 216.78-107.12-104.33-305.442-253.75-607.834z" fill="#02fe85"/></g><g filter="url(#g)"><path d="m1592.77 695.092c-130.74-264.593-528.96-351.222-745.744-244.106-216.781 107.117-382.82 361.167-252.079 625.764 64.789 131.11 85.79 318.81 270.716 421.25 188.247 104.28 466.097-77.88 575.447-131.91 216.78-107.12 282.4-406.406 151.66-670.998z" fill="#02fe85"/></g></g></g><g mask="url(#v)"><path d="m897.689 287.93c-250.524 29.071-436.092 269.522-413.62 463.178s153.375 436.032 422.165 404.832c133.196-15.45 309.946 95.24 457.006-19.56 149.71-116.87 82.43-376.739 71.09-474.429-22.47-193.657-286.12-403.091-536.641-374.021z" fill="#02fe85"/><g filter="url(#h)"><path d="m902.616 304.169c-268.68 31.178-439.423 239.165-420.107 405.625 19.316 166.461 146.036 373.146 414.717 341.966 133.144-15.45 308.224 81.4 456.784-19.85 151.24-103.07 88.28-325.853 78.54-409.824-19.32-166.461-261.25-349.095-529.934-317.917z" fill="#02fe85"/></g><g filter="url(#i)"><path d="m894.473 305.117c-301.139 34.944-490.093 288.866-466.279 494.092 23.815 205.221 168.684 461.361 469.823 426.421 149.233-17.32 349.173 123.3 514.613.53 168.41-124.98 92.88-417.478 80.87-521.004-23.82-205.226-297.89-434.983-599.027-400.039z" fill="#02fe85"/></g><g filter="url(#j)"><path d="m849.894 305.339c-365.957 93.483-643.04 395.398-615.168 635.587 27.872 240.194 246.71 477.954 607.866 436.044 178.968-20.77 439.418 214.31 638.168 70.03 202.32-146.87 115.09-468.752 101.03-589.916-27.87-240.19-307.96-660.041-731.896-551.745z" fill="#02fe85"/></g><g filter="url(#k)"><path d="m748.565 445.196c-388.871 45.124-687.7367 393.433-660.4865 628.264 27.2505 234.84 259.8975 465.13 648.7685 420.01 192.704-22.36 437.083 40.11 652.463-103.4 219.25-146.09 129.09-460.229 115.34-578.692-27.25-234.835-367.21-411.307-756.085-366.182z" fill="#02fe85"/></g><g filter="url(#l)"><path d="m608.085 556.497c-401.862 46.632-711.092 403.295-683.2209 643.483 27.8715 240.19 267.9789 475.48 669.8409 428.85 199.142-23.11 451.575 40.5 674.295-106.56 226.72-149.71 133.94-470.94 119.88-592.107-27.87-240.19-378.93-420.298-780.795-373.666z" fill="#02fe85"/></g><g filter="url(#m)"><path d="m905.908 483.227c-351.629 40.803-617.615 392.447-589.743 632.633 27.871 240.19 241.731 478.53 593.361 437.73 174.244-20.22 393.234 19.12 586.374-124.51 196.62-146.21 110.68-468.243 96.62-589.408-27.87-240.189-334.98-397.248-686.612-356.445z" fill="#02fe85"/></g></g></g></g></svg>