<svg fill="none" height="40" viewBox="0 0 40 40" width="40" xmlns="http://www.w3.org/2000/svg"><path d="m13.5483 20.159 11.3438 11.3438 7.1684-7.1684c1.2564-1.2563 3.3255-1.2563 4.582 0 1.2562 1.2563 1.2562 3.3256 0 4.5819l-9.4595 9.4594c-1.2563 1.2563-3.3256 1.2563-4.5819 0l-13.59779-13.6349v8.1292c0 1.7737-1.44106 3.2517-3.25165 3.2517s-3.25166-1.4411-3.25166-3.2517v-25.34819c0-1.81059 1.44107-3.25167 3.25166-3.25167s3.25165 1.44108 3.25165 3.25167v8.05529l13.63479-13.63486c1.2563-1.256321 3.3256-1.256321 4.5819 0l9.4594 9.45936c1.2563 1.2563 1.2563 3.3255 0 4.582-1.2564 1.2562-3.3256 1.2562-4.5819 0l-7.1684-7.16853zm11.3808-3.2517c-1.8107 0-3.2517 1.441-3.2517 3.2517 0 1.8105 1.441 3.2517 3.2517 3.2517 1.8105 0 3.2515-1.4412 3.2515-3.2517-.0369-1.8107-1.4779-3.2517-3.2515-3.2517z" fill="#01bc8d"/></svg>