<svg width="81" height="80" viewBox="0 0 81 80" fill="none" xmlns="http://www.w3.org/2000/svg">
<g clip-path="url(#clip0_2818_63013)">
<path d="M79.6907 49.6505L62.4269 19.6769C58.6592 13.4348 49.3801 13.3786 45.7247 19.9581L27.6169 51.1126C24.2428 56.8486 28.4042 63.9905 35.2087 63.9905H71.593C78.3976 64.0467 83.5151 56.6237 79.6907 49.6505Z" fill="#003087"/>
<path d="M54.7769 52.0118L53.7085 50.156C52.6963 48.4128 50.503 44.7012 50.503 44.7012L35.8818 19.2828C32.1141 13.6593 23.1164 13.1531 19.3486 20.2951L2.30925 49.7624C-1.23358 55.9483 2.98409 63.99 10.6321 64.0462H46.7915H62.1999H71.3666C62.0312 64.1025 59.051 59.2099 54.7769 52.0118Z" fill="#1877F2"/>
<path d="M54.7818 51.8958L53.7133 50.04C52.7011 48.2967 50.5079 44.5852 50.5079 44.5852L41.0603 27.9395L27.5075 51.1085C24.1334 56.8445 28.2948 63.9864 35.0993 63.9864H46.7401H62.1487H71.3714C61.98 63.9302 59.0558 59.1502 54.7818 51.8958Z" fill="url(#paint0_linear_2818_63013)"/>
</g>
<defs>
<linearGradient id="paint0_linear_2818_63013" x1="22.6706" y1="40.608" x2="64.6823" y2="56.1327" gradientUnits="userSpaceOnUse">
<stop stop-color="#003087" stop-opacity="0"/>
<stop offset="1" stop-color="#003087"/>
</linearGradient>
<clipPath id="clip0_2818_63013">
<rect width="80" height="80" fill="white" transform="translate(0.664062)"/>
</clipPath>
</defs>
</svg>
