<svg width="45" height="48" viewBox="0 0 45 48" fill="none" xmlns="http://www.w3.org/2000/svg">
<path d="M43.913 8.84654C43.4312 7.01502 41.8825 5.1835 39.0947 3.14465C36.8576 1.52045 34.483 0.587402 32.5901 0.587402C32.2115 0.587402 31.8673 0.621987 31.523 0.691061C30.6627 0.863898 29.9055 1.48587 29.4237 2.41892C28.8386 3.52471 28.7011 5.01076 29.0796 5.90923C29.2172 6.18563 29.3893 6.5312 29.5959 6.84228C27.7718 7.94807 26.7393 8.25906 26.6016 8.29364C31.351 9.88325 35.3089 13.2008 37.787 17.5204L37.8213 17.1058C37.9246 15.9308 38.2687 14.6522 38.7505 13.3045C39.2324 13.4427 39.7142 13.5118 40.196 13.5118C41.4695 13.5118 42.5708 12.9934 43.2591 12.0604C43.9474 11.1274 44.2228 9.91784 43.913 8.84654Z" fill="#5E12A0"/>
<path d="M38.9601 12.3024C42.0921 13.1663 43.3653 10.7473 42.9524 9.12315C42.5395 7.49895 41.0595 5.84016 38.5126 3.97405C35.9659 2.10795 33.3846 1.34773 31.7327 1.6933C30.0806 2.03887 29.5989 4.56154 30.0118 5.52918C30.1839 5.90924 30.5625 6.46223 31.0787 7.0842C30.4248 7.53343 29.8053 7.87901 29.2891 8.19009C32.4554 9.60687 35.2087 11.8185 37.2736 14.5831C37.5146 13.6501 37.8588 12.8208 38.1685 12.095C38.4094 12.1641 38.6847 12.2333 38.9601 12.3024Z" fill="url(#paint0_radial_2818_63126)"/>
<path d="M21.0278 46.2029C31.653 46.2029 40.2665 37.5541 40.2665 26.8854C40.2665 16.2166 31.653 7.56787 21.0278 7.56787C10.4025 7.56787 1.78906 16.2166 1.78906 26.8854C1.78906 37.5541 10.4025 46.2029 21.0278 46.2029Z" fill="url(#paint1_radial_2818_63126)"/>
<path opacity="0.6" d="M41.3684 7.56788C38.7527 4.8033 36.5502 4.07757 33.9 3.49009C31.8351 3.00627 32.3857 1.83141 34.8981 2.07322C33.6935 1.65857 32.5578 1.55491 31.7318 1.72764C30.0798 2.07321 29.5979 4.59598 30.011 5.56352C30.183 5.94368 30.5616 6.49657 31.0779 7.11864C30.1487 7.74061 29.3571 8.18995 28.7031 8.53552C29.0129 8.67367 29.3914 8.84651 29.8388 9.08842C31.009 9.71038 32.2825 10.7471 32.2825 10.7471C30.3552 9.08842 30.7681 8.3281 33.4182 6.46199C34.2441 5.87461 35.7585 5.94368 37.1696 6.66941C38.5807 7.39504 40.2327 9.22667 40.2327 9.22667L38.6494 12.2676C38.7527 12.3022 38.856 12.3368 38.9592 12.3713C39.9573 12.6478 40.7488 12.5786 41.3684 12.3368C42.0912 11.8875 43.9841 10.3325 41.3684 7.56788Z" fill="#A98698"/>
<path d="M33.8693 5.14914C34.5577 5.42563 35.4525 5.90935 36.5538 6.63508C37.8617 7.49906 38.9974 8.46661 39.7202 9.22692C38.5156 10.8165 37.7239 12.9936 37.2422 14.5142C37.483 14.8597 37.7584 15.2053 37.9993 15.5509C38.2403 14.6869 38.6532 13.4083 39.2039 12.1297C39.3415 12.1642 39.5136 12.1642 39.6858 12.1642C40.0987 12.1642 40.5806 12.0952 40.9591 11.7842C41.2344 11.5768 41.5442 11.1967 41.5098 10.5055C41.5098 9.84889 40.9935 9.0196 39.9267 8.01737C39.1694 7.29164 38.1371 6.49684 37.1045 5.77121C34.1447 3.80144 32.0797 3.24854 31.1505 4.18149C30.5309 4.80356 30.5999 5.56378 30.8063 6.11678C29.705 6.84241 28.7758 7.36082 28.1562 7.70639C28.5693 7.84464 28.9478 8.01737 29.3608 8.19021C30.4622 7.56814 32.0453 6.56601 33.8693 5.14914ZM40.3741 10.0563C40.4774 10.2291 40.5117 10.4018 40.5117 10.5055C40.5117 10.8165 40.4084 10.9202 40.3396 10.9893C40.202 11.0929 39.9267 11.1621 39.6858 11.1621C39.8922 10.7819 40.1332 10.4019 40.3741 10.0563ZM31.8731 4.90722C31.9764 4.80356 32.2518 4.73449 32.6992 4.80356C32.355 5.08006 32.0109 5.32197 31.6667 5.56378C31.6323 5.32197 31.6667 5.11455 31.8731 4.90722Z" fill="#5E12A0"/>
<path d="M21.0308 6.42773C9.77663 6.42773 0.65625 15.5854 0.65625 26.8856C0.65625 38.1859 9.77663 47.3436 21.0308 47.3436C32.285 47.3436 41.4053 38.1859 41.4053 26.8856C41.3709 15.5854 32.2506 6.42773 21.0308 6.42773ZM21.0308 46.1686C10.3962 46.1686 1.79206 37.5293 1.79206 26.8511C1.79206 16.1729 10.3962 7.53352 21.0308 7.53352C31.6655 7.53352 40.2696 16.1729 40.2696 26.8511C40.2351 37.5293 31.631 46.1686 21.0308 46.1686Z" fill="#5E12A0"/>
<path opacity="0.6" d="M21.0278 46.2029C31.653 46.2029 40.2665 37.5541 40.2665 26.8854C40.2665 16.2166 31.653 7.56787 21.0278 7.56787C10.4025 7.56787 1.78906 16.2166 1.78906 26.8854C1.78906 37.5541 10.4025 46.2029 21.0278 46.2029Z" fill="url(#paint2_linear_2818_63126)"/>
<path opacity="0.6" d="M20.8886 43.8186C10.3916 42.1254 3.26742 32.2074 4.98818 21.6674C5.74536 17.0023 8.08565 13.0281 11.3896 10.1599C6.5714 12.9591 2.99214 17.8316 2.02836 23.7755C0.341982 34.3155 7.46622 44.2334 17.9288 45.9266C23.7796 46.8943 29.4239 45.0628 33.5882 41.4688C29.9057 43.6459 25.4315 44.5789 20.8886 43.8186Z" fill="#A98698"/>
<path opacity="0.6" d="M24.0911 7.80999C19.2384 7.01519 14.5233 8.12108 10.6687 10.5746C10.5998 10.6437 10.531 10.7128 10.531 10.7128C12.0109 9.81435 14.1792 9.01954 14.1792 9.01954C8.60367 12.2679 6.88281 15.9656 6.88281 15.9656C9.05108 11.7495 15.4182 8.77763 20.4085 8.57031C25.399 8.36289 28.6684 9.84884 32.6607 13.0627C36.653 16.311 39.0623 22.9461 38.8213 28.1987C38.6149 33.4515 35.8615 37.702 35.8615 37.702C37.7543 35.2484 38.8901 33.4515 39.6128 31.62C39.7506 31.0671 39.8881 30.5141 39.9571 29.9266C41.6777 19.4212 34.588 9.53785 24.0911 7.80999Z" fill="url(#paint3_linear_2818_63126)"/>
<path d="M39.3033 26.6782C39.3033 36.8036 31.1123 45.0281 21.0283 45.0281C10.9443 45.0281 2.71875 36.8036 2.71875 26.6782H39.3033Z" fill="url(#paint4_linear_2818_63126)"/>
<g opacity="0.6">
<path opacity="0.6" d="M37.8571 26.6782C37.8571 36.5617 30.079 44.6481 20.3047 45.0281C20.5456 45.0281 20.7866 45.0281 21.0275 45.0281C31.1115 45.0281 39.3026 36.8036 39.3026 26.6782H37.8571Z" fill="url(#paint5_linear_2818_63126)"/>
</g>
<g opacity="0.7">
<path d="M5.30004 26.6782H2.71875C2.71875 36.8036 10.9098 45.0281 20.9939 45.0281C21.4413 45.0281 21.8542 45.0281 22.2672 44.9936C12.8027 44.337 5.30004 36.3888 5.30004 26.6782Z" fill="url(#paint6_linear_2818_63126)"/>
</g>
<path d="M39.2689 26.8855C39.2689 24.7775 35.6208 23.568 30.7681 23.1533C27.2576 22.8769 23.7127 23.2224 19.6516 24.4665C16.1412 25.5032 12.9748 25.3304 10.6689 25.054C5.54094 24.4665 2.71875 24.3973 2.71875 26.8855C2.71875 30.4794 10.015 34.9719 20.9594 33.4168C26.5005 32.6219 29.357 30.9978 32.6266 29.892C36.1715 28.6824 39.2689 28.7516 39.2689 26.8855Z" fill="url(#paint7_linear_2818_63126)"/>
<path d="M27.0192 18.1424C28.7301 18.1424 30.1168 16.75 30.1168 15.0323C30.1168 13.3145 28.7301 11.9221 27.0192 11.9221C25.3086 11.9221 23.9219 13.3145 23.9219 15.0323C23.9219 16.75 25.3086 18.1424 27.0192 18.1424Z" fill="white"/>
<path d="M32.0735 20.4579C32.7957 20.4579 33.3813 19.87 33.3813 19.1448C33.3813 18.4194 32.7957 17.8315 32.0735 17.8315C31.3512 17.8315 30.7656 18.4194 30.7656 19.1448C30.7656 19.87 31.3512 20.4579 32.0735 20.4579Z" fill="white"/>
<g opacity="0.6">
<path d="M36.7589 12.5788C36.7245 12.5788 36.6901 12.5788 36.6901 12.5788C36.4835 12.5443 36.346 12.3369 36.3802 12.095C36.6901 10.5054 37.9978 8.98488 38.0667 8.91581C38.2044 8.74297 38.4797 8.74297 38.6175 8.88122C38.7895 9.01947 38.7895 9.29597 38.6518 9.43412C38.6175 9.4687 37.4128 10.8856 37.1375 12.2679C37.103 12.4406 36.9309 12.5788 36.7589 12.5788Z" fill="url(#paint8_linear_2818_63126)"/>
</g>
<path d="M32.5922 0.622069C34.5196 0.622069 36.8942 1.55512 39.097 3.17922C41.8847 5.21816 43.4334 7.0151 43.9152 8.88121C44.1905 9.95251 43.9497 11.162 43.2614 12.0604C42.5386 12.9935 41.4716 13.5119 40.1983 13.5119C39.7509 13.5119 39.269 13.4427 38.7528 13.3046C38.443 14.0994 38.2022 14.8942 38.03 15.6544C40.1293 18.8682 41.3684 22.7387 41.3684 26.8855C41.3684 38.1857 32.248 47.3434 20.9939 47.3434C9.73971 47.3434 0.653816 38.1857 0.653816 26.8855C0.653816 15.5853 9.77419 6.42762 21.0284 6.42762C23.5063 6.42762 25.8811 6.87685 28.0836 7.70624C28.4967 7.49892 29.0129 7.22242 29.598 6.87685C29.3916 6.56587 29.185 6.25488 29.0818 5.9439C28.7032 5.01084 28.8409 3.55938 29.4258 2.45359C29.9077 1.55512 30.6305 0.933054 31.5253 0.725731C31.8351 0.656556 32.2136 0.622069 32.5922 0.622069ZM32.5922 0C32.1793 0 31.7662 0.0345883 31.3877 0.13825C30.3551 0.38016 29.4603 1.0713 28.8753 2.17709C28.2214 3.45572 28.0493 5.11451 28.4967 6.18571C28.5655 6.32396 28.6344 6.49679 28.7376 6.66953C28.4967 6.80778 28.2557 6.94602 28.0148 7.04969C25.7433 6.25488 23.403 5.84013 20.9939 5.84013C18.1718 5.84013 15.4185 6.39313 12.8373 7.49892C10.3249 8.57022 8.08782 10.0907 6.16045 12.0259C4.23318 13.9611 2.71883 16.2074 1.65189 18.7301C0.55056 21.3218 0 24.0864 0 26.9201C0 29.7538 0.55056 32.5183 1.65189 35.1102C2.71883 37.6328 4.23318 39.879 6.16045 41.8143C8.08782 43.7495 10.3249 45.27 12.8373 46.3412C15.4185 47.4471 18.1718 48 20.9939 48C23.8161 48 26.5694 47.4471 29.1506 46.3412C31.6631 45.27 33.9001 43.7495 35.8274 41.8143C37.7548 39.879 39.269 37.6328 40.336 35.1102C41.4373 32.5183 41.9879 29.7538 41.9879 26.9201C41.9879 22.8769 40.8521 18.972 38.6839 15.5853C38.7871 15.0669 38.9592 14.5486 39.1313 14.0302C39.4755 14.0994 39.8541 14.1339 40.1983 14.1339C41.6438 14.1339 42.9171 13.5465 43.7431 12.4406C44.5346 11.4039 44.8445 9.95251 44.5004 8.74296C43.9496 6.7387 42.3666 4.83801 39.4411 2.72999C37.1352 0.967643 34.6228 0 32.5922 0Z" fill="white"/>
<path opacity="0.2" d="M19.7529 41.2614C20.285 41.2614 20.7164 40.8281 20.7164 40.2937C20.7164 39.7594 20.285 39.3262 19.7529 39.3262C19.2205 39.3262 18.7891 39.7594 18.7891 40.2937C18.7891 40.8281 19.2205 41.2614 19.7529 41.2614Z" fill="white"/>
<g opacity="0.4">
<path opacity="0.6" d="M19.2029 40.9504C18.8243 40.5702 18.8243 39.9483 19.2029 39.5681C19.2717 39.499 19.3406 39.4644 19.4094 39.3953C19.2717 39.4299 19.1685 39.4989 19.0652 39.6027C18.6866 39.9828 18.6866 40.6048 19.0652 40.985C19.3749 41.296 19.8568 41.365 20.2354 41.1577C19.8913 41.296 19.4781 41.2269 19.2029 40.9504Z" fill="url(#paint9_linear_2818_63126)"/>
</g>
<path opacity="0.3" d="M20.097 40.017C20.2111 40.017 20.3035 39.9242 20.3035 39.8097C20.3035 39.6952 20.2111 39.6023 20.097 39.6023C19.983 39.6023 19.8906 39.6952 19.8906 39.8097C19.8906 39.9242 19.983 40.017 20.097 40.017Z" fill="white"/>
<path opacity="0.2" d="M24.784 40.7775C25.3162 40.7775 25.7476 40.3443 25.7476 39.8099C25.7476 39.2755 25.3162 38.8423 24.784 38.8423C24.2518 38.8423 23.8203 39.2755 23.8203 39.8099C23.8203 40.3443 24.2518 40.7775 24.784 40.7775Z" fill="white"/>
<g opacity="0.4">
<path opacity="0.6" d="M24.2262 40.4321C23.8476 40.0519 23.8476 39.4298 24.2262 39.0498C24.295 38.9806 24.364 38.946 24.4327 38.877C24.295 38.9115 24.1918 38.9806 24.0886 39.0843C23.7101 39.4644 23.7101 40.0865 24.0886 40.4666C24.3983 40.7776 24.8801 40.8467 25.2588 40.6394C24.9145 40.8121 24.5016 40.7431 24.2262 40.4321Z" fill="url(#paint10_linear_2818_63126)"/>
</g>
<path opacity="0.3" d="M25.1205 39.5333C25.2346 39.5333 25.327 39.4405 25.327 39.326C25.327 39.2115 25.2346 39.1187 25.1205 39.1187C25.0065 39.1187 24.9141 39.2115 24.9141 39.326C24.9141 39.4405 25.0065 39.5333 25.1205 39.5333Z" fill="white"/>
<path opacity="0.2" d="M22.3009 43.024C22.7 43.024 23.0236 42.6991 23.0236 42.2982C23.0236 41.8975 22.7 41.5725 22.3009 41.5725C21.9017 41.5725 21.5781 41.8975 21.5781 42.2982C21.5781 42.6991 21.9017 43.024 22.3009 43.024Z" fill="white"/>
<g opacity="0.4">
<path opacity="0.6" d="M21.8877 42.782C21.6125 42.5055 21.6125 42.0218 21.8877 41.7453C21.9222 41.7107 21.991 41.6762 22.0255 41.6416C21.9222 41.6762 21.8535 41.7453 21.7846 41.8143C21.5093 42.0908 21.5093 42.5747 21.7846 42.8511C22.0255 43.093 22.3696 43.1275 22.6794 42.9547C22.4041 43.0239 22.0942 42.9893 21.8877 42.782Z" fill="url(#paint11_linear_2818_63126)"/>
</g>
<path opacity="0.3" d="M22.5439 42.0563C22.6199 42.0563 22.6815 41.9944 22.6815 41.918C22.6815 41.8417 22.6199 41.7798 22.5439 41.7798C22.4678 41.7798 22.4062 41.8417 22.4062 41.918C22.4062 41.9944 22.4678 42.0563 22.5439 42.0563Z" fill="white"/>
<path opacity="0.2" d="M26.7384 42.5053C27.1375 42.5053 27.461 42.1804 27.461 41.7797C27.461 41.3788 27.1375 41.054 26.7384 41.054C26.3392 41.054 26.0156 41.3788 26.0156 41.7797C26.0156 42.1804 26.3392 42.5053 26.7384 42.5053Z" fill="white"/>
<g opacity="0.4">
<path opacity="0.6" d="M26.3253 42.2637C26.0501 41.9872 26.0501 41.5034 26.3253 41.227C26.3598 41.1924 26.4286 41.1578 26.463 41.1233C26.3598 41.1578 26.291 41.227 26.2221 41.296C25.9468 41.5725 25.9468 42.0562 26.2221 42.3327C26.463 42.5747 26.8072 42.6092 27.1169 42.4364C26.8416 42.5056 26.532 42.471 26.3253 42.2637Z" fill="url(#paint12_linear_2818_63126)"/>
</g>
<path opacity="0.3" d="M26.9815 41.5379C27.0575 41.5379 27.119 41.476 27.119 41.3997C27.119 41.3233 27.0575 41.2615 26.9815 41.2615C26.9054 41.2615 26.8438 41.3233 26.8438 41.3997C26.8438 41.476 26.9054 41.5379 26.9815 41.5379Z" fill="white"/>
<path opacity="0.2" d="M15.6613 40.9158C16.5358 40.9158 17.2445 40.2042 17.2445 39.3262C17.2445 38.4483 16.5358 37.7366 15.6613 37.7366C14.787 37.7366 14.0781 38.4483 14.0781 39.3262C14.0781 40.2042 14.787 40.9158 15.6613 40.9158Z" fill="white"/>
<g opacity="0.4">
<path opacity="0.6" d="M14.7649 40.3629C14.1454 39.7409 14.1454 38.7387 14.7649 38.1167C14.8681 38.013 14.9713 37.9439 15.1091 37.8748C14.9025 37.9439 14.7304 38.0821 14.5584 38.2203C13.9389 38.8424 13.9389 39.8445 14.5584 40.4666C15.0746 40.9849 15.8661 41.0886 16.4857 40.7085C15.9006 40.9504 15.2123 40.8122 14.7649 40.3629Z" fill="url(#paint13_linear_2818_63126)"/>
</g>
<path opacity="0.3" d="M16.2114 38.8769C16.4015 38.8769 16.5556 38.7222 16.5556 38.5314C16.5556 38.3405 16.4015 38.1858 16.2114 38.1858C16.0214 38.1858 15.8672 38.3405 15.8672 38.5314C15.8672 38.7222 16.0214 38.8769 16.2114 38.8769Z" fill="white"/>
<path opacity="0.2" d="M29.8019 37.0108C30.6762 37.0108 31.3851 36.2991 31.3851 35.4212C31.3851 34.5432 30.6762 33.8315 29.8019 33.8315C28.9274 33.8315 28.2188 34.5432 28.2188 35.4212C28.2188 36.2991 28.9274 37.0108 29.8019 37.0108Z" fill="white"/>
<g opacity="0.4">
<path opacity="0.6" d="M28.8742 36.4579C28.2547 35.8358 28.2547 34.8337 28.8742 34.2116C28.9775 34.108 29.0807 34.0389 29.2184 33.9697C29.0119 34.0389 28.8398 34.177 28.6677 34.3153C28.0483 34.9374 28.0483 35.9395 28.6677 36.5616C29.184 37.0799 29.9755 37.1835 30.595 36.8035C30.0099 37.0454 29.356 36.9071 28.8742 36.4579Z" fill="url(#paint14_linear_2818_63126)"/>
</g>
<path opacity="0.3" d="M30.3521 34.972C30.542 34.972 30.6962 34.8174 30.6962 34.6266C30.6962 34.4357 30.542 34.281 30.3521 34.281C30.1619 34.281 30.0078 34.4357 30.0078 34.6266C30.0078 34.8174 30.1619 34.972 30.3521 34.972Z" fill="white"/>
<defs>
<radialGradient id="paint0_radial_2818_63126" cx="0" cy="0" r="1" gradientUnits="userSpaceOnUse" gradientTransform="translate(42.3246 6.96441) scale(15.3822 15.4451)">
<stop stop-color="#FFEAFF" stop-opacity="0.6"/>
<stop offset="0.6807" stop-color="#A087C9"/>
<stop offset="1" stop-color="#10002F"/>
</radialGradient>
<radialGradient id="paint1_radial_2818_63126" cx="0" cy="0" r="1" gradientUnits="userSpaceOnUse" gradientTransform="translate(33.7654 13.5514) scale(37.6347 37.7887)">
<stop stop-color="#FFEAFF" stop-opacity="0.6"/>
<stop offset="0.6807" stop-color="#A087C9"/>
<stop offset="1" stop-color="#10002F"/>
</radialGradient>
<linearGradient id="paint2_linear_2818_63126" x1="17.9457" y1="45.9106" x2="24.1484" y2="7.79974" gradientUnits="userSpaceOnUse">
<stop stop-color="#81FFFF"/>
<stop offset="0.6202" stop-color="white" stop-opacity="0"/>
</linearGradient>
<linearGradient id="paint3_linear_2818_63126" x1="34.5864" y1="13.7503" x2="18.6184" y2="28.3417" gradientUnits="userSpaceOnUse">
<stop offset="0.2888" stop-color="white"/>
<stop offset="0.7796" stop-color="white" stop-opacity="0"/>
</linearGradient>
<linearGradient id="paint4_linear_2818_63126" x1="2.73427" y1="35.8609" x2="39.2945" y2="35.8609" gradientUnits="userSpaceOnUse">
<stop stop-color="#0002E9"/>
<stop offset="0.9952" stop-color="#FF00C7"/>
</linearGradient>
<linearGradient id="paint5_linear_2818_63126" x1="41.0244" y1="28.3069" x2="21.0481" y2="47.1086" gradientUnits="userSpaceOnUse">
<stop offset="0.2888" stop-color="white"/>
<stop offset="0.7796" stop-color="white" stop-opacity="0"/>
</linearGradient>
<linearGradient id="paint6_linear_2818_63126" x1="2.73427" y1="35.8609" x2="22.2938" y2="35.8609" gradientUnits="userSpaceOnUse">
<stop stop-color="#000292"/>
<stop offset="0.9952" stop-color="#7D00C7"/>
</linearGradient>
<linearGradient id="paint7_linear_2818_63126" x1="2.75881" y1="28.3938" x2="39.2699" y2="28.3938" gradientUnits="userSpaceOnUse">
<stop stop-color="#000292"/>
<stop offset="0.9952" stop-color="#BE00C7"/>
</linearGradient>
<linearGradient id="paint8_linear_2818_63126" x1="38.6732" y1="8.73141" x2="36.0335" y2="13.0034" gradientUnits="userSpaceOnUse">
<stop offset="0.2888" stop-color="white"/>
<stop offset="0.7796" stop-color="white" stop-opacity="0"/>
</linearGradient>
<linearGradient id="paint9_linear_2818_63126" x1="18.7803" y1="40.3418" x2="20.2364" y2="40.3418" gradientUnits="userSpaceOnUse">
<stop offset="0.2888" stop-color="white"/>
<stop offset="0.7796" stop-color="white" stop-opacity="0"/>
</linearGradient>
<linearGradient id="paint10_linear_2818_63126" x1="23.8001" y1="39.8515" x2="25.2564" y2="39.8515" gradientUnits="userSpaceOnUse">
<stop offset="0.2888" stop-color="white"/>
<stop offset="0.7796" stop-color="white" stop-opacity="0"/>
</linearGradient>
<linearGradient id="paint11_linear_2818_63126" x1="21.5735" y1="42.3248" x2="22.6667" y2="42.3248" gradientUnits="userSpaceOnUse">
<stop offset="0.2888" stop-color="white"/>
<stop offset="0.7796" stop-color="white" stop-opacity="0"/>
</linearGradient>
<linearGradient id="paint12_linear_2818_63126" x1="25.9962" y1="41.8052" x2="27.0894" y2="41.8052" gradientUnits="userSpaceOnUse">
<stop offset="0.2888" stop-color="white"/>
<stop offset="0.7796" stop-color="white" stop-opacity="0"/>
</linearGradient>
<linearGradient id="paint13_linear_2818_63126" x1="14.0779" y1="39.3851" x2="16.4559" y2="39.3851" gradientUnits="userSpaceOnUse">
<stop offset="0.2888" stop-color="white"/>
<stop offset="0.7796" stop-color="white" stop-opacity="0"/>
</linearGradient>
<linearGradient id="paint14_linear_2818_63126" x1="28.2005" y1="35.4789" x2="30.5784" y2="35.4789" gradientUnits="userSpaceOnUse">
<stop offset="0.2888" stop-color="white"/>
<stop offset="0.7796" stop-color="white" stop-opacity="0"/>
</linearGradient>
</defs>
</svg>
