<svg fill="none" height="48" viewBox="0 0 45 48" width="45" xmlns="http://www.w3.org/2000/svg" xmlns:xlink="http://www.w3.org/1999/xlink"><linearGradient id="a"><stop offset="0" stop-color="#ffeaff" stop-opacity=".6"/><stop offset=".6807" stop-color="#a087c9"/><stop offset="1" stop-color="#10002f"/></linearGradient><radialGradient id="b" cx="0" cy="0" gradientTransform="matrix(15.3822 0 0 15.4451 42.3246 6.96441)" gradientUnits="userSpaceOnUse" r="1" xlink:href="#a"/><radialGradient id="c" cx="0" cy="0" gradientTransform="matrix(37.6347 0 0 37.7887 33.7654 13.5514)" gradientUnits="userSpaceOnUse" r="1" xlink:href="#a"/><linearGradient id="d" gradientUnits="userSpaceOnUse" x1="17.9457" x2="24.1484" y1="45.9106" y2="7.79974"><stop offset="0" stop-color="#81ffff"/><stop offset=".6202" stop-color="#fff" stop-opacity="0"/></linearGradient><linearGradient id="e"><stop offset=".2888" stop-color="#fff"/><stop offset=".7796" stop-color="#fff" stop-opacity="0"/></linearGradient><linearGradient id="f" gradientUnits="userSpaceOnUse" x1="34.5864" x2="18.6184" xlink:href="#e" y1="13.7503" y2="28.3417"/><linearGradient id="g" gradientUnits="userSpaceOnUse" x1="2.73427" x2="39.2945" y1="35.8609" y2="35.8609"><stop offset="0" stop-color="#0002e9"/><stop offset=".9952" stop-color="#ff00c7"/></linearGradient><linearGradient id="h" gradientUnits="userSpaceOnUse" x1="41.0244" x2="21.0481" xlink:href="#e" y1="28.3069" y2="47.1086"/><linearGradient id="i" gradientUnits="userSpaceOnUse" x1="2.73427" x2="22.2938" y1="35.8609" y2="35.8609"><stop offset="0" stop-color="#000292"/><stop offset=".9952" stop-color="#7d00c7"/></linearGradient><linearGradient id="j" gradientUnits="userSpaceOnUse" x1="2.75881" x2="39.2699" y1="28.3938" y2="28.3938"><stop offset="0" stop-color="#000292"/><stop offset=".9952" stop-color="#be00c7"/></linearGradient><linearGradient id="k" gradientUnits="userSpaceOnUse" x1="38.6732" x2="36.0335" xlink:href="#e" y1="8.73141" y2="13.0034"/><linearGradient id="l" gradientUnits="userSpaceOnUse" x1="18.7803" x2="20.2364" xlink:href="#e" y1="40.3418" y2="40.3418"/><linearGradient id="m" gradientUnits="userSpaceOnUse" x1="23.8001" x2="25.2564" xlink:href="#e" y1="39.8515" y2="39.8515"/><linearGradient id="n" gradientUnits="userSpaceOnUse" x1="21.5735" x2="22.6667" xlink:href="#e" y1="42.3248" y2="42.3248"/><linearGradient id="o" gradientUnits="userSpaceOnUse" x1="25.9962" x2="27.0894" xlink:href="#e" y1="41.8052" y2="41.8052"/><linearGradient id="p" gradientUnits="userSpaceOnUse" x1="14.0779" x2="16.4559" xlink:href="#e" y1="39.3851" y2="39.3851"/><linearGradient id="q" gradientUnits="userSpaceOnUse" x1="28.2005" x2="30.5784" xlink:href="#e" y1="35.4789" y2="35.4789"/><path d="m43.913 8.84654c-.4818-1.83152-2.0305-3.66304-4.8183-5.70189-2.2371-1.6242-4.6117-2.557248-6.5046-2.557248-.3786 0-.7228.034585-1.0671.103659-.8603.172837-1.6175.794809-2.0993 1.727859-.5851 1.10579-.7226 2.59184-.3441 3.49031.1376.2764.3097.62197.5163.93305-1.8241 1.10579-2.8566 1.41678-2.9943 1.45136 4.7494 1.58961 8.7073 4.90716 11.1854 9.22676l.0343-.4146c.1033-1.175.4474-2.4536.9292-3.8013.4819.1382.9637.2073 1.4455.2073 1.2735 0 2.3748-.5184 3.0631-1.4514s.9637-2.14256.6539-3.21386z" fill="#5e12a0"/><path d="m38.9601 12.3024c3.132.8639 4.4052-1.5551 3.9923-3.17925-.4129-1.6242-1.8929-3.28299-4.4398-5.1491-2.5467-1.8661-5.128-2.62632-6.7799-2.28075-1.6521.34557-2.1338 2.86824-1.7209 3.83588.1721.38006.5507.93305 1.0669 1.55502-.6539.44923-1.2734.79481-1.7896 1.10589 3.1663 1.41678 5.9196 3.62841 7.9845 6.39301.241-.933.5852-1.7623.8949-2.4881.2409.0691.5162.1383.7916.2074z" fill="url(#b)"/><path d="m21.0278 46.2029c10.6252 0 19.2387-8.6488 19.2387-19.3175 0-10.6688-8.6135-19.31753-19.2387-19.31753-10.6253 0-19.23874 8.64873-19.23874 19.31753 0 10.6687 8.61344 19.3175 19.23874 19.3175z" fill="url(#c)"/><path d="m41.3684 7.56788c-2.6157-2.76458-4.8182-3.49031-7.4684-4.07779-2.0649-.48382-1.5143-1.65868.9981-1.41687-1.2046-.41465-2.3403-.51831-3.1663-.34558-1.652.34557-2.1339 2.86834-1.7208 3.83588.172.38016.5506.93305 1.0669 1.55512-.9292.62197-1.7208 1.07131-2.3748 1.41688.3098.13815.6883.31099 1.1357.5529 1.1702.62196 2.4437 1.65868 2.4437 1.65868-1.9273-1.65868-1.5144-2.419 1.1357-4.28511.8259-.58738 2.3403-.51831 3.7514.20742 1.4111.72563 3.0631 2.55726 3.0631 2.55726l-1.5833 3.04093c.1033.0346.2066.0692.3098.1037.9981.2765 1.7896.2073 2.4092-.0345.7228-.4493 2.6157-2.0043 0-4.76892z" fill="#a98698" opacity=".6"/><path d="m33.8693 5.14914c.6884.27649 1.5832.76021 2.6845 1.48594 1.3079.86398 2.4436 1.83153 3.1664 2.59184-1.2046 1.58958-1.9963 3.76668-2.478 5.28728.2408.3455.5162.6911.7571 1.0367.241-.864.6539-2.1426 1.2046-3.4212.1376.0345.3097.0345.4819.0345.4129 0 .8948-.069 1.2733-.38.2753-.2074.5851-.5875.5507-1.2787 0-.65661-.5163-1.4859-1.5831-2.48813-.7573-.72573-1.7896-1.52053-2.8222-2.24616-2.9598-1.96977-5.0248-2.52267-5.954-1.58972-.6196.62207-.5506 1.38229-.3442 1.93529-1.1013.72563-2.0305 1.24404-2.6501 1.58961.4131.13825.7916.31098 1.2046.48382 1.1014-.62207 2.6845-1.6242 4.5085-3.04107zm6.5048 4.90716c.1033.1728.1376.3455.1376.4492 0 .311-.1033.4147-.1721.4838-.1376.1036-.4129.1728-.6538.1728.2064-.3802.4474-.7602.6883-1.1058zm-8.501-5.14908c.1033-.10366.3787-.17273.8261-.10366-.3442.2765-.6883.51841-1.0325.76022-.0344-.24181 0-.44923.2064-.65656z" fill="#5e12a0"/><path d="m21.0308 6.42773c-11.25417 0-20.37455 9.15767-20.37455 20.45787 0 11.3003 9.12038 20.458 20.37455 20.458 11.2542 0 20.3745-9.1577 20.3745-20.458-.0344-11.3002-9.1547-20.45787-20.3745-20.45787zm0 39.74087c-10.6346 0-19.23874-8.6393-19.23874-19.3175s8.60414-19.31758 19.23874-19.31758c10.6347 0 19.2388 8.63938 19.2388 19.31758-.0345 10.6782-8.6386 19.3175-19.2388 19.3175z" fill="#5e12a0"/><path d="m21.0278 46.2029c10.6252 0 19.2387-8.6488 19.2387-19.3175 0-10.6688-8.6135-19.31753-19.2387-19.31753-10.6253 0-19.23874 8.64873-19.23874 19.31753 0 10.6687 8.61344 19.3175 19.23874 19.3175z" fill="url(#d)" opacity=".6"/><path d="m20.8886 43.8186c-10.497-1.6932-17.62118-11.6112-15.90042-22.1512.75718-4.6651 3.09747-8.6393 6.40142-11.5075-4.8182 2.7992-8.39746 7.6717-9.36124 13.6156-1.686378 10.54 5.43786 20.4579 15.90044 22.1511 5.8508.9677 11.4951-.8638 15.6594-4.4578-3.6825 2.1771-8.1567 3.1101-12.6996 2.3498z" fill="#a98698" opacity=".6"/><path d="m24.0911 7.80999c-4.8527-.7948-9.5678.31109-13.4224 2.76461-.0689.0691-.1377.1382-.1377.1382 1.4799-.89845 3.6482-1.69326 3.6482-1.69326-5.57553 3.24836-7.29639 6.94606-7.29639 6.94606 2.16827-4.2161 8.53539-7.18797 13.52569-7.39529 4.9905-.20742 8.2599 1.27853 12.2522 4.49239 3.9923 3.2483 6.4016 9.8834 6.1606 15.136-.2064 5.2528-2.9598 9.5033-2.9598 9.5033 1.8928-2.4536 3.0286-4.2505 3.7513-6.082.1378-.5529.2753-1.1059.3443-1.6934 1.7206-10.5054-5.3691-20.38875-15.866-22.11661z" fill="url(#f)" opacity=".6"/><path d="m39.3033 26.6782c0 10.1254-8.191 18.3499-18.275 18.3499s-18.30955-8.2245-18.30955-18.3499z" fill="url(#g)"/><path d="m37.8571 26.6782c0 9.8835-7.7781 17.9699-17.5524 18.3499h.7228c10.084 0 18.2751-8.2245 18.2751-18.3499z" fill="url(#h)" opacity=".36"/><path d="m5.30004 26.6782h-2.58129c0 10.1254 8.19105 18.3499 18.27515 18.3499.4474 0 .8603 0 1.2733-.0345-9.4645-.6566-16.96716-8.6048-16.96716-18.3154z" fill="url(#i)" opacity=".7"/><path d="m39.2689 26.8855c0-2.108-3.6481-3.3175-8.5008-3.7322-3.5105-.2764-7.0554.0691-11.1165 1.3132-3.5104 1.0367-6.6768.8639-8.9827.5875-5.12796-.5875-7.95015-.6567-7.95015 1.8315 0 3.5939 7.29625 8.0864 18.24065 6.5313 5.5411-.7949 8.3976-2.419 11.6672-3.5248 3.5449-1.2096 6.6423-1.1404 6.6423-3.0065z" fill="url(#j)"/><path d="m27.0192 18.1424c1.7109 0 3.0976-1.3924 3.0976-3.1101 0-1.7178-1.3867-3.1102-3.0976-3.1102-1.7106 0-3.0973 1.3924-3.0973 3.1102 0 1.7177 1.3867 3.1101 3.0973 3.1101z" fill="#fff"/><path d="m32.0735 20.4579c.7222 0 1.3078-.5879 1.3078-1.3131 0-.7254-.5856-1.3133-1.3078-1.3133-.7223 0-1.3079.5879-1.3079 1.3133 0 .7252.5856 1.3131 1.3079 1.3131z" fill="#fff"/><path d="m36.7589 12.5788c-.0344 0-.0688 0-.0688 0-.2066-.0345-.3441-.2419-.3099-.4838.3099-1.5896 1.6176-3.11012 1.6865-3.17919.1377-.17284.413-.17284.5508-.03459.172.13825.172.41475.0343.5529-.0343.03458-1.239 1.45148-1.5143 2.83378-.0345.1727-.2066.3109-.3786.3109z" fill="url(#k)" opacity=".6"/><path d="m32.5922.622069c1.9274 0 4.302.933051 6.5048 2.557151 2.7877 2.03894 4.3364 3.83588 4.8182 5.70199.2753 1.0713.0345 2.28079-.6538 3.17919-.7228.9331-1.7898 1.4515-3.0631 1.4515-.4474 0-.9293-.0692-1.4455-.2073-.3098.7948-.5506 1.5896-.7228 2.3498 2.0993 3.2138 3.3384 7.0843 3.3384 11.2311 0 11.3002-9.1204 20.4579-20.3745 20.4579-11.25419 0-20.340084-9.1577-20.340084-20.4579s9.120374-20.45788 20.374584-20.45788c2.4779 0 4.8527.44923 7.0552 1.27862.4131-.20732.9293-.48382 1.5144-.82939-.2064-.31098-.413-.62197-.5162-.93295-.3786-.93306-.2409-2.38452.344-3.49031.4819-.89847 1.2047-1.520536 2.0995-1.727859.3098-.069175.6883-.103662 1.0669-.103662zm0-.622069c-.4129 0-.826.0345883-1.2045.13825-1.0326.24191-1.9274.93305-2.5124 2.03884-.6539 1.27863-.826 2.93742-.3786 4.00862.0688.13825.1377.31108.2409.48382-.2409.13825-.4819.27649-.7228.38016-2.2715-.79481-4.6118-1.20956-7.0209-1.20956-2.8221 0-5.5754.553-8.1566 1.65879-2.5124 1.0713-4.74948 2.59178-6.67685 4.52698-1.92727 1.9352-3.44162 4.1815-4.50856 6.7042-1.10133 2.5917-1.65189 5.3563-1.65189 8.19s.55056 5.5982 1.65189 8.1901c1.06694 2.5226 2.58129 4.7688 4.50856 6.7041 1.92737 1.9352 4.16445 3.4557 6.67685 4.5269 2.5812 1.1059 5.3345 1.6588 8.1566 1.6588 2.8222 0 5.5755-.5529 8.1567-1.6588 2.5125-1.0712 4.7495-2.5917 6.6768-4.5269 1.9274-1.9353 3.4416-4.1815 4.5086-6.7041 1.1013-2.5919 1.6519-5.3564 1.6519-8.1901 0-4.0432-1.1358-7.9481-3.304-11.3348.1032-.5184.2753-1.0367.4474-1.5551.3442.0692.7228.1037 1.067.1037 1.4455 0 2.7188-.5874 3.5448-1.6933.7915-1.0367 1.1014-2.48809.7573-3.69764-.5508-2.00426-2.1338-3.90495-5.0593-6.01297-2.3059-1.762347-4.8183-2.72999-6.8489-2.72999z" fill="#fff"/><path d="m19.7529 41.2614c.5321 0 .9635-.4333.9635-.9677 0-.5343-.4314-.9675-.9635-.9675-.5324 0-.9638.4332-.9638.9675 0 .5344.4314.9677.9638.9677z" fill="#fff" opacity=".2"/><path d="m19.2029 40.9504c-.3786-.3802-.3786-1.0021 0-1.3823.0688-.0691.1377-.1037.2065-.1728-.1377.0346-.2409.1036-.3442.2074-.3786.3801-.3786 1.0021 0 1.3823.3097.311.7916.38 1.1702.1727-.3441.1383-.7573.0692-1.0325-.2073z" fill="url(#l)" opacity=".24"/><path d="m20.097 40.017c.1141 0 .2065-.0928.2065-.2073s-.0924-.2074-.2065-.2074c-.114 0-.2064.0929-.2064.2074s.0924.2073.2064.2073z" fill="#fff" opacity=".3"/><path d="m24.784 40.7775c.5322 0 .9636-.4332.9636-.9676s-.4314-.9676-.9636-.9676-.9637.4332-.9637.9676.4315.9676.9637.9676z" fill="#fff" opacity=".2"/><path d="m24.2262 40.4321c-.3786-.3802-.3786-1.0023 0-1.3823.0688-.0692.1378-.1038.2065-.1728-.1377.0345-.2409.1036-.3441.2073-.3785.3801-.3785 1.0022 0 1.3823.3097.311.7915.3801 1.1702.1728-.3443.1727-.7572.1037-1.0326-.2073z" fill="url(#m)" opacity=".24"/><path d="m25.1205 39.5333c.1141 0 .2065-.0928.2065-.2073s-.0924-.2073-.2065-.2073c-.114 0-.2064.0928-.2064.2073s.0924.2073.2064.2073z" fill="#fff" opacity=".3"/><path d="m22.3009 43.024c.3991 0 .7227-.3249.7227-.7258 0-.4007-.3236-.7257-.7227-.7257-.3992 0-.7228.325-.7228.7257 0 .4009.3236.7258.7228.7258z" fill="#fff" opacity=".2"/><path d="m21.8877 42.782c-.2752-.2765-.2752-.7602 0-1.0367.0345-.0346.1033-.0691.1378-.1037-.1033.0346-.172.1037-.2409.1727-.2753.2765-.2753.7604 0 1.0368.2409.2419.585.2764.8948.1036-.2753.0692-.5852.0346-.7917-.1727z" fill="url(#n)" opacity=".24"/><path d="m22.5439 42.0563c.076 0 .1376-.0619.1376-.1383 0-.0763-.0616-.1382-.1376-.1382-.0761 0-.1377.0619-.1377.1382 0 .0764.0616.1383.1377.1383z" fill="#fff" opacity=".3"/><path d="m26.7384 42.5053c.3991 0 .7226-.3249.7226-.7256 0-.4009-.3235-.7257-.7226-.7257-.3992 0-.7228.3248-.7228.7257 0 .4007.3236.7256.7228.7256z" fill="#fff" opacity=".2"/><path d="m26.3253 42.2637c-.2752-.2765-.2752-.7603 0-1.0367.0345-.0346.1033-.0692.1377-.1037-.1032.0345-.172.1037-.2409.1727-.2753.2765-.2753.7602 0 1.0367.2409.242.5851.2765.8948.1037-.2753.0692-.5849.0346-.7916-.1727z" fill="url(#o)" opacity=".24"/><path d="m26.9815 41.5379c.076 0 .1375-.0619.1375-.1382 0-.0764-.0615-.1382-.1375-.1382-.0761 0-.1377.0618-.1377.1382 0 .0763.0616.1382.1377.1382z" fill="#fff" opacity=".3"/><path d="m15.6613 40.9158c.8745 0 1.5832-.7116 1.5832-1.5896 0-.8779-.7087-1.5896-1.5832-1.5896-.8743 0-1.5832.7117-1.5832 1.5896 0 .878.7089 1.5896 1.5832 1.5896z" fill="#fff" opacity=".2"/><path d="m14.7649 40.3629c-.6195-.622-.6195-1.6242 0-2.2462.1032-.1037.2064-.1728.3442-.2419-.2066.0691-.3787.2073-.5507.3455-.6195.6221-.6195 1.6242 0 2.2463.5162.5183 1.3077.622 1.9273.2419-.5851.2419-1.2734.1037-1.7208-.3456z" fill="url(#p)" opacity=".24"/><path d="m16.2114 38.8769c.1901 0 .3442-.1547.3442-.3455 0-.1909-.1541-.3456-.3442-.3456-.19 0-.3442.1547-.3442.3456 0 .1908.1542.3455.3442.3455z" fill="#fff" opacity=".3"/><path d="m29.8019 37.0108c.8743 0 1.5832-.7117 1.5832-1.5896 0-.878-.7089-1.5897-1.5832-1.5897-.8745 0-1.5831.7117-1.5831 1.5897 0 .8779.7086 1.5896 1.5831 1.5896z" fill="#fff" opacity=".2"/><path d="m28.8742 36.4579c-.6195-.6221-.6195-1.6242 0-2.2463.1033-.1036.2065-.1727.3442-.2419-.2065.0692-.3786.2073-.5507.3456-.6194.6221-.6194 1.6242 0 2.2463.5163.5183 1.3078.6219 1.9273.2419-.5851.2419-1.239.1036-1.7208-.3456z" fill="url(#q)" opacity=".24"/><path d="m30.3521 34.972c.1899 0 .3441-.1546.3441-.3454 0-.1909-.1542-.3456-.3441-.3456-.1902 0-.3443.1547-.3443.3456 0 .1908.1541.3454.3443.3454z" fill="#fff" opacity=".3"/></svg>