<svg width="45" height="48" viewBox="0 0 45 48" fill="none" xmlns="http://www.w3.org/2000/svg">
<path d="M44.4126 8.47885C43.918 6.59861 42.3281 4.71836 39.4661 2.62528C37.1696 0.957873 34.7317 0 32.7885 0C32.3998 0 32.0464 0.0355049 31.693 0.106416C30.8098 0.283851 30.0325 0.922366 29.5379 1.88024C28.9372 3.01545 28.796 4.54103 29.1846 5.4634C29.3259 5.74715 29.5025 6.10192 29.7146 6.42128C27.842 7.55648 26.782 7.87574 26.6406 7.91125C31.5164 9.54315 35.5796 12.949 38.1236 17.3835L38.1589 16.9578C38.2649 15.7516 38.6182 14.4389 39.1128 13.0554C39.6075 13.1973 40.1021 13.2682 40.5967 13.2682C41.9041 13.2682 43.0347 12.736 43.7413 11.7783C44.4479 10.8204 44.7306 9.57865 44.4126 8.47885Z" fill="#5E12A0"/>
<path d="M39.3189 12.0267C42.5342 12.9137 43.8413 10.4303 43.4174 8.7629C42.9935 7.09549 41.4742 5.39258 38.8595 3.47682C36.2451 1.56107 33.5951 0.780632 31.8993 1.1354C30.2032 1.49016 29.7087 4.07994 30.1326 5.07332C30.3092 5.46349 30.698 6.03119 31.2279 6.66971C30.5565 7.13089 29.9206 7.48566 29.3906 7.80502C32.6412 9.25948 35.4678 11.53 37.5876 14.3681C37.835 13.4102 38.1883 12.5589 38.5063 11.8139C38.7536 11.8848 39.0362 11.9558 39.3189 12.0267Z" fill="url(#paint0_radial_2818_63126)"/>
<path d="M20.9224 46.8291C31.8303 46.8291 40.6729 37.9502 40.6729 26.9977C40.6729 16.0451 31.8303 7.16626 20.9224 7.16626C10.0144 7.16626 1.17188 16.0451 1.17188 26.9977C1.17188 37.9502 10.0144 46.8291 20.9224 46.8291Z" fill="url(#paint1_radial_2818_63126)"/>
<path opacity="0.6" d="M41.7991 7.16629C39.1138 4.32817 36.8527 3.58313 34.132 2.98002C32.0121 2.48333 32.5775 1.27721 35.1566 1.52545C33.92 1.09978 32.7541 0.993357 31.9061 1.17069C30.2102 1.52545 29.7155 4.11533 30.1395 5.10861C30.3161 5.49888 30.7048 6.06649 31.2348 6.7051C30.2809 7.34362 29.4683 7.80491 28.7969 8.15967C29.1149 8.3015 29.5035 8.47893 29.9628 8.72728C31.1641 9.36579 32.4715 10.4301 32.4715 10.4301C30.4929 8.72728 30.9168 7.94673 33.6374 6.03098C34.4853 5.42797 36.0399 5.49888 37.4886 6.24392C38.9372 6.98885 40.6331 8.8692 40.6331 8.8692L39.0078 11.9911C39.1138 12.0266 39.2198 12.0621 39.3258 12.0975C40.3504 12.3813 41.163 12.3103 41.7991 12.0621C42.5411 11.6008 44.4843 10.0044 41.7991 7.16629Z" fill="#A98698"/>
<path d="M34.0994 4.68321C34.8061 4.96706 35.7247 5.46365 36.8554 6.20868C38.198 7.09565 39.3639 8.08893 40.1059 8.86947C38.8693 10.5014 38.0566 12.7364 37.5621 14.2974C37.8093 14.6521 38.092 15.0069 38.3393 15.3617C38.5867 14.4747 39.0106 13.1621 39.5759 11.8495C39.7172 11.8849 39.8938 11.8849 40.0706 11.8849C40.4945 11.8849 40.9893 11.814 41.3779 11.4948C41.6605 11.2818 41.9785 10.8916 41.9432 10.1821C41.9432 9.50799 41.4132 8.65663 40.3179 7.62774C39.5405 6.88271 38.4807 6.06676 37.4207 5.32182C34.3821 3.29965 32.2622 2.73205 31.3082 3.68982C30.6722 4.32844 30.743 5.10888 30.9549 5.67659C29.8243 6.42152 28.8704 6.95372 28.2344 7.30849C28.6584 7.45041 29.047 7.62774 29.471 7.80518C30.6016 7.16656 32.2269 6.13777 34.0994 4.68321ZM40.7772 9.72093C40.8832 9.89826 40.9185 10.0756 40.9185 10.1821C40.9185 10.5014 40.8124 10.6078 40.7418 10.6787C40.6005 10.7851 40.3179 10.8561 40.0706 10.8561C40.2825 10.4659 40.5299 10.0757 40.7772 9.72093ZM32.0502 4.43486C32.1562 4.32844 32.4389 4.25753 32.8982 4.32844C32.5449 4.61229 32.1916 4.86064 31.8383 5.10888C31.8028 4.86064 31.8382 4.6477 32.0502 4.43486Z" fill="#5E12A0"/>
<path d="M20.9166 5.99561C9.363 5.99561 0 15.3969 0 26.9978C0 38.5986 9.363 47.9999 20.9166 47.9999C32.4702 47.9999 41.8331 38.5986 41.8331 26.9978C41.7978 15.3969 32.4348 5.99561 20.9166 5.99561ZM20.9166 46.7937C9.99902 46.7937 1.16603 37.9246 1.16603 26.9622C1.16603 16 9.99902 7.13081 20.9166 7.13081C31.8342 7.13081 40.6672 16 40.6672 26.9622C40.6318 37.9246 31.7988 46.7937 20.9166 46.7937Z" fill="#5E12A0"/>
<path opacity="0.6" d="M20.9224 46.8291C31.8303 46.8291 40.6729 37.9502 40.6729 26.9977C40.6729 16.0451 31.8303 7.16626 20.9224 7.16626C10.0144 7.16626 1.17188 16.0451 1.17188 26.9977C1.17188 37.9502 10.0144 46.8291 20.9224 46.8291Z" fill="url(#paint2_linear_2818_63126)"/>
<path opacity="0.6" d="M20.7798 44.3813C10.0034 42.643 2.68977 32.4612 4.45631 21.6408C5.23363 16.8515 7.63618 12.7717 11.0281 9.82715C6.08165 12.7008 2.40717 17.7029 1.41774 23.8049C-0.313494 34.6253 7.00027 44.8071 17.7412 46.5454C23.7476 47.5388 29.5421 45.6585 33.8171 41.9689C30.0367 44.2039 25.4435 45.1618 20.7798 44.3813Z" fill="#A98698"/>
<path opacity="0.6" d="M24.0567 7.41466C19.0749 6.59871 14.2344 7.73403 10.2772 10.2528C10.2065 10.3238 10.1359 10.3947 10.1359 10.3947C11.6551 9.47234 13.8811 8.6564 13.8811 8.6564C8.15726 11.9912 6.39062 15.7872 6.39062 15.7872C8.61657 11.459 15.1531 8.40805 20.2761 8.19521C25.3993 7.98227 28.7558 9.50775 32.8543 12.8072C36.9528 16.1419 39.4261 22.9534 39.1787 28.3458C38.9668 33.7383 36.1402 38.1019 36.1402 38.1019C38.0834 35.583 39.2493 33.7383 39.9914 31.858C40.1328 31.2904 40.274 30.7227 40.3448 30.1196C42.1112 19.3347 34.8328 9.18849 24.0567 7.41466Z" fill="url(#paint3_linear_2818_63126)"/>
<path d="M39.675 26.7849C39.675 37.1796 31.2661 45.623 20.9138 45.623C10.5616 45.623 2.11719 37.1796 2.11719 26.7849H39.675Z" fill="url(#paint4_linear_2818_63126)"/>
<g opacity="0.6">
<path opacity="0.6" d="M38.1991 26.7849C38.1991 36.9313 30.214 45.2328 20.1797 45.623C20.427 45.623 20.6744 45.623 20.9217 45.623C31.274 45.623 39.683 37.1796 39.683 26.7849H38.1991Z" fill="url(#paint5_linear_2818_63126)"/>
</g>
<g opacity="0.7">
<path d="M4.76715 26.7849H2.11719C2.11719 37.1796 10.5262 45.623 20.8785 45.623C21.3378 45.623 21.7617 45.623 22.1857 45.5876C12.4694 44.9134 4.76715 36.7538 4.76715 26.7849Z" fill="url(#paint6_linear_2818_63126)"/>
</g>
<path d="M39.6397 26.9976C39.6397 24.8335 35.8945 23.5919 30.9127 23.1661C27.3088 22.8824 23.6697 23.2371 19.5005 24.5143C15.8967 25.5786 12.6461 25.4011 10.2789 25.1174C5.01445 24.5143 2.11719 24.4433 2.11719 26.9976C2.11719 30.6872 9.60755 35.2992 20.8431 33.7027C26.5316 32.8867 29.4641 31.2193 32.8207 30.0841C36.4598 28.8424 39.6397 28.9134 39.6397 26.9976Z" fill="url(#paint7_linear_2818_63126)"/>
<path d="M27.0626 18.022C28.8189 18.022 30.2425 16.5925 30.2425 14.8291C30.2425 13.0657 28.8189 11.6362 27.0626 11.6362C25.3065 11.6362 23.8828 13.0657 23.8828 14.8291C23.8828 16.5925 25.3065 18.022 27.0626 18.022Z" fill="white"/>
<path d="M32.2645 20.3991C33.006 20.3991 33.6071 19.7955 33.6071 19.051C33.6071 18.3064 33.006 17.7029 32.2645 17.7029C31.523 17.7029 30.9219 18.3064 30.9219 19.051C30.9219 19.7955 31.523 20.3991 32.2645 20.3991Z" fill="white"/>
<g opacity="0.6">
<path d="M37.0581 12.3105C37.0228 12.3105 36.9876 12.3105 36.9876 12.3105C36.7754 12.275 36.6342 12.0621 36.6694 11.8138C36.9876 10.1819 38.3301 8.62091 38.4008 8.54999C38.5421 8.37256 38.8248 8.37256 38.9662 8.51449C39.1428 8.65641 39.1428 8.94027 39.0014 9.08209C38.9662 9.1176 37.7295 10.5722 37.4469 11.9912C37.4115 12.1686 37.2347 12.3105 37.0581 12.3105Z" fill="url(#paint8_linear_2818_63126)"/>
</g>
<path opacity="0.2" d="M19.6144 41.7559C20.1607 41.7559 20.6036 41.3112 20.6036 40.7626C20.6036 40.214 20.1607 39.7693 19.6144 39.7693C19.068 39.7693 18.625 40.214 18.625 40.7626C18.625 41.3112 19.068 41.7559 19.6144 41.7559Z" fill="white"/>
<g opacity="0.4">
<path opacity="0.6" d="M19.0422 41.4366C18.6536 41.0463 18.6536 40.4078 19.0422 40.0175C19.1129 39.9466 19.1836 39.9111 19.2542 39.8401C19.1129 39.8756 19.0069 39.9465 18.9009 40.053C18.5122 40.4432 18.5122 41.0818 18.9009 41.4721C19.2188 41.7914 19.7135 41.8623 20.1022 41.6494C19.7489 41.7914 19.3248 41.7204 19.0422 41.4366Z" fill="url(#paint9_linear_2818_63126)"/>
</g>
<path opacity="0.3" d="M19.9697 40.4785C20.0869 40.4785 20.1817 40.3832 20.1817 40.2657C20.1817 40.1481 20.0869 40.0527 19.9697 40.0527C19.8527 40.0527 19.7578 40.1481 19.7578 40.2657C19.7578 40.3832 19.8527 40.4785 19.9697 40.4785Z" fill="white"/>
<path opacity="0.2" d="M24.7706 41.2591C25.3169 41.2591 25.7598 40.8144 25.7598 40.2658C25.7598 39.7172 25.3169 39.2725 24.7706 39.2725C24.2242 39.2725 23.7812 39.7172 23.7812 40.2658C23.7812 40.8144 24.2242 41.2591 24.7706 41.2591Z" fill="white"/>
<g opacity="0.4">
<path opacity="0.6" d="M24.2062 40.9046C23.8175 40.5143 23.8175 39.8757 24.2062 39.4855C24.2768 39.4145 24.3476 39.379 24.4182 39.3081C24.2768 39.3436 24.1709 39.4145 24.0649 39.5209C23.6763 39.9112 23.6763 40.5498 24.0649 40.94C24.3828 41.2594 24.8775 41.3303 25.2662 41.1174C24.9128 41.2948 24.4889 41.2239 24.2062 40.9046Z" fill="url(#paint10_linear_2818_63126)"/>
</g>
<path opacity="0.3" d="M25.126 39.9821C25.2431 39.9821 25.338 39.8868 25.338 39.7692C25.338 39.6517 25.2431 39.5564 25.126 39.5564C25.0089 39.5564 24.9141 39.6517 24.9141 39.7692C24.9141 39.8868 25.0089 39.9821 25.126 39.9821Z" fill="white"/>
<path opacity="0.2" d="M22.2186 43.5655C22.6283 43.5655 22.9605 43.232 22.9605 42.8205C22.9605 42.4091 22.6283 42.0754 22.2186 42.0754C21.8087 42.0754 21.4766 42.4091 21.4766 42.8205C21.4766 43.232 21.8087 43.5655 22.2186 43.5655Z" fill="white"/>
<g opacity="0.4">
<path opacity="0.6" d="M21.7944 43.3172C21.5118 43.0333 21.5118 42.5368 21.7944 42.2529C21.8298 42.2174 21.9004 42.182 21.9358 42.1465C21.8298 42.182 21.7592 42.2529 21.6885 42.3238C21.4059 42.6077 21.4059 43.1044 21.6885 43.3881C21.9358 43.6365 22.2891 43.672 22.6071 43.4945C22.3245 43.5655 22.0064 43.53 21.7944 43.3172Z" fill="url(#paint11_linear_2818_63126)"/>
</g>
<path opacity="0.3" d="M22.4694 42.5722C22.5474 42.5722 22.6107 42.5087 22.6107 42.4303C22.6107 42.3519 22.5474 42.2883 22.4694 42.2883C22.3913 42.2883 22.3281 42.3519 22.3281 42.4303C22.3281 42.5087 22.3913 42.5722 22.4694 42.5722Z" fill="white"/>
<path opacity="0.2" d="M26.7811 43.0329C27.1908 43.0329 27.5229 42.6994 27.5229 42.288C27.5229 41.8765 27.1908 41.543 26.7811 41.543C26.3712 41.543 26.0391 41.8765 26.0391 42.288C26.0391 42.6994 26.3712 43.0329 26.7811 43.0329Z" fill="white"/>
<g opacity="0.4">
<path opacity="0.6" d="M26.357 42.785C26.0744 42.5011 26.0744 42.0044 26.357 41.7207C26.3924 41.6852 26.463 41.6497 26.4983 41.6143C26.3924 41.6497 26.3217 41.7207 26.251 41.7916C25.9684 42.0754 25.9684 42.572 26.251 42.8559C26.4983 43.1042 26.8517 43.1397 27.1696 42.9623C26.887 43.0333 26.5691 42.9978 26.357 42.785Z" fill="url(#paint12_linear_2818_63126)"/>
</g>
<path opacity="0.3" d="M27.0242 42.0399C27.1022 42.0399 27.1654 41.9763 27.1654 41.898C27.1654 41.8196 27.1022 41.7561 27.0242 41.7561C26.9461 41.7561 26.8828 41.8196 26.8828 41.898C26.8828 41.9763 26.9461 42.0399 27.0242 42.0399Z" fill="white"/>
<path opacity="0.2" d="M15.4066 41.4012C16.3043 41.4012 17.0318 40.6707 17.0318 39.7693C17.0318 38.8681 16.3043 38.1375 15.4066 38.1375C14.509 38.1375 13.7812 38.8681 13.7812 39.7693C13.7812 40.6707 14.509 41.4012 15.4066 41.4012Z" fill="white"/>
<g opacity="0.4">
<path opacity="0.6" d="M14.4859 40.8337C13.8499 40.195 13.8499 39.1663 14.4859 38.5276C14.5918 38.4212 14.6978 38.3503 14.8392 38.2793C14.6272 38.3503 14.4505 38.4921 14.2739 38.6341C13.6379 39.2727 13.6379 40.3015 14.2739 40.9401C14.8038 41.4722 15.6164 41.5786 16.2524 41.1884C15.6518 41.4368 14.9452 41.2949 14.4859 40.8337Z" fill="url(#paint13_linear_2818_63126)"/>
</g>
<path opacity="0.3" d="M15.9706 39.3082C16.1657 39.3082 16.3239 39.1493 16.3239 38.9534C16.3239 38.7574 16.1657 38.5986 15.9706 38.5986C15.7755 38.5986 15.6172 38.7574 15.6172 38.9534C15.6172 39.1493 15.7755 39.3082 15.9706 39.3082Z" fill="white"/>
<path opacity="0.2" d="M29.9299 37.3922C30.8275 37.3922 31.5553 36.6617 31.5553 35.7603C31.5553 34.859 30.8275 34.1284 29.9299 34.1284C29.0322 34.1284 28.3047 34.859 28.3047 35.7603C28.3047 36.6617 29.0322 37.3922 29.9299 37.3922Z" fill="white"/>
<g opacity="0.4">
<path opacity="0.6" d="M28.978 36.8249C28.342 36.1863 28.342 35.1575 28.978 34.5189C29.084 34.4124 29.19 34.3415 29.3313 34.2705C29.1193 34.3415 28.9427 34.4833 28.766 34.6253C28.1301 35.2639 28.1301 36.2927 28.766 36.9313C29.296 37.4634 30.1086 37.5698 30.7445 37.1796C30.1439 37.428 29.4726 37.2861 28.978 36.8249Z" fill="url(#paint14_linear_2818_63126)"/>
</g>
<path opacity="0.3" d="M30.494 35.2993C30.6891 35.2993 30.8473 35.1405 30.8473 34.9446C30.8473 34.7486 30.6891 34.5898 30.494 34.5898C30.2988 34.5898 30.1406 34.7486 30.1406 34.9446C30.1406 35.1405 30.2988 35.2993 30.494 35.2993Z" fill="white"/>
<defs>
<radialGradient id="paint0_radial_2818_63126" cx="0" cy="0" r="1" gradientUnits="userSpaceOnUse" gradientTransform="translate(42.773 6.54673) scale(15.7914 15.856)">
<stop stop-color="#FFEAFF" stop-opacity="0.6"/>
<stop offset="0.6807" stop-color="#A087C9"/>
<stop offset="1" stop-color="#10002F"/>
</radialGradient>
<radialGradient id="paint1_radial_2818_63126" cx="0" cy="0" r="1" gradientUnits="userSpaceOnUse" gradientTransform="translate(33.9988 13.309) scale(38.6359 38.794)">
<stop stop-color="#FFEAFF" stop-opacity="0.6"/>
<stop offset="0.6807" stop-color="#A087C9"/>
<stop offset="1" stop-color="#10002F"/>
</radialGradient>
<linearGradient id="paint2_linear_2818_63126" x1="17.7584" y1="46.529" x2="24.126" y2="7.4043" gradientUnits="userSpaceOnUse">
<stop stop-color="#81FFFF"/>
<stop offset="0.6202" stop-color="white" stop-opacity="0"/>
</linearGradient>
<linearGradient id="paint3_linear_2818_63126" x1="34.8312" y1="13.513" x2="18.4384" y2="28.4926" gradientUnits="userSpaceOnUse">
<stop offset="0.2888" stop-color="white"/>
<stop offset="0.7796" stop-color="white" stop-opacity="0"/>
</linearGradient>
<linearGradient id="paint4_linear_2818_63126" x1="2.13312" y1="36.2119" x2="39.6659" y2="36.2119" gradientUnits="userSpaceOnUse">
<stop stop-color="#0002E9"/>
<stop offset="0.9952" stop-color="#FF00C7"/>
</linearGradient>
<linearGradient id="paint5_linear_2818_63126" x1="41.4506" y1="28.4569" x2="20.9428" y2="47.7588" gradientUnits="userSpaceOnUse">
<stop offset="0.2888" stop-color="white"/>
<stop offset="0.7796" stop-color="white" stop-opacity="0"/>
</linearGradient>
<linearGradient id="paint6_linear_2818_63126" x1="2.13312" y1="36.2119" x2="22.213" y2="36.2119" gradientUnits="userSpaceOnUse">
<stop stop-color="#000292"/>
<stop offset="0.9952" stop-color="#7D00C7"/>
</linearGradient>
<linearGradient id="paint7_linear_2818_63126" x1="2.15832" y1="28.5461" x2="39.6407" y2="28.5461" gradientUnits="userSpaceOnUse">
<stop stop-color="#000292"/>
<stop offset="0.9952" stop-color="#BE00C7"/>
</linearGradient>
<linearGradient id="paint8_linear_2818_63126" x1="39.0234" y1="8.36069" x2="36.3135" y2="12.7464" gradientUnits="userSpaceOnUse">
<stop offset="0.2888" stop-color="white"/>
<stop offset="0.7796" stop-color="white" stop-opacity="0"/>
</linearGradient>
<linearGradient id="paint9_linear_2818_63126" x1="18.6084" y1="40.8118" x2="20.1033" y2="40.8118" gradientUnits="userSpaceOnUse">
<stop offset="0.2888" stop-color="white"/>
<stop offset="0.7796" stop-color="white" stop-opacity="0"/>
</linearGradient>
<linearGradient id="paint10_linear_2818_63126" x1="23.7688" y1="40.3086" x2="25.2637" y2="40.3086" gradientUnits="userSpaceOnUse">
<stop offset="0.2888" stop-color="white"/>
<stop offset="0.7796" stop-color="white" stop-opacity="0"/>
</linearGradient>
<linearGradient id="paint11_linear_2818_63126" x1="21.4718" y1="42.8479" x2="22.5941" y2="42.8479" gradientUnits="userSpaceOnUse">
<stop offset="0.2888" stop-color="white"/>
<stop offset="0.7796" stop-color="white" stop-opacity="0"/>
</linearGradient>
<linearGradient id="paint12_linear_2818_63126" x1="26.0191" y1="42.3143" x2="27.1414" y2="42.3143" gradientUnits="userSpaceOnUse">
<stop offset="0.2888" stop-color="white"/>
<stop offset="0.7796" stop-color="white" stop-opacity="0"/>
</linearGradient>
<linearGradient id="paint13_linear_2818_63126" x1="13.7806" y1="39.8299" x2="16.2219" y2="39.8299" gradientUnits="userSpaceOnUse">
<stop offset="0.2888" stop-color="white"/>
<stop offset="0.7796" stop-color="white" stop-opacity="0"/>
</linearGradient>
<linearGradient id="paint14_linear_2818_63126" x1="28.2864" y1="35.8198" x2="30.7276" y2="35.8198" gradientUnits="userSpaceOnUse">
<stop offset="0.2888" stop-color="white"/>
<stop offset="0.7796" stop-color="white" stop-opacity="0"/>
</linearGradient>
</defs>
</svg>
