<svg width="398" height="724" viewBox="0 0 398 724" fill="none" xmlns="http://www.w3.org/2000/svg">
<g clip-path="url(#clip0_2818_62947)">
<path d="M65.1651 36.1416C83.8171 25.3737 114.058 25.3737 132.71 36.1416C151.362 46.9095 151.362 64.3678 132.71 75.1357L101.318 93.2587C82.6657 104.027 52.4249 104.027 33.7729 93.2587C15.121 82.4907 15.121 65.0325 33.7729 54.2645L65.1651 36.1416Z" fill="#010304"/>
<path fill-rule="evenodd" clip-rule="evenodd" d="M100.452 92.7587L131.844 74.6357C150.018 64.1439 150.018 47.1334 131.844 36.6416C113.67 26.1498 84.2048 26.1498 66.0312 36.6416L34.639 54.7645C16.4653 65.2563 16.4653 82.2669 34.639 92.7587C52.8127 103.25 82.278 103.25 100.452 92.7587ZM132.71 36.1416C114.058 25.3737 83.8171 25.3737 65.1651 36.1416L33.7729 54.2645C15.121 65.0325 15.121 82.4907 33.7729 93.2587C52.4249 104.027 82.6657 104.027 101.318 93.2587L132.71 75.1357C151.362 64.3678 151.362 46.9095 132.71 36.1416Z" fill="#3D3D3D"/>
<path d="M387.165 630.265C405.817 619.497 436.058 619.497 454.71 630.265C473.362 641.033 473.362 658.491 454.71 669.259L423.318 687.382C404.666 698.15 374.425 698.15 355.773 687.382C337.121 676.614 337.121 659.156 355.773 648.388L387.165 630.265Z" fill="#010304"/>
<path fill-rule="evenodd" clip-rule="evenodd" d="M422.452 686.882L453.844 668.759C472.018 658.267 472.018 641.256 453.844 630.765C435.67 620.273 406.205 620.273 388.031 630.765L356.639 648.888C338.465 659.379 338.465 676.39 356.639 686.882C374.813 697.374 404.278 697.374 422.452 686.882ZM454.71 630.265C436.058 619.497 405.817 619.497 387.165 630.265L355.773 648.388C337.121 659.156 337.121 676.614 355.773 687.382C374.425 698.15 404.666 698.15 423.318 687.382L454.71 669.259C473.362 658.491 473.362 641.033 454.71 630.265Z" fill="#3D3D3D"/>
<path d="M70.5586 121.5C70.5572 78.08 70.5565 56.3699 78.1055 44.2643C84.1974 34.4952 93.607 29.0625 105.113 28.6713C119.372 28.1865 138.173 39.0421 175.775 60.7533L369.722 172.737C407.324 194.448 426.125 205.304 440.384 222.254C451.891 235.933 461.301 252.232 467.394 269.037C474.944 289.86 474.945 311.57 474.946 354.991L474.953 578.946C474.955 622.366 474.955 644.076 467.406 656.181C461.315 665.951 451.905 671.383 440.399 671.774C426.14 672.259 407.339 661.404 369.737 639.692L175.79 527.709C138.188 505.997 119.386 495.142 105.128 478.191C93.6209 464.513 84.2106 448.214 78.1178 431.409C70.5678 410.585 70.5671 388.875 70.5657 345.455L70.5586 121.5Z" fill="#010304"/>
<path fill-rule="evenodd" clip-rule="evenodd" d="M369.722 173.737L175.775 61.7533C156.959 50.8892 142.901 42.773 131.763 37.4273C120.636 32.0867 112.502 29.5516 105.519 29.7891C94.1657 30.1751 84.8816 35.5353 78.8708 45.1741C75.1736 51.103 73.3022 59.4147 72.3636 71.7216C71.4241 84.0402 71.4239 100.273 71.4246 122L71.4317 345.955C71.4324 367.682 71.4336 383.916 72.3739 397.32C73.3134 410.711 75.1854 421.184 78.8831 431.383C84.8947 447.963 94.1795 464.045 105.533 477.542C112.516 485.843 120.65 492.701 131.778 500.21C142.916 507.727 156.974 515.844 175.79 526.709L369.737 638.692C388.553 649.557 402.611 657.673 413.749 663.018C424.876 668.359 433.01 670.894 439.993 670.657C451.346 670.271 460.63 664.911 466.641 655.272C470.338 649.343 472.21 641.031 473.148 628.724C474.088 616.406 474.088 600.173 474.087 578.446L474.08 354.49C474.08 332.763 474.078 316.53 473.138 303.126C472.199 289.735 470.327 279.261 466.629 269.063C460.617 252.482 451.332 236.401 439.979 222.904C432.996 214.603 424.862 207.745 413.734 200.236C402.596 192.719 388.538 184.601 369.722 173.737ZM78.1055 44.2643C70.5565 56.3699 70.5572 78.0799 70.5586 121.5L70.5657 345.455C70.5671 388.875 70.5678 410.585 78.1178 431.409C84.2106 448.214 93.6209 464.513 105.128 478.191C119.386 495.142 138.188 505.997 175.79 527.709L369.737 639.692C407.339 661.404 426.14 672.259 440.399 671.774C451.905 671.383 461.315 665.951 467.406 656.181C474.955 644.076 474.955 622.366 474.953 578.946L474.946 354.991C474.945 311.57 474.944 289.86 467.394 269.037C461.301 252.232 451.891 235.933 440.384 222.254C426.125 205.304 407.324 194.448 369.722 172.737L175.775 60.7533C138.173 39.0421 119.372 28.1865 105.113 28.6713C93.607 29.0625 84.1974 34.4952 78.1055 44.2643Z" fill="#3D3D3D"/>
<path d="M99.5 28.7676H96L90 30.2676L79 34.2676L68 56.2676L76 59.7676L79 59.2676L108 40.7676C109.667 37.4342 112.3 30.5676 109.5 29.7676C106.7 28.9676 101.667 28.7676 99.5 28.7676Z" fill="#010304"/>
<path d="M150.5 47.2676L135.5 39.2676L111 79.2676L127 88.2676L150.5 68.2676V47.2676Z" fill="#010304"/>
<path d="M13.5585 142.88C13.5571 100.039 13.5565 78.6183 21.0048 66.6741C27.0155 57.0352 36.2996 51.675 47.6525 51.289C61.7207 50.8107 80.2711 61.5216 117.372 82.9433L314.125 196.547C351.226 217.969 369.776 228.68 383.845 245.404C395.198 258.901 404.483 274.982 410.495 291.563C417.944 312.109 417.945 333.529 417.946 376.371L417.953 603.566C417.955 646.407 417.955 667.827 410.507 679.772C404.496 689.411 395.212 694.771 383.859 695.157C369.791 695.635 351.241 684.924 314.14 663.502L117.387 549.899C80.286 528.477 61.7355 517.766 47.6668 501.042C36.3135 487.545 27.0287 471.463 21.0172 454.883C13.5678 434.337 13.5671 412.916 13.5657 370.075L13.5585 142.88Z" fill="#010304"/>
<path fill-rule="evenodd" clip-rule="evenodd" d="M314.125 197.547L117.372 83.9433C98.8067 73.2239 84.9367 65.2163 73.9478 59.9421C62.9696 54.6731 54.9459 52.1726 48.0578 52.4068C36.8583 52.7876 27.6997 58.0753 21.7702 67.5839C18.1233 73.4321 16.277 81.6311 15.351 93.7731C14.424 105.927 14.4238 121.942 14.4245 143.38L14.4318 370.575C14.4324 392.013 14.4337 408.029 15.3614 421.254C16.2882 434.466 18.1351 444.797 21.7825 454.857C27.7128 471.213 36.8722 487.078 48.0721 500.392C54.9604 508.58 62.9843 515.346 73.9626 522.754C84.9515 530.17 98.8216 538.179 117.387 548.899L314.14 662.502C332.705 673.222 346.575 681.23 357.564 686.504C368.542 691.773 376.566 694.273 383.454 694.039C394.654 693.658 403.812 688.37 409.742 678.862C413.389 673.014 415.235 664.815 416.161 652.673C417.088 640.519 417.088 624.503 417.087 603.066L417.08 375.87C417.079 354.433 417.078 338.416 416.151 325.192C415.224 311.98 413.377 301.649 409.729 291.589C403.799 275.232 394.64 259.368 383.44 246.054C376.551 237.865 368.528 231.1 357.549 223.692C346.56 216.276 332.69 208.267 314.125 197.547ZM21.0048 66.6741C13.5565 78.6183 13.5571 100.039 13.5585 142.88L13.5657 370.075C13.5671 412.916 13.5678 434.337 21.0172 454.883C27.0287 471.463 36.3135 487.545 47.6668 501.042C61.7355 517.766 80.286 528.477 117.387 549.899L314.14 663.502C351.241 684.924 369.791 695.635 383.859 695.157C395.212 694.771 404.496 689.411 410.507 679.772C417.955 667.827 417.955 646.407 417.953 603.566L417.946 376.371C417.945 333.529 417.944 312.109 410.495 291.563C404.483 274.982 395.198 258.901 383.845 245.404C369.776 228.68 351.226 217.969 314.125 196.547L117.372 82.9433C80.2711 61.5216 61.7207 50.8107 47.6525 51.289C36.2996 51.675 27.0155 57.0352 21.0048 66.6741Z" fill="#3D3D3D"/>
<g opacity="0.2" filter="url(#filter0_f_2818_62947)">
<path fill-rule="evenodd" clip-rule="evenodd" d="M194.329 208.334C234.182 231.345 270.267 270.446 296.385 315.057C322.195 359.139 338.274 408.605 338.653 453.246L338.653 453.338L338.657 453.947L338.662 454.848L338.653 456.347L338.653 456.445C338.277 500.65 322.2 531.545 296.393 545.824C270.276 560.274 234.196 557.707 194.339 534.694C154.486 511.683 118.401 472.582 92.2821 427.972C66.1635 383.362 50.0066 333.235 50.0052 288.175C50.0038 243.115 66.158 211.649 92.2747 197.199C118.392 182.75 154.476 185.323 194.329 208.334ZM277.284 350.016C282.755 353.175 288.063 357.056 293.117 361.489C278.233 336.564 257.935 314.787 235.555 301.865C212.729 288.685 192.065 287.212 177.114 295.49C162.157 303.765 152.908 321.788 152.909 347.596C152.91 373.404 162.16 402.109 177.118 427.65C192.075 453.197 212.74 475.586 235.561 488.763C257.941 501.686 278.242 503.35 293.122 495.611C288.073 494.216 282.764 491.961 277.293 488.802C260.348 479.018 245 462.389 233.897 443.421C222.791 424.451 215.921 403.133 215.92 383.973C215.92 364.813 222.788 351.427 233.894 345.282C244.991 339.143 260.334 340.229 277.284 350.016ZM306.218 403.403C298.812 390.759 288.582 379.672 277.28 373.146C265.979 366.62 255.749 365.895 248.343 369.986C240.938 374.084 236.362 383.008 236.362 395.786C236.362 408.564 240.944 422.776 248.345 435.422C255.751 448.067 265.982 459.154 277.283 465.679C288.585 472.205 298.815 472.932 306.22 468.839C313.621 464.739 318.202 455.818 318.202 443.04L318.197 442.442C318.061 429.816 313.506 415.85 306.218 403.403ZM235.55 278.734C248.404 286.156 260.705 295.918 272.056 307.334C250.802 275.676 223.761 248.456 194.329 231.462C160.124 211.713 129.154 209.509 106.737 221.906C84.3254 234.306 70.4595 261.318 70.4608 299.991C70.462 338.67 84.3256 381.686 106.743 419.976C129.161 458.26 160.129 491.819 194.338 511.571C223.775 528.567 250.81 532.57 272.063 525.451C260.712 523.759 248.411 519.315 235.557 511.894C207.088 495.456 181.306 467.519 162.651 435.654C143.994 403.786 132.45 367.977 132.449 335.788C132.448 303.599 143.99 281.113 162.646 270.79C181.299 260.46 207.08 262.296 235.55 278.734Z" fill="#565656"/>
</g>
<path fill-rule="evenodd" clip-rule="evenodd" d="M213.138 199.095C255.899 223.784 294.617 265.739 322.641 313.604C350.334 360.903 367.587 413.978 367.993 461.876L367.993 461.975L367.997 462.629L368.002 463.595L367.993 465.204L367.993 465.308C367.59 512.739 350.34 545.888 322.649 561.209C294.627 576.713 250.724 590.382 207.958 565.689C165.198 541 123.858 509.741 95.8337 461.876C67.8094 414.011 41.6483 340.957 41.6468 292.609C41.6452 244.262 75.6156 202.651 103.638 187.147C131.66 171.643 170.377 174.405 213.138 199.095ZM302.146 351.113C308.017 354.503 304.467 354.924 309.89 359.68C293.919 332.937 275.964 324.189 251.95 310.324C227.459 296.183 210.71 283.727 194.667 292.609C178.619 301.488 156.992 326.624 156.993 354.315C156.994 382.006 167.232 415.348 183.28 442.752C199.329 470.163 217.27 489.856 241.757 503.994C265.77 517.859 303.174 515.636 319.139 507.332C313.722 505.835 288.937 503.375 283.066 499.985C264.885 489.487 260.644 495.568 248.731 475.217C236.814 454.863 219.225 415.109 219.225 394.552C219.224 373.994 243.674 352.628 255.59 346.035C267.497 339.447 283.959 340.612 302.146 351.113ZM321.156 409.037C313.21 395.471 309.141 392.97 297.014 385.968C284.888 378.966 279.039 368.151 271.093 372.541C263.148 376.938 245.512 391.035 245.512 404.745C245.513 418.455 249.426 436.24 257.367 449.809C265.313 463.376 274.159 471.606 286.285 478.607C298.412 485.609 325.248 482.998 333.194 478.607C341.135 474.208 333.194 465.665 333.194 451.955L330.813 436.397C330.666 422.85 328.976 422.393 321.156 409.037ZM257.367 274.631C271.159 282.595 261.764 290.564 273.944 302.813C251.139 268.846 221.296 242.721 189.717 224.487C153.016 203.296 143.208 200.355 119.156 213.657C95.1086 226.961 73.8366 265.074 73.8379 306.569C73.8393 348.07 87.3382 395.314 111.392 436.397C135.445 477.474 171.253 511.77 207.958 532.964C239.543 551.2 273.74 546.988 296.545 539.35C284.365 537.534 258.768 537.172 244.976 529.209C214.429 511.571 184.519 496.066 164.503 461.876C144.484 427.683 131.243 377.051 131.242 342.513C131.24 307.975 159.126 277.183 179.144 266.107C199.158 255.024 226.82 256.994 257.367 274.631Z" fill="black"/>
<path fill-rule="evenodd" clip-rule="evenodd" d="M367.993 461.975L367.993 461.876C367.587 413.978 350.334 360.903 322.641 313.604C294.617 265.739 255.899 223.784 213.138 199.095C170.377 174.405 131.66 171.643 103.638 187.147C75.6156 202.651 41.6452 244.262 41.6468 292.609C41.6483 340.957 67.8094 414.011 95.8337 461.876C123.858 509.741 165.198 541 207.958 565.689C250.724 590.382 294.627 576.713 322.649 561.209C350.34 545.888 367.59 512.739 367.993 465.308L367.993 465.204L368.002 463.595L367.997 462.629L367.993 461.975ZM367.131 462.137L367.131 462.134L367.127 461.484L367.127 461.475L367.127 461.38C366.722 413.764 349.571 361 322.035 313.968C294.168 266.372 255.666 224.65 213.138 200.095C170.61 175.539 132.109 172.794 104.244 188.212C90.2969 195.928 74.8495 210.156 62.8931 228.481C50.9292 246.817 42.512 269.176 42.5128 293.109C42.5135 317.091 49.0064 347.265 59.0144 377.448C69.0207 407.626 82.5108 437.721 96.4395 461.511C124.204 508.933 165.235 540.021 207.958 564.689C229.122 576.909 250.632 579.669 270.387 577.408C290.135 575.148 308.062 567.88 322.043 560.144C349.577 544.911 366.725 511.954 367.127 464.804L367.127 464.697L367.136 463.101L367.136 463.088L367.131 462.137ZM312.915 363.367L309.672 360.523C308.247 359.272 307.334 358.24 306.692 357.303C306.135 356.49 305.814 355.786 305.588 355.29C305.553 355.214 305.52 355.142 305.489 355.076C305.277 354.622 305.122 354.338 304.759 353.967C304.332 353.531 303.583 352.943 302.146 352.113C284.192 341.747 267.946 340.599 256.196 347.099C250.282 350.371 241.229 357.329 233.659 366.028C229.875 370.376 226.474 375.145 224.022 380.089C221.564 385.045 220.09 390.116 220.091 395.052C220.091 405.057 224.391 419.888 230.257 434.889C236.109 449.851 243.439 464.778 249.337 474.852C252.268 479.86 254.674 483.148 256.888 485.455C259.087 487.746 261.16 489.136 263.478 490.259C265.12 491.054 266.837 491.696 268.805 492.432C269.672 492.757 270.588 493.099 271.567 493.481C274.735 494.716 278.459 496.325 283.066 498.985C284.383 499.745 286.908 500.514 290.165 501.25C293.377 501.976 297.179 502.645 300.979 503.258C303.38 503.645 305.77 504.007 308.008 504.347C309.316 504.545 310.571 504.735 311.746 504.918C314.908 505.41 317.518 505.85 318.921 506.238L319.736 508.401C311.673 512.596 298.25 515.234 283.848 515.095C269.463 514.955 253.964 512.042 241.757 504.994C217.034 490.719 198.878 470.792 182.675 443.117C166.458 415.426 156.128 381.773 156.127 353.815C156.126 339.712 161.619 326.373 169.058 315.48C176.507 304.571 185.975 296.019 194.061 291.545C208.425 283.593 223.444 292.487 243.371 304.287C246.133 305.923 248.988 307.614 251.95 309.324C253.873 310.434 255.76 311.513 257.614 312.572C278.786 324.675 295.523 334.243 310.487 359.3L312.915 363.367ZM194.667 292.609C178.619 301.488 156.992 326.624 156.993 354.315C156.994 382.006 167.232 415.348 183.28 442.752C199.329 470.163 217.27 489.856 241.757 503.994C265.067 517.453 300.996 515.752 317.683 508.046C318.186 507.813 318.672 507.575 319.139 507.332C318.653 507.198 318.01 507.055 317.238 506.905C315.072 506.484 311.893 506.002 308.314 505.459C298.979 504.043 286.929 502.215 283.066 499.985C277.15 496.569 272.71 494.909 269.002 493.522C261.313 490.646 256.768 488.946 248.731 475.217C236.814 454.863 219.225 415.109 219.225 394.552C219.224 373.994 243.674 352.628 255.59 346.035C267.497 339.447 283.959 340.612 302.146 351.113C303.242 351.746 304.01 352.276 304.569 352.749C305.614 353.634 305.93 354.323 306.298 355.128C306.383 355.312 306.47 355.502 306.569 355.702C306.817 356.201 307.14 356.761 307.685 357.44C308.191 358.069 308.887 358.801 309.89 359.68C309.325 358.734 308.758 357.811 308.188 356.91C307.857 356.386 307.526 355.871 307.194 355.362C306.448 354.221 305.698 353.115 304.943 352.043C291.504 332.956 276.456 324.35 257.566 313.547C255.731 312.497 253.86 311.427 251.95 310.324C248.972 308.604 246.108 306.91 243.346 305.275C223.396 293.469 208.759 284.807 194.667 292.609ZM321.762 408.672C322.939 410.682 323.939 412.338 324.834 413.819C325.446 414.831 326.009 415.762 326.545 416.669C327.817 418.822 328.831 420.663 329.599 422.546C331.148 426.343 331.601 430.076 331.678 436.794L334.06 452.359L334.06 452.455C334.06 457.553 335.175 461.826 336.164 465.612C336.467 466.772 336.758 467.886 337.001 468.965C337.515 471.242 337.81 473.376 337.387 475.228C336.965 477.081 335.856 478.532 333.8 479.671C329.738 481.915 320.957 483.67 311.713 483.997C307.08 484.161 302.303 483.968 297.911 483.289C293.537 482.614 289.471 481.447 286.285 479.607C274.001 472.514 264.912 464.091 256.761 450.174C248.596 436.221 244.647 418.112 244.646 404.245C244.646 400.598 245.811 397.024 247.609 393.668C249.414 390.297 251.896 387.079 254.614 384.167C260.048 378.345 266.479 373.695 270.487 371.477C272.558 370.332 274.541 370.155 276.57 370.708C278.589 371.259 280.58 372.515 282.624 374.075C283.846 375.007 285.15 376.1 286.505 377.236C287.366 377.956 288.246 378.694 289.138 379.418C291.484 381.322 294.061 383.263 297.014 384.968C303.041 388.448 307.224 390.893 310.89 394.216C314.61 397.588 317.736 401.799 321.762 408.672ZM330.813 436.397L333.194 451.955C333.194 457.243 334.375 461.762 335.371 465.571C336.957 471.638 338.072 475.905 333.194 478.607C325.248 482.998 298.412 485.609 286.285 478.607C274.159 471.606 265.313 463.376 257.367 449.809C249.426 436.24 245.513 418.455 245.512 404.745C245.512 391.035 263.148 376.938 271.093 372.541C276.27 369.681 280.556 373.274 286.268 378.062C289.324 380.624 292.788 383.528 297.014 385.968C309.141 392.97 313.21 395.471 321.156 409.037C322.326 411.035 323.359 412.744 324.269 414.252C329.447 422.822 330.688 424.877 330.813 436.397ZM274.481 302.339L273.643 303.577C270.702 300.619 268.895 297.832 267.722 295.181C261.141 286.189 254.053 277.791 246.567 269.989C220.564 257.846 197.219 257.497 179.75 267.172C169.799 272.677 157.871 283.1 148.435 296.446C138.986 309.811 132.107 326.01 132.108 343.013C132.108 360.146 135.395 381.306 141.177 402.441C146.96 423.583 155.217 444.615 165.109 461.511L164.503 461.876C144.484 427.683 131.243 377.051 131.242 342.513C131.24 307.975 159.126 277.183 179.144 266.107C196.377 256.564 219.281 256.698 244.814 268.18C245.44 268.461 246.067 268.749 246.695 269.044C247.282 269.654 247.866 270.268 248.447 270.885C254.882 277.713 261.019 284.988 266.786 292.71C267.31 293.411 267.83 294.116 268.348 294.825C269.408 297.288 271.08 299.932 273.944 302.813C272.123 300.101 270.257 297.438 268.348 294.825C267.997 294.009 267.713 293.212 267.474 292.434C266.988 290.846 266.693 289.332 266.409 287.876C265.467 283.04 264.647 278.835 257.367 274.631C254.412 272.925 251.485 271.366 248.589 269.951C247.956 269.642 247.325 269.339 246.695 269.044C246.109 268.434 245.52 267.828 244.929 267.226C228.015 249.984 209.196 235.734 189.717 224.487C153.016 203.296 143.208 200.355 119.156 213.657C95.1086 226.961 73.8366 265.074 73.8379 306.569C73.8393 348.07 87.3382 395.314 111.392 436.397C135.445 477.474 171.253 511.77 207.958 532.964C238.477 550.585 271.436 547.246 294.198 540.11C294.993 539.861 295.775 539.607 296.545 539.35C295.682 539.221 294.753 539.1 293.766 538.983C291.424 538.705 288.756 538.45 285.878 538.175C272.823 536.929 255.477 535.272 244.976 529.209C242.909 528.015 240.845 526.832 238.788 525.652C210.427 509.388 183.165 493.753 164.503 461.876L165.109 461.511C174.942 478.307 187.227 490.56 200.919 500.835C212.779 509.735 225.62 517.1 238.777 524.646C240.836 525.827 242.903 527.012 244.976 528.209C251.689 532.085 261.394 534.157 271.056 535.472C275.865 536.126 280.626 536.59 284.955 537.004L285.556 537.061C289.637 537.451 293.321 537.802 296.243 538.238L297.081 540.444C285.645 544.275 271.341 547.251 255.922 546.978C240.51 546.705 223.93 543.186 207.958 533.964C171.086 512.674 135.04 478.18 110.786 436.762C86.5502 395.368 72.9733 347.812 72.9719 306.068C72.9713 285.139 78.3316 265.119 86.69 248.673C95.0492 232.225 106.436 219.294 118.55 212.592C130.597 205.93 139.174 203.275 149.406 205.028C159.61 206.777 171.381 212.9 189.717 223.487C209.885 235.132 229.383 250.003 246.823 268.1C250.294 269.736 253.811 271.578 257.367 273.631C260.92 275.683 263.175 277.846 264.651 280.278C266.106 282.676 266.652 285.1 267.098 287.348C267.149 287.605 267.199 287.86 267.249 288.114C267.65 290.165 268.036 292.143 268.895 294.27C268.923 294.339 268.952 294.409 268.981 294.479C270.855 297.05 272.69 299.67 274.481 302.339Z" fill="#3D3D3D"/>
<path fill-rule="evenodd" clip-rule="evenodd" d="M189.531 213.043C232.292 237.733 271.01 279.687 299.035 327.552C326.727 374.851 343.98 427.927 344.386 475.824L344.386 475.923L344.391 476.577L344.396 477.543L344.386 479.152L344.386 479.256C343.983 526.687 326.733 559.836 299.042 575.157C271.02 590.661 232.308 587.907 189.542 563.215C146.782 538.525 108.063 496.571 80.039 448.706C52.0147 400.841 34.679 347.056 34.6774 298.709C34.6759 250.361 52.0089 216.6 80.0311 201.095C108.053 185.591 146.77 188.353 189.531 213.043ZM278.539 365.062C284.41 368.452 290.105 372.615 295.528 377.372C279.557 350.628 257.779 327.263 233.766 313.398C209.274 299.257 187.103 297.676 171.06 306.558C155.013 315.436 145.089 334.774 145.09 362.465C145.091 390.156 155.016 420.956 171.065 448.361C187.114 475.772 209.286 499.795 233.772 513.933C257.786 527.798 279.568 529.584 295.533 521.28C290.115 519.783 284.42 517.365 278.549 513.975C260.368 503.477 243.9 485.634 231.987 465.283C220.07 444.929 212.699 422.054 212.698 401.497C212.698 380.939 220.068 366.576 231.984 359.983C243.89 353.396 260.352 354.561 278.539 365.062ZM309.585 422.344C301.638 408.778 290.662 396.882 278.535 389.88C266.409 382.878 255.433 382.099 247.487 386.489C239.542 390.886 234.631 400.461 234.632 414.172C234.632 427.882 239.548 443.131 247.489 456.7C255.435 470.267 266.412 482.163 278.538 489.165C290.665 496.167 301.641 496.946 309.587 492.555C317.528 488.156 322.443 478.584 322.443 464.873L322.438 464.232C322.292 450.685 317.404 435.7 309.585 422.344ZM233.76 288.579C247.552 296.543 260.75 307.017 272.93 319.266C250.125 285.299 221.111 256.092 189.532 237.858C152.831 216.668 119.601 214.303 95.5488 227.605C71.5018 240.909 56.6242 269.892 56.6255 311.387C56.6269 352.888 71.5021 399.044 95.5556 440.127C119.609 481.204 152.836 517.211 189.542 538.405C221.126 556.641 250.134 560.936 272.938 553.298C260.758 551.482 247.56 546.715 233.768 538.751C203.221 521.114 175.558 491.139 155.543 456.949C135.524 422.755 123.138 384.334 123.137 349.796C123.136 315.258 135.519 291.132 155.537 280.056C175.551 268.972 203.213 270.942 233.76 288.579Z" fill="#010304"/>
<path fill-rule="evenodd" clip-rule="evenodd" d="M344.386 475.923L344.386 475.824C343.98 427.927 326.727 374.851 299.035 327.552C271.01 279.687 232.292 237.733 189.531 213.043C146.77 188.353 108.053 185.591 80.0311 201.095C52.0089 216.6 34.6759 250.361 34.6774 298.709C34.679 347.056 52.0147 400.841 80.039 448.706C108.063 496.571 146.782 538.525 189.542 563.215C232.308 587.907 271.02 590.661 299.042 575.157C326.733 559.836 343.983 526.687 344.386 479.256L344.386 479.152L344.396 477.543L344.391 476.577L344.386 475.923ZM343.53 477.049L343.53 477.036L343.525 476.085L343.525 476.083L343.52 475.432L343.52 475.423L343.52 475.328C343.115 427.712 325.965 374.948 298.429 327.917C270.562 280.32 232.059 238.598 189.531 214.043C147.003 189.488 108.502 186.743 80.637 202.16C52.7723 217.577 35.5419 251.144 35.5435 299.209C35.545 347.274 52.7781 400.745 80.6449 448.341C108.512 495.938 147.015 537.659 189.542 562.215C232.075 586.773 270.571 589.51 298.437 574.093C325.971 558.859 343.118 525.902 343.52 478.753L343.52 478.645L343.53 477.049ZM298.553 381.058L295.311 378.214C289.957 373.519 284.335 369.408 278.539 366.062C260.585 355.695 244.339 354.547 232.59 361.048C220.831 367.553 213.564 381.722 213.564 401.997C213.565 422.272 220.834 444.833 232.593 464.918C244.349 485.001 260.6 502.612 278.549 512.975C284.345 516.322 289.968 518.709 295.314 520.187L296.129 522.35C280.008 530.735 258.014 528.93 233.772 514.933C209.053 500.66 186.665 476.405 170.459 448.726C154.253 421.052 144.225 389.939 144.224 361.965C144.223 333.992 154.249 314.459 170.454 305.493C186.654 296.524 209.042 298.122 233.766 312.398C258.008 326.395 279.998 349.986 296.125 376.991L298.553 381.058ZM171.065 448.361C155.016 420.956 145.091 390.156 145.09 362.465C145.089 334.774 155.013 315.436 171.06 306.558C187.103 297.676 209.274 299.257 233.766 313.398C257.132 326.889 278.381 349.375 294.224 375.216C294.663 375.932 295.098 376.651 295.528 377.372C294.957 376.871 294.383 376.377 293.806 375.889C288.904 371.747 283.792 368.095 278.539 365.062C260.352 354.561 243.89 353.396 231.984 359.983C220.068 366.576 212.698 380.939 212.698 401.497C212.699 422.054 220.07 444.929 231.987 465.283C243.9 485.634 260.368 503.477 278.549 513.975C283.8 517.007 288.912 519.262 293.809 520.776C294.387 520.954 294.961 521.122 295.533 521.28C295.102 521.505 294.666 521.722 294.227 521.931C278.39 529.479 257.137 527.424 233.772 513.933C209.286 499.795 187.114 475.772 171.065 448.361ZM310.191 421.979C318.165 435.6 323.155 450.892 323.304 464.719L323.309 465.365L323.309 465.373C323.309 479.367 318.291 489.133 310.193 493.62C302.09 498.097 290.898 497.301 278.538 490.165C266.179 483.029 254.987 470.901 246.883 457.065C238.785 443.227 233.766 427.665 233.766 413.672C233.765 399.679 238.778 389.909 246.881 385.425C254.984 380.948 266.176 381.744 278.535 388.88C290.895 396.016 302.087 408.145 310.191 421.979ZM273.467 318.791L272.629 320.03C260.544 307.876 247.448 297.483 233.76 289.579C203.446 272.077 176 270.124 156.143 281.12C136.283 292.109 124.002 316.041 124.003 350.296C124.004 384.551 136.287 422.66 156.149 456.584L155.543 456.949C135.524 422.755 123.138 384.334 123.137 349.796C123.136 315.258 135.519 291.132 155.537 280.056C175.551 268.972 203.213 270.942 233.76 288.579C246.567 295.974 258.862 305.533 270.305 316.668C271.185 317.525 272.06 318.391 272.93 319.266C272.199 318.177 271.461 317.092 270.717 316.013C248.261 283.437 220.099 255.507 189.532 237.858C152.831 216.668 119.601 214.303 95.5488 227.605C71.5018 240.909 56.6242 269.892 56.6255 311.387C56.6269 352.888 71.5021 399.044 95.5556 440.127C119.609 481.204 152.836 517.211 189.542 538.405C220.113 556.057 248.271 560.646 270.726 553.996C271.469 553.775 272.207 553.543 272.938 553.298C272.068 553.168 271.193 553.024 270.313 552.864C258.87 550.785 246.575 546.146 233.768 538.751C203.221 521.114 175.558 491.139 155.543 456.949L156.149 456.584C176.007 490.506 203.454 520.248 233.768 537.751C247.456 545.654 260.552 550.385 272.637 552.186L273.475 554.393C250.522 562.08 221.326 557.757 189.542 539.405C152.603 518.077 119.161 481.837 94.9498 440.492C70.7387 399.139 55.7609 352.671 55.7595 310.887C55.7582 269.109 70.7384 239.932 94.9429 226.541C119.152 213.152 152.598 215.533 189.532 236.858C221.311 255.208 250.513 284.602 273.467 318.791ZM247.487 386.489C255.433 382.099 266.409 382.878 278.535 389.88C290.662 396.882 301.638 408.778 309.585 422.344C317.404 435.7 322.292 450.685 322.438 464.232L322.443 464.873C322.443 478.584 317.528 488.156 309.587 492.555C301.641 496.946 290.665 496.167 278.538 489.165C266.412 482.163 255.435 470.267 247.489 456.7C239.548 443.131 234.632 427.882 234.632 414.172C234.631 400.461 239.542 390.886 247.487 386.489Z" fill="#3D3D3D"/>
</g>
<defs>
<filter id="filter0_f_2818_62947" x="-17.9922" y="120.246" width="424.656" height="502.533" filterUnits="userSpaceOnUse" color-interpolation-filters="sRGB">
<feFlood flood-opacity="0" result="BackgroundImageFix"/>
<feBlend mode="normal" in="SourceGraphic" in2="BackgroundImageFix" result="shape"/>
<feGaussianBlur stdDeviation="34" result="effect1_foregroundBlur_2818_62947"/>
</filter>
<clipPath id="clip0_2818_62947">
<rect width="488.482" height="723.446" fill="white"/>
</clipPath>
</defs>
</svg>
