<svg fill="none" height="724" viewBox="0 0 489 724" width="489" xmlns="http://www.w3.org/2000/svg" xmlns:xlink="http://www.w3.org/1999/xlink"><filter id="a" color-interpolation-filters="sRGB" filterUnits="userSpaceOnUse" height="502.533" width="424.656" x="-17.9922" y="120.246"><feFlood flood-opacity="0" result="BackgroundImageFix"/><feBlend in="SourceGraphic" in2="BackgroundImageFix" mode="normal" result="shape"/><feGaussianBlur result="effect1_foregroundBlur_2884_48658" stdDeviation="34"/></filter><clipPath id="b"><path d="m0 0h488.482v723.446h-488.482z"/></clipPath><g clip-path="url(#b)"><path d="m65.1651 36.1416c18.652-10.7679 48.8929-10.7679 67.5449 0s18.652 28.2262 0 38.9941l-31.392 18.123c-18.6523 10.7683-48.8931 10.7683-67.5451 0-18.6519-10.768-18.6519-28.2262 0-38.9942z" fill="#010304"/><path clip-rule="evenodd" d="m100.452 92.7587 31.392-18.123c18.174-10.4918 18.174-27.5023 0-37.9941s-47.6392-10.4918-65.8128 0l-31.3922 18.1229c-18.1737 10.4918-18.1737 27.5024 0 37.9942 18.1737 10.4913 47.639 10.4913 65.813 0zm32.258-56.6171c-18.652-10.7679-48.8929-10.7679-67.5449 0l-31.3922 18.1229c-18.6519 10.768-18.6519 28.2262 0 38.9942 18.652 10.7683 48.8928 10.7683 67.5451 0l31.392-18.123c18.652-10.7679 18.652-28.2262 0-38.9941z" fill="#3d3d3d" fill-rule="evenodd"/><path d="m387.165 630.265c18.652-10.768 48.893-10.768 67.545 0s18.652 28.226 0 38.994l-31.392 18.123c-18.652 10.768-48.893 10.768-67.545 0s-18.652-28.226 0-38.994z" fill="#010304"/><path clip-rule="evenodd" d="m422.452 686.882 31.392-18.123c18.174-10.492 18.174-27.503 0-37.994-18.174-10.492-47.639-10.492-65.813 0l-31.392 18.123c-18.174 10.491-18.174 27.502 0 37.994s47.639 10.492 65.813 0zm32.258-56.617c-18.652-10.768-48.893-10.768-67.545 0l-31.392 18.123c-18.652 10.768-18.652 28.226 0 38.994s48.893 10.768 67.545 0l31.392-18.123c18.652-10.768 18.652-28.226 0-38.994z" fill="#3d3d3d" fill-rule="evenodd"/><path d="m70.5586 121.5c-.0014-43.42-.0021-65.1301 7.5469-77.2357 6.0919-9.7691 15.5015-15.2018 27.0075-15.593 14.259-.4848 33.06 10.3708 70.662 32.082l193.947 111.9837c37.602 21.711 56.403 32.567 70.662 49.517 11.507 13.679 20.917 29.978 27.01 46.783 7.55 20.823 7.551 42.533 7.552 85.954l.007 223.955c.002 43.42.002 65.13-7.547 77.235-6.091 9.77-15.501 15.202-27.007 15.593-14.259.485-33.06-10.37-70.662-32.082l-193.947-111.983c-37.602-21.712-56.404-32.567-70.662-49.518-11.5071-13.678-20.9174-29.977-27.0102-46.782-7.55-20.824-7.5507-42.534-7.5521-85.954z" fill="#010304"/><path clip-rule="evenodd" d="m369.722 173.737-193.947-111.9837c-18.816-10.8641-32.874-18.9803-44.012-24.326-11.127-5.3406-19.261-7.8757-26.244-7.6382-11.3533.386-20.6374 5.7462-26.6482 15.385-3.6972 5.9289-5.5686 14.2406-6.5072 26.5475-.9395 12.3186-.9397 28.5514-.939 50.2784l.0071 223.955c.0007 21.727.0019 37.961.9422 51.365.9395 13.391 2.8115 23.864 6.5092 34.063 6.0116 16.58 15.2964 32.662 26.6499 46.159 6.983 8.301 15.117 15.159 26.245 22.668 11.138 7.517 25.196 15.634 44.012 26.499l193.947 111.983c18.816 10.865 32.874 18.981 44.012 24.326 11.127 5.341 19.261 7.876 26.244 7.639 11.353-.386 20.637-5.746 26.648-15.385 3.697-5.929 5.569-14.241 6.507-26.548.94-12.318.94-28.551.939-50.278l-.007-223.956c0-21.727-.002-37.96-.942-51.364-.939-13.391-2.811-23.865-6.509-34.063-6.012-16.581-15.297-32.662-26.65-46.159-6.983-8.301-15.117-15.159-26.245-22.668-11.138-7.517-25.196-15.635-44.012-26.499zm-291.6165-129.4727c-7.549 12.1056-7.5483 33.8156-7.5469 77.2357l.0071 223.955c.0014 43.42.0021 65.13 7.5521 85.954 6.0928 16.805 15.5031 33.104 27.0102 46.782 14.258 16.951 33.06 27.806 70.662 49.518l193.947 111.983c37.602 21.712 56.403 32.567 70.662 32.082 11.506-.391 20.916-5.823 27.007-15.593 7.549-12.105 7.549-33.815 7.547-77.235l-.007-223.955c-.001-43.421-.002-65.131-7.552-85.954-6.093-16.805-15.503-33.104-27.01-46.783-14.259-16.95-33.06-27.806-70.662-49.517l-193.947-111.9837c-37.602-21.7112-56.403-32.5668-70.662-32.082-11.506.3912-20.9156 5.8239-27.0075 15.593z" fill="#3d3d3d" fill-rule="evenodd"/><g fill="#010304"><path d="m99.5 28.7676h-3.5l-6 1.5-11 4-11 22 8 3.5 3-.5 29-18.5c1.667-3.3334 4.3-10.2 1.5-11s-7.833-1-10-1z"/><path d="m150.5 47.2676-15-8-24.5 40 16 9 23.5-20z"/><path d="m454.5 668.268-9.5 5.5-7 3.5-22.5-11 .5-3 1-3.5.5-12.5c17.667 0 52.3 1.5 49.5 7.5s-9.5 11.5-12.5 13.5z"/><path d="m13.5585 142.88c-.0014-42.841-.002-64.2617 7.4463-76.2059 6.0107-9.6389 15.2948-14.9991 26.6477-15.3851 14.0682-.4783 32.6186 10.2326 69.7195 31.6543l196.753 113.6037c37.101 21.422 55.651 32.133 69.72 48.857 11.353 13.497 20.638 29.578 26.65 46.159 7.449 20.546 7.45 41.966 7.451 84.808l.007 227.195c.002 42.841.002 64.261-7.446 76.206-6.011 9.639-15.295 14.999-26.648 15.385-14.068.478-32.618-10.233-69.719-31.655l-196.753-113.603c-37.101-21.422-55.6515-32.133-69.7202-48.857-11.3533-13.497-20.6381-29.579-26.6496-46.159-7.4494-20.546-7.4501-41.967-7.4515-84.808z"/></g><path clip-rule="evenodd" d="m314.125 197.547-196.753-113.6037c-18.5653-10.7194-32.4353-18.727-43.4242-24.0012-10.9782-5.269-19.0019-7.7695-25.89-7.5353-11.1995.3808-20.3581 5.6685-26.2876 15.1771-3.6469 5.8482-5.4932 14.0472-6.4192 26.1892-.927 12.1539-.9272 28.1689-.9265 49.6069l.0073 227.195c.0006 21.438.0019 37.454.9296 50.679.9268 13.212 2.7737 23.543 6.4211 33.603 5.9303 16.356 15.0897 32.221 26.2896 45.535 6.8883 8.188 14.9122 14.954 25.8905 22.362 10.9889 7.416 24.859 15.425 43.4244 26.145l196.753 113.603c18.565 10.72 32.435 18.728 43.424 24.002 10.978 5.269 19.002 7.769 25.89 7.535 11.2-.381 20.358-5.669 26.288-15.177 3.647-5.848 5.493-14.047 6.419-26.189.927-12.154.927-28.17.926-49.607l-.007-227.196c-.001-21.437-.002-37.454-.929-50.678-.927-13.212-2.774-23.543-6.422-33.603-5.93-16.357-15.089-32.221-26.289-45.535-6.889-8.189-14.912-14.954-25.891-22.362-10.989-7.416-24.859-15.425-43.424-26.145zm-293.1202-130.8729c-7.4483 11.9442-7.4477 33.3649-7.4463 76.2059l.0072 227.195c.0014 42.841.0021 64.262 7.4515 84.808 6.0115 16.58 15.2963 32.662 26.6496 46.159 14.0687 16.724 32.6192 27.435 69.7202 48.857l196.753 113.603c37.101 21.422 55.651 32.133 69.719 31.655 11.353-.386 20.637-5.746 26.648-15.385 7.448-11.945 7.448-33.365 7.446-76.206l-.007-227.195c-.001-42.842-.002-64.262-7.451-84.808-6.012-16.581-15.297-32.662-26.65-46.159-14.069-16.724-32.619-27.435-69.72-48.857l-196.753-113.6037c-37.1009-21.4217-55.6513-32.1326-69.7195-31.6543-11.3529.386-20.637 5.7462-26.6477 15.3851z" fill="#3d3d3d" fill-rule="evenodd"/><g filter="url(#a)" opacity=".2"><path clip-rule="evenodd" d="m194.329 208.334c39.853 23.011 75.938 62.112 102.056 106.723 25.81 44.082 41.889 93.548 42.268 138.189v.092l.004.609.005.901-.009 1.499v.098c-.376 44.205-16.453 75.1-42.26 89.379-26.117 14.45-62.197 11.883-102.054-11.13-39.853-23.011-75.938-62.112-102.0569-106.722-26.1186-44.61-42.2755-94.737-42.2769-139.797s16.1528-76.526 42.2695-90.976c26.1173-14.449 62.2013-11.876 102.0543 11.135zm82.955 141.682c5.471 3.159 10.779 7.04 15.833 11.473-14.884-24.925-35.182-46.702-57.562-59.624-22.826-13.18-43.49-14.653-58.441-6.375-14.957 8.275-24.206 26.298-24.205 52.106s9.251 54.513 24.209 80.054c14.957 25.547 35.622 47.936 58.443 61.113 22.38 12.923 42.681 14.587 57.561 6.848-5.049-1.395-10.358-3.65-15.829-6.809-16.945-9.784-32.293-26.413-43.396-45.381-11.106-18.97-17.976-40.288-17.977-59.448 0-19.16 6.868-32.546 17.974-38.691 11.097-6.139 26.44-5.053 43.39 4.734zm28.934 53.387c-7.406-12.644-17.636-23.731-28.938-30.257-11.301-6.526-21.531-7.251-28.937-3.16-7.405 4.098-11.981 13.022-11.981 25.8s4.582 26.99 11.983 39.636c7.406 12.645 17.637 23.732 28.938 30.257 11.302 6.526 21.532 7.253 28.937 3.16 7.401-4.1 11.982-13.021 11.982-25.799l-.005-.598c-.136-12.626-4.691-26.592-11.979-39.039zm-70.668-124.669c12.854 7.422 25.155 17.184 36.506 28.6-21.254-31.658-48.295-58.878-77.727-75.872-34.205-19.749-65.175-21.953-87.592-9.556-22.4116 12.4-36.2775 39.412-36.2762 78.085.0012 38.679 13.8648 81.695 36.2822 119.985 22.418 38.284 53.386 71.843 87.595 91.595 29.437 16.996 56.472 20.999 77.725 13.88-11.351-1.692-23.652-6.136-36.506-13.557-28.469-16.438-54.251-44.375-72.906-76.24-18.657-31.868-30.201-67.677-30.202-99.866s11.541-54.675 30.197-64.998c18.653-10.33 44.434-8.494 72.904 7.944z" fill="#565656" fill-rule="evenodd"/></g><path clip-rule="evenodd" d="m213.138 199.095c42.761 24.689 81.479 66.644 109.503 114.509 27.693 47.299 44.946 100.374 45.352 148.272v.099l.004.654.005.966-.009 1.609v.104c-.403 47.431-17.653 80.58-45.344 95.901-28.022 15.504-71.925 29.173-114.691 4.48-42.76-24.689-84.1-55.948-112.1243-103.813s-54.1854-120.919-54.1869-169.267c-.0016-48.347 33.9688-89.958 61.9912-105.462 28.022-15.504 66.739-12.742 109.5 11.948zm89.008 152.018c5.871 3.39 2.321 3.811 7.744 8.567-15.971-26.743-33.926-35.491-57.94-49.356-24.491-14.141-41.24-26.597-57.283-17.715-16.048 8.879-37.675 34.015-37.674 61.706s10.239 61.033 26.287 88.437c16.049 27.411 33.99 47.104 58.477 61.242 24.013 13.865 61.417 11.642 77.382 3.338-5.417-1.497-30.202-3.957-36.073-7.347-18.181-10.498-22.422-4.417-34.335-24.768-11.917-20.354-29.506-60.108-29.506-80.665-.001-20.558 24.449-41.924 36.365-48.517 11.907-6.588 28.369-5.423 46.556 5.078zm19.01 57.924c-7.946-13.566-12.015-16.067-24.142-23.069-12.126-7.002-17.975-17.817-25.921-13.427-7.945 4.397-25.581 18.494-25.581 32.204.001 13.71 3.914 31.495 11.855 45.064 7.946 13.567 16.792 21.797 28.918 28.798 12.127 7.002 38.963 4.391 46.909 0 7.941-4.399 0-12.942 0-26.652l-2.381-15.558c-.147-13.547-1.837-14.004-9.657-27.36zm-63.789-134.406c13.792 7.964 4.397 15.933 16.577 28.182-22.805-33.967-52.648-60.092-84.227-78.326-36.701-21.191-46.509-24.132-70.561-10.83-24.0474 13.304-45.3194 51.417-45.3181 92.912.0014 41.501 13.5003 88.745 37.5541 129.828 24.053 41.077 59.861 75.373 96.566 96.567 31.585 18.236 65.782 14.024 88.587 6.386-12.18-1.816-37.777-2.178-51.569-10.141-30.547-17.638-60.457-33.143-80.473-67.333-20.019-34.193-33.26-84.825-33.261-119.363-.002-34.538 27.884-65.33 47.902-76.406 20.014-11.083 47.676-9.113 78.223 8.524z" fill="#000" fill-rule="evenodd"/><path clip-rule="evenodd" d="m367.993 461.975v-.099c-.406-47.898-17.659-100.973-45.352-148.272-28.024-47.865-66.742-89.82-109.503-114.509-42.761-24.69-81.478-27.452-109.5-11.948-28.0224 15.504-61.9928 57.115-61.9912 105.462.0015 48.348 26.1626 121.402 54.1869 169.267s69.3643 79.124 112.1243 103.813c42.766 24.693 86.669 11.024 114.691-4.48 27.691-15.321 44.941-48.47 45.344-95.901v-.104l.009-1.609-.005-.966zm-.862.162v-.003l-.004-.65v-.009-.095c-.405-47.616-17.556-100.38-45.092-147.412-27.867-47.596-66.369-89.318-108.897-113.873-42.528-24.556-81.029-27.301-108.894-11.883-13.9471 7.716-29.3945 21.944-41.3509 40.269-11.9639 18.336-20.3811 40.695-20.3803 64.628.0007 23.982 6.4936 54.156 16.5016 84.339 10.0063 30.178 23.4964 60.273 37.4251 84.063 27.7645 47.422 68.7955 78.51 111.5185 103.178 21.164 12.22 42.674 14.98 62.429 12.719 19.748-2.26 37.675-9.528 51.656-17.264 27.534-15.233 44.682-48.19 45.084-95.34v-.107l.009-1.596v-.013zm-54.216-98.77-3.243-2.844c-1.425-1.251-2.338-2.283-2.98-3.22-.557-.813-.878-1.517-1.104-2.013-.035-.076-.068-.148-.099-.214-.212-.454-.367-.738-.73-1.109-.427-.436-1.176-1.024-2.613-1.854-17.954-10.366-34.2-11.514-45.95-5.014-5.914 3.272-14.967 10.23-22.537 18.929-3.784 4.348-7.185 9.117-9.637 14.061-2.458 4.956-3.932 10.027-3.931 14.963 0 10.005 4.3 24.836 10.166 39.837 5.852 14.962 13.182 29.889 19.08 39.963 2.931 5.008 5.337 8.296 7.551 10.603 2.199 2.291 4.272 3.681 6.59 4.804 1.642.795 3.359 1.437 5.327 2.173.867.325 1.783.667 2.762 1.049 3.168 1.235 6.892 2.844 11.499 5.504 1.317.76 3.842 1.529 7.099 2.265 3.212.726 7.014 1.395 10.814 2.008 2.401.387 4.791.749 7.029 1.089 1.308.198 2.563.388 3.738.571 3.162.492 5.772.932 7.175 1.32l.815 2.163c-8.063 4.195-21.486 6.833-35.888 6.694-14.385-.14-29.884-3.053-42.091-10.101-24.723-14.275-42.879-34.202-59.082-61.877-16.217-27.691-26.547-61.344-26.548-89.302-.001-14.103 5.492-27.442 12.931-38.335 7.449-10.909 16.917-19.461 25.003-23.935 14.364-7.952 29.383.942 49.31 12.742 2.762 1.636 5.617 3.327 8.579 5.037 1.923 1.11 3.81 2.189 5.664 3.248 21.172 12.103 37.909 21.671 52.873 46.728zm-118.248-70.758c-16.048 8.879-37.675 34.015-37.674 61.706s10.239 61.033 26.287 88.437c16.049 27.411 33.99 47.104 58.477 61.242 23.31 13.459 59.239 11.758 75.926 4.052.503-.233.989-.471 1.456-.714-.486-.134-1.129-.277-1.901-.427-2.166-.421-5.345-.903-8.924-1.446-9.335-1.416-21.385-3.244-25.248-5.474-5.916-3.416-10.356-5.076-14.064-6.463-7.689-2.876-12.234-4.576-20.271-18.305-11.917-20.354-29.506-60.108-29.506-80.665-.001-20.558 24.449-41.924 36.365-48.517 11.907-6.588 28.369-5.423 46.556 5.078 1.096.633 1.864 1.163 2.423 1.636 1.045.885 1.361 1.574 1.729 2.379.085.184.172.374.271.574.248.499.571 1.059 1.116 1.738.506.629 1.202 1.361 2.205 2.24-.565-.946-1.132-1.869-1.702-2.77-.331-.524-.662-1.039-.994-1.548-.746-1.141-1.496-2.247-2.251-3.319-13.439-19.087-28.487-27.693-47.377-38.496-1.835-1.05-3.706-2.12-5.616-3.223-2.978-1.72-5.842-3.414-8.604-5.049-19.95-11.806-34.587-20.468-48.679-12.666zm127.095 116.063c1.177 2.01 2.177 3.666 3.072 5.147.612 1.012 1.175 1.943 1.711 2.85 1.272 2.153 2.286 3.994 3.054 5.877 1.549 3.797 2.002 7.53 2.079 14.248l2.382 15.565v.096c0 5.098 1.115 9.371 2.104 13.157.303 1.16.594 2.274.837 3.353.514 2.277.809 4.411.386 6.263-.422 1.853-1.531 3.304-3.587 4.443-4.062 2.244-12.843 3.999-22.087 4.326-4.633.164-9.41-.029-13.802-.708-4.374-.675-8.44-1.842-11.626-3.682-12.284-7.093-21.373-15.516-29.524-29.433-8.165-13.953-12.114-32.062-12.115-45.929 0-3.647 1.165-7.221 2.963-10.577 1.805-3.371 4.287-6.589 7.005-9.501 5.434-5.822 11.865-10.472 15.873-12.69 2.071-1.145 4.054-1.322 6.083-.769 2.019.551 4.01 1.807 6.054 3.367 1.222.932 2.526 2.025 3.881 3.161.861.72 1.741 1.458 2.633 2.182 2.346 1.904 4.923 3.845 7.876 5.55 6.027 3.48 10.21 5.925 13.876 9.248 3.72 3.372 6.846 7.583 10.872 14.456zm9.051 27.725 2.381 15.558c0 5.288 1.181 9.807 2.177 13.616 1.586 6.067 2.701 10.334-2.177 13.036-7.946 4.391-34.782 7.002-46.909 0-12.126-7.001-20.972-15.231-28.918-28.798-7.941-13.569-11.854-31.354-11.855-45.064 0-13.71 17.636-27.807 25.581-32.204 5.177-2.86 9.463.733 15.175 5.521 3.056 2.562 6.52 5.466 10.746 7.906 12.127 7.002 16.196 9.503 24.142 23.069 1.17 1.998 2.203 3.707 3.113 5.215 5.178 8.57 6.419 10.625 6.544 22.145zm-56.332-134.058-.838 1.238c-2.941-2.958-4.748-5.745-5.921-8.396-6.581-8.992-13.669-17.39-21.155-25.192-26.003-12.143-49.348-12.492-66.817-2.817-9.951 5.505-21.879 15.928-31.315 29.274-9.449 13.365-16.328 29.564-16.327 46.567 0 17.133 3.287 38.293 9.069 59.428 5.783 21.142 14.04 42.174 23.932 59.07l-.606.365c-20.019-34.193-33.26-84.825-33.261-119.363-.002-34.538 27.884-65.33 47.902-76.406 17.233-9.543 40.137-9.409 65.67 2.073.626.281 1.253.569 1.881.864.587.61 1.171 1.224 1.752 1.841 6.435 6.828 12.572 14.103 18.339 21.825.524.701 1.044 1.406 1.562 2.115 1.06 2.463 2.732 5.107 5.596 7.988-1.821-2.712-3.687-5.375-5.596-7.988-.351-.816-.635-1.613-.874-2.391-.486-1.588-.781-3.102-1.065-4.558-.942-4.836-1.762-9.041-9.042-13.245-2.955-1.706-5.882-3.265-8.778-4.68-.633-.309-1.264-.612-1.894-.907-.586-.61-1.175-1.216-1.766-1.818-16.914-17.242-35.733-31.492-55.212-42.739-36.701-21.191-46.509-24.132-70.561-10.83-24.0474 13.304-45.3194 51.417-45.3181 92.912.0014 41.501 13.5003 88.745 37.5541 129.828 24.053 41.077 59.861 75.373 96.566 96.567 30.519 17.621 63.478 14.282 86.24 7.146.795-.249 1.577-.503 2.347-.76-.863-.129-1.792-.25-2.779-.367-2.342-.278-5.01-.533-7.888-.808-13.055-1.246-30.401-2.903-40.902-8.966-2.067-1.194-4.131-2.377-6.188-3.557-28.361-16.264-55.623-31.899-74.285-63.776l.606-.365c9.833 16.796 22.118 29.049 35.81 39.324 11.86 8.9 24.701 16.265 37.858 23.811 2.059 1.181 4.126 2.366 6.199 3.563 6.713 3.876 16.418 5.948 26.08 7.263 4.809.654 9.57 1.118 13.899 1.532l.601.057c4.081.39 7.765.741 10.687 1.177l.838 2.206c-11.436 3.831-25.74 6.807-41.159 6.534-15.412-.273-31.992-3.792-47.964-13.014-36.872-21.29-72.918-55.784-97.172-97.202-24.2358-41.394-37.8127-88.95-37.8141-130.694-.0006-20.929 5.3597-40.949 13.7181-57.395 8.3592-16.448 19.746-29.379 31.86-36.081 12.047-6.662 20.624-9.317 30.856-7.564 10.204 1.749 21.975 7.872 40.311 18.459 20.168 11.645 39.666 26.516 57.106 44.613 3.471 1.636 6.988 3.478 10.544 5.531 3.553 2.052 5.808 4.215 7.284 6.647 1.455 2.398 2.001 4.822 2.447 7.07.051.257.101.512.151.766.401 2.051.787 4.029 1.646 6.156.028.069.057.139.086.209 1.874 2.571 3.709 5.191 5.5 7.86z" fill="#3d3d3d" fill-rule="evenodd"/><path clip-rule="evenodd" d="m189.531 213.043c42.761 24.69 81.479 66.644 109.504 114.509 27.692 47.299 44.945 100.375 45.351 148.272v.099l.005.654.005.966-.01 1.609v.104c-.403 47.431-17.653 80.58-45.344 95.901-28.022 15.504-66.734 12.75-109.5-11.942-42.76-24.69-81.479-66.644-109.503-114.509-28.0243-47.865-45.36-101.65-45.3616-149.997-.0015-48.348 17.3315-82.109 45.3537-97.614 28.0219-15.504 66.7389-12.742 109.4999 11.948zm89.008 152.019c5.871 3.39 11.566 7.553 16.989 12.31-15.971-26.744-37.749-50.109-61.762-63.974-24.492-14.141-46.663-15.722-62.706-6.84-16.047 8.878-25.971 28.216-25.97 55.907s9.926 58.491 25.975 85.896c16.049 27.411 38.221 51.434 62.707 65.572 24.014 13.865 45.796 15.651 61.761 7.347-5.418-1.497-11.113-3.915-16.984-7.305-18.181-10.498-34.649-28.341-46.562-48.692-11.917-20.354-19.288-43.229-19.289-63.786 0-20.558 7.37-34.921 19.286-41.514 11.906-6.587 28.368-5.422 46.555 5.079zm31.046 57.282c-7.947-13.566-18.923-25.462-31.05-32.464-12.126-7.002-23.102-7.781-31.048-3.391-7.945 4.397-12.856 13.972-12.855 27.683 0 13.71 4.916 28.959 12.857 42.528 7.946 13.567 18.923 25.463 31.049 32.465 12.127 7.002 23.103 7.781 31.049 3.39 7.941-4.399 12.856-13.971 12.856-27.682l-.005-.641c-.146-13.547-5.034-28.532-12.853-41.888zm-75.825-133.765c13.792 7.964 26.99 18.438 39.17 30.687-22.805-33.967-51.819-63.174-83.398-81.408-36.701-21.19-69.931-23.555-93.9832-10.253-24.047 13.304-38.9246 42.287-38.9233 83.782.0014 41.501 14.8766 87.656 38.9301 128.74 24.0534 41.077 57.2804 77.084 93.9864 98.278 31.584 18.236 60.592 22.531 83.396 14.893-12.18-1.816-25.378-6.584-39.17-14.547-30.547-17.637-58.21-47.612-78.225-81.802-20.019-34.194-32.405-72.615-32.406-107.153s12.382-58.664 32.4-69.74c20.014-11.084 47.676-9.114 78.223 8.523z" fill="#010304" fill-rule="evenodd"/><path clip-rule="evenodd" d="m344.386 475.923v-.099c-.406-47.897-17.659-100.973-45.351-148.272-28.025-47.865-66.743-89.819-109.504-114.509s-81.478-27.452-109.4999-11.948c-28.0222 15.505-45.3552 49.266-45.3537 97.614.0016 48.347 17.3373 102.132 45.3616 149.997 28.024 47.865 66.743 89.819 109.503 114.509 42.766 24.692 81.478 27.446 109.5 11.942 27.691-15.321 44.941-48.47 45.344-95.901v-.104l.01-1.609-.005-.966zm-.856 1.126v-.013l-.005-.951v-.002l-.005-.651v-.009-.095c-.405-47.616-17.555-100.38-45.091-147.411-27.867-47.597-66.37-89.319-108.898-113.874s-81.029-27.3-108.894-11.883c-27.8647 15.417-45.0951 48.984-45.0935 97.049.0015 48.064 17.2346 101.536 45.1014 149.132 27.8671 47.597 66.3701 89.318 108.8971 113.874 42.533 24.558 81.029 27.295 108.895 11.878 27.534-15.234 44.681-48.191 45.083-95.34v-.108zm-44.977-95.991-3.242-2.844c-5.354-4.695-10.976-8.806-16.772-12.152-17.954-10.367-34.2-11.515-45.949-5.014-11.759 6.505-19.026 20.674-19.026 40.949.001 20.275 7.27 42.836 19.029 62.921 11.756 20.083 28.007 37.694 45.956 48.057 5.796 3.347 11.419 5.734 16.765 7.212l.815 2.163c-16.121 8.385-38.115 6.58-62.357-7.417-24.719-14.273-47.107-38.528-63.313-66.208-16.206-27.673-26.234-58.786-26.235-86.76-.001-27.973 10.025-47.506 26.23-56.472 16.2-8.969 38.588-7.371 63.312 6.905 24.242 13.997 46.232 37.588 62.359 64.593zm-127.488 67.303c-16.049-27.405-25.974-58.205-25.975-85.896s9.923-47.029 25.97-55.907c16.043-8.882 38.214-7.301 62.706 6.84 23.366 13.491 44.615 35.977 60.458 61.818.439.716.874 1.435 1.304 2.156-.571-.501-1.145-.995-1.722-1.483-4.902-4.142-10.014-7.794-15.267-10.827-18.187-10.501-34.649-11.666-46.555-5.079-11.916 6.593-19.286 20.956-19.286 41.514.001 20.557 7.372 43.432 19.289 63.786 11.913 20.351 28.381 38.194 46.562 48.692 5.251 3.032 10.363 5.287 15.26 6.801.578.178 1.152.346 1.724.504-.431.225-.867.441-1.306.651-15.837 7.548-37.09 5.493-60.455-7.998-24.486-14.138-46.658-38.161-62.707-65.572zm139.126-26.382c7.974 13.621 12.964 28.913 13.113 42.74l.005.646v.008c0 13.993-5.018 23.76-13.116 28.247-8.103 4.477-19.295 3.681-31.655-3.455-12.359-7.136-23.551-19.264-31.655-33.1-8.098-13.838-13.117-29.4-13.117-43.393-.001-13.993 5.012-23.763 13.115-28.247 8.103-4.477 19.295-3.681 31.654 3.455 12.36 7.136 23.552 19.265 31.656 33.099zm-36.724-103.188-.838 1.239c-12.085-12.154-25.181-22.547-38.869-30.451-30.314-17.502-57.76-19.455-77.617-8.459-19.86 10.989-32.141 34.921-32.14 69.176s12.284 72.364 32.146 106.288l-.606.365c-20.019-34.194-32.405-72.615-32.406-107.153s12.382-58.664 32.4-69.74c20.014-11.084 47.676-9.114 78.223 8.523 12.807 7.395 25.102 16.954 36.545 28.089.88.857 1.755 1.723 2.625 2.598-.731-1.089-1.469-2.174-2.213-3.253-22.456-32.576-50.618-60.506-81.185-78.155-36.701-21.19-69.931-23.555-93.9832-10.253-24.047 13.304-38.9246 42.287-38.9233 83.782.0014 41.501 14.8766 87.657 38.9301 128.74 24.0534 41.077 57.2804 77.084 93.9864 98.278 30.571 17.652 58.729 22.241 81.184 15.591.743-.221 1.481-.453 2.212-.698-.87-.13-1.745-.274-2.625-.434-11.443-2.079-23.738-6.718-36.545-14.113-30.547-17.637-58.21-47.612-78.225-81.802l.606-.365c19.858 33.922 47.305 63.664 77.619 81.167 13.688 7.903 26.784 12.634 38.869 14.435l.838 2.207c-22.953 7.687-52.149 3.364-83.933-14.988-36.939-21.328-70.381-57.568-94.5922-98.913-24.2111-41.353-39.1889-87.821-39.1903-129.605-.0013-41.778 14.9789-70.955 39.1834-84.346 24.2091-13.389 57.6551-11.008 94.5891 10.317 31.779 18.35 60.981 47.744 83.935 81.933zm-25.98 67.698c7.946-4.39 18.922-3.611 31.048 3.391 12.127 7.002 23.103 18.898 31.05 32.464 7.819 13.356 12.707 28.341 12.853 41.888l.005.641c0 13.711-4.915 23.283-12.856 27.682-7.946 4.391-18.922 3.612-31.049-3.39-12.126-7.002-23.103-18.898-31.049-32.465-7.941-13.569-12.857-28.818-12.857-42.528-.001-13.711 4.91-23.286 12.855-27.683z" fill="#3d3d3d" fill-rule="evenodd"/></g></svg>