<svg fill="none" height="48" viewBox="0 0 48 48" width="48" xmlns="http://www.w3.org/2000/svg" xmlns:xlink="http://www.w3.org/1999/xlink"><linearGradient id="a" gradientUnits="userSpaceOnUse" x1="16.2946" x2="31.7039" y1="1.25738" y2="46.728"><stop offset="0" stop-color="#27b0e6"/><stop offset=".107" stop-color="#49a1db"/><stop offset=".288" stop-color="#7d8aca"/><stop offset=".445" stop-color="#a279bd"/><stop offset=".572" stop-color="#ba6fb6"/><stop offset=".651" stop-color="#c26bb3"/><stop offset=".678" stop-color="#d563ad"/><stop offset=".715" stop-color="#e65ba7"/><stop offset=".76" stop-color="#f156a3"/><stop offset=".824" stop-color="#f853a1"/><stop offset="1" stop-color="#fa52a0"/></linearGradient><g clip-rule="evenodd" fill-rule="evenodd"><path d="m46.9969 30.5694-9.3629 13.0904c-1.3634 1.9088-4.0223 2.7496-7.4085 2.4771-4.7045-.4092-10.9542-2.9091-16.9309-7.2039-1.949-1.3836-3.79023-2.913-5.50789-4.575-3.16704-3.0759-5.49479-6.2759-6.74134-9.1292-1.363394-3.136-1.408484-5.9084-.04509-7.8172l9.38512-13.09046c1.3639-1.90885 4-2.74957 7.409-2.47709 4.7045.38643 10.9314 2.90909 16.9304 7.18158 5.9773 4.29527 10.3637 9.40847 12.227 13.72657.1609.3704.3035.7355.4276 1.0952.9265 2.6837.8199 5.0386-.3825 6.722z" fill="url(#a)"/><path d="m45.497 23.3882c-1.7954-4.1135-6-8.9542-11.7265-13.0449-5.7043-4.09066-11.6354-6.52217-16.1125-6.88581-2.7273-.22739-4.8863.27297-5.9767 1.79539l-.0461.09067c-1.0225 1.52291-.7951 3.68194.273 6.13625 1.7954 4.1362 5.9995 8.9765 11.7042 13.0671 5.7038 4.0908 11.6354 6.5227 16.112 6.8863 2.6817.2042 4.7957-.2729 5.9089-1.7046l.0683-.1135c1.0909-1.5002.8636-3.7271-.2046-6.2269zm-8.3859.0911c-.4999.704-1.5224.9091-2.7724.7952-2.2501-.1819-5.2043-1.409-8.0678-3.4541-2.8636-2.0456-4.977-4.4548-5.8633-6.5227-.4999-1.1588-.6361-2.1813-.1363-2.8863.5004-.7045 1.5229-.9091 2.7952-.8179 2.2269.2046 5.2044 1.409 8.0451 3.4545 2.8635 2.0451 4.9769 4.4766 5.8632 6.545.5227 1.1588.659 2.1813.1363 2.8863z" fill="#fff"/></g></svg>