<svg width="80" height="80" viewBox="0 0 80 80" fill="none" xmlns="http://www.w3.org/2000/svg">
<g clip-path="url(#clip0_2818_63005)">
<path d="M40.304 79.9991C18.1957 80.1495 0.154543 62.3611 0.000946688 40.304C-0.14945 18.1957 17.6389 0.154546 39.696 0.000949392C61.8043 -0.149447 79.8455 17.5877 79.999 39.696V40C80.0502 62.0059 62.3131 79.8967 40.304 79.9991ZM40.304 5.94961C21.5012 5.84721 6.1512 20.9413 6.0488 39.7952C5.94641 58.6012 21.0404 73.948 39.8976 74.0504C58.7036 74.1528 74.0504 59.0588 74.1528 40.2528V40C74.1528 21.2452 59.0587 6.04881 40.304 5.94961ZM41.728 34.5121L49.4014 25.1108C50.2142 24.1444 50.0638 22.6724 49.0974 21.8564C48.691 21.5524 48.1822 21.3476 47.6734 21.3476C47.011 21.3476 46.3518 21.6516 45.9455 22.1604L38.8288 30.8514L31.661 22.1604C31.2546 21.6516 30.5954 21.3476 29.933 21.3476H24.042C22.7716 21.3476 21.754 22.4164 21.754 23.6868C21.754 24.1956 21.9556 24.7044 22.2628 25.1108L32.8866 38.0704L19.3669 54.6397C18.5541 55.606 18.6053 57.03 19.5685 57.8428C20.5349 58.6556 21.9588 58.6044 22.7716 57.6412L22.8228 57.59L35.8337 41.6832L41.728 34.5121ZM59.5163 21.3476C58.8572 21.3476 58.1948 21.6516 57.7884 22.1604L44.8287 38.0672L38.9344 45.2831L31.2578 54.6877C30.445 55.654 30.5474 57.078 31.5106 57.8908C32.477 58.7036 33.9009 58.6012 34.7137 57.638L41.8304 48.947L48.947 57.638C49.3534 58.1468 50.0126 58.4508 50.6749 58.4508H56.5692C57.8396 58.4508 58.8572 57.4332 58.8572 56.1628C58.8572 55.6028 58.6556 55.0972 58.2972 54.6877L47.7246 41.728L61.2443 25.1588C62.0571 24.1412 61.8555 22.7204 60.8891 21.9044C60.5339 21.5524 60.0251 21.3988 59.5163 21.3476Z" fill="#FFBE40"/>
</g>
<defs>
<clipPath id="clip0_2818_63005">
<rect width="80" height="80" fill="white"/>
</clipPath>
</defs>
</svg>
