<?xml version="1.0" standalone="no"?>
<!DOCTYPE svg PUBLIC "-//W3C//DTD SVG 20010904//EN"
 "http://www.w3.org/TR/2001/REC-SVG-20010904/DTD/svg10.dtd">
<svg version="1.0" xmlns="http://www.w3.org/2000/svg"
 width="544.000000pt" height="544.000000pt" viewBox="0 0 544.000000 544.000000"
 preserveAspectRatio="xMidYMid meet">
<metadata>
Created by potrace 1.14, written by Peter Selinger 2001-2017
</metadata>
<g transform="translate(0.000000,544.000000) scale(0.100000,-0.100000)"
fill="#000000" stroke="none">
<path d="M2637 5304 c-1 -1 -40 -5 -87 -9 -47 -4 -94 -8 -105 -9 -27 -4 -139
-20 -145 -21 -3 -1 -23 -5 -45 -10 -58 -11 -62 -12 -150 -35 -88 -22 -199 -56
-230 -70 -11 -5 -56 -23 -100 -41 -290 -113 -619 -334 -855 -577 -131 -134
-151 -158 -249 -292 -22 -30 -44 -60 -49 -65 -32 -38 -168 -284 -214 -387 -66
-145 -133 -337 -153 -438 -2 -8 -4 -15 -5 -15 -1 0 -3 -9 -5 -20 -2 -11 -7
-36 -11 -55 -4 -19 -9 -42 -10 -50 -1 -8 -5 -30 -8 -47 -33 -180 -47 -464 -31
-633 2 -30 7 -75 9 -100 15 -157 94 -486 145 -605 5 -11 21 -51 37 -90 36 -89
139 -293 161 -317 9 -10 13 -18 10 -18 -9 0 112 -177 176 -260 75 -95 92 -114
207 -230 130 -130 177 -171 306 -266 106 -79 219 -148 359 -219 119 -60 150
-74 255 -113 30 -11 64 -23 75 -28 29 -10 30 -11 150 -44 61 -16 120 -32 133
-34 12 -3 30 -7 40 -10 9 -3 35 -7 57 -10 22 -4 51 -8 65 -11 23 -4 80 -11
185 -21 49 -4 358 -5 400 0 17 2 62 6 100 10 39 4 77 9 85 11 8 2 35 7 60 10
24 4 47 8 50 10 3 2 23 6 45 9 55 9 247 61 273 75 12 6 22 10 22 7 0 -4 42 11
135 49 11 5 22 9 25 10 57 20 248 117 338 172 482 293 846 720 1061 1248 5 11
14 34 21 50 16 38 53 154 73 225 21 75 54 234 63 300 3 19 7 46 9 60 27 142
21 554 -11 730 -2 14 -7 41 -10 60 -3 19 -7 42 -10 50 -3 8 -10 38 -15 65 -29
157 -130 429 -228 618 -74 142 -210 345 -301 451 -145 168 -303 318 -443 419
-23 17 -48 37 -55 44 -7 7 -19 13 -27 13 -7 0 -15 4 -17 9 -9 26 -333 203
-458 251 -30 11 -64 25 -75 30 -27 12 -228 75 -272 85 -10 2 -58 13 -108 24
-49 10 -110 22 -135 25 -25 3 -55 8 -68 11 -56 10 -434 27 -445 19z m368 -377
c11 -3 40 -8 65 -11 324 -45 630 -162 916 -352 134 -89 166 -120 97 -93 -42
17 -129 39 -223 59 -25 5 -54 11 -65 14 -96 19 -365 27 -497 14 -88 -10 -256
-44 -343 -71 -38 -12 -73 -20 -77 -19 -5 1 -8 -2 -8 -7 0 -5 -15 -12 -33 -15
-74 -14 -386 -190 -491 -277 -170 -142 -315 -305 -423 -479 -106 -171 -217
-456 -237 -610 -2 -19 -7 -42 -10 -50 -26 -72 -27 -516 -1 -610 2 -8 7 -27 10
-43 13 -70 17 -85 26 -122 96 -367 336 -734 634 -970 28 -22 52 -42 55 -45 3
-3 17 -11 33 -19 15 -8 27 -18 27 -23 0 -4 4 -8 9 -8 6 0 29 -13 53 -29 44
-30 190 -107 243 -128 17 -7 48 -20 70 -29 109 -45 331 -98 467 -111 157 -15
445 -3 527 21 9 3 32 8 51 11 46 8 102 22 174 46 33 10 61 19 63 19 14 0 -21
-29 -100 -83 -111 -75 -122 -81 -252 -151 -92 -50 -286 -128 -375 -151 -8 -3
-49 -13 -90 -24 -74 -20 -123 -30 -167 -36 -13 -2 -41 -6 -62 -10 -81 -14
-130 -17 -291 -18 -194 -2 -280 6 -452 39 -677 131 -1253 574 -1558 1199 -242
496 -291 1048 -140 1580 42 148 64 205 140 360 125 257 295 484 507 675 33 30
74 65 89 77 26 19 76 58 129 99 33 25 223 136 231 134 4 -1 10 2 13 7 11 17
201 100 306 134 124 40 158 50 230 65 11 2 31 6 45 9 14 3 43 8 65 11 22 3 47
7 54 10 8 3 49 8 90 11 42 3 77 7 79 8 5 5 375 -3 397 -8z m605 -731 c90 -7
165 -18 215 -30 6 -2 24 -6 40 -10 118 -30 379 -145 425 -188 10 -10 23 -18
28 -18 4 0 17 -8 28 -18 10 -10 26 -23 35 -28 26 -15 130 -107 125 -111 -2 -2
-25 1 -52 7 -89 20 -257 28 -332 16 -15 -3 -47 -8 -72 -11 -208 -28 -465 -169
-618 -337 -70 -77 -204 -278 -186 -278 4 0 0 -10 -8 -22 -30 -48 -71 -185 -85
-288 -4 -30 -7 -111 -6 -180 2 -201 50 -365 163 -560 8 -14 17 -27 20 -30 3
-3 17 -21 30 -40 39 -55 137 -156 199 -202 31 -24 58 -46 61 -49 20 -25 243
-129 310 -144 8 -2 15 -4 15 -5 0 -2 55 -15 115 -27 46 -10 294 -10 345 -1 22
4 56 10 75 13 l35 6 -50 -45 c-146 -134 -417 -278 -600 -320 -153 -35 -179
-38 -360 -40 -221 -2 -325 15 -515 81 -95 34 -263 118 -298 150 -7 7 -17 13
-21 13 -24 0 -214 168 -295 260 -90 102 -246 358 -246 404 0 9 -5 16 -10 16
-6 0 -9 3 -8 8 1 4 -8 36 -19 72 -29 86 -50 173 -58 240 -4 30 -9 69 -12 85
-6 36 -6 261 1 291 2 12 7 45 11 75 10 80 46 221 78 303 27 68 100 213 123
243 13 17 24 34 24 38 0 8 77 112 115 154 98 111 283 271 314 271 5 0 11 4 13
8 3 10 186 112 198 112 5 0 30 9 57 21 26 11 55 23 63 25 8 2 40 11 70 19 90
26 200 46 285 51 44 3 81 7 82 8 3 3 44 1 153 -8z m758 -750 c13 -3 32 -8 42
-11 10 -3 27 -8 38 -10 67 -13 223 -101 287 -163 50 -49 95 -101 95 -111 0 -5
4 -11 8 -13 24 -10 98 -171 108 -236 3 -21 9 -44 14 -52 14 -28 5 -242 -14
-310 -62 -229 -228 -411 -453 -499 -98 -38 -215 -52 -343 -41 -33 3 -140 28
-165 39 -54 23 -120 57 -123 64 -2 4 -10 7 -18 7 -8 0 -14 5 -14 10 0 6 -5 10
-10 10 -6 0 -23 11 -38 24 -15 14 -36 33 -48 43 -30 26 -114 132 -125 157 -5
11 -13 28 -19 36 -19 30 -49 111 -67 181 -13 51 -12 254 2 313 53 223 203 410
405 503 54 26 97 38 224 67 17 4 190 -3 214 -8z"/>
</g>
</svg>
