<svg width="1000" height="954" viewBox="0 0 1000 954" fill="none" xmlns="http://www.w3.org/2000/svg">
<path fill-rule="evenodd" clip-rule="evenodd" d="M474.991 167.008H524.974V214.64H474.991V167.008ZM425.01 262.271V214.64H474.991V262.271H425.01ZM275.046 405.181V357.54V309.908V262.271H325.048H375.008H425.01L424.989 309.908H375.008H325.048L325.027 357.54V405.181H275.046ZM225.065 452.818V405.181H275.046V452.818H225.065ZM225.044 501.184H175.062V500.454V453.548V452.818H225.065L225.044 453.548V500.454V501.184ZM275.046 548.822H225.065L225.044 501.184H275.046V548.822ZM425.01 691.731H375.008H325.048H275.046V644.095V596.462V548.822H325.027V596.462L325.048 644.095H375.008H424.989L425.01 691.731ZM474.991 739.364H425.01V691.731H474.991V739.364ZM474.991 739.364H524.974V786.994H474.991V739.364ZM574.996 739.364H525.014V691.731H574.996V739.364ZM724.938 548.822L724.959 596.462V644.095V691.731H674.979H624.997H574.996V644.095H624.997H674.979L674.958 596.462V548.822H724.938ZM774.942 501.184V548.822H724.938V501.184H774.942ZM774.942 452.818H824.943V453.548V500.454V501.184H774.942V500.454V453.548V452.818ZM724.938 405.181V452.818H774.942V405.181H724.938ZM674.958 357.54V405.181H724.938L724.959 357.54V309.908V262.271H674.979H624.997H574.996V214.64H525.014V262.271H574.996V309.908H624.997H674.979L674.958 357.54Z" fill="#17171B"/>
<path fill-rule="evenodd" clip-rule="evenodd" d="M461.514 0H538.424V73.293H461.514V0ZM384.606 146.586V73.293H461.514V146.586H384.606ZM153.849 366.488V293.18V219.887V146.586H230.789H307.666H384.606L384.574 219.887H307.666H230.789L230.757 293.18V366.488H153.849ZM76.9404 439.789V366.488H153.849V439.789H76.9404ZM76.9086 514.211H0V513.088V440.912V439.789H76.9404L76.9086 440.912V513.088V514.211ZM153.849 587.514H76.9404L76.9086 514.211H153.849V587.514ZM384.606 807.414H307.666H230.789H153.849V734.115V660.82V587.514H230.757V660.82L230.789 734.115H307.666H384.574L384.606 807.414ZM461.514 880.709H384.606V807.414H461.514V880.709ZM461.514 880.709H538.424V954H461.514V880.709ZM615.396 880.709H538.486V807.414H615.396V880.709ZM846.118 587.514L846.151 660.82V734.115V807.414H769.245H692.335H615.396V734.115H692.335H769.245L769.212 660.82V587.514H846.118ZM923.061 514.211V587.514H846.118V514.211H923.061ZM923.061 439.789H1000V440.912V513.088V514.211H923.061V513.088V440.912V439.789ZM846.118 366.488V439.789H923.061V366.488H846.118ZM769.212 293.18V366.488H846.118L846.151 293.18V219.887V146.586H769.245H692.335H615.396V73.293H538.486V146.586H615.396V219.887H692.335H769.245L769.212 293.18Z" fill="#17171B"/>
<g filter="url(#filter0_i_904_25396)">
<path fill-rule="evenodd" clip-rule="evenodd" d="M484.015 279.074H515.928V309.486H484.015V279.074ZM452.103 339.898V309.486H484.015V339.898H452.103ZM356.353 431.144V400.726V370.314V339.898H388.279H420.178H452.103L452.09 370.314H420.178H388.279L388.266 400.726V431.144H356.353ZM324.441 461.559V431.144H356.353V461.559H324.441ZM324.428 492.44H292.516V491.974V462.026V461.559H324.441L324.428 462.026V491.974V492.44ZM356.353 522.856H324.441L324.428 492.44H356.353V522.856ZM452.103 614.101H420.178H388.279H356.353V583.687V553.274V522.856H388.266V553.274L388.279 583.687H420.178H452.09L452.103 614.101ZM484.015 644.514H452.103V614.101H484.015V644.514ZM484.015 644.514H515.928V674.925H484.015V644.514ZM547.867 644.514H515.954V614.101H547.867V644.514ZM643.602 522.856L643.616 553.274V583.687V614.101H611.705H579.792H547.867V583.687H579.792H611.705L611.691 553.274V522.856H643.602ZM675.529 492.44V522.856H643.602V492.44H675.529ZM675.529 461.559H707.454V462.026V491.974V492.44H675.529V491.974V462.026V461.559ZM643.602 431.144V461.559H675.529V431.144H643.602ZM611.691 400.726V431.144H643.602L643.616 400.726V370.314V339.898H611.705H579.792H547.867V309.486H515.954V339.898H547.867V370.314H579.792H611.705L611.691 400.726Z" fill="#393A3A"/>
</g>
<g filter="url(#filter1_i_904_25396)">
<path fill-rule="evenodd" clip-rule="evenodd" d="M486.496 309.802H513.454V335.493H486.496V309.802ZM459.538 361.183V335.493H486.496V361.183H459.538ZM378.653 438.263V412.567V386.876V361.183H405.622H432.569H459.538L459.527 386.876H432.569H405.622L405.611 412.567V438.263H378.653ZM351.696 463.956V438.263H378.653V463.956H351.696ZM351.684 490.043H324.727V489.649V464.35V463.956H351.696L351.684 464.35V489.649V490.043ZM378.653 515.737H351.696L351.684 490.043H378.653V515.737ZM459.538 592.816H432.569H405.622H378.653V567.123V541.432V515.737H405.611V541.432L405.622 567.123H432.569H459.527L459.538 592.816ZM486.496 618.507H459.538V592.816H486.496V618.507ZM486.496 618.507H513.454V644.197H486.496V618.507ZM540.434 618.507H513.476V592.816H540.434V618.507ZM621.307 515.737L621.318 541.432V567.123V592.816H594.361H567.403H540.434V567.123H567.403H594.361L594.35 541.432V515.737H621.307ZM648.277 490.043V515.737H621.307V490.043H648.277ZM648.277 463.956H675.245V464.35V489.649V490.043H648.277V489.649V464.35V463.956ZM621.307 438.263V463.956H648.277V438.263H621.307ZM594.35 412.567V438.263H621.307L621.318 412.567V386.876V361.183H594.361H567.403H540.434V335.493H513.476V361.183H540.434V386.876H567.403H594.361L594.35 412.567Z" fill="black"/>
</g>
<g filter="url(#filter2_i_904_25396)">
<path fill-rule="evenodd" clip-rule="evenodd" d="M487.182 318H512.819V342.431H487.182V318ZM461.546 366.861V342.431H487.182V366.861H461.546ZM384.627 440.162V415.726V391.295V366.861H410.273H435.899H461.546L461.535 391.295H435.899H410.273L410.263 415.726V440.162H384.627ZM358.991 464.596V440.162H384.627V464.596H358.991ZM358.98 489.403H333.344V489.029V464.97V464.596H358.991L358.98 464.97V489.029V489.403ZM384.627 513.838H358.991L358.98 489.403H384.627V513.838ZM461.546 587.138H435.899H410.273H384.627V562.705V538.273V513.838H410.263V538.273L410.273 562.705H435.899H461.535L461.546 587.138ZM487.182 611.569H461.546V587.138H487.182V611.569ZM487.182 611.569H512.819V636H487.182V611.569ZM538.476 611.569H512.839V587.138H538.476V611.569ZM615.383 513.838L615.394 538.273V562.705V587.138H589.759H564.122H538.476V562.705H564.122H589.759L589.748 538.273V513.838H615.383ZM641.031 489.403V513.838H615.383V489.403H641.031ZM641.031 464.596H666.677V464.97V489.029V489.403H641.031V489.029V464.97V464.596ZM615.383 440.162V464.596H641.031V440.162H615.383ZM589.748 415.726V440.162H615.383L615.394 415.726V391.295V366.861H589.759H564.122H538.476V342.431H512.839V366.861H538.476V391.295H564.122H589.759L589.748 415.726Z" fill="#17171B"/>
</g>
<g filter="url(#filter3_i_904_25396)">
<path fill-rule="evenodd" clip-rule="evenodd" d="M493.439 395.784H506.534V408.263H493.439V395.784ZM480.344 420.742V408.263H493.439V420.742H480.344ZM441.054 458.183V445.702V433.223V420.742H454.154H467.244H480.344L480.338 433.223H467.244H454.154L454.149 445.702V458.183H441.054ZM427.96 470.664V458.183H441.054V470.664H427.96ZM427.954 483.335H414.859V483.144V470.855V470.664H427.96L427.954 470.855V483.144V483.335ZM441.054 495.816H427.96L427.954 483.335H441.054V495.816ZM480.344 533.257H467.244H454.154H441.054V520.777V508.298V495.816H454.149V508.298L454.154 520.777H467.244H480.338L480.344 533.257ZM493.439 545.737H480.344V533.257H493.439V545.737ZM493.439 545.737H506.534V558.216H493.439V545.737ZM519.639 545.737H506.544V533.257H519.639V545.737ZM558.923 495.816L558.928 508.298V520.777V533.257H545.834H532.739H519.639V520.777H532.739H545.834L545.828 508.298V495.816H558.923ZM572.023 483.335V495.816H558.923V483.335H572.023ZM572.023 470.664H585.123V470.855V483.144V483.335H572.023V483.144V470.855V470.664ZM558.923 458.183V470.664H572.023V458.183H558.923ZM545.828 445.702V458.183H558.923L558.928 445.702V433.223V420.742H545.834H532.739H519.639V408.263H506.544V420.742H519.639V433.223H532.739H545.834L545.828 445.702Z" fill="#4B4B4B"/>
</g>
<defs>
<filter id="filter0_i_904_25396" x="292.516" y="279.074" width="414.938" height="399.851" filterUnits="userSpaceOnUse" color-interpolation-filters="sRGB">
<feFlood flood-opacity="0" result="BackgroundImageFix"/>
<feBlend mode="normal" in="SourceGraphic" in2="BackgroundImageFix" result="shape"/>
<feColorMatrix in="SourceAlpha" type="matrix" values="0 0 0 0 0 0 0 0 0 0 0 0 0 0 0 0 0 0 127 0" result="hardAlpha"/>
<feOffset dy="4"/>
<feGaussianBlur stdDeviation="2"/>
<feComposite in2="hardAlpha" operator="arithmetic" k2="-1" k3="1"/>
<feColorMatrix type="matrix" values="0 0 0 0 0 0 0 0 0 0 0 0 0 0 0 0 0 0 0.25 0"/>
<feBlend mode="normal" in2="shape" result="effect1_innerShadow_904_25396"/>
</filter>
<filter id="filter1_i_904_25396" x="324.727" y="309.802" width="350.52" height="338.395" filterUnits="userSpaceOnUse" color-interpolation-filters="sRGB">
<feFlood flood-opacity="0" result="BackgroundImageFix"/>
<feBlend mode="normal" in="SourceGraphic" in2="BackgroundImageFix" result="shape"/>
<feColorMatrix in="SourceAlpha" type="matrix" values="0 0 0 0 0 0 0 0 0 0 0 0 0 0 0 0 0 0 127 0" result="hardAlpha"/>
<feOffset dy="4"/>
<feGaussianBlur stdDeviation="2"/>
<feComposite in2="hardAlpha" operator="arithmetic" k2="-1" k3="1"/>
<feColorMatrix type="matrix" values="0 0 0 0 0 0 0 0 0 0 0 0 0 0 0 0 0 0 0.25 0"/>
<feBlend mode="normal" in2="shape" result="effect1_innerShadow_904_25396"/>
</filter>
<filter id="filter2_i_904_25396" x="333.344" y="318" width="333.332" height="322" filterUnits="userSpaceOnUse" color-interpolation-filters="sRGB">
<feFlood flood-opacity="0" result="BackgroundImageFix"/>
<feBlend mode="normal" in="SourceGraphic" in2="BackgroundImageFix" result="shape"/>
<feColorMatrix in="SourceAlpha" type="matrix" values="0 0 0 0 0 0 0 0 0 0 0 0 0 0 0 0 0 0 127 0" result="hardAlpha"/>
<feOffset dy="4"/>
<feGaussianBlur stdDeviation="2"/>
<feComposite in2="hardAlpha" operator="arithmetic" k2="-1" k3="1"/>
<feColorMatrix type="matrix" values="0 0 0 0 0 0 0 0 0 0 0 0 0 0 0 0 0 0 0.25 0"/>
<feBlend mode="normal" in2="shape" result="effect1_innerShadow_904_25396"/>
</filter>
<filter id="filter3_i_904_25396" x="414.859" y="395.784" width="170.266" height="166.432" filterUnits="userSpaceOnUse" color-interpolation-filters="sRGB">
<feFlood flood-opacity="0" result="BackgroundImageFix"/>
<feBlend mode="normal" in="SourceGraphic" in2="BackgroundImageFix" result="shape"/>
<feColorMatrix in="SourceAlpha" type="matrix" values="0 0 0 0 0 0 0 0 0 0 0 0 0 0 0 0 0 0 127 0" result="hardAlpha"/>
<feOffset dy="4"/>
<feGaussianBlur stdDeviation="2"/>
<feComposite in2="hardAlpha" operator="arithmetic" k2="-1" k3="1"/>
<feColorMatrix type="matrix" values="0 0 0 0 0 0 0 0 0 0 0 0 0 0 0 0 0 0 0.25 0"/>
<feBlend mode="normal" in2="shape" result="effect1_innerShadow_904_25396"/>
</filter>
</defs>
</svg>
