<svg fill="none" height="40" viewBox="0 0 40 40" width="40" xmlns="http://www.w3.org/2000/svg"><rect fill="#2e3148" height="38" rx="19" width="38" x="1" y="1"/><rect height="38" rx="19" stroke="#181e25" stroke-width="2" width="38" x="1" y="1"/><g fill="#fff"><path d="m20.0253 7.01367c-1.606 0-2.9081 5.82483-2.9081 13.00893 0 7.184 1.3021 13.0089 2.9081 13.0089 1.6047 0 2.9068-5.8249 2.9068-13.0089 0-7.1841-1.3021-13.00893-2.9068-13.00893zm.2009 25.28243c-.1836.2455-.3683.062-.3683.062-.7392-.8582-1.1087-2.4493-1.1087-2.4493-1.2935-4.1631-.9859-13.1006-.9859-13.1006.6077-7.09478 1.7138-8.77143 2.0896-9.14346.0385-.03816.0892-.06146.1433-.06577.054-.00431.1078.01064.1519.0422.5456.38816 1.0044 2.00528 1.0044 2.00528 1.3518 5.02005 1.229 9.73245 1.229 9.73245.1228 4.1024-.6771 8.6933-.6771 8.6933-.6163 3.4897-1.4782 4.2239-1.4782 4.2239z"/><path d="m31.3083 13.5493c-.7998-1.3939-6.4982.3757-12.7323 3.951s-10.63159 7.602-9.83419 8.9959c.79988 1.3939 6.49949-.3758 12.73359-3.9511 6.2341-3.5752 10.6328-7.6032 9.8342-8.9958zm-21.82985 12.7547c-.30507-.0372-.23563-.2902-.23563-.2902.37452-1.0665 1.56998-2.1802 1.56998-2.1802 2.9676-3.1933 10.8747-7.3737 10.8747-7.3737 6.4561-3.0036 8.4613-2.8771 8.9698-2.7382.0525.0144.0982.047.1288.092.0307.0449.0444.0994.0386.1535-.062.666-1.2401 1.8689-1.2401 1.8689-3.6782 3.672-7.8277 5.9129-7.8277 5.9129-3.4971 2.1479-7.8785 3.7365-7.8785 3.7365-3.3334 1.2004-4.39995.8185-4.39995.8185z"/><path d="m31.2768 26.5419c.8061-1.3889-3.5802-5.4354-9.7945-9.038-6.213-3.6013-11.91012-5.3921-12.71496-4.0006-.80608 1.3926 3.58146 5.4354 9.79696 9.038 6.2168 3.6013 11.9077 5.392 12.7125 4.0006zm-21.97497-12.5017c-.12029-.2827.13146-.3509.13146-.3509 1.11241-.2108 2.67491.2691 2.67491.2691 4.2499.9673 11.8283 5.7145 11.8283 5.7145 5.8348 4.0825 6.7302 5.8819 6.8641 6.3916.0136.0523.0082.1078-.0152.1566-.0233.0488-.0632.0877-.1125.11-.6077.279-2.2384-.1364-2.2384-.1364-5.0225-1.3468-9.0393-3.8134-9.0393-3.8134-3.6088-1.947-7.1778-4.9419-7.1778-4.9419-2.71219-2.2843-2.91433-3.3979-2.91433-3.3979l-.00248-.0013z"/><path d="m19.9913 21.5218c.8451 0 1.5303-.6851 1.5303-1.5303s-.6852-1.5303-1.5303-1.5303c-.8452 0-1.5304.6851-1.5304 1.5303s.6852 1.5303 1.5304 1.5303z"/><path d="m26.2714 15.3548c.6849 0 1.2401-.5553 1.2401-1.2402s-.5552-1.2401-1.2401-1.2401-1.2402.5552-1.2402 1.2401.5553 1.2402 1.2402 1.2402z"/><path d="m11.7011 18.4773c.6849 0 1.2401-.5552 1.2401-1.2401s-.5552-1.2401-1.2401-1.2401-1.2402.5552-1.2402 1.2401.5553 1.2401 1.2402 1.2401z"/><path d="m18.1854 29.74c.6849 0 1.2402-.5552 1.2402-1.2401s-.5553-1.2401-1.2402-1.2401-1.2401.5552-1.2401 1.2401.5552 1.2401 1.2401 1.2401z"/></g></svg>