<svg fill="none" height="40" viewBox="0 0 40 40" width="40" xmlns="http://www.w3.org/2000/svg"><rect fill="#f7931a" height="38" rx="19" width="38" x="1" y="1"/><rect height="38" rx="19" stroke="#181e25" stroke-width="2" width="38" x="1" y="1"/><path clip-rule="evenodd" d="m27.9424 17.4355c.3583-2.3954-1.4654-3.683-3.9592-4.542l.809-3.24479-1.9752-.49217-.7875 3.15936c-.5193-.1295-1.0526-.2515-1.5826-.3725l.7933-3.18023-1.974-.49217-.8094 3.2437c-.4297-.0978-.8518-.1945-1.2612-.2964l.0022-.0102-2.7238-.6802-.5254 2.1097s1.4654.3359 1.4345.3566c.7999.1996.9445.7291.9205 1.1487l-.9215 3.6966c.055.014.1265.0342.2053.0659l-.0574-.0143c-.0487-.0122-.0994-.0249-.1514-.0373l-1.2916 5.1783c-.0978.2431-.3459.6077-.9051.4693.0198.0286-1.4356-.3583-1.4356-.3583l-.9807 2.261 2.5704.6407c.2814.0706.5595.1431.8348.2149h.0003l.0002.0001c.1923.0501.3832.0999.573.1484l-.8174 3.282 1.9729.4922.8095-3.2472c.539.1463 1.062.2813 1.5741.4085l-.8067 3.2319 1.9752.4922.8173-3.2759c3.3682.6374 5.9007.3804 6.9667-2.666.859-2.4528-.0427-3.8676-1.8147-4.7901 1.2906-.2977 2.2627-1.1465 2.5219-2.9l-.0006-.0005zm-4.5129 6.3282c-.56 2.2504-4.0824 1.32-5.694.8944l-.0001-.0001c-.1449-.0382-.2744-.0724-.3849-.0999l1.0846-4.3481c.1347.0336.2993.0706.4857.1124 1.667.3741 5.0825 1.1406 4.5088 3.4413zm-4.1743-5.4593c1.3436.3586 4.2747 1.1408 4.7852-.9044h.0002c.5212-2.0919-2.3273-2.7225-3.7185-3.0305-.1565-.0347-.2946-.0653-.4074-.0934l-.9833 3.9435c.0928.0231.2018.0522.3238.0848z" fill="#fff" fill-rule="evenodd"/></svg>