<svg fill="none" height="40" viewBox="0 0 40 40" width="40" xmlns="http://www.w3.org/2000/svg"><rect fill="#f5ac37" height="38" rx="19" width="38" x="1" y="1"/><rect height="38" rx="19" stroke="#181e25" stroke-width="2" width="38" x="1" y="1"/><path clip-rule="evenodd" d="m11.761 29.2175v.0625l-.003.0022v.0106h7.2531c.8209.0112 1.6389-.0542 2.4455-.1987.8495-.1663 1.6773-.4282 2.4666-.7833.3423-.1585.6706-.3501 1.0019-.5434.0839-.0489.1679-.098.2525-.1466.3898-.2777.763-.5787 1.1181-.8985.9722-.8789 1.7247-1.9752 2.195-3.198.0316-.1369.1655-.225.3032-.1986h1.9753c.1572 0 .2092-.0527.2092-.2303v-1.2649c.0105-.1211.0105-.2438 0-.3649 0-.0317.0081-.0633.0162-.0948.0162-.0629.0324-.1255-.0162-.1882h-1.6502c-.1994 0-.1994-.021-.1994-.1986.0572-.6366.0572-1.2755 0-1.9121-.0105-.1881.0316-.1881.1776-.1881h1.4425c.1678 0 .2302-.0421.2302-.2092v-1.7141c-.0052-.1135-.0078-.1711-.0379-.2003-.031-.0299-.091-.0299-.2127-.0299h-1.8706c-.146.0248-.2859-.0738-.3123-.2198-.2144-.5606-.4876-1.0971-.8164-1.599-.3311-.4951-.7043-.9601-1.1182-1.3898-.55-.5493-1.1678-1.0264-1.839-1.4214-1.0121-.5877-2.119-.9993-3.271-1.2122-.5591-.1031-1.1242-.1656-1.6931-.1881h-7.8377c-.2092 0-.2092.0421-.2092.2091v5.633c0 .1987-.0421.1987-.1986.1987h-2.24691c-.16705 0-.16705.0308-.16705.146v1.839c0 .1671.05192.1671.17758.1671h2.26798c.167 0 .167.0308.167.1565v1.9647c0 .1776-.0527.1776-.1881.1776h-2.42446v1.9857c0 .1671.05192.1671.17758.1671h2.26798c.167 0 .167.0203.167.1565v2.4561.8254zm14.4332-12.6558c.018.0467.018.0986 0 .146h.0504c-.0211.0624-.1257.0835-.1257.0835h-12.0598c-.1987 0-.1987-.0421-.1987-.1986v-3.7097c0-.1362.0211-.1987.1776-.1987h5.6119c.5975-.0053 1.1935.0572 1.7766.1881 1.1558.2739 2.2311.8187 3.1356 1.5885.1806.1347.3416.2935.4808.4703.295.2927.5538.6185.7735.9722.146.2069.2717.4274.3778.6584zm.5004 4.6187h-6.3539-6.229c-.127 0-.1897 0-.2205-.0313-.03-.0305-.03-.0905-.03-.2088v-1.8601c0-.1467.0421-.1986.1986-.1986h12.6453c.1362 0 .1987.0519.1987.1775.0519.6472.0519 1.2973 0 1.9437-.0098.1776-.0738.1776-.2092.1776zm-.5004 2.1739c-.1776-.0196-.3567-.0196-.5343 0h-11.5895c-.1566 0-.2092 0-.2092.2091v3.6269c0 .1671 0 .2092.2092.2092h5.3508c.2558.0196.5117.0015.7622-.0519.7766-.0557 1.5403-.2242 2.2687-.5019.2649-.0918.5207-.2114.7623-.3551h.073c1.2543-.6524 2.2732-1.6773 2.9158-2.9354 0 0 .073-.1581-.009-.1994z" fill="#fefefd" fill-rule="evenodd"/></svg>