<svg width="66" height="66" viewBox="0 0 66 66" fill="none" xmlns="http://www.w3.org/2000/svg">
<g clip-path="url(#clip0_1653_184151)">
<circle cx="33" cy="33" r="33" fill="#23201F"/>
<path d="M13.2263 38.2803C12.242 37.2958 11.582 36.159 11.2461 34.8699C10.918 33.5729 10.918 32.2759 11.2461 30.979C11.582 29.6742 12.2381 28.5335 13.2146 27.5569C14.2066 26.5646 15.351 25.9044 16.6477 25.5763C17.9444 25.2481 19.2411 25.2481 20.5378 25.5763C21.8345 25.9044 22.975 26.5607 23.9592 27.5452L26.3964 29.9828L30.0053 26.3732L27.5681 23.9355C26.5838 22.9511 25.9238 21.8143 25.5879 20.5251C25.2598 19.2281 25.2559 17.9351 25.5762 16.6459C25.9043 15.349 26.5644 14.2044 27.5564 13.2121C28.5407 12.2277 29.6811 11.5714 30.9778 11.2432C32.2745 10.9151 33.5673 10.919 34.8562 11.2549C36.1529 11.5831 37.2934 12.2394 38.2777 13.2238C39.2619 14.2083 39.9181 15.349 40.2462 16.6459C40.5821 17.9351 40.5859 19.2281 40.2579 20.5251C39.9376 21.8299 39.2853 22.9745 38.3011 23.959L35.8756 26.3849L39.4728 29.9828L41.8983 27.5569C42.8825 26.5724 44.0191 25.9122 45.308 25.5763C46.6047 25.2481 47.8975 25.252 49.1864 25.588C50.4831 25.9161 51.6275 26.5763 52.6196 27.5686C53.6038 28.553 54.26 29.6937 54.588 30.9907C54.9239 32.2799 54.9239 33.569 54.588 34.8582C54.26 36.1551 53.6038 37.2958 52.6196 38.2803C51.6275 39.2725 50.4831 39.9327 49.1864 40.2609C47.8975 40.5812 46.6047 40.5773 45.308 40.2491C44.0269 39.921 42.8942 39.2647 41.91 38.2803L39.4845 35.8543L35.8756 39.4639L38.3011 41.8899C39.2853 42.8743 39.9376 44.0111 40.2579 45.3003C40.5859 46.5973 40.5859 47.8942 40.2579 49.1912C39.9298 50.4882 39.2697 51.6327 38.2777 52.625C37.3013 53.6016 36.1607 54.2579 34.8562 54.5939C33.5595 54.922 32.2628 54.922 30.9661 54.5939C29.685 54.2658 28.5523 53.6094 27.5681 52.625C26.576 51.6327 25.9121 50.492 25.5762 49.2029C25.2481 47.9059 25.2481 46.609 25.5762 45.312C25.9199 44.015 26.58 42.8782 27.5564 41.9016L30.0053 39.4522L26.4081 35.8543L23.9592 38.3037C22.9828 39.2803 21.8384 39.9327 20.5261 40.2609C19.2294 40.589 17.9327 40.589 16.636 40.2609C15.3471 39.9249 14.2105 39.2647 13.2263 38.2803ZM16.1556 35.3504C16.6008 35.7957 17.1164 36.0926 17.7023 36.2411C18.2959 36.3973 18.8857 36.4012 19.4716 36.2528C20.0574 36.1043 20.573 35.8074 21.0182 35.3621L23.4671 32.9127L21.0299 30.475C20.5847 30.0297 20.0652 29.7367 19.4716 29.5961C18.8857 29.4476 18.2998 29.4476 17.714 29.5961C17.1281 29.7445 16.6086 30.0453 16.1556 30.4985C15.7103 30.9438 15.4096 31.4556 15.2534 32.0337C15.1049 32.6197 15.1049 33.2057 15.2534 33.7917C15.4096 34.3855 15.7103 34.905 16.1556 35.3504ZM30.4974 21.0056L32.9346 23.4433L35.3601 21.0173C35.8131 20.5642 36.11 20.0485 36.2506 19.4703C36.399 18.8844 36.3951 18.2945 36.2389 17.7007C36.0905 17.1147 35.7936 16.599 35.3483 16.1537C34.9031 15.7084 34.3875 15.4115 33.8017 15.263C33.2158 15.1146 32.63 15.1146 32.0441 15.263C31.4661 15.4037 30.9505 15.7005 30.4974 16.1537C30.0522 16.599 29.7475 17.1147 29.5835 17.7007C29.4351 18.2867 29.4351 18.8726 29.5835 19.4586C29.7475 20.0446 30.0522 20.5603 30.4974 21.0056ZM41.7276 32.9244L44.1531 35.3504C44.5983 35.7957 45.11 36.0965 45.6881 36.2528C46.2739 36.4012 47.5421 36.3973 48.1202 36.2411C48.706 36.0926 49.2255 35.7918 49.6785 35.3387C50.1316 34.8855 50.4284 34.3698 50.5691 33.7917C50.7253 33.2135 50.7292 32.6314 50.5808 32.0455C50.4324 31.4595 50.1355 30.9438 49.6903 30.4985C49.2372 30.0453 48.7177 29.7445 48.1318 29.5961C47.546 29.4476 46.2739 29.4476 45.6881 29.5961C45.1178 29.7445 44.6061 30.0453 44.1531 30.4985L41.7276 32.9244ZM30.4974 49.6951C30.9427 50.1405 31.4583 50.4374 32.0441 50.5858C32.63 50.7343 33.2119 50.7303 33.79 50.5741C34.3758 50.4256 34.8914 50.1287 35.3366 49.6834C35.7897 49.2302 36.0905 48.7107 36.2389 48.1247C36.3951 47.5465 36.399 46.9645 36.2506 46.3785C36.11 45.7847 35.8171 45.2651 35.3718 44.8198L32.9463 42.3938L30.4974 44.8432C30.0522 45.2886 29.7514 45.8003 29.5952 46.3785C29.4468 46.9645 29.4468 47.5504 29.5952 48.1364C29.7436 48.7224 30.0444 49.242 30.4974 49.6951ZM29.3374 32.9244L32.9346 36.5223L36.5435 32.9127L32.9463 29.3148L29.3374 32.9244Z" fill="#F1E1D4"/>
</g>
<defs>
<clipPath id="clip0_1653_184151">
<rect width="66" height="66" fill="white"/>
</clipPath>
</defs>
</svg>
