<svg fill="none" height="34" viewBox="0 0 34 34" width="34" xmlns="http://www.w3.org/2000/svg" xmlns:xlink="http://www.w3.org/1999/xlink"><linearGradient id="a"><stop offset="0" stop-color="#0082fa"/><stop offset="1" stop-color="#00f2fe"/></linearGradient><linearGradient id="b" gradientUnits="userSpaceOnUse" x1="7" x2="27" xlink:href="#a" y1="17" y2="17"/><linearGradient id="c" gradientUnits="userSpaceOnUse" x1="6.99928" x2="26.9993" xlink:href="#a" y1="17" y2="17"/><rect fill="#edf3fa" height="32" rx="16" width="32" x="1" y="1"/><rect height="32" rx="16" stroke="#181e25" stroke-width="2" width="32" x="1" y="1"/><path d="m9.42485 10.4567c.1242-.1561.2558-.3063.3874-.4565.0059-.00742.01925-.00892.02515-.01637.01185-.01485.0311-.0238.0429-.0387l.01185-.01485c.09175-.0848.18935-.1771.30195-.2575.3982-.3023.8114-.53195 1.2472-.68305 1.3976-.4907 2.9534-.1883 4.1735.9635 1.7035 1.59687 1.551 4.16927.1911 5.87907-1.7185 2.5489-4.6717 6.1051-.5827 9.2907.7352.5728 1.2806 1.045 3.5964 1.7143-1.5146.279-2.919.1922-4.4822-.2071-1.1057-.6241-2.8441-1.9604-3.4355-3.7652-.8939-2.7369 1.5738-6.8284 2.7664-8.4042 1.6374-2.1809-1.0121-4.54172-2.9627-1.9061-1.0196 1.3736-2.8034 5.2604-2.1835 8.1435.36245 1.635.84555 2.8267 2.7611 4.4638-.3552-.2096-.7002-.4473-1.0348-.7133-4.45055-4.1457-3.93421-10.5558-.82355-13.992z" fill="url(#b)"/><path d="m24.5744 23.5433c-.1242.1561-.2558.3063-.3874.4565-.0059.0074-.0192.0089-.0251.0164-.0119.0148-.0311.0238-.0429.0387l-.0119.0148c-.0917.0848-.1893.1771-.3019.2575-.3982.3023-.8114.532-1.2472.6831-1.3976.4907-2.9534.1883-4.1735-.9635-1.7035-1.5969-1.551-4.1693-.1911-5.8791 1.7185-2.5489 4.6717-6.1051.5827-9.2907-.7352-.5728-1.2806-1.04505-3.5964-1.7143 1.5146-.27902 2.919-.19222 4.4821.20705 1.1058.6241 2.8442 1.9604 3.4356 3.76525.8939 2.7369-1.5738 6.8284-2.7664 8.4042-1.6374 2.1809 1.0121 4.5417 2.9627 1.9061 1.0196-1.3736 2.8034-5.2604 2.1835-8.1435-.3625-1.635-.8456-2.8267-2.7611-4.46385.3552.2096.7002.44735 1.0348.71335 4.4505 4.1457 3.9342 10.5558.8235 13.992z" fill="url(#c)"/></svg>