<svg fill="none" height="36" viewBox="0 0 36 36" width="36" xmlns="http://www.w3.org/2000/svg"><rect fill="#04d484" height="36" rx="18" width="36"/><path clip-rule="evenodd" d="m18 6c3.3135 0 6.3137 1.34327 8.4852 3.51487 2.1459 2.14593 3.4827 5.10093 3.514 8.36773v.0068l.0004.0445.0004.0661-.0008.1106v.0072c-.0313 3.2668-1.3681 6.2214-3.514 8.3673-2.1715 2.1716-5.1713 3.5149-8.4852 3.5149-3.3135 0-6.3137-1.3433-8.48525-3.5149-2.17152-2.1716-3.51475-5.1718-3.51475-8.4855 0-3.3136 1.34323-6.3135 3.51475-8.48511 2.17155-2.17159 5.17175-3.51449 8.48525-3.51449zm6.897 6.8968c.4549 0 .8962.0601 1.3164.1714-1.2375-1.2009-2.925-1.9405-4.7859-1.9405-1.8978 0-3.6159.769-4.8591 2.0126-1.2435 1.2437-2.0126 2.9618-2.0126 4.8597s.7691 3.616 2.0126 4.8593c1.2436 1.2436 2.9617 2.0126 4.8591 2.0126 1.8609 0 3.5488-.7396 4.7859-1.9405-.4198.1117-.8611.1714-1.316.1714-1.4089 0-2.685-.5712-3.608-1.4947-.9235-.9234-1.4946-2.1995-1.4946-3.6085 0-1.4089.5711-2.685 1.4946-3.6085.9226-.9227 2.1983-1.4943 3.6076-1.4943zm2.4056 2.6975c-.6158-.6153-1.4663-.9963-2.406-.9963-.9396 0-1.7902.381-2.4059.9963-.6158.6158-.9963 1.4664-.9963 2.4061s.3809 1.7903.9963 2.406c.6157.6154 1.4663.9963 2.4059.9963.9397 0 1.7902-.3809 2.406-.9963.6153-.6157.9963-1.4663.9963-2.406l-.0004-.0438c-.0113-.9227-.39-1.7563-.9959-2.3623zm-5.8754-6.1674c1.0687 0 2.0915.19556 3.0353.55309-1.7672-1.42558-4.0154-2.27919-6.4625-2.27919-2.8439 0-5.419 1.153-7.2828 3.0165-1.86349 1.8635-3.01645 4.4387-3.01645 7.2827 0 2.8444 1.15258 5.4192 3.01645 7.2831 1.8638 1.8635 4.4385 3.0165 7.2828 3.0165 2.4475 0 4.6953-.8536 6.4625-2.2796-.9438.3575-1.9666.5531-3.0353.5531-2.3671 0-4.5107-.9597-6.0616-2.511-1.5512-1.5513-2.5109-3.6946-2.5109-6.0617 0-2.3672.9597-4.5108 2.5109-6.0621 1.5509-1.5517 3.6945-2.5114 6.0616-2.5114z" fill="#fff" fill-rule="evenodd"/></svg>