<svg width="40" height="40" viewBox="0 0 40 40" fill="none" xmlns="http://www.w3.org/2000/svg">
<rect x="1" y="1" width="38" height="38" rx="19" fill="#1F1B41"/>
<rect x="1" y="1" width="38" height="38" rx="19" stroke="#181E25" stroke-width="2"/>
<path d="M30.8589 12.4233C30.618 11.5075 29.8436 10.5917 28.4497 9.57233C27.3312 8.76023 26.1438 8.2937 25.1974 8.2937C25.0081 8.2937 24.836 8.31099 24.6639 8.34553C24.2337 8.43195 23.8551 8.74293 23.6142 9.20946C23.3216 9.76236 23.2529 10.5054 23.4421 10.9546C23.511 11.0928 23.597 11.2656 23.7003 11.4211C22.7882 11.974 22.272 12.1295 22.2031 12.1468C24.5779 12.9416 26.5568 14.6004 27.7958 16.7602L27.813 16.5529C27.8646 15.9654 28.0367 15.3261 28.2776 14.6522C28.5186 14.7214 28.7595 14.7559 29.0004 14.7559C29.6371 14.7559 30.1877 14.4967 30.5319 14.0302C30.876 13.5637 31.0137 12.9589 30.8589 12.4233Z" fill="#5E12A0"/>
<path d="M28.3746 14.1512C29.9406 14.5832 30.5772 13.3737 30.3707 12.5616C30.1643 11.7495 29.4243 10.9201 28.1508 9.98703C26.8775 9.05397 25.5868 8.67386 24.7609 8.84665C23.9348 9.01944 23.694 10.2808 23.9005 10.7646C23.9865 10.9546 24.1758 11.2311 24.4339 11.5421C24.1069 11.7667 23.7972 11.9395 23.5391 12.095C25.1222 12.8034 26.4989 13.9093 27.5313 15.2916C27.6518 14.825 27.8239 14.4104 27.9788 14.0475C28.0992 14.0821 28.2369 14.1166 28.3746 14.1512Z" fill="url(#paint0_radial_2818_63209)"/>
<path d="M19.4162 31.1015C24.7288 31.1015 29.0356 26.7771 29.0356 21.4427C29.0356 16.1083 24.7288 11.7839 19.4162 11.7839C14.1036 11.7839 9.79688 16.1083 9.79688 21.4427C9.79688 26.7771 14.1036 31.1015 19.4162 31.1015Z" fill="url(#paint1_radial_2818_63209)"/>
<path opacity="0.6" d="M29.5826 11.7841C28.2748 10.4018 27.1735 10.0389 25.8484 9.74517C24.816 9.50326 25.0913 8.91583 26.3475 9.03673C25.7452 8.82941 25.1773 8.77758 24.7643 8.86394C23.9384 9.03673 23.6974 10.2981 23.9039 10.7819C23.9899 10.972 24.1793 11.2484 24.4374 11.5594C23.9728 11.8704 23.577 12.0951 23.25 12.2679C23.4049 12.337 23.5942 12.4234 23.8179 12.5443C24.403 12.8553 25.0397 13.3737 25.0397 13.3737C24.076 12.5443 24.2825 12.1642 25.6075 11.2311C26.0205 10.9374 26.7777 10.972 27.4832 11.3348C28.1888 11.6976 29.0148 12.6135 29.0148 12.6135L28.2232 14.1339C28.2748 14.1512 28.3264 14.1685 28.378 14.1858C28.8771 14.324 29.2729 14.2894 29.5826 14.1685C29.944 13.9439 30.8905 13.1663 29.5826 11.7841Z" fill="#A98698"/>
<path d="M25.8331 10.5744C26.1773 10.7127 26.6247 10.9546 27.1754 11.3174C27.8293 11.7494 28.3971 12.2332 28.7585 12.6133C28.1562 13.4081 27.7604 14.4967 27.5196 15.257C27.64 15.4297 27.7776 15.6025 27.8981 15.7753C28.0186 15.3433 28.2251 14.704 28.5004 14.0648C28.5692 14.082 28.6552 14.082 28.7413 14.082C28.9478 14.082 29.1887 14.0475 29.378 13.892C29.5156 13.7883 29.6705 13.5982 29.6533 13.2527C29.6533 12.9243 29.3952 12.5097 28.8618 12.0086C28.4831 11.6457 27.967 11.2483 27.4507 10.8855C25.9708 9.9006 24.9383 9.62415 24.4737 10.0906C24.1639 10.4017 24.1984 10.7818 24.3016 11.0583C23.7509 11.4211 23.2863 11.6803 22.9766 11.8531C23.1831 11.9222 23.3723 12.0086 23.5789 12.095C24.1295 11.7839 24.9211 11.2829 25.8331 10.5744ZM29.0855 13.028C29.1371 13.1144 29.1543 13.2008 29.1543 13.2527C29.1543 13.4081 29.1026 13.46 29.0682 13.4945C28.9994 13.5463 28.8618 13.5809 28.7413 13.5809C28.8445 13.3909 28.965 13.2008 29.0855 13.028ZM24.835 10.4535C24.8866 10.4017 25.0243 10.3671 25.248 10.4017C25.076 10.5399 24.9039 10.6609 24.7318 10.7818C24.7146 10.6609 24.7318 10.5572 24.835 10.4535Z" fill="#5E12A0"/>
<path d="M19.4138 11.2139C13.7868 11.2139 9.22656 15.7927 9.22656 21.4428C9.22656 27.0929 13.7868 31.6718 19.4138 31.6718C25.041 31.6718 29.6011 27.0929 29.6011 21.4428C29.5839 15.7927 25.0237 11.2139 19.4138 11.2139ZM19.4138 31.0843C14.0965 31.0843 9.79447 26.7647 9.79447 21.4255C9.79447 16.0865 14.0965 11.7668 19.4138 11.7668C24.7312 11.7668 29.0332 16.0865 29.0332 21.4255C29.016 26.7647 24.714 31.0843 19.4138 31.0843Z" fill="#5E12A0"/>
<path opacity="0.6" d="M19.4162 31.1015C24.7288 31.1015 29.0356 26.7771 29.0356 21.4427C29.0356 16.1083 24.7288 11.7839 19.4162 11.7839C14.1036 11.7839 9.79688 16.1083 9.79688 21.4427C9.79688 26.7771 14.1036 31.1015 19.4162 31.1015Z" fill="url(#paint2_linear_2818_63209)"/>
<path opacity="0.6" d="M19.3428 29.9092C14.0942 29.0626 10.5321 24.1036 11.3925 18.8336C11.7711 16.501 12.9413 14.514 14.5933 13.0798C12.1841 14.4794 10.3945 16.9157 9.91262 19.8876C9.06943 25.1576 12.6315 30.1166 17.8628 30.9632C20.7882 31.447 23.6104 30.5313 25.6925 28.7343C23.8513 29.8228 21.6142 30.2894 19.3428 29.9092Z" fill="#A98698"/>
<path opacity="0.6" d="M20.9479 11.9049C18.5215 11.5075 16.164 12.0604 14.2367 13.2872C14.2023 13.3217 14.1679 13.3563 14.1679 13.3563C14.9078 12.9071 15.9919 12.5097 15.9919 12.5097C13.2042 14.1338 12.3438 15.9827 12.3438 15.9827C13.4279 13.8746 16.6115 12.3887 19.1066 12.285C21.6018 12.1813 23.2366 12.9243 25.2327 14.5313C27.2289 16.1554 28.4335 19.4729 28.313 22.0992C28.2098 24.7256 26.8331 26.8509 26.8331 26.8509C27.7795 25.6241 28.3474 24.7256 28.7088 23.8099C28.7776 23.5334 28.8464 23.2569 28.8809 22.9632C29.7412 17.7105 26.1963 12.7688 20.9479 11.9049Z" fill="url(#paint3_linear_2818_63209)"/>
<path d="M28.5501 21.3391C28.5501 26.4018 24.4546 30.5141 19.4126 30.5141C14.3706 30.5141 10.2578 26.4018 10.2578 21.3391H28.5501Z" fill="url(#paint4_linear_2818_63209)"/>
<g opacity="0.6">
<path opacity="0.6" d="M27.8309 21.3391C27.8309 26.2808 23.9418 30.324 19.0547 30.5141C19.1751 30.5141 19.2956 30.5141 19.4161 30.5141C24.4581 30.5141 28.5537 26.4018 28.5537 21.3391H27.8309Z" fill="url(#paint5_linear_2818_63209)"/>
</g>
<g opacity="0.7">
<path d="M11.5485 21.3391H10.2578C10.2578 26.4018 14.3534 30.5141 19.3954 30.5141C19.6191 30.5141 19.8255 30.5141 20.0321 30.4968C15.2998 30.1685 11.5485 26.1944 11.5485 21.3391Z" fill="url(#paint6_linear_2818_63209)"/>
</g>
<path d="M28.5329 21.4427C28.5329 20.3887 26.7088 19.784 24.2825 19.5766C22.5272 19.4384 20.7548 19.6112 18.7242 20.2332C16.969 20.7516 15.3859 20.6652 14.2329 20.527C11.6689 20.2332 10.2578 20.1986 10.2578 21.4427C10.2578 23.2397 13.9059 25.4859 19.3781 24.7084C22.1487 24.311 23.5769 23.4989 25.2117 22.946C26.9842 22.3412 28.5329 22.3758 28.5329 21.4427Z" fill="url(#paint7_linear_2818_63209)"/>
<path d="M22.4081 17.0713C23.2635 17.0713 23.9568 16.3751 23.9568 15.5163C23.9568 14.6574 23.2635 13.9612 22.4081 13.9612C21.5527 13.9612 20.8594 14.6574 20.8594 15.5163C20.8594 16.3751 21.5527 17.0713 22.4081 17.0713Z" fill="white"/>
<path d="M24.9352 18.2289C25.2963 18.2289 25.5891 17.935 25.5891 17.5724C25.5891 17.2097 25.2963 16.9158 24.9352 16.9158C24.574 16.9158 24.2812 17.2097 24.2812 17.5724C24.2812 17.935 24.574 18.2289 24.9352 18.2289Z" fill="white"/>
<g opacity="0.6">
<path d="M27.2779 14.2893C27.2607 14.2893 27.2435 14.2893 27.2435 14.2893C27.1402 14.272 27.0714 14.1683 27.0886 14.0474C27.2435 13.2526 27.8974 12.4923 27.9318 12.4578C28.0006 12.3714 28.1383 12.3714 28.2072 12.4405C28.2932 12.5096 28.2932 12.6479 28.2243 12.7169C28.2072 12.7342 27.6048 13.4427 27.4672 14.1338C27.45 14.2202 27.3639 14.2893 27.2779 14.2893Z" fill="url(#paint8_linear_2818_63209)"/>
</g>
<path d="M25.1945 8.31103C26.1582 8.31103 27.3456 8.77756 28.4469 9.58961C29.8408 10.6091 30.6152 11.5075 30.856 12.4406C30.9937 12.9763 30.8733 13.581 30.5291 14.0302C30.1677 14.4967 29.6342 14.7559 28.9976 14.7559C28.7739 14.7559 28.5329 14.7214 28.2749 14.6523C28.1199 15.0497 27.9995 15.4471 27.9135 15.8272C28.9631 17.4341 29.5826 19.3693 29.5826 21.4428C29.5826 27.0929 25.0225 31.6717 19.3954 31.6717C13.7683 31.6717 9.22535 27.0929 9.22535 21.4428C9.22535 15.7927 13.7855 11.2138 19.4126 11.2138C20.6516 11.2138 21.839 11.4384 22.9403 11.8531C23.1468 11.7495 23.4049 11.6112 23.6974 11.4384C23.5942 11.2829 23.491 11.1274 23.4393 10.9719C23.25 10.5054 23.3189 9.77969 23.6114 9.2268C23.8523 8.77756 24.2137 8.46653 24.6611 8.36287C24.816 8.32828 25.0053 8.31103 25.1945 8.31103ZM25.1945 8C24.9881 8 24.7816 8.01729 24.5923 8.06912C24.076 8.19008 23.6286 8.53565 23.3361 9.08855C23.0091 9.72786 22.9231 10.5573 23.1468 11.0929C23.1812 11.162 23.2156 11.2484 23.2673 11.3348C23.1468 11.4039 23.0263 11.473 22.9059 11.5248C21.7701 11.1274 20.6 10.9201 19.3954 10.9201C17.9843 10.9201 16.6077 11.1966 15.3171 11.7495C14.0609 12.2851 12.9423 13.0453 11.9787 14.013C11.015 14.9806 10.2579 16.1037 9.72438 17.365C9.17372 18.6609 8.89844 20.0432 8.89844 21.4601C8.89844 22.8769 9.17372 24.2592 9.72438 25.5551C10.2579 26.8164 11.015 27.9395 11.9787 28.9071C12.9423 29.8747 14.0609 30.635 15.3171 31.1706C16.6077 31.7236 17.9843 32 19.3954 32C20.8065 32 22.1831 31.7236 23.4737 31.1706C24.73 30.635 25.8485 29.8747 26.8121 28.9071C27.7758 27.9395 28.5329 26.8164 29.0664 25.5551C29.6171 24.2592 29.8924 22.8769 29.8924 21.4601C29.8924 19.4385 29.3245 17.486 28.2404 15.7927C28.292 15.5335 28.3781 15.2743 28.4641 15.0151C28.6362 15.0497 28.8255 15.0669 28.9976 15.0669C29.7203 15.0669 30.357 14.7732 30.77 14.2203C31.1658 13.7019 31.3207 12.9763 31.1486 12.3715C30.8732 11.3694 30.0817 10.419 28.619 9.36499C27.4661 8.48382 26.2098 8 25.1945 8Z" fill="white"/>
<path opacity="0.2" d="M18.7788 28.6307C19.0448 28.6307 19.2606 28.4141 19.2606 28.1469C19.2606 27.8797 19.0448 27.6631 18.7788 27.6631C18.5126 27.6631 18.2969 27.8797 18.2969 28.1469C18.2969 28.4141 18.5126 28.6307 18.7788 28.6307Z" fill="white"/>
<g opacity="0.4">
<path opacity="0.6" d="M18.4999 28.4751C18.3106 28.285 18.3106 27.974 18.4999 27.7839C18.5343 27.7494 18.5687 27.7321 18.6031 27.6975C18.5343 27.7148 18.4827 27.7493 18.4311 27.8012C18.2417 27.9913 18.2417 28.3023 18.4311 28.4924C18.5859 28.6479 18.8268 28.6824 19.0162 28.5787C18.8441 28.6479 18.6375 28.6133 18.4999 28.4751Z" fill="url(#paint9_linear_2818_63209)"/>
</g>
<path opacity="0.3" d="M18.947 28.0086C19.004 28.0086 19.0502 27.9622 19.0502 27.905C19.0502 27.8477 19.004 27.8013 18.947 27.8013C18.89 27.8013 18.8438 27.8477 18.8438 27.905C18.8438 27.9622 18.89 28.0086 18.947 28.0086Z" fill="white"/>
<path opacity="0.2" d="M21.2865 28.3887C21.5526 28.3887 21.7683 28.1721 21.7683 27.905C21.7683 27.6377 21.5526 27.4211 21.2865 27.4211C21.0204 27.4211 20.8047 27.6377 20.8047 27.905C20.8047 28.1721 21.0204 28.3887 21.2865 28.3887Z" fill="white"/>
<g opacity="0.4">
<path opacity="0.6" d="M21.0155 28.216C20.8261 28.026 20.8261 27.7149 21.0155 27.5249C21.0498 27.4903 21.0843 27.473 21.1187 27.4385C21.0498 27.4558 20.9983 27.4903 20.9466 27.5421C20.7574 27.7322 20.7574 28.0433 20.9466 28.2333C21.1015 28.3888 21.3424 28.4234 21.5317 28.3197C21.3596 28.4061 21.1532 28.3715 21.0155 28.216Z" fill="url(#paint10_linear_2818_63209)"/>
</g>
<path opacity="0.3" d="M21.4626 27.7666C21.5196 27.7666 21.5658 27.7202 21.5658 27.663C21.5658 27.6057 21.5196 27.5593 21.4626 27.5593C21.4056 27.5593 21.3594 27.6057 21.3594 27.663C21.3594 27.7202 21.4056 27.7666 21.4626 27.7666Z" fill="white"/>
<path opacity="0.2" d="M20.0489 29.5119C20.2485 29.5119 20.4102 29.3494 20.4102 29.149C20.4102 28.9486 20.2485 28.7861 20.0489 28.7861C19.8493 28.7861 19.6875 28.9486 19.6875 29.149C19.6875 29.3494 19.8493 29.5119 20.0489 29.5119Z" fill="white"/>
<g opacity="0.4">
<path opacity="0.6" d="M19.8423 29.391C19.7047 29.2527 19.7047 29.0109 19.8423 28.8726C19.8595 28.8553 19.8939 28.8381 19.9112 28.8208C19.8596 28.8381 19.8252 28.8726 19.7907 28.9072C19.6531 29.0454 19.6531 29.2873 19.7907 29.4255C19.9112 29.5465 20.0833 29.5638 20.2381 29.4774C20.1005 29.5119 19.9456 29.4946 19.8423 29.391Z" fill="url(#paint11_linear_2818_63209)"/>
</g>
<path opacity="0.3" d="M20.1704 29.0281C20.2084 29.0281 20.2392 28.9972 20.2392 28.959C20.2392 28.9208 20.2084 28.8899 20.1704 28.8899C20.1323 28.8899 20.1016 28.9208 20.1016 28.959C20.1016 28.9972 20.1323 29.0281 20.1704 29.0281Z" fill="white"/>
<path opacity="0.2" d="M22.2676 29.2528C22.4672 29.2528 22.6289 29.0903 22.6289 28.89C22.6289 28.6895 22.4672 28.5271 22.2676 28.5271C22.068 28.5271 21.9062 28.6895 21.9062 28.89C21.9062 29.0903 22.068 29.2528 22.2676 29.2528Z" fill="white"/>
<g opacity="0.4">
<path opacity="0.6" d="M22.0611 29.1317C21.9235 28.9935 21.9235 28.7516 22.0611 28.6134C22.0784 28.5961 22.1127 28.5788 22.1299 28.5615C22.0784 28.5788 22.0439 28.6134 22.0095 28.6479C21.8718 28.7861 21.8718 29.028 22.0095 29.1662C22.1299 29.2872 22.3021 29.3045 22.4569 29.2181C22.3192 29.2527 22.1644 29.2354 22.0611 29.1317Z" fill="url(#paint12_linear_2818_63209)"/>
</g>
<path opacity="0.3" d="M22.3892 28.7688C22.4272 28.7688 22.458 28.7379 22.458 28.6997C22.458 28.6616 22.4272 28.6306 22.3892 28.6306C22.3511 28.6306 22.3203 28.6616 22.3203 28.6997C22.3203 28.7379 22.3511 28.7688 22.3892 28.7688Z" fill="white"/>
<path opacity="0.2" d="M16.7291 28.4578C17.1663 28.4578 17.5207 28.102 17.5207 27.663C17.5207 27.224 17.1663 26.8682 16.7291 26.8682C16.2919 26.8682 15.9375 27.224 15.9375 27.663C15.9375 28.102 16.2919 28.4578 16.7291 28.4578Z" fill="white"/>
<g opacity="0.4">
<path opacity="0.6" d="M16.2809 28.1816C15.9711 27.8706 15.9711 27.3695 16.2809 27.0585C16.3325 27.0066 16.3841 26.9721 16.453 26.9375C16.3497 26.9721 16.2637 27.0412 16.1776 27.1103C15.8679 27.4213 15.8679 27.9224 16.1776 28.2334C16.4357 28.4926 16.8315 28.5444 17.1413 28.3544C16.8487 28.4753 16.5046 28.4062 16.2809 28.1816Z" fill="url(#paint13_linear_2818_63209)"/>
</g>
<path opacity="0.3" d="M17.0003 27.4386C17.0953 27.4386 17.1723 27.3612 17.1723 27.2658C17.1723 27.1704 17.0953 27.093 17.0003 27.093C16.9052 27.093 16.8281 27.1704 16.8281 27.2658C16.8281 27.3612 16.9052 27.4386 17.0003 27.4386Z" fill="white"/>
<path opacity="0.2" d="M23.7994 26.5054C24.2365 26.5054 24.591 26.1496 24.591 25.7106C24.591 25.2716 24.2365 24.9158 23.7994 24.9158C23.3622 24.9158 23.0078 25.2716 23.0078 25.7106C23.0078 26.1496 23.3622 26.5054 23.7994 26.5054Z" fill="white"/>
<g opacity="0.4">
<path opacity="0.6" d="M23.3355 26.229C23.0258 25.9179 23.0258 25.4169 23.3355 25.1058C23.3872 25.054 23.4388 25.0195 23.5076 24.9849C23.4044 25.0195 23.3184 25.0885 23.2323 25.1576C22.9226 25.4687 22.9226 25.9697 23.2323 26.2808C23.4904 26.5399 23.8862 26.5918 24.1959 26.4017C23.9034 26.5227 23.5764 26.4536 23.3355 26.229Z" fill="url(#paint14_linear_2818_63209)"/>
</g>
<path opacity="0.3" d="M24.0784 25.4859C24.1734 25.4859 24.2505 25.4086 24.2505 25.3132C24.2505 25.2177 24.1734 25.1404 24.0784 25.1404C23.9833 25.1404 23.9062 25.2177 23.9062 25.3132C23.9062 25.4086 23.9833 25.4859 24.0784 25.4859Z" fill="white"/>
<defs>
<radialGradient id="paint0_radial_2818_63209" cx="0" cy="0" r="1" gradientUnits="userSpaceOnUse" gradientTransform="translate(30.0568 11.4822) scale(7.69108 7.72257)">
<stop stop-color="#FFEAFF" stop-opacity="0.6"/>
<stop offset="0.6807" stop-color="#A087C9"/>
<stop offset="1" stop-color="#10002F"/>
</radialGradient>
<radialGradient id="paint1_radial_2818_63209" cx="0" cy="0" r="1" gradientUnits="userSpaceOnUse" gradientTransform="translate(25.785 14.7757) scale(18.8173 18.8944)">
<stop stop-color="#FFEAFF" stop-opacity="0.6"/>
<stop offset="0.6807" stop-color="#A087C9"/>
<stop offset="1" stop-color="#10002F"/>
</radialGradient>
<linearGradient id="paint2_linear_2818_63209" x1="17.8752" y1="30.9553" x2="20.9765" y2="11.8999" gradientUnits="userSpaceOnUse">
<stop stop-color="#81FFFF"/>
<stop offset="0.6202" stop-color="white" stop-opacity="0"/>
</linearGradient>
<linearGradient id="paint3_linear_2818_63209" x1="26.1955" y1="14.875" x2="18.2115" y2="22.1708" gradientUnits="userSpaceOnUse">
<stop offset="0.2888" stop-color="white"/>
<stop offset="0.7796" stop-color="white" stop-opacity="0"/>
</linearGradient>
<linearGradient id="paint4_linear_2818_63209" x1="10.2656" y1="25.9304" x2="28.5457" y2="25.9304" gradientUnits="userSpaceOnUse">
<stop stop-color="#0002E9"/>
<stop offset="0.9952" stop-color="#FF00C7"/>
</linearGradient>
<linearGradient id="paint5_linear_2818_63209" x1="29.4145" y1="22.1534" x2="19.4264" y2="31.5543" gradientUnits="userSpaceOnUse">
<stop offset="0.2888" stop-color="white"/>
<stop offset="0.7796" stop-color="white" stop-opacity="0"/>
</linearGradient>
<linearGradient id="paint6_linear_2818_63209" x1="10.2656" y1="25.9304" x2="20.0453" y2="25.9304" gradientUnits="userSpaceOnUse">
<stop stop-color="#000292"/>
<stop offset="0.9952" stop-color="#7D00C7"/>
</linearGradient>
<linearGradient id="paint7_linear_2818_63209" x1="10.2778" y1="22.1969" x2="28.5334" y2="22.1969" gradientUnits="userSpaceOnUse">
<stop stop-color="#000292"/>
<stop offset="0.9952" stop-color="#BE00C7"/>
</linearGradient>
<linearGradient id="paint8_linear_2818_63209" x1="28.235" y1="12.3656" x2="26.9152" y2="14.5016" gradientUnits="userSpaceOnUse">
<stop offset="0.2888" stop-color="white"/>
<stop offset="0.7796" stop-color="white" stop-opacity="0"/>
</linearGradient>
<linearGradient id="paint9_linear_2818_63209" x1="18.2886" y1="28.1708" x2="19.0167" y2="28.1708" gradientUnits="userSpaceOnUse">
<stop offset="0.2888" stop-color="white"/>
<stop offset="0.7796" stop-color="white" stop-opacity="0"/>
</linearGradient>
<linearGradient id="paint10_linear_2818_63209" x1="20.8024" y1="27.9257" x2="21.5305" y2="27.9257" gradientUnits="userSpaceOnUse">
<stop offset="0.2888" stop-color="white"/>
<stop offset="0.7796" stop-color="white" stop-opacity="0"/>
</linearGradient>
<linearGradient id="paint11_linear_2818_63209" x1="19.6852" y1="29.1624" x2="20.2318" y2="29.1624" gradientUnits="userSpaceOnUse">
<stop offset="0.2888" stop-color="white"/>
<stop offset="0.7796" stop-color="white" stop-opacity="0"/>
</linearGradient>
<linearGradient id="paint12_linear_2818_63209" x1="21.8965" y1="28.9025" x2="22.4431" y2="28.9025" gradientUnits="userSpaceOnUse">
<stop offset="0.2888" stop-color="white"/>
<stop offset="0.7796" stop-color="white" stop-opacity="0"/>
</linearGradient>
<linearGradient id="paint13_linear_2818_63209" x1="15.9374" y1="27.6927" x2="17.1264" y2="27.6927" gradientUnits="userSpaceOnUse">
<stop offset="0.2888" stop-color="white"/>
<stop offset="0.7796" stop-color="white" stop-opacity="0"/>
</linearGradient>
<linearGradient id="paint14_linear_2818_63209" x1="22.9987" y1="25.7395" x2="24.1877" y2="25.7395" gradientUnits="userSpaceOnUse">
<stop offset="0.2888" stop-color="white"/>
<stop offset="0.7796" stop-color="white" stop-opacity="0"/>
</linearGradient>
</defs>
</svg>
