<svg fill="none" height="40" viewBox="0 0 40 40" width="40" xmlns="http://www.w3.org/2000/svg" xmlns:xlink="http://www.w3.org/1999/xlink"><linearGradient id="a"><stop offset="0" stop-color="#ffeaff" stop-opacity=".6"/><stop offset=".6807" stop-color="#a087c9"/><stop offset="1" stop-color="#10002f"/></linearGradient><radialGradient id="b" cx="0" cy="0" gradientTransform="matrix(7.69108 0 0 7.72257 30.0568 11.4822)" gradientUnits="userSpaceOnUse" r="1" xlink:href="#a"/><radialGradient id="c" cx="0" cy="0" gradientTransform="matrix(18.8173 0 0 18.8944 25.785 14.7757)" gradientUnits="userSpaceOnUse" r="1" xlink:href="#a"/><linearGradient id="d" gradientUnits="userSpaceOnUse" x1="17.8752" x2="20.9765" y1="30.9553" y2="11.8999"><stop offset="0" stop-color="#81ffff"/><stop offset=".6202" stop-color="#fff" stop-opacity="0"/></linearGradient><linearGradient id="e"><stop offset=".2888" stop-color="#fff"/><stop offset=".7796" stop-color="#fff" stop-opacity="0"/></linearGradient><linearGradient id="f" gradientUnits="userSpaceOnUse" x1="26.1955" x2="18.2115" xlink:href="#e" y1="14.875" y2="22.1708"/><linearGradient id="g" gradientUnits="userSpaceOnUse" x1="10.2656" x2="28.5457" y1="25.9304" y2="25.9304"><stop offset="0" stop-color="#0002e9"/><stop offset=".9952" stop-color="#ff00c7"/></linearGradient><linearGradient id="h" gradientUnits="userSpaceOnUse" x1="29.4145" x2="19.4264" xlink:href="#e" y1="22.1534" y2="31.5543"/><linearGradient id="i" gradientUnits="userSpaceOnUse" x1="10.2656" x2="20.0453" y1="25.9304" y2="25.9304"><stop offset="0" stop-color="#000292"/><stop offset=".9952" stop-color="#7d00c7"/></linearGradient><linearGradient id="j" gradientUnits="userSpaceOnUse" x1="10.2778" x2="28.5334" y1="22.1969" y2="22.1969"><stop offset="0" stop-color="#000292"/><stop offset=".9952" stop-color="#be00c7"/></linearGradient><linearGradient id="k" gradientUnits="userSpaceOnUse" x1="28.235" x2="26.9152" xlink:href="#e" y1="12.3656" y2="14.5016"/><linearGradient id="l" gradientUnits="userSpaceOnUse" x1="18.2886" x2="19.0167" xlink:href="#e" y1="28.1708" y2="28.1708"/><linearGradient id="m" gradientUnits="userSpaceOnUse" x1="20.8024" x2="21.5305" xlink:href="#e" y1="27.9257" y2="27.9257"/><linearGradient id="n" gradientUnits="userSpaceOnUse" x1="19.6852" x2="20.2318" xlink:href="#e" y1="29.1624" y2="29.1624"/><linearGradient id="o" gradientUnits="userSpaceOnUse" x1="21.8965" x2="22.4431" xlink:href="#e" y1="28.9025" y2="28.9025"/><linearGradient id="p" gradientUnits="userSpaceOnUse" x1="15.9374" x2="17.1264" xlink:href="#e" y1="27.6927" y2="27.6927"/><linearGradient id="q" gradientUnits="userSpaceOnUse" x1="22.9987" x2="24.1877" xlink:href="#e" y1="25.7395" y2="25.7395"/><rect fill="#1f1b41" height="38" rx="19" width="38" x="1" y="1"/><rect height="38" rx="19" stroke="#181e25" stroke-width="2" width="38" x="1" y="1"/><path d="m30.8589 12.4233c-.2409-.9158-1.0153-1.8316-2.4092-2.85097-1.1185-.8121-2.3059-1.27863-3.2523-1.27863-.1893 0-.3614.01729-.5335.05183-.4302.08642-.8088.3974-1.0497.86393-.2926.5529-.3613 1.29594-.1721 1.74514.0689.1382.1549.311.2582.4665-.9121.5529-1.4283.7084-1.4972.7257 2.3748.7948 4.3537 2.4536 5.5927 4.6134l.0172-.2073c.0516-.5875.2237-1.2268.4646-1.9007.241.0692.4819.1037.7228.1037.6367 0 1.1873-.2592 1.5315-.7257.3441-.4665.4818-1.0713.327-1.6069z" fill="#5e12a0"/><path d="m28.3746 14.1512c1.566.432 2.2026-.7775 1.9961-1.5896-.2064-.8121-.9464-1.6415-2.2199-2.57457-1.2733-.93306-2.564-1.31317-3.3899-1.14038-.8261.17279-1.0669 1.43415-.8604 1.91795.086.19.2753.4665.5334.7775-.327.2246-.6367.3974-.8948.5529 1.5831.7084 2.9598 1.8143 3.9922 3.1966.1205-.4666.2926-.8812.4475-1.2441.1204.0346.2581.0691.3958.1037z" fill="url(#b)"/><path d="m19.4162 31.1015c5.3126 0 9.6194-4.3244 9.6194-9.6588s-4.3068-9.6588-9.6194-9.6588-9.61932 4.3244-9.61932 9.6588 4.30672 9.6588 9.61932 9.6588z" fill="url(#c)"/><path d="m29.5826 11.7841c-1.3078-1.3823-2.4091-1.7452-3.7342-2.03893-1.0324-.24191-.7571-.82934.4991-.70844-.6023-.20732-1.1702-.25915-1.5832-.17279-.8259.17279-1.0669 1.43416-.8604 1.91796.086.1901.2754.4665.5335.7775-.4646.311-.8604.5357-1.1874.7085.1549.0691.3442.1555.5679.2764.5851.311 1.2218.8294 1.2218.8294-.9637-.8294-.7572-1.2095.5678-2.1426.413-.2937 1.1702-.2591 1.8757.1037.7056.3628 1.5316 1.2787 1.5316 1.2787l-.7916 1.5204c.0516.0173.1032.0346.1548.0519.4991.1382.8949.1036 1.2046-.0173.3614-.2246 1.3079-1.0022 0-2.3844z" fill="#a98698" opacity=".6"/><path d="m25.8331 10.5744c.3442.1383.7916.3802 1.3423.743.6539.432 1.2217.9158 1.5831 1.2959-.6023.7948-.9981 1.8834-1.2389 2.6437.1204.1727.258.3455.3785.5183.1205-.432.327-1.0713.6023-1.7105.0688.0172.1548.0172.2409.0172.2065 0 .4474-.0345.6367-.19.1376-.1037.2925-.2938.2753-.6393 0-.3284-.2581-.743-.7915-1.2441-.3787-.3629-.8948-.7603-1.4111-1.1231-1.4799-.9849-2.5124-1.26135-2.977-.7949-.3098.3111-.2753.6912-.1721.9677-.5507.3628-1.0153.622-1.325.7948.2065.0691.3957.1555.6023.2419.5506-.3111 1.3422-.8121 2.2542-1.5206zm3.2524 2.4536c.0516.0864.0688.1728.0688.2247 0 .1554-.0517.2073-.0861.2418-.0688.0518-.2064.0864-.3269.0864.1032-.19.2237-.3801.3442-.5529zm-4.2505-2.5745c.0516-.0518.1893-.0864.413-.0518-.172.1382-.3441.2592-.5162.3801-.0172-.1209 0-.2246.1032-.3283z" fill="#5e12a0"/><path d="m19.4138 11.2139c-5.627 0-10.18724 4.5788-10.18724 10.2289s4.56024 10.229 10.18724 10.229c5.6272 0 10.1873-4.5789 10.1873-10.229-.0172-5.6501-4.5774-10.2289-10.1873-10.2289zm0 19.8704c-5.3173 0-9.61933-4.3196-9.61933-9.6588 0-5.339 4.30203-9.6587 9.61933-9.6587 5.3174 0 9.6194 4.3197 9.6194 9.6587-.0172 5.3392-4.3192 9.6588-9.6194 9.6588z" fill="#5e12a0"/><path d="m19.4162 31.1015c5.3126 0 9.6194-4.3244 9.6194-9.6588s-4.3068-9.6588-9.6194-9.6588-9.61932 4.3244-9.61932 9.6588 4.30672 9.6588 9.61932 9.6588z" fill="url(#d)" opacity=".6"/><path d="m19.3428 29.9092c-5.2486-.8466-8.8107-5.8056-7.9503-11.0756.3786-2.3326 1.5488-4.3196 3.2008-5.7538-2.4092 1.3996-4.1988 3.8359-4.68068 6.8078-.84319 5.27 2.71888 10.229 7.95018 11.0756 2.9254.4838 5.7476-.4319 7.8297-2.2289-1.8412 1.0885-4.0783 1.5551-6.3497 1.1749z" fill="#a98698" opacity=".6"/><path d="m20.9479 11.9049c-2.4264-.3974-4.7839.1555-6.7112 1.3823-.0344.0345-.0688.0691-.0688.0691.7399-.4492 1.824-.8466 1.824-.8466-2.7877 1.6241-3.6481 3.473-3.6481 3.473 1.0841-2.1081 4.2677-3.594 6.7628-3.6977 2.4952-.1037 4.13.6393 6.1261 2.2463 1.9962 1.6241 3.2008 4.9416 3.0803 7.5679-.1032 2.6264-1.4799 4.7517-1.4799 4.7517.9464-1.2268 1.5143-2.1253 1.8757-3.041.0688-.2765.1376-.553.1721-.8467.8603-5.2527-2.6846-10.1944-7.933-11.0583z" fill="url(#f)" opacity=".6"/><path d="m28.5501 21.3391c0 5.0627-4.0955 9.175-9.1375 9.175s-9.1548-4.1123-9.1548-9.175z" fill="url(#g)"/><path d="m27.8309 21.3391c0 4.9417-3.8891 8.9849-8.7762 9.175h.3614c5.042 0 9.1376-4.1123 9.1376-9.175z" fill="url(#h)" opacity=".36"/><path d="m11.5485 21.3391h-1.2907c0 5.0627 4.0956 9.175 9.1376 9.175.2237 0 .4301 0 .6367-.0173-4.7323-.3283-8.4836-4.3024-8.4836-9.1577z" fill="url(#i)" opacity=".7"/><path d="m28.5329 21.4427c0-1.054-1.8241-1.6587-4.2504-1.8661-1.7553-.1382-3.5277.0346-5.5583.6566-1.7552.5184-3.3383.432-4.4913.2938-2.564-.2938-3.9751-.3284-3.9751.9157 0 1.797 3.6481 4.0432 9.1203 3.2657 2.7706-.3974 4.1988-1.2095 5.8336-1.7624 1.7725-.6048 3.3212-.5702 3.3212-1.5033z" fill="url(#j)"/><path d="m22.4081 17.0713c.8554 0 1.5487-.6962 1.5487-1.555 0-.8589-.6933-1.5551-1.5487-1.5551s-1.5487.6962-1.5487 1.5551c0 .8588.6933 1.555 1.5487 1.555z" fill="#fff"/><path d="m24.9352 18.2289c.3611 0 .6539-.2939.6539-.6565 0-.3627-.2928-.6566-.6539-.6566-.3612 0-.654.2939-.654.6566 0 .3626.2928.6565.654.6565z" fill="#fff"/><path d="m27.2779 14.2893c-.0172 0-.0344 0-.0344 0-.1033-.0173-.1721-.121-.1549-.2419.1549-.7948.8088-1.5551.8432-1.5896.0688-.0864.2065-.0864.2754-.0173.086.0691.086.2074.0171.2764-.0171.0173-.6195.7258-.7571 1.4169-.0172.0864-.1033.1555-.1893.1555z" fill="url(#k)" opacity=".6"/><path d="m25.1945 8.31103c.9637 0 2.1511.46653 3.2524 1.27858 1.3939 1.01949 2.1683 1.91789 2.4091 2.85099.1377.5357.0173 1.1404-.3269 1.5896-.3614.4665-.8949.7257-1.5315.7257-.2237 0-.4647-.0345-.7227-.1036-.155.3974-.2754.7948-.3614 1.1749 1.0496 1.6069 1.6691 3.5421 1.6691 5.6156 0 5.6501-4.5601 10.2289-10.1872 10.2289s-10.17005-4.5788-10.17005-10.2289 4.56015-10.229 10.18725-10.229c1.239 0 2.4264.2246 3.5277.6393.2065-.1036.4646-.2419.7571-.4147-.1032-.1555-.2064-.311-.2581-.4665-.1893-.4665-.1204-1.19221.1721-1.7451.2409-.44924.6023-.76027 1.0497-.86393.1549-.03459.3442-.05184.5334-.05184zm0-.31103c-.2064 0-.4129.01729-.6022.06912-.5163.12096-.9637.46653-1.2562 1.01943-.327.63931-.413 1.46875-.1893 2.00435.0344.0691.0688.1555.1205.2419-.1205.0691-.241.1382-.3614.19-1.1358-.3974-2.3059-.6047-3.5105-.6047-1.4111 0-2.7877.2765-4.0783.8294-1.2562.5356-2.3748 1.2958-3.3384 2.2635-.9637.9676-1.7208 2.0907-2.25432 3.352-.55066 1.2959-.82594 2.6782-.82594 4.0951 0 1.4168.27528 2.7991.82594 4.095.53352 1.2613 1.29062 2.3844 2.25432 3.352.9636.9676 2.0822 1.7279 3.3384 2.2635 1.2906.553 2.6672.8294 4.0783.8294s2.7877-.2764 4.0783-.8294c1.2563-.5356 2.3748-1.2959 3.3384-2.2635.9637-.9676 1.7208-2.0907 2.2543-3.352.5507-1.2959.826-2.6782.826-4.095 0-2.0216-.5679-3.9741-1.652-5.6674.0516-.2592.1377-.5184.2237-.7776.1721.0346.3614.0518.5335.0518.7227 0 1.3594-.2937 1.7724-.8466.3958-.5184.5507-1.244.3786-1.8488-.2754-1.0021-1.0669-1.9525-2.5296-3.00651-1.1529-.88117-2.4092-1.36499-3.4245-1.36499z" fill="#fff"/><path d="m18.7788 28.6307c.266 0 .4818-.2166.4818-.4838s-.2158-.4838-.4818-.4838c-.2662 0-.4819.2166-.4819.4838s.2157.4838.4819.4838z" fill="#fff" opacity=".2"/><path d="m18.4999 28.4751c-.1893-.1901-.1893-.5011 0-.6912.0344-.0345.0688-.0518.1032-.0864-.0688.0173-.1204.0518-.172.1037-.1894.1901-.1894.5011 0 .6912.1548.1555.3957.19.5851.0863-.1721.0692-.3787.0346-.5163-.1036z" fill="url(#l)" opacity=".24"/><path d="m18.947 28.0086c.057 0 .1032-.0464.1032-.1036 0-.0573-.0462-.1037-.1032-.1037s-.1032.0464-.1032.1037c0 .0572.0462.1036.1032.1036z" fill="#fff" opacity=".3"/><path d="m21.2865 28.3887c.2661 0 .4818-.2166.4818-.4837 0-.2673-.2157-.4839-.4818-.4839s-.4818.2166-.4818.4839c0 .2671.2157.4837.4818.4837z" fill="#fff" opacity=".2"/><path d="m21.0155 28.216c-.1894-.19-.1894-.5011 0-.6911.0343-.0346.0688-.0519.1032-.0864-.0689.0173-.1204.0518-.1721.1036-.1892.1901-.1892.5012 0 .6912.1549.1555.3958.1901.5851.0864-.1721.0864-.3785.0518-.5162-.1037z" fill="url(#m)" opacity=".24"/><path d="m21.4626 27.7666c.057 0 .1032-.0464.1032-.1036 0-.0573-.0462-.1037-.1032-.1037s-.1032.0464-.1032.1037c0 .0572.0462.1036.1032.1036z" fill="#fff" opacity=".3"/><path d="m20.0489 29.5119c.1996 0 .3613-.1625.3613-.3629s-.1617-.3629-.3613-.3629-.3614.1625-.3614.3629.1618.3629.3614.3629z" fill="#fff" opacity=".2"/><path d="m19.8423 29.391c-.1376-.1383-.1376-.3801 0-.5184.0172-.0173.0516-.0345.0689-.0518-.0516.0173-.086.0518-.1205.0864-.1376.1382-.1376.3801 0 .5183.1205.121.2926.1383.4474.0519-.1376.0345-.2925.0172-.3958-.0864z" fill="url(#n)" opacity=".24"/><path d="m20.1704 29.0281c.038 0 .0688-.0309.0688-.0691s-.0308-.0691-.0688-.0691c-.0381 0-.0688.0309-.0688.0691s.0307.0691.0688.0691z" fill="#fff" opacity=".3"/><path d="m22.2676 29.2528c.1996 0 .3613-.1625.3613-.3628 0-.2005-.1617-.3629-.3613-.3629s-.3614.1624-.3614.3629c0 .2003.1618.3628.3614.3628z" fill="#fff" opacity=".2"/><path d="m22.0611 29.1317c-.1376-.1382-.1376-.3801 0-.5183.0173-.0173.0516-.0346.0688-.0519-.0515.0173-.086.0519-.1204.0864-.1377.1382-.1377.3801 0 .5183.1204.121.2926.1383.4474.0519-.1377.0346-.2925.0173-.3958-.0864z" fill="url(#o)" opacity=".24"/><path d="m22.3892 28.7688c.038 0 .0688-.0309.0688-.0691 0-.0381-.0308-.0691-.0688-.0691-.0381 0-.0689.031-.0689.0691 0 .0382.0308.0691.0689.0691z" fill="#fff" opacity=".3"/><path d="m16.7291 28.4578c.4372 0 .7916-.3558.7916-.7948s-.3544-.7948-.7916-.7948-.7916.3558-.7916.7948.3544.7948.7916.7948z" fill="#fff" opacity=".2"/><path d="m16.2809 28.1816c-.3098-.311-.3098-.8121 0-1.1231.0516-.0519.1032-.0864.1721-.121-.1033.0346-.1893.1037-.2754.1728-.3097.311-.3097.8121 0 1.1231.2581.2592.6539.311.9637.121-.2926.1209-.6367.0518-.8604-.1728z" fill="url(#p)" opacity=".24"/><path d="m17.0003 27.4386c.095 0 .172-.0774.172-.1728s-.077-.1728-.172-.1728c-.0951 0-.1722.0774-.1722.1728s.0771.1728.1722.1728z" fill="#fff" opacity=".3"/><path d="m23.7994 26.5054c.4371 0 .7916-.3558.7916-.7948s-.3545-.7948-.7916-.7948c-.4372 0-.7916.3558-.7916.7948s.3544.7948.7916.7948z" fill="#fff" opacity=".2"/><path d="m23.3355 26.229c-.3097-.3111-.3097-.8121 0-1.1232.0517-.0518.1033-.0863.1721-.1209-.1032.0346-.1892.1036-.2753.1727-.3097.3111-.3097.8121 0 1.1232.2581.2591.6539.311.9636.1209-.2925.121-.6195.0519-.8604-.1727z" fill="url(#q)" opacity=".24"/><path d="m24.0784 25.4859c.095 0 .1721-.0773.1721-.1727 0-.0955-.0771-.1728-.1721-.1728-.0951 0-.1722.0773-.1722.1728 0 .0954.0771.1727.1722.1727z" fill="#fff" opacity=".3"/></svg>