<svg fill="none" height="40" viewBox="0 0 40 40" width="40" xmlns="http://www.w3.org/2000/svg"><rect fill="#2775ca" height="38" rx="19" width="38" x="1" y="1"/><rect height="38" rx="19" stroke="#181e25" stroke-width="2" width="38" x="1" y="1"/><g fill="#fff"><path d="m24.6566 22.4732c0-2.4732-1.484-3.3212-4.4519-3.6745-2.12-.2827-2.544-.8479-2.544-1.8374 0-.9894.7067-1.6252 2.12-1.6252 1.2719 0 1.9787.424 2.3319 1.484.0707.212.2827.3532.4947.3532h1.1306c.2827 0 .4947-.212.4947-.4945v-.0707c-.2827-1.5547-1.5547-2.756-3.18-2.8972v-1.696c0-.2827-.212-.4947-.5652-.5654h-1.06c-.2827 0-.4947.212-.5654.5654v1.6252c-2.12.2828-3.4625 1.696-3.4625 3.4627 0 2.3319 1.4132 3.2505 4.3812 3.6039 1.9787.3533 2.6146.7773 2.6146 1.908s-.9894 1.9079-2.3319 1.9079c-1.8374 0-2.4734-.7774-2.6854-1.8374-.0705-.2825-.2825-.424-.4945-.424h-1.2015c-.2825 0-.4945.212-.4945.4947v.0707c.2825 1.7666 1.4132 3.0385 3.7452 3.392v1.6959c0 .2826.212.4946.5653.5653h1.0599c.2827 0 .4947-.212.5655-.5653v-1.6959c2.1199-.3535 3.5332-1.8374 3.5332-3.7454z"/><path clip-rule="evenodd" d="m10.1033 16.3253c-2.04935 5.4413.7773 11.5891 6.2892 13.5677.212.1414.424.4239.424.6359v.9895c0 .1412 0 .212-.0707.2825-.0706.2827-.3533.424-.636.2827-3.9572-1.2719-6.99588-4.3106-8.26785-8.2678-2.11995-6.7131 1.55469-13.85039 8.26785-15.97035.0707-.07055.212-.07055.2827-.07055.2827.07055.424.28255.424.56527v.98925c0 .35344-.1413.56543-.424.70668-2.8972 1.06-5.2292 3.3212-6.2892 6.2892zm13.1437-8.19713c.0706-.28272.3533-.42399.636-.28272 3.8865 1.27198 6.9959 4.31065 8.2678 8.33855 2.12 6.7131-1.5546 13.8504-8.2678 15.9704-.0707.0705-.212.0705-.2827.0705-.2827-.0705-.424-.2825-.424-.5653v-.9892c0-.3535.1413-.5654.424-.7067 2.8972-1.06 5.2292-3.3212 6.2892-6.2892 2.0494-5.4413-.7773-11.5891-6.2892-13.5677-.212-.14139-.424-.42394-.424-.70666v-.98925c0-.14145 0-.212.0707-.28272z" fill-rule="evenodd"/></g></svg>