<svg fill="none" height="40" viewBox="0 0 40 40" width="40" xmlns="http://www.w3.org/2000/svg"><rect fill="#50af95" height="38" rx="19" width="38" x="1" y="1"/><rect height="38" rx="19" stroke="#181e25" stroke-width="2" width="38" x="1" y="1"/><path clip-rule="evenodd" d="m22.2754 22.0408c-.1272.0095-.7848.0488-2.2517.0488-1.1667 0-1.9951-.035-2.2857-.0488-4.5087-.1984-7.87413-.9832-7.87413-1.923 0-.9397 3.36543-1.7235 7.87413-1.925v3.0663c.2949.0212 1.1392.071 2.3059.071 1.4 0 2.1011-.0583 2.2273-.07v-3.0652c4.4992.2005 7.8572.9853 7.8572 1.9229s-3.3569 1.7225-7.8572 1.9219zm0-4.163v-2.7439h6.279v-4.1842h-17.0953v4.1842h6.2779v2.7428c-5.1027.2344-8.94012 1.2452-8.94012 2.4565 0 1.2112 3.83742 2.2209 8.94012 2.4564v8.7927h4.5374v-8.7959c5.091-.2344 8.922-1.2441 8.922-2.4543s-3.8278-2.2199-8.922-2.4554z" fill="#fff" fill-rule="evenodd"/></svg>