<svg fill="none" height="492" viewBox="0 0 2783 492" width="2783" xmlns="http://www.w3.org/2000/svg" xmlns:xlink="http://www.w3.org/1999/xlink"><linearGradient id="a"><stop offset="0" stop-color="#2a2a2b"/><stop offset="1" stop-color="#2a2a2b" stop-opacity="0"/></linearGradient><linearGradient id="b" gradientUnits="userSpaceOnUse" x1="108" x2="-.000003" xlink:href="#a" y1="433" y2="433"/><linearGradient id="c" gradientUnits="userSpaceOnUse" x1="2675" x2="2783" xlink:href="#a" y1="433" y2="433"/><linearGradient id="d" gradientUnits="userSpaceOnUse" x1="108" x2="0" xlink:href="#a" y1="358" y2="358"/><linearGradient id="e" gradientUnits="userSpaceOnUse" x1="2675" x2="2783" xlink:href="#a" y1="358" y2="358"/><rect height="118" rx="12.5" stroke="#2a2a2b" width="107" x="642.5" y="373.5"/><rect height="118" rx="12.5" stroke="#2a2a2b" width="107" x="535.5" y="373.5"/><rect height="118" rx="12.5" stroke="#2a2a2b" width="107" x="428.5" y="373.5"/><rect height="118" rx="12.5" stroke="#2a2a2b" width="107" x="321.5" y="373.5"/><rect height="118" rx="12.5" stroke="#2a2a2b" width="107" x="214.5" y="373.5"/><rect height="118" rx="12.5" stroke="#2a2a2b" width="107" x="107.5" y="373.5"/><rect height="118" rx="12.5" stroke="url(#b)" width="107" x=".5" y="373.5"/><g stroke="#2a2a2b"><rect height="118" rx="12.5" width="107" x="856.5" y="373.5"/><rect height="118" rx="12.5" width="107" x="749.5" y="373.5"/><rect height="118" rx="12.5" width="107" x="963.5" y="373.5"/><rect height="118" rx="12.5" width="107" x="1070.5" y="373.5"/><rect height="118" rx="12.5" width="107" x="1177.5" y="373.5"/><rect height="118" rx="12.5" width="107" x="1284.5" y="373.5"/><rect height="118" rx="12.5" width="107" x="1391.5" y="373.5"/><rect height="118" rx="12.5" width="107" x="1498.5" y="373.5"/><rect height="118" rx="12.5" width="107" x="1605.5" y="373.5"/><rect height="118" rx="12.5" width="107" x="1712.5" y="373.5"/><rect height="118" rx="12.5" width="107" x="1819.5" y="373.5"/><rect height="118" rx="12.5" width="107" x="1926.5" y="373.5"/><rect height="118" rx="12.5" width="107" x="2033.5" y="373.5"/><rect height="118" rx="12.5" width="107" x="2140.5" y="373.5"/><rect height="118" rx="12.5" width="107" x="2247.5" y="373.5"/><rect height="118" rx="12.5" width="107" x="2354.5" y="373.5"/><rect height="118" rx="12.5" width="107" x="2461.5" y="373.5"/><rect height="118" rx="12.5" width="107" x="2568.5" y="373.5"/></g><rect height="118" rx="12.5" stroke="url(#c)" width="107" x="2675.5" y="373.5"/><rect height="31" rx="15.5" stroke="#2a2a2b" width="107" x="642.5" y="342.5"/><rect height="31" rx="15.5" stroke="#2a2a2b" width="107" x="535.5" y="342.5"/><rect height="31" rx="15.5" stroke="#2a2a2b" width="107" x="428.5" y="342.5"/><rect height="31" rx="15.5" stroke="#2a2a2b" width="107" x="321.5" y="342.5"/><rect height="31" rx="15.5" stroke="#2a2a2b" width="107" x="214.5" y="342.5"/><rect height="31" rx="15.5" stroke="#2a2a2b" width="107" x="107.5" y="342.5"/><rect height="31" rx="15.5" stroke="url(#d)" width="107" x=".5" y="342.5"/><rect height="31" rx="15.5" stroke="#2a2a2b" width="107" x="856.5" y="342.5"/><rect height="31" rx="15.5" stroke="#2a2a2b" width="107" x="749.5" y="342.5"/><rect height="31" rx="15.5" stroke="#2a2a2b" width="428" x="963.5" y="342.5"/><rect height="31" rx="15.5" stroke="#2a2a2b" width="428" x="1391.5" y="342.5"/><rect height="31" rx="15.5" stroke="#2a2a2b" width="107" x="1819.5" y="342.5"/><rect height="31" rx="15.5" stroke="#2a2a2b" width="107" x="1926.5" y="342.5"/><rect height="31" rx="15.5" stroke="#2a2a2b" width="107" x="2033.5" y="342.5"/><rect height="31" rx="15.5" stroke="#2a2a2b" width="107" x="2140.5" y="342.5"/><rect height="31" rx="15.5" stroke="#2a2a2b" width="107" x="2247.5" y="342.5"/><rect height="31" rx="15.5" stroke="#2a2a2b" width="107" x="2354.5" y="342.5"/><rect height="31" rx="15.5" stroke="#2a2a2b" width="107" x="2461.5" y="342.5"/><rect height="31" rx="15.5" stroke="#2a2a2b" width="107" x="2568.5" y="342.5"/><rect height="31" rx="15.5" stroke="url(#e)" width="107" x="2675.5" y="342.5"/><path d="m734.5 342.5c5 .167 15-1.9 15-11.5" stroke="#2a2a2b"/><path d="m764.5 342.5c-5 .167-15-1.9-15-11.5" stroke="#2a2a2b"/><path d="m749.5 331v-331" stroke="#2a2a2b"/><path d="m841.5 342.5c5 .167 15-1.9 15-11.5" stroke="#2a2a2b"/><path d="m871.5 342.5c-5 .167-15-1.9-15-11.5" stroke="#2a2a2b"/><path d="m856.5 331v-331" stroke="#2a2a2b"/><path d="m1911.5 342.5c5 .167 15-1.9 15-11.5" stroke="#2a2a2b"/><path d="m1941.5 342.5c-5 .167-15-1.9-15-11.5" stroke="#2a2a2b"/><path d="m1926.5 331v-331" stroke="#2a2a2b"/><path d="m2018.5 342.5c5 .167 15-1.9 15-11.5" stroke="#2a2a2b"/><path d="m2048.5 342.5c-5 .167-15-1.9-15-11.5" stroke="#2a2a2b"/><path d="m2033.5 331v-331" stroke="#2a2a2b"/></svg>