<svg width="1043" height="740" viewBox="0 0 1043 740" fill="none" xmlns="http://www.w3.org/2000/svg">
<g opacity="0.6">
<g opacity="0.5">
<g filter="url(#filter0_i_1746_38403)">
<mask id="path-1-inside-1_1746_38403" fill="white">
<path fill-rule="evenodd" clip-rule="evenodd" d="M639.347 0H605.705V33.6051H639.347V0ZM672.987 67.2102V33.6051H639.347V67.2102H672.987ZM773.923 168.036V134.424V100.819V67.2102H740.269H706.642H672.987L673.001 100.819H706.642H740.269L740.283 134.424V168.036H773.923ZM807.564 201.645V168.036H773.923V201.645H807.564ZM807.578 235.768H841.219V235.253V202.16V201.645H807.564L807.578 202.16V235.253V235.768ZM773.923 269.377H807.564L807.578 235.768H773.923V269.377ZM672.987 370.202H706.642H740.269H773.923V336.594V302.988V269.377H740.283V302.988L740.269 336.594H706.642H673.001L672.987 370.202ZM639.347 403.808H672.987V370.202H639.347V403.808ZM639.347 403.808H605.705V437.412H639.347V403.808ZM572.037 403.808H605.678V370.202H572.037V403.808ZM471.116 269.377L471.102 302.988V336.594V370.202H504.742H538.383H572.037V336.594H538.383H504.742L504.756 302.988V269.377H471.116ZM437.46 235.768V269.377H471.116V235.768H437.46ZM437.46 201.645H403.806V202.16V235.253V235.768H437.46V235.253V202.16V201.645ZM471.116 168.036V201.645H437.46V168.036H471.116ZM504.756 134.424V168.036H471.116L471.102 134.424V100.819V67.2102H504.742H538.383H572.037V33.6051H605.678V67.2102H572.037V100.819H538.383H504.742L504.756 134.424Z"/>
</mask>
<path d="M639.347 0V-1H640.347V0H639.347ZM605.705 0H604.705V-1H605.705V0ZM605.705 33.6051V34.6051H604.705V33.6051H605.705ZM672.987 33.6051V32.6051H673.987V33.6051H672.987ZM639.347 67.2102V68.2102H638.347V67.2102H639.347ZM773.923 67.2102V66.2102H774.923V67.2102H773.923ZM673.001 100.819V101.819H672.002L672.001 100.819L673.001 100.819ZM740.269 100.819V99.8188H741.268L741.269 100.818L740.269 100.819ZM740.283 134.424L741.283 134.423V134.424H740.283ZM740.283 168.036V169.036H739.283V168.036H740.283ZM807.564 168.036V167.036H808.564V168.036H807.564ZM773.923 201.645V202.645H772.923V201.645H773.923ZM841.219 235.768H842.219V236.768H841.219V235.768ZM841.219 201.645V200.645H842.219V201.645H841.219ZM807.578 202.16L808.578 202.133L808.578 202.146V202.16H807.578ZM807.564 269.377L808.564 269.378L808.564 270.377H807.564V269.377ZM773.923 235.768H772.923V234.768H773.923V235.768ZM773.923 370.202H774.923V371.202H773.923V370.202ZM740.283 269.377H739.283V268.377H740.283V269.377ZM740.283 302.988H741.283V302.989L740.283 302.988ZM740.269 336.594L741.269 336.595L741.268 337.594H740.269V336.594ZM673.001 336.594L672.001 336.594L672.002 335.594H673.001V336.594ZM672.987 403.808H673.987V404.808H672.987V403.808ZM639.347 370.202H638.347V369.202H639.347V370.202ZM605.705 403.808H604.705V402.808H605.705V403.808ZM605.705 437.412V438.412H604.705V437.412H605.705ZM639.347 437.412H640.347V438.412H639.347V437.412ZM572.037 403.808V404.808H571.037V403.808H572.037ZM605.678 403.808H606.678V404.808H605.678V403.808ZM605.678 370.202V369.202H606.678V370.202H605.678ZM471.102 302.988H470.102V302.988L471.102 302.988ZM471.102 370.202V371.202H470.102V370.202H471.102ZM572.037 336.594V335.594H573.037V336.594H572.037ZM504.742 336.594V337.594H503.741L503.742 336.594L504.742 336.594ZM504.756 302.988H505.756V302.989L504.756 302.988ZM504.756 269.377V268.377H505.756V269.377H504.756ZM437.46 269.377V270.377H436.46V269.377H437.46ZM471.116 235.768V234.768H472.116V235.768H471.116ZM403.806 201.645H402.806V200.645H403.806V201.645ZM403.806 235.768V236.768H402.806V235.768H403.806ZM471.116 201.645H472.116V202.645H471.116V201.645ZM437.46 168.036H436.46V167.036H437.46V168.036ZM504.756 134.424L505.756 134.423V134.424H504.756ZM504.756 168.036H505.756V169.036H504.756V168.036ZM471.102 134.424L470.102 134.424V134.424H471.102ZM471.102 67.2102H470.102V66.2102H471.102V67.2102ZM572.037 33.6051H571.037V32.6051H572.037V33.6051ZM605.678 33.6051V32.6051H606.678V33.6051H605.678ZM605.678 67.2102H606.678V68.2102H605.678V67.2102ZM572.037 100.819H573.037V101.819H572.037V100.819ZM504.742 100.819L503.742 100.819L503.741 99.8188H504.742V100.819ZM639.347 1H605.705V-1H639.347V1ZM606.705 0V33.6051H604.705V0H606.705ZM605.705 32.6051H639.347V34.6051H605.705V32.6051ZM638.347 33.6051V0H640.347V33.6051H638.347ZM671.987 67.2102V33.6051H673.987V67.2102H671.987ZM672.987 34.6051H639.347V32.6051H672.987V34.6051ZM640.347 33.6051V67.2102H638.347V33.6051H640.347ZM639.347 66.2102H672.987V68.2102H639.347V66.2102ZM772.923 168.036V134.424H774.923V168.036H772.923ZM772.923 134.424V100.819H774.923V134.424H772.923ZM772.923 100.819V67.2102H774.923V100.819H772.923ZM773.923 68.2102H740.269V66.2102H773.923V68.2102ZM740.269 68.2102H706.642V66.2102H740.269V68.2102ZM706.642 68.2102H672.987V66.2102H706.642V68.2102ZM673.987 67.2098L674.001 100.818L672.001 100.819L671.987 67.2106L673.987 67.2098ZM673.001 99.8188H706.642V101.819H673.001V99.8188ZM706.642 99.8188H740.269V101.819H706.642V99.8188ZM741.269 100.818L741.283 134.423L739.283 134.424L739.269 100.819L741.269 100.818ZM741.283 134.424V168.036H739.283V134.424H741.283ZM740.283 167.036H773.923V169.036H740.283V167.036ZM806.564 201.645V168.036H808.564V201.645H806.564ZM807.564 169.036H773.923V167.036H807.564V169.036ZM774.923 168.036V201.645H772.923V168.036H774.923ZM773.923 200.645H807.564V202.645H773.923V200.645ZM807.578 234.768H841.219V236.768H807.578V234.768ZM840.219 235.768V235.253H842.219V235.768H840.219ZM840.219 235.253V202.16H842.219V235.253H840.219ZM840.219 202.16V201.645H842.219V202.16H840.219ZM841.219 202.645H807.564V200.645H841.219V202.645ZM808.564 201.618L808.578 202.133L806.578 202.187L806.564 201.672L808.564 201.618ZM808.578 202.16V235.253H806.578V202.16H808.578ZM808.578 235.253V235.768H806.578V235.253H808.578ZM773.923 268.377H807.564V270.377H773.923V268.377ZM806.564 269.377L806.578 235.767L808.578 235.768L808.564 269.378L806.564 269.377ZM807.578 236.768H773.923V234.768H807.578V236.768ZM774.923 235.768V269.377H772.923V235.768H774.923ZM672.987 369.202H706.642V371.202H672.987V369.202ZM706.642 369.202H740.269V371.202H706.642V369.202ZM740.269 369.202H773.923V371.202H740.269V369.202ZM772.923 370.202V336.594H774.923V370.202H772.923ZM772.923 336.594V302.988H774.923V336.594H772.923ZM772.923 302.988V269.377H774.923V302.988H772.923ZM773.923 270.377H740.283V268.377H773.923V270.377ZM741.283 269.377V302.988H739.283V269.377H741.283ZM741.283 302.989L741.269 336.595L739.269 336.594L739.283 302.988L741.283 302.989ZM740.269 337.594H706.642V335.594H740.269V337.594ZM706.642 337.594H673.001V335.594H706.642V337.594ZM674.001 336.595L673.987 370.203L671.987 370.202L672.001 336.594L674.001 336.595ZM639.347 402.808H672.987V404.808H639.347V402.808ZM671.987 403.808V370.202H673.987V403.808H671.987ZM672.987 371.202H639.347V369.202H672.987V371.202ZM640.347 370.202V403.808H638.347V370.202H640.347ZM639.347 404.808H605.705V402.808H639.347V404.808ZM606.705 403.808V437.412H604.705V403.808H606.705ZM605.705 436.412H639.347V438.412H605.705V436.412ZM638.347 437.412V403.808H640.347V437.412H638.347ZM572.037 402.808H605.678V404.808H572.037V402.808ZM604.678 403.808V370.202H606.678V403.808H604.678ZM605.678 371.202H572.037V369.202H605.678V371.202ZM573.037 370.202V403.808H571.037V370.202H573.037ZM472.116 269.378L472.102 302.989L470.102 302.988L470.116 269.377L472.116 269.378ZM472.102 302.988V336.594H470.102V302.988H472.102ZM472.102 336.594V370.202H470.102V336.594H472.102ZM471.102 369.202H504.742V371.202H471.102V369.202ZM504.742 369.202H538.383V371.202H504.742V369.202ZM538.383 369.202H572.037V371.202H538.383V369.202ZM571.037 370.202V336.594H573.037V370.202H571.037ZM572.037 337.594H538.383V335.594H572.037V337.594ZM538.383 337.594H504.742V335.594H538.383V337.594ZM503.742 336.594L503.756 302.988L505.756 302.989L505.742 336.595L503.742 336.594ZM503.756 302.988V269.377H505.756V302.988H503.756ZM504.756 270.377H471.116V268.377H504.756V270.377ZM438.46 235.768V269.377H436.46V235.768H438.46ZM437.46 268.377H471.116V270.377H437.46V268.377ZM470.116 269.377V235.768H472.116V269.377H470.116ZM471.116 236.768H437.46V234.768H471.116V236.768ZM437.46 202.645H403.806V200.645H437.46V202.645ZM404.806 201.645V202.16H402.806V201.645H404.806ZM404.806 202.16V235.253H402.806V202.16H404.806ZM404.806 235.253V235.768H402.806V235.253H404.806ZM403.806 234.768H437.46V236.768H403.806V234.768ZM436.46 235.768V235.253H438.46V235.768H436.46ZM436.46 235.253V202.16H438.46V235.253H436.46ZM436.46 202.16V201.645H438.46V202.16H436.46ZM472.116 168.036V201.645H470.116V168.036H472.116ZM471.116 202.645H437.46V200.645H471.116V202.645ZM436.46 201.645V168.036H438.46V201.645H436.46ZM437.46 167.036H471.116V169.036H437.46V167.036ZM505.756 134.424V168.036H503.756V134.424H505.756ZM504.756 169.036H471.116V167.036H504.756V169.036ZM470.116 168.036L470.102 134.424L472.102 134.423L472.116 168.036L470.116 168.036ZM470.102 134.424V100.819H472.102V134.424H470.102ZM470.102 100.819V67.2102H472.102V100.819H470.102ZM471.102 66.2102H504.742V68.2102H471.102V66.2102ZM504.742 66.2102H538.383V68.2102H504.742V66.2102ZM538.383 66.2102H572.037V68.2102H538.383V66.2102ZM571.037 67.2102V33.6051H573.037V67.2102H571.037ZM572.037 32.6051H605.678V34.6051H572.037V32.6051ZM606.678 33.6051V67.2102H604.678V33.6051H606.678ZM605.678 68.2102H572.037V66.2102H605.678V68.2102ZM573.037 67.2102V100.819H571.037V67.2102H573.037ZM572.037 101.819H538.383V99.8188H572.037V101.819ZM538.383 101.819H504.742V99.8188H538.383V101.819ZM505.742 100.818L505.756 134.423L503.756 134.424L503.742 100.819L505.742 100.818Z" fill="white" mask="url(#path-1-inside-1_1746_38403)"/>
</g>
</g>
</g>
<g opacity="0.6">
<g opacity="0.5">
<g filter="url(#filter1_i_1746_38403)">
<mask id="path-3-inside-2_1746_38403" fill="white">
<path fill-rule="evenodd" clip-rule="evenodd" d="M841.253 302.858H807.611V336.463H841.253V302.858ZM874.894 370.068V336.463H841.253V370.068H874.894ZM975.83 470.894V437.282V403.677V370.068H942.175H908.548H874.894L874.908 403.677H908.548H942.175L942.189 437.282V470.894H975.83ZM1009.47 504.503V470.894H975.83V504.503H1009.47ZM1009.48 538.626H1043.12V538.11V505.018V504.503H1009.47L1009.48 505.018V538.11V538.626ZM975.83 572.235H1009.47L1009.48 538.626H975.83V572.235ZM874.894 673.06H908.548H942.175H975.83V639.452V605.846V572.235H942.189V605.846L942.175 639.452H908.548H874.908L874.894 673.06ZM841.253 706.666H874.894V673.06H841.253V706.666ZM841.253 706.666H807.611V740.27H841.253V706.666ZM773.943 706.666H807.585V673.06H773.943V706.666ZM673.022 572.235L673.008 605.846V639.452V673.06H706.648H740.289H773.943V639.452H740.289H706.648L706.662 605.846V572.235H673.022ZM639.367 538.626V572.235H673.022V538.626H639.367ZM639.367 504.503H605.713V505.018V538.11V538.626H639.367V538.11V505.018V504.503ZM673.022 470.894V504.503H639.367V470.894H673.022ZM706.662 437.282V470.894H673.022L673.008 437.282V403.677V370.068H706.648H740.289H773.943V336.463H807.585V370.068H773.943V403.677H740.289H706.648L706.662 437.282Z"/>
</mask>
<path d="M841.253 302.858V301.858H842.253V302.858H841.253ZM807.611 302.858H806.611V301.858H807.611V302.858ZM807.611 336.463V337.463H806.611V336.463H807.611ZM874.894 336.463V335.463H875.894V336.463H874.894ZM841.253 370.068V371.068H840.253V370.068H841.253ZM975.83 370.068V369.068H976.83V370.068H975.83ZM874.908 403.677V404.677H873.908L873.908 403.677L874.908 403.677ZM942.175 403.677V402.677H943.175L943.175 403.676L942.175 403.677ZM942.189 437.282L943.189 437.281V437.282H942.189ZM942.189 470.894V471.894H941.189V470.894H942.189ZM1009.47 470.894V469.894H1010.47V470.894H1009.47ZM975.83 504.503V505.503H974.83V504.503H975.83ZM1043.12 538.626H1044.12V539.626H1043.12V538.626ZM1043.12 504.503V503.503H1044.12V504.503H1043.12ZM1009.48 505.018L1010.48 504.991L1010.48 505.004V505.018H1009.48ZM1009.47 572.235L1010.47 572.236L1010.47 573.235H1009.47V572.235ZM975.83 538.626H974.83V537.626H975.83V538.626ZM975.83 673.06H976.83V674.06H975.83V673.06ZM942.189 572.235H941.189V571.235H942.189V572.235ZM942.189 605.846H943.189V605.847L942.189 605.846ZM942.175 639.452L943.175 639.453L943.175 640.452H942.175V639.452ZM874.908 639.452L873.908 639.452L873.908 638.452H874.908V639.452ZM874.894 706.666H875.894V707.666H874.894V706.666ZM841.253 673.06H840.253V672.06H841.253V673.06ZM807.611 706.666H806.611V705.666H807.611V706.666ZM807.611 740.27V741.27H806.611V740.27H807.611ZM841.253 740.27H842.253V741.27H841.253V740.27ZM773.943 706.666V707.666H772.943V706.666H773.943ZM807.585 706.666H808.585V707.666H807.585V706.666ZM807.585 673.06V672.06H808.585V673.06H807.585ZM673.008 605.846H672.008V605.846L673.008 605.846ZM673.008 673.06V674.06H672.008V673.06H673.008ZM773.943 639.452V638.452H774.943V639.452H773.943ZM706.648 639.452V640.452H705.647L705.648 639.452L706.648 639.452ZM706.662 605.846H707.662V605.847L706.662 605.846ZM706.662 572.235V571.235H707.662V572.235H706.662ZM639.367 572.235V573.235H638.367V572.235H639.367ZM673.022 538.626V537.626H674.022V538.626H673.022ZM605.713 504.503H604.713V503.503H605.713V504.503ZM605.713 538.626V539.626H604.713V538.626H605.713ZM673.022 504.503H674.022V505.503H673.022V504.503ZM639.367 470.894H638.367V469.894H639.367V470.894ZM706.662 437.282L707.662 437.281V437.282H706.662ZM706.662 470.894H707.662V471.894H706.662V470.894ZM673.008 437.282L672.008 437.282V437.282H673.008ZM673.008 370.068H672.008V369.068H673.008V370.068ZM773.943 336.463H772.943V335.463H773.943V336.463ZM807.585 336.463V335.463H808.585V336.463H807.585ZM807.585 370.068H808.585V371.068H807.585V370.068ZM773.943 403.677H774.943V404.677H773.943V403.677ZM706.648 403.677L705.648 403.677L705.647 402.677H706.648V403.677ZM841.253 303.858H807.611V301.858H841.253V303.858ZM808.611 302.858V336.463H806.611V302.858H808.611ZM807.611 335.463H841.253V337.463H807.611V335.463ZM840.253 336.463V302.858H842.253V336.463H840.253ZM873.894 370.068V336.463H875.894V370.068H873.894ZM874.894 337.463H841.253V335.463H874.894V337.463ZM842.253 336.463V370.068H840.253V336.463H842.253ZM841.253 369.068H874.894V371.068H841.253V369.068ZM974.83 470.894V437.282H976.83V470.894H974.83ZM974.83 437.282V403.677H976.83V437.282H974.83ZM974.83 403.677V370.068H976.83V403.677H974.83ZM975.83 371.068H942.175V369.068H975.83V371.068ZM942.175 371.068H908.548V369.068H942.175V371.068ZM908.548 371.068H874.894V369.068H908.548V371.068ZM875.894 370.068L875.908 403.676L873.908 403.677L873.894 370.068L875.894 370.068ZM874.908 402.677H908.548V404.677H874.908V402.677ZM908.548 402.677H942.175V404.677H908.548V402.677ZM943.175 403.676L943.189 437.281L941.189 437.282L941.175 403.677L943.175 403.676ZM943.189 437.282V470.894H941.189V437.282H943.189ZM942.189 469.894H975.83V471.894H942.189V469.894ZM1008.47 504.503V470.894H1010.47V504.503H1008.47ZM1009.47 471.894H975.83V469.894H1009.47V471.894ZM976.83 470.894V504.503H974.83V470.894H976.83ZM975.83 503.503H1009.47V505.503H975.83V503.503ZM1009.48 537.626H1043.12V539.626H1009.48V537.626ZM1042.12 538.626V538.11H1044.12V538.626H1042.12ZM1042.12 538.11V505.018H1044.12V538.11H1042.12ZM1042.12 505.018V504.503H1044.12V505.018H1042.12ZM1043.12 505.503H1009.47V503.503H1043.12V505.503ZM1010.47 504.476L1010.48 504.991L1008.48 505.045L1008.47 504.53L1010.47 504.476ZM1010.48 505.018V538.11H1008.48V505.018H1010.48ZM1010.48 538.11V538.626H1008.48V538.11H1010.48ZM975.83 571.235H1009.47V573.235H975.83V571.235ZM1008.47 572.235L1008.48 538.625L1010.48 538.626L1010.47 572.236L1008.47 572.235ZM1009.48 539.626H975.83V537.626H1009.48V539.626ZM976.83 538.626V572.235H974.83V538.626H976.83ZM874.894 672.06H908.548V674.06H874.894V672.06ZM908.548 672.06H942.175V674.06H908.548V672.06ZM942.175 672.06H975.83V674.06H942.175V672.06ZM974.83 673.06V639.452H976.83V673.06H974.83ZM974.83 639.452V605.846H976.83V639.452H974.83ZM974.83 605.846V572.235H976.83V605.846H974.83ZM975.83 573.235H942.189V571.235H975.83V573.235ZM943.189 572.235V605.846H941.189V572.235H943.189ZM943.189 605.847L943.175 639.453L941.175 639.452L941.189 605.846L943.189 605.847ZM942.175 640.452H908.548V638.452H942.175V640.452ZM908.548 640.452H874.908V638.452H908.548V640.452ZM875.908 639.453L875.894 673.061L873.894 673.06L873.908 639.452L875.908 639.453ZM841.253 705.666H874.894V707.666H841.253V705.666ZM873.894 706.666V673.06H875.894V706.666H873.894ZM874.894 674.06H841.253V672.06H874.894V674.06ZM842.253 673.06V706.666H840.253V673.06H842.253ZM841.253 707.666H807.611V705.666H841.253V707.666ZM808.611 706.666V740.27H806.611V706.666H808.611ZM807.611 739.27H841.253V741.27H807.611V739.27ZM840.253 740.27V706.666H842.253V740.27H840.253ZM773.943 705.666H807.585V707.666H773.943V705.666ZM806.585 706.666V673.06H808.585V706.666H806.585ZM807.585 674.06H773.943V672.06H807.585V674.06ZM774.943 673.06V706.666H772.943V673.06H774.943ZM674.022 572.236L674.008 605.847L672.008 605.846L672.022 572.235L674.022 572.236ZM674.008 605.846V639.452H672.008V605.846H674.008ZM674.008 639.452V673.06H672.008V639.452H674.008ZM673.008 672.06H706.648V674.06H673.008V672.06ZM706.648 672.06H740.289V674.06H706.648V672.06ZM740.289 672.06H773.943V674.06H740.289V672.06ZM772.943 673.06V639.452H774.943V673.06H772.943ZM773.943 640.452H740.289V638.452H773.943V640.452ZM740.289 640.452H706.648V638.452H740.289V640.452ZM705.648 639.452L705.662 605.846L707.662 605.847L707.648 639.453L705.648 639.452ZM705.662 605.846V572.235H707.662V605.846H705.662ZM706.662 573.235H673.022V571.235H706.662V573.235ZM640.367 538.626V572.235H638.367V538.626H640.367ZM639.367 571.235H673.022V573.235H639.367V571.235ZM672.022 572.235V538.626H674.022V572.235H672.022ZM673.022 539.626H639.367V537.626H673.022V539.626ZM639.367 505.503H605.713V503.503H639.367V505.503ZM606.713 504.503V505.018H604.713V504.503H606.713ZM606.713 505.018V538.11H604.713V505.018H606.713ZM606.713 538.11V538.626H604.713V538.11H606.713ZM605.713 537.626H639.367V539.626H605.713V537.626ZM638.367 538.626V538.11H640.367V538.626H638.367ZM638.367 538.11V505.018H640.367V538.11H638.367ZM638.367 505.018V504.503H640.367V505.018H638.367ZM674.022 470.894V504.503H672.022V470.894H674.022ZM673.022 505.503H639.367V503.503H673.022V505.503ZM638.367 504.503V470.894H640.367V504.503H638.367ZM639.367 469.894H673.022V471.894H639.367V469.894ZM707.662 437.282V470.894H705.662V437.282H707.662ZM706.662 471.894H673.022V469.894H706.662V471.894ZM672.022 470.894L672.008 437.282L674.008 437.281L674.022 470.893L672.022 470.894ZM672.008 437.282V403.677H674.008V437.282H672.008ZM672.008 403.677V370.068H674.008V403.677H672.008ZM673.008 369.068H706.648V371.068H673.008V369.068ZM706.648 369.068H740.289V371.068H706.648V369.068ZM740.289 369.068H773.943V371.068H740.289V369.068ZM772.943 370.068V336.463H774.943V370.068H772.943ZM773.943 335.463H807.585V337.463H773.943V335.463ZM808.585 336.463V370.068H806.585V336.463H808.585ZM807.585 371.068H773.943V369.068H807.585V371.068ZM774.943 370.068V403.677H772.943V370.068H774.943ZM773.943 404.677H740.289V402.677H773.943V404.677ZM740.289 404.677H706.648V402.677H740.289V404.677ZM707.648 403.676L707.662 437.281L705.662 437.282L705.648 403.677L707.648 403.676Z" fill="white" mask="url(#path-3-inside-2_1746_38403)"/>
</g>
</g>
</g>
<mask id="path-5-inside-3_1746_38403" fill="white">
<path fill-rule="evenodd" clip-rule="evenodd" d="M437.448 302.858H403.807V336.463H437.448V302.858ZM471.089 370.068V336.463H437.448V370.068H471.089ZM572.025 470.894V437.282V403.677V370.068H538.37H504.744H471.089L471.103 403.677H504.744H538.37L538.384 437.282V470.894H572.025ZM605.666 504.503V470.894H572.025V504.503H605.666ZM605.68 538.625H639.32V538.11V505.018V504.503H605.666L605.68 505.018V538.11V538.625ZM572.025 572.235H605.666L605.68 538.625H572.025V572.235ZM471.089 673.06H504.744H538.37H572.025V639.452V605.846V572.235H538.384V605.846L538.37 639.452H504.744H471.103L471.089 673.06ZM437.448 706.666H471.089V673.06H437.448V706.666ZM437.448 706.666H403.807V740.27H437.448V706.666ZM370.139 706.666H403.78V673.06H370.139V706.666ZM269.218 572.235L269.203 605.846V639.452V673.06H302.843H336.485H370.139V639.452H336.485H302.843L302.857 605.846V572.235H269.218ZM235.562 538.625V572.235H269.218V538.625H235.562ZM235.562 504.503H201.908V505.018V538.11V538.625H235.562V538.11V505.018V504.503ZM269.218 470.894V504.503H235.562V470.894H269.218ZM302.857 437.282V470.894H269.218L269.203 437.282V403.677V370.068H302.843H336.485H370.139V336.463H403.78V370.068H370.139V403.677H336.485H302.843L302.857 437.282Z"/>
</mask>
<path fill-rule="evenodd" clip-rule="evenodd" d="M437.448 302.858H403.807V336.463H437.448V302.858ZM471.089 370.068V336.463H437.448V370.068H471.089ZM572.025 470.894V437.282V403.677V370.068H538.37H504.744H471.089L471.103 403.677H504.744H538.37L538.384 437.282V470.894H572.025ZM605.666 504.503V470.894H572.025V504.503H605.666ZM605.68 538.625H639.32V538.11V505.018V504.503H605.666L605.68 505.018V538.11V538.625ZM572.025 572.235H605.666L605.68 538.625H572.025V572.235ZM471.089 673.06H504.744H538.37H572.025V639.452V605.846V572.235H538.384V605.846L538.37 639.452H504.744H471.103L471.089 673.06ZM437.448 706.666H471.089V673.06H437.448V706.666ZM437.448 706.666H403.807V740.27H437.448V706.666ZM370.139 706.666H403.78V673.06H370.139V706.666ZM269.218 572.235L269.203 605.846V639.452V673.06H302.843H336.485H370.139V639.452H336.485H302.843L302.857 605.846V572.235H269.218ZM235.562 538.625V572.235H269.218V538.625H235.562ZM235.562 504.503H201.908V505.018V538.11V538.625H235.562V538.11V505.018V504.503ZM269.218 470.894V504.503H235.562V470.894H269.218ZM302.857 437.282V470.894H269.218L269.203 437.282V403.677V370.068H302.843H336.485H370.139V336.463H403.78V370.068H370.139V403.677H336.485H302.843L302.857 437.282Z" fill="#010304"/>
<path d="M437.448 302.858V277.858H462.448V302.858H437.448ZM403.807 302.858H378.807V277.858H403.807V302.858ZM403.807 336.463V361.463H378.807V336.463H403.807ZM471.089 336.463V311.463H496.089V336.463H471.089ZM437.448 370.068V395.068H412.448V370.068H437.448ZM572.025 370.068V345.068H597.025V370.068H572.025ZM471.103 403.677V428.677H446.113L446.103 403.687L471.103 403.677ZM538.37 403.677V378.677H563.36L563.37 403.666L538.37 403.677ZM538.384 437.282L563.384 437.271V437.282H538.384ZM538.384 470.894V495.894H513.384V470.894H538.384ZM605.666 470.894V445.894H630.666V470.894H605.666ZM572.025 504.503V529.503H547.025V504.503H572.025ZM639.32 538.625H664.32V563.625H639.32V538.625ZM639.32 504.503V479.503H664.32V504.503H639.32ZM605.68 505.018L630.67 504.342L630.68 504.68V505.018H605.68ZM605.666 572.235L630.666 572.245L630.655 597.235H605.666V572.235ZM572.025 538.625H547.025V513.625H572.025V538.625ZM572.025 673.06H597.025V698.06H572.025V673.06ZM538.384 572.235H513.384V547.235H538.384V572.235ZM538.384 605.846H563.384L563.384 605.857L538.384 605.846ZM538.37 639.452L563.37 639.463L563.36 664.452H538.37V639.452ZM471.103 639.452L446.103 639.442L446.113 614.452H471.103V639.452ZM471.089 706.666H496.089V731.666H471.089V706.666ZM437.448 673.06H412.448V648.06H437.448V673.06ZM403.807 706.666H378.807V681.666H403.807V706.666ZM403.807 740.27V765.27H378.807V740.27H403.807ZM437.448 740.27H462.448V765.27H437.448V740.27ZM370.139 706.666V731.666H345.139V706.666H370.139ZM403.78 706.666H428.78V731.666H403.78V706.666ZM403.78 673.06V648.06H428.78V673.06H403.78ZM269.203 605.846H244.203V605.836L269.203 605.846ZM269.203 673.06V698.06H244.203V673.06H269.203ZM370.139 639.452V614.452H395.139V639.452H370.139ZM302.843 639.452V664.452H277.832L277.843 639.442L302.843 639.452ZM302.857 605.846H327.857V605.857L302.857 605.846ZM302.857 572.235V547.235H327.857V572.235H302.857ZM235.562 572.235V597.235H210.562V572.235H235.562ZM269.218 538.625V513.625H294.218V538.625H269.218ZM201.908 504.503H176.908V479.503H201.908V504.503ZM201.908 538.625V563.625H176.908V538.625H201.908ZM269.218 504.503H294.218V529.503H269.218V504.503ZM235.562 470.894H210.562V445.894H235.562V470.894ZM302.857 437.282L327.857 437.271V437.282H302.857ZM302.857 470.894H327.857V495.894H302.857V470.894ZM269.203 437.282L244.203 437.292V437.282H269.203ZM269.203 370.068H244.203V345.068H269.203V370.068ZM370.139 336.463H345.139V311.463H370.139V336.463ZM403.78 336.463V311.463H428.78V336.463H403.78ZM403.78 370.068H428.78V395.068H403.78V370.068ZM370.139 403.677H395.139V428.677H370.139V403.677ZM302.843 403.677L277.843 403.687L277.832 378.677H302.843V403.677ZM437.448 327.858H403.807V277.858H437.448V327.858ZM428.807 302.858V336.463H378.807V302.858H428.807ZM403.807 311.463H437.448V361.463H403.807V311.463ZM412.448 336.463V302.858H462.448V336.463H412.448ZM446.089 370.068V336.463H496.089V370.068H446.089ZM471.089 361.463H437.448V311.463H471.089V361.463ZM462.448 336.463V370.068H412.448V336.463H462.448ZM437.448 345.068H471.089V395.068H437.448V345.068ZM547.025 470.894V437.282H597.025V470.894H547.025ZM547.025 437.282V403.677H597.025V437.282H547.025ZM547.025 403.677V370.068H597.025V403.677H547.025ZM572.025 395.068H538.37V345.068H572.025V395.068ZM538.37 395.068H504.744V345.068H538.37V395.068ZM504.744 395.068H471.089V345.068H504.744V395.068ZM496.089 370.058L496.103 403.666L446.103 403.687L446.089 370.078L496.089 370.058ZM471.103 378.677H504.744V428.677H471.103V378.677ZM504.744 378.677H538.37V428.677H504.744V378.677ZM563.37 403.666L563.384 437.271L513.384 437.292L513.37 403.687L563.37 403.666ZM563.384 437.282V470.894H513.384V437.282H563.384ZM538.384 445.894H572.025V495.894H538.384V445.894ZM580.666 504.503V470.894H630.666V504.503H580.666ZM605.666 495.894H572.025V445.894H605.666V495.894ZM597.025 470.894V504.503H547.025V470.894H597.025ZM572.025 479.503H605.666V529.503H572.025V479.503ZM605.68 513.625H639.32V563.625H605.68V513.625ZM614.32 538.625V538.11H664.32V538.625H614.32ZM614.32 538.11V505.018H664.32V538.11H614.32ZM614.32 505.018V504.503H664.32V505.018H614.32ZM639.32 529.503H605.666V479.503H639.32V529.503ZM630.657 503.827L630.67 504.342L580.689 505.693L580.675 505.178L630.657 503.827ZM630.68 505.018V538.11H580.68V505.018H630.68ZM630.68 538.11V538.625H580.68V538.11H630.68ZM572.025 547.235H605.666V597.235H572.025V547.235ZM580.666 572.225L580.68 538.615L630.68 538.636L630.666 572.245L580.666 572.225ZM605.68 563.625H572.025V513.625H605.68V563.625ZM597.025 538.625V572.235H547.025V538.625H597.025ZM471.089 648.06H504.744V698.06H471.089V648.06ZM504.744 648.06H538.37V698.06H504.744V648.06ZM538.37 648.06H572.025V698.06H538.37V648.06ZM547.025 673.06V639.452H597.025V673.06H547.025ZM547.025 639.452V605.846H597.025V639.452H547.025ZM547.025 605.846V572.235H597.025V605.846H547.025ZM572.025 597.235H538.384V547.235H572.025V597.235ZM563.384 572.235V605.846H513.384V572.235H563.384ZM563.384 605.857L563.37 639.463L513.37 639.442L513.384 605.836L563.384 605.857ZM538.37 664.452H504.744V614.452H538.37V664.452ZM504.744 664.452H471.103V614.452H504.744V664.452ZM496.103 639.463L496.089 673.07L446.089 673.05L446.103 639.442L496.103 639.463ZM437.448 681.666H471.089V731.666H437.448V681.666ZM446.089 706.666V673.06H496.089V706.666H446.089ZM471.089 698.06H437.448V648.06H471.089V698.06ZM462.448 673.06V706.666H412.448V673.06H462.448ZM437.448 731.666H403.807V681.666H437.448V731.666ZM428.807 706.666V740.27H378.807V706.666H428.807ZM403.807 715.27H437.448V765.27H403.807V715.27ZM412.448 740.27V706.666H462.448V740.27H412.448ZM370.139 681.666H403.78V731.666H370.139V681.666ZM378.78 706.666V673.06H428.78V706.666H378.78ZM403.78 698.06H370.139V648.06H403.78V698.06ZM395.139 673.06V706.666H345.139V673.06H395.139ZM294.218 572.246L294.203 605.857L244.203 605.836L244.218 572.224L294.218 572.246ZM294.203 605.846V639.452H244.203V605.846H294.203ZM294.203 639.452V673.06H244.203V639.452H294.203ZM269.203 648.06H302.843V698.06H269.203V648.06ZM302.843 648.06H336.485V698.06H302.843V648.06ZM336.485 648.06H370.139V698.06H336.485V648.06ZM345.139 673.06V639.452H395.139V673.06H345.139ZM370.139 664.452H336.485V614.452H370.139V664.452ZM336.485 664.452H302.843V614.452H336.485V664.452ZM277.843 639.442L277.857 605.836L327.857 605.857L327.843 639.463L277.843 639.442ZM277.857 605.846V572.235H327.857V605.846H277.857ZM302.857 597.235H269.218V547.235H302.857V597.235ZM260.562 538.625V572.235H210.562V538.625H260.562ZM235.562 547.235H269.218V597.235H235.562V547.235ZM244.218 572.235V538.625H294.218V572.235H244.218ZM269.218 563.625H235.562V513.625H269.218V563.625ZM235.562 529.503H201.908V479.503H235.562V529.503ZM226.908 504.503V505.018H176.908V504.503H226.908ZM226.908 505.018V538.11H176.908V505.018H226.908ZM226.908 538.11V538.625H176.908V538.11H226.908ZM201.908 513.625H235.562V563.625H201.908V513.625ZM210.562 538.625V538.11H260.562V538.625H210.562ZM210.562 538.11V505.018H260.562V538.11H210.562ZM210.562 505.018V504.503H260.562V505.018H210.562ZM294.218 470.894V504.503H244.218V470.894H294.218ZM269.218 529.503H235.562V479.503H269.218V529.503ZM210.562 504.503V470.894H260.562V504.503H210.562ZM235.562 445.894H269.218V495.894H235.562V445.894ZM327.857 437.282V470.894H277.857V437.282H327.857ZM302.857 495.894H269.218V445.894H302.857V495.894ZM244.218 470.904L244.203 437.292L294.203 437.271L294.218 470.883L244.218 470.904ZM244.203 437.282V403.677H294.203V437.282H244.203ZM244.203 403.677V370.068H294.203V403.677H244.203ZM269.203 345.068H302.843V395.068H269.203V345.068ZM302.843 345.068H336.485V395.068H302.843V345.068ZM336.485 345.068H370.139V395.068H336.485V345.068ZM345.139 370.068V336.463H395.139V370.068H345.139ZM370.139 311.463H403.78V361.463H370.139V311.463ZM428.78 336.463V370.068H378.78V336.463H428.78ZM403.78 395.068H370.139V345.068H403.78V395.068ZM395.139 370.068V403.677H345.139V370.068H395.139ZM370.139 428.677H336.485V378.677H370.139V428.677ZM336.485 428.677H302.843V378.677H336.485V428.677ZM327.843 403.666L327.857 437.271L277.857 437.292L277.843 403.687L327.843 403.666Z" fill="url(#paint0_linear_1746_38403)" mask="url(#path-5-inside-3_1746_38403)"/>
<g opacity="0.6">
<g opacity="0.5">
<g filter="url(#filter2_i_1746_38403)">
<mask id="path-7-inside-4_1746_38403" fill="white">
<path fill-rule="evenodd" clip-rule="evenodd" d="M235.542 0H201.901V33.6051H235.542V0ZM269.183 67.2102V33.6051H235.542V67.2102H269.183ZM370.119 168.036V134.424V100.819V67.2102H336.464H302.837H269.183L269.197 100.819H302.837H336.464L336.478 134.424V168.036H370.119ZM403.759 201.645V168.036H370.119V201.645H403.759ZM403.773 235.768H437.414V235.253V202.16V201.645H403.759L403.773 202.16V235.253V235.768ZM370.119 269.377H403.759L403.773 235.768H370.119V269.377ZM269.183 370.202H302.837H336.464H370.119V336.594V302.988V269.377H336.478V302.988L336.464 336.594H302.837H269.197L269.183 370.202ZM235.542 403.808H269.183V370.202H235.542V403.808ZM235.542 403.808H201.901V437.412H235.542V403.808ZM168.232 403.808H201.874V370.202H168.232V403.808ZM67.3114 269.377L67.2971 302.988V336.594V370.202H100.937H134.578H168.232V336.594H134.578H100.937L100.951 302.988V269.377H67.3114ZM33.6557 235.768V269.377H67.3114V235.768H33.6557ZM33.6557 201.645H0.00167847V202.16V235.253V235.768H33.6557V235.253V202.16V201.645ZM67.3114 168.036V201.645H33.6557V168.036H67.3114ZM100.951 134.424V168.036H67.3114L67.2971 134.424V100.819V67.2102H100.937H134.578H168.232V33.6051H201.874V67.2102H168.232V100.819H134.578H100.937L100.951 134.424Z"/>
</mask>
<path d="M235.542 0V-1H236.542V0H235.542ZM201.901 0H200.901V-1H201.901V0ZM201.901 33.6051V34.6051H200.901V33.6051H201.901ZM269.183 33.6051V32.6051H270.183V33.6051H269.183ZM235.542 67.2102V68.2102H234.542V67.2102H235.542ZM370.119 67.2102V66.2102H371.119V67.2102H370.119ZM269.197 100.819V101.819H268.197L268.197 100.819L269.197 100.819ZM336.464 100.819V99.8188H337.464L337.464 100.818L336.464 100.819ZM336.478 134.424L337.478 134.423V134.424H336.478ZM336.478 168.036V169.036H335.478V168.036H336.478ZM403.759 168.036V167.036H404.759V168.036H403.759ZM370.119 201.645V202.645H369.119V201.645H370.119ZM437.414 235.768H438.414V236.768H437.414V235.768ZM437.414 201.645V200.645H438.414V201.645H437.414ZM403.773 202.16L404.773 202.133L404.773 202.146V202.16H403.773ZM403.759 269.377L404.759 269.378L404.759 270.377H403.759V269.377ZM370.119 235.768H369.119V234.768H370.119V235.768ZM370.119 370.202H371.119V371.202H370.119V370.202ZM336.478 269.377H335.478V268.377H336.478V269.377ZM336.478 302.988H337.478V302.989L336.478 302.988ZM336.464 336.594L337.464 336.595L337.464 337.594H336.464V336.594ZM269.197 336.594L268.197 336.594L268.197 335.594H269.197V336.594ZM269.183 403.808H270.183V404.808H269.183V403.808ZM235.542 370.202H234.542V369.202H235.542V370.202ZM201.901 403.808H200.901V402.808H201.901V403.808ZM201.901 437.412V438.412H200.901V437.412H201.901ZM235.542 437.412H236.542V438.412H235.542V437.412ZM168.232 403.808V404.808H167.232V403.808H168.232ZM201.874 403.808H202.874V404.808H201.874V403.808ZM201.874 370.202V369.202H202.874V370.202H201.874ZM67.2971 302.988H66.2971V302.988L67.2971 302.988ZM67.2971 370.202V371.202H66.2971V370.202H67.2971ZM168.232 336.594V335.594H169.232V336.594H168.232ZM100.937 336.594V337.594H99.9364L99.9369 336.594L100.937 336.594ZM100.951 302.988H101.951V302.989L100.951 302.988ZM100.951 269.377V268.377H101.951V269.377H100.951ZM33.6557 269.377V270.377H32.6557V269.377H33.6557ZM67.3114 235.768V234.768H68.3114V235.768H67.3114ZM0.00167847 201.645H-0.998322V200.645H0.00167847V201.645ZM0.00167847 235.768V236.768H-0.998322V235.768H0.00167847ZM67.3114 201.645H68.3114V202.645H67.3114V201.645ZM33.6557 168.036H32.6557V167.036H33.6557V168.036ZM100.951 134.424L101.951 134.423V134.424H100.951ZM100.951 168.036H101.951V169.036H100.951V168.036ZM67.2971 134.424L66.2971 134.424V134.424H67.2971ZM67.2971 67.2102H66.2971V66.2102H67.2971V67.2102ZM168.232 33.6051H167.232V32.6051H168.232V33.6051ZM201.874 33.6051V32.6051H202.874V33.6051H201.874ZM201.874 67.2102H202.874V68.2102H201.874V67.2102ZM168.232 100.819H169.232V101.819H168.232V100.819ZM100.937 100.819L99.9369 100.819L99.9364 99.8188H100.937V100.819ZM235.542 1H201.901V-1H235.542V1ZM202.901 0V33.6051H200.901V0H202.901ZM201.901 32.6051H235.542V34.6051H201.901V32.6051ZM234.542 33.6051V0H236.542V33.6051H234.542ZM268.183 67.2102V33.6051H270.183V67.2102H268.183ZM269.183 34.6051H235.542V32.6051H269.183V34.6051ZM236.542 33.6051V67.2102H234.542V33.6051H236.542ZM235.542 66.2102H269.183V68.2102H235.542V66.2102ZM369.119 168.036V134.424H371.119V168.036H369.119ZM369.119 134.424V100.819H371.119V134.424H369.119ZM369.119 100.819V67.2102H371.119V100.819H369.119ZM370.119 68.2102H336.464V66.2102H370.119V68.2102ZM336.464 68.2102H302.837V66.2102H336.464V68.2102ZM302.837 68.2102H269.183V66.2102H302.837V68.2102ZM270.183 67.2098L270.197 100.818L268.197 100.819L268.183 67.2106L270.183 67.2098ZM269.197 99.8188H302.837V101.819H269.197V99.8188ZM302.837 99.8188H336.464V101.819H302.837V99.8188ZM337.464 100.818L337.478 134.423L335.478 134.424L335.464 100.819L337.464 100.818ZM337.478 134.424V168.036H335.478V134.424H337.478ZM336.478 167.036H370.119V169.036H336.478V167.036ZM402.759 201.645V168.036H404.759V201.645H402.759ZM403.759 169.036H370.119V167.036H403.759V169.036ZM371.119 168.036V201.645H369.119V168.036H371.119ZM370.119 200.645H403.759V202.645H370.119V200.645ZM403.773 234.768H437.414V236.768H403.773V234.768ZM436.414 235.768V235.253H438.414V235.768H436.414ZM436.414 235.253V202.16H438.414V235.253H436.414ZM436.414 202.16V201.645H438.414V202.16H436.414ZM437.414 202.645H403.759V200.645H437.414V202.645ZM404.759 201.618L404.773 202.133L402.774 202.187L402.76 201.672L404.759 201.618ZM404.773 202.16V235.253H402.773V202.16H404.773ZM404.773 235.253V235.768H402.773V235.253H404.773ZM370.119 268.377H403.759V270.377H370.119V268.377ZM402.759 269.377L402.773 235.767L404.773 235.768L404.759 269.378L402.759 269.377ZM403.773 236.768H370.119V234.768H403.773V236.768ZM371.119 235.768V269.377H369.119V235.768H371.119ZM269.183 369.202H302.837V371.202H269.183V369.202ZM302.837 369.202H336.464V371.202H302.837V369.202ZM336.464 369.202H370.119V371.202H336.464V369.202ZM369.119 370.202V336.594H371.119V370.202H369.119ZM369.119 336.594V302.988H371.119V336.594H369.119ZM369.119 302.988V269.377H371.119V302.988H369.119ZM370.119 270.377H336.478V268.377H370.119V270.377ZM337.478 269.377V302.988H335.478V269.377H337.478ZM337.478 302.989L337.464 336.595L335.464 336.594L335.478 302.988L337.478 302.989ZM336.464 337.594H302.837V335.594H336.464V337.594ZM302.837 337.594H269.197V335.594H302.837V337.594ZM270.197 336.595L270.183 370.203L268.183 370.202L268.197 336.594L270.197 336.595ZM235.542 402.808H269.183V404.808H235.542V402.808ZM268.183 403.808V370.202H270.183V403.808H268.183ZM269.183 371.202H235.542V369.202H269.183V371.202ZM236.542 370.202V403.808H234.542V370.202H236.542ZM235.542 404.808H201.901V402.808H235.542V404.808ZM202.901 403.808V437.412H200.901V403.808H202.901ZM201.901 436.412H235.542V438.412H201.901V436.412ZM234.542 437.412V403.808H236.542V437.412H234.542ZM168.232 402.808H201.874V404.808H168.232V402.808ZM200.874 403.808V370.202H202.874V403.808H200.874ZM201.874 371.202H168.232V369.202H201.874V371.202ZM169.232 370.202V403.808H167.232V370.202H169.232ZM68.3114 269.378L68.2971 302.989L66.2971 302.988L66.3114 269.377L68.3114 269.378ZM68.2971 302.988V336.594H66.2971V302.988H68.2971ZM68.2971 336.594V370.202H66.2971V336.594H68.2971ZM67.2971 369.202H100.937V371.202H67.2971V369.202ZM100.937 369.202H134.578V371.202H100.937V369.202ZM134.578 369.202H168.232V371.202H134.578V369.202ZM167.232 370.202V336.594H169.232V370.202H167.232ZM168.232 337.594H134.578V335.594H168.232V337.594ZM134.578 337.594H100.937V335.594H134.578V337.594ZM99.9369 336.594L99.9511 302.988L101.951 302.989L101.937 336.595L99.9369 336.594ZM99.9511 302.988V269.377H101.951V302.988H99.9511ZM100.951 270.377H67.3114V268.377H100.951V270.377ZM34.6557 235.768V269.377H32.6557V235.768H34.6557ZM33.6557 268.377H67.3114V270.377H33.6557V268.377ZM66.3114 269.377V235.768H68.3114V269.377H66.3114ZM67.3114 236.768H33.6557V234.768H67.3114V236.768ZM33.6557 202.645H0.00167847V200.645H33.6557V202.645ZM1.00168 201.645V202.16H-0.998322V201.645H1.00168ZM1.00168 202.16V235.253H-0.998322V202.16H1.00168ZM1.00168 235.253V235.768H-0.998322V235.253H1.00168ZM0.00167847 234.768H33.6557V236.768H0.00167847V234.768ZM32.6557 235.768V235.253H34.6557V235.768H32.6557ZM32.6557 235.253V202.16H34.6557V235.253H32.6557ZM32.6557 202.16V201.645H34.6557V202.16H32.6557ZM68.3114 168.036V201.645H66.3114V168.036H68.3114ZM67.3114 202.645H33.6557V200.645H67.3114V202.645ZM32.6557 201.645V168.036H34.6557V201.645H32.6557ZM33.6557 167.036H67.3114V169.036H33.6557V167.036ZM101.951 134.424V168.036H99.9511V134.424H101.951ZM100.951 169.036H67.3114V167.036H100.951V169.036ZM66.3114 168.036L66.2971 134.424L68.2971 134.423L68.3114 168.036L66.3114 168.036ZM66.2971 134.424V100.819H68.2971V134.424H66.2971ZM66.2971 100.819V67.2102H68.2971V100.819H66.2971ZM67.2971 66.2102H100.937V68.2102H67.2971V66.2102ZM100.937 66.2102H134.578V68.2102H100.937V66.2102ZM134.578 66.2102H168.232V68.2102H134.578V66.2102ZM167.232 67.2102V33.6051H169.232V67.2102H167.232ZM168.232 32.6051H201.874V34.6051H168.232V32.6051ZM202.874 33.6051V67.2102H200.874V33.6051H202.874ZM201.874 68.2102H168.232V66.2102H201.874V68.2102ZM169.232 67.2102V100.819H167.232V67.2102H169.232ZM168.232 101.819H134.578V99.8188H168.232V101.819ZM134.578 101.819H100.937V99.8188H134.578V101.819ZM101.937 100.818L101.951 134.423L99.9511 134.424L99.9369 100.819L101.937 100.818Z" fill="white" mask="url(#path-7-inside-4_1746_38403)"/>
</g>
</g>
</g>
<defs>
<filter id="filter0_i_1746_38403" x="403.805" y="0" width="437.414" height="441.412" filterUnits="userSpaceOnUse" color-interpolation-filters="sRGB">
<feFlood flood-opacity="0" result="BackgroundImageFix"/>
<feBlend mode="normal" in="SourceGraphic" in2="BackgroundImageFix" result="shape"/>
<feColorMatrix in="SourceAlpha" type="matrix" values="0 0 0 0 0 0 0 0 0 0 0 0 0 0 0 0 0 0 127 0" result="hardAlpha"/>
<feOffset dy="4"/>
<feGaussianBlur stdDeviation="2"/>
<feComposite in2="hardAlpha" operator="arithmetic" k2="-1" k3="1"/>
<feColorMatrix type="matrix" values="0 0 0 0 0 0 0 0 0 0 0 0 0 0 0 0 0 0 0.25 0"/>
<feBlend mode="normal" in2="shape" result="effect1_innerShadow_1746_38403"/>
</filter>
<filter id="filter1_i_1746_38403" x="605.711" y="302.858" width="437.414" height="441.412" filterUnits="userSpaceOnUse" color-interpolation-filters="sRGB">
<feFlood flood-opacity="0" result="BackgroundImageFix"/>
<feBlend mode="normal" in="SourceGraphic" in2="BackgroundImageFix" result="shape"/>
<feColorMatrix in="SourceAlpha" type="matrix" values="0 0 0 0 0 0 0 0 0 0 0 0 0 0 0 0 0 0 127 0" result="hardAlpha"/>
<feOffset dy="4"/>
<feGaussianBlur stdDeviation="2"/>
<feComposite in2="hardAlpha" operator="arithmetic" k2="-1" k3="1"/>
<feColorMatrix type="matrix" values="0 0 0 0 0 0 0 0 0 0 0 0 0 0 0 0 0 0 0.25 0"/>
<feBlend mode="normal" in2="shape" result="effect1_innerShadow_1746_38403"/>
</filter>
<filter id="filter2_i_1746_38403" x="0" y="0" width="437.414" height="441.412" filterUnits="userSpaceOnUse" color-interpolation-filters="sRGB">
<feFlood flood-opacity="0" result="BackgroundImageFix"/>
<feBlend mode="normal" in="SourceGraphic" in2="BackgroundImageFix" result="shape"/>
<feColorMatrix in="SourceAlpha" type="matrix" values="0 0 0 0 0 0 0 0 0 0 0 0 0 0 0 0 0 0 127 0" result="hardAlpha"/>
<feOffset dy="4"/>
<feGaussianBlur stdDeviation="2"/>
<feComposite in2="hardAlpha" operator="arithmetic" k2="-1" k3="1"/>
<feColorMatrix type="matrix" values="0 0 0 0 0 0 0 0 0 0 0 0 0 0 0 0 0 0 0.25 0"/>
<feBlend mode="normal" in2="shape" result="effect1_innerShadow_1746_38403"/>
</filter>
<linearGradient id="paint0_linear_1746_38403" x1="639.32" y1="521.564" x2="201.908" y2="521.564" gradientUnits="userSpaceOnUse">
<stop stop-color="#36FFF3"/>
<stop offset="0.791667" stop-color="#18FFAC"/>
</linearGradient>
</defs>
</svg>
