<svg width="1044" height="741" viewBox="0 0 1044 741" fill="none" xmlns="http://www.w3.org/2000/svg">
<g opacity="0.6">
<g opacity="0.5">
<g filter="url(#filter0_i_481_2022)">
<mask id="path-1-inside-1_481_2022" fill="white">
<path fill-rule="evenodd" clip-rule="evenodd" d="M403.775 0H437.417V33.6051H403.775V0ZM370.135 67.2102V33.6051H403.775V67.2102H370.135ZM269.199 168.036V134.424V100.819V67.2102H302.853H336.48H370.135L370.121 100.819H336.48H302.853L302.839 134.424V168.036H269.199ZM235.558 201.645V168.036H269.199V201.645H235.558ZM235.544 235.768H201.903V235.253V202.16V201.645H235.558L235.544 202.16V235.253V235.768ZM269.199 269.377H235.558L235.544 235.768H269.199V269.377ZM370.135 370.202H336.48H302.853H269.199V336.594V302.988V269.377H302.839V302.988L302.853 336.594H336.48H370.121L370.135 370.202ZM403.775 403.808H370.135V370.202H403.775V403.808ZM403.775 403.808H437.417V437.412H403.775V403.808ZM471.085 403.808H437.444V370.202H471.085V403.808ZM572.006 269.377L572.02 302.988V336.594V370.202H538.381H504.739H471.085V336.594H504.739H538.381L538.366 302.988V269.377H572.006ZM605.662 235.768V269.377H572.006V235.768H605.662ZM605.662 201.645H639.316V202.16V235.253V235.768H605.662V235.253V202.16V201.645ZM572.006 168.036V201.645H605.662V168.036H572.006ZM538.366 134.424V168.036H572.006L572.02 134.424V100.819V67.2102H538.381H504.739H471.085V33.6051H437.444V67.2102H471.085V100.819H504.739H538.381L538.366 134.424Z"/>
</mask>
<path d="M403.775 0V-1H402.775V0H403.775ZM437.417 0H438.417V-1H437.417V0ZM437.417 33.6051V34.6051H438.417V33.6051H437.417ZM370.135 33.6051V32.6051H369.135V33.6051H370.135ZM403.775 67.2102V68.2102H404.775V67.2102H403.775ZM269.199 67.2102V66.2102H268.199V67.2102H269.199ZM370.121 100.819V101.819H371.12L371.121 100.819L370.121 100.819ZM302.853 100.819V99.8188H301.854L301.853 100.818L302.853 100.819ZM302.839 134.424L301.839 134.423V134.424H302.839ZM302.839 168.036V169.036H303.839V168.036H302.839ZM235.558 168.036V167.036H234.558V168.036H235.558ZM269.199 201.645V202.645H270.199V201.645H269.199ZM201.903 235.768H200.903V236.768H201.903V235.768ZM201.903 201.645V200.645H200.903V201.645H201.903ZM235.544 202.16L234.544 202.133L234.544 202.146V202.16H235.544ZM235.558 269.377L234.558 269.378L234.558 270.377H235.558V269.377ZM269.199 235.768H270.199V234.768H269.199V235.768ZM269.199 370.202H268.199V371.202H269.199V370.202ZM302.839 269.377H303.839V268.377H302.839V269.377ZM302.839 302.988H301.839V302.989L302.839 302.988ZM302.853 336.594L301.853 336.595L301.854 337.594H302.853V336.594ZM370.121 336.594L371.121 336.594L371.12 335.594H370.121V336.594ZM370.135 403.808H369.135V404.808H370.135V403.808ZM403.775 370.202H404.775V369.202H403.775V370.202ZM437.417 403.808H438.417V402.808H437.417V403.808ZM437.417 437.412V438.412H438.417V437.412H437.417ZM403.775 437.412H402.775V438.412H403.775V437.412ZM471.085 403.808V404.808H472.085V403.808H471.085ZM437.444 403.808H436.444V404.808H437.444V403.808ZM437.444 370.202V369.202H436.444V370.202H437.444ZM572.02 302.988H573.02V302.988L572.02 302.988ZM572.02 370.202V371.202H573.02V370.202H572.02ZM471.085 336.594V335.594H470.085V336.594H471.085ZM538.381 336.594V337.594H539.381L539.381 336.594L538.381 336.594ZM538.366 302.988H537.366V302.989L538.366 302.988ZM538.366 269.377V268.377H537.366V269.377H538.366ZM605.662 269.377V270.377H606.662V269.377H605.662ZM572.006 235.768V234.768H571.006V235.768H572.006ZM639.316 201.645H640.316V200.645H639.316V201.645ZM639.316 235.768V236.768H640.316V235.768H639.316ZM572.006 201.645H571.006V202.645H572.006V201.645ZM605.662 168.036H606.662V167.036H605.662V168.036ZM538.366 134.424L537.366 134.423V134.424H538.366ZM538.366 168.036H537.366V169.036H538.366V168.036ZM572.02 134.424L573.02 134.424V134.424H572.02ZM572.02 67.2102H573.02V66.2102H572.02V67.2102ZM471.085 33.6051H472.085V32.6051H471.085V33.6051ZM437.444 33.6051V32.6051H436.444V33.6051H437.444ZM437.444 67.2102H436.444V68.2102H437.444V67.2102ZM471.085 100.819H470.085V101.819H471.085V100.819ZM538.381 100.819L539.381 100.819L539.381 99.8188H538.381V100.819ZM403.775 1H437.417V-1H403.775V1ZM436.417 0V33.6051H438.417V0H436.417ZM437.417 32.6051H403.775V34.6051H437.417V32.6051ZM404.775 33.6051V0H402.775V33.6051H404.775ZM371.135 67.2102V33.6051H369.135V67.2102H371.135ZM370.135 34.6051H403.775V32.6051H370.135V34.6051ZM402.775 33.6051V67.2102H404.775V33.6051H402.775ZM403.775 66.2102H370.135V68.2102H403.775V66.2102ZM270.199 168.036V134.424H268.199V168.036H270.199ZM270.199 134.424V100.819H268.199V134.424H270.199ZM270.199 100.819V67.2102H268.199V100.819H270.199ZM269.199 68.2102H302.853V66.2102H269.199V68.2102ZM302.853 68.2102H336.48V66.2102H302.853V68.2102ZM336.48 68.2102H370.135V66.2102H336.48V68.2102ZM369.135 67.2098L369.121 100.818L371.121 100.819L371.135 67.2106L369.135 67.2098ZM370.121 99.8188H336.48V101.819H370.121V99.8188ZM336.48 99.8188H302.853V101.819H336.48V99.8188ZM301.853 100.818L301.839 134.423L303.839 134.424L303.853 100.819L301.853 100.818ZM301.839 134.424V168.036H303.839V134.424H301.839ZM302.839 167.036H269.199V169.036H302.839V167.036ZM236.558 201.645V168.036H234.558V201.645H236.558ZM235.558 169.036H269.199V167.036H235.558V169.036ZM268.199 168.036V201.645H270.199V168.036H268.199ZM269.199 200.645H235.558V202.645H269.199V200.645ZM235.544 234.768H201.903V236.768H235.544V234.768ZM202.903 235.768V235.253H200.903V235.768H202.903ZM202.903 235.253V202.16H200.903V235.253H202.903ZM202.903 202.16V201.645H200.903V202.16H202.903ZM201.903 202.645H235.558V200.645H201.903V202.645ZM234.558 201.618L234.544 202.133L236.544 202.187L236.558 201.672L234.558 201.618ZM234.544 202.16V235.253H236.544V202.16H234.544ZM234.544 235.253V235.768H236.544V235.253H234.544ZM269.199 268.377H235.558V270.377H269.199V268.377ZM236.558 269.377L236.544 235.767L234.544 235.768L234.558 269.378L236.558 269.377ZM235.544 236.768H269.199V234.768H235.544V236.768ZM268.199 235.768V269.377H270.199V235.768H268.199ZM370.135 369.202H336.48V371.202H370.135V369.202ZM336.48 369.202H302.853V371.202H336.48V369.202ZM302.853 369.202H269.199V371.202H302.853V369.202ZM270.199 370.202V336.594H268.199V370.202H270.199ZM270.199 336.594V302.988H268.199V336.594H270.199ZM270.199 302.988V269.377H268.199V302.988H270.199ZM269.199 270.377H302.839V268.377H269.199V270.377ZM301.839 269.377V302.988H303.839V269.377H301.839ZM301.839 302.989L301.853 336.595L303.853 336.594L303.839 302.988L301.839 302.989ZM302.853 337.594H336.48V335.594H302.853V337.594ZM336.48 337.594H370.121V335.594H336.48V337.594ZM369.121 336.595L369.135 370.203L371.135 370.202L371.121 336.594L369.121 336.595ZM403.775 402.808H370.135V404.808H403.775V402.808ZM371.135 403.808V370.202H369.135V403.808H371.135ZM370.135 371.202H403.775V369.202H370.135V371.202ZM402.775 370.202V403.808H404.775V370.202H402.775ZM403.775 404.808H437.417V402.808H403.775V404.808ZM436.417 403.808V437.412H438.417V403.808H436.417ZM437.417 436.412H403.775V438.412H437.417V436.412ZM404.775 437.412V403.808H402.775V437.412H404.775ZM471.085 402.808H437.444V404.808H471.085V402.808ZM438.444 403.808V370.202H436.444V403.808H438.444ZM437.444 371.202H471.085V369.202H437.444V371.202ZM470.085 370.202V403.808H472.085V370.202H470.085ZM571.006 269.378L571.02 302.989L573.02 302.988L573.006 269.377L571.006 269.378ZM571.02 302.988V336.594H573.02V302.988H571.02ZM571.02 336.594V370.202H573.02V336.594H571.02ZM572.02 369.202H538.381V371.202H572.02V369.202ZM538.381 369.202H504.739V371.202H538.381V369.202ZM504.739 369.202H471.085V371.202H504.739V369.202ZM472.085 370.202V336.594H470.085V370.202H472.085ZM471.085 337.594H504.739V335.594H471.085V337.594ZM504.739 337.594H538.381V335.594H504.739V337.594ZM539.381 336.594L539.366 302.988L537.366 302.989L537.381 336.595L539.381 336.594ZM539.366 302.988V269.377H537.366V302.988H539.366ZM538.366 270.377H572.006V268.377H538.366V270.377ZM604.662 235.768V269.377H606.662V235.768H604.662ZM605.662 268.377H572.006V270.377H605.662V268.377ZM573.006 269.377V235.768H571.006V269.377H573.006ZM572.006 236.768H605.662V234.768H572.006V236.768ZM605.662 202.645H639.316V200.645H605.662V202.645ZM638.316 201.645V202.16H640.316V201.645H638.316ZM638.316 202.16V235.253H640.316V202.16H638.316ZM638.316 235.253V235.768H640.316V235.253H638.316ZM639.316 234.768H605.662V236.768H639.316V234.768ZM606.662 235.768V235.253H604.662V235.768H606.662ZM606.662 235.253V202.16H604.662V235.253H606.662ZM606.662 202.16V201.645H604.662V202.16H606.662ZM571.006 168.036V201.645H573.006V168.036H571.006ZM572.006 202.645H605.662V200.645H572.006V202.645ZM606.662 201.645V168.036H604.662V201.645H606.662ZM605.662 167.036H572.006V169.036H605.662V167.036ZM537.366 134.424V168.036H539.366V134.424H537.366ZM538.366 169.036H572.006V167.036H538.366V169.036ZM573.006 168.036L573.02 134.424L571.02 134.423L571.006 168.036L573.006 168.036ZM573.02 134.424V100.819H571.02V134.424H573.02ZM573.02 100.819V67.2102H571.02V100.819H573.02ZM572.02 66.2102H538.381V68.2102H572.02V66.2102ZM538.381 66.2102H504.739V68.2102H538.381V66.2102ZM504.739 66.2102H471.085V68.2102H504.739V66.2102ZM472.085 67.2102V33.6051H470.085V67.2102H472.085ZM471.085 32.6051H437.444V34.6051H471.085V32.6051ZM436.444 33.6051V67.2102H438.444V33.6051H436.444ZM437.444 68.2102H471.085V66.2102H437.444V68.2102ZM470.085 67.2102V100.819H472.085V67.2102H470.085ZM471.085 101.819H504.739V99.8188H471.085V101.819ZM504.739 101.819H538.381V99.8188H504.739V101.819ZM537.381 100.818L537.366 134.423L539.366 134.424L539.381 100.819L537.381 100.818Z" fill="white" mask="url(#path-1-inside-1_481_2022)"/>
</g>
</g>
</g>
<g opacity="0.6">
<g opacity="0.5">
<g filter="url(#filter1_i_481_2022)">
<mask id="path-3-inside-2_481_2022" fill="white">
<path fill-rule="evenodd" clip-rule="evenodd" d="M201.872 302.857H235.514V336.463H201.872V302.857ZM168.231 370.068V336.463H201.872V370.068H168.231ZM67.2953 470.893V437.281V403.676V370.068H100.95H134.577H168.231L168.217 403.676H134.577H100.95L100.936 437.281V470.893H67.2953ZM33.6547 504.502V470.893H67.2953V504.502H33.6547ZM33.6408 538.625H0V538.11V505.017V504.502H33.6547L33.6408 505.017V538.11V538.625ZM67.2953 572.235H33.6547L33.6408 538.625H67.2953V572.235ZM168.231 673.06H134.577H100.95H67.2953V639.452V605.846V572.235H100.936V605.846L100.95 639.452H134.577H168.217L168.231 673.06ZM201.872 706.666H168.231V673.06H201.872V706.666ZM201.872 706.666H235.514V740.27H201.872V706.666ZM269.182 706.666H235.54V673.06H269.182V706.666ZM370.103 572.235L370.117 605.846V639.452V673.06H336.477H302.836H269.182V639.452H302.836H336.477L336.463 605.846V572.235H370.103ZM403.758 538.625V572.235H370.103V538.625H403.758ZM403.758 504.502H437.412V505.017V538.11V538.625H403.758V538.11V505.017V504.502ZM370.103 470.893V504.502H403.758V470.893H370.103ZM336.463 437.281V470.893H370.103L370.117 437.281V403.676V370.068H336.477H302.836H269.182V336.463H235.54V370.068H269.182V403.676H302.836H336.477L336.463 437.281Z"/>
</mask>
<path d="M201.872 302.857V301.857H200.872V302.857H201.872ZM235.514 302.857H236.514V301.857H235.514V302.857ZM235.514 336.463V337.463H236.514V336.463H235.514ZM168.231 336.463V335.463H167.231V336.463H168.231ZM201.872 370.068V371.068H202.872V370.068H201.872ZM67.2953 370.068V369.068H66.2953V370.068H67.2953ZM168.217 403.676V404.676H169.217L169.217 403.677L168.217 403.676ZM100.95 403.676V402.676H99.9504L99.95 403.676L100.95 403.676ZM100.936 437.281L99.936 437.281V437.281H100.936ZM100.936 470.893V471.893H101.936V470.893H100.936ZM33.6547 470.893V469.893H32.6547V470.893H33.6547ZM67.2953 504.502V505.502H68.2953V504.502H67.2953ZM0 538.625H-1V539.625H0V538.625ZM0 504.502V503.502H-1V504.502H0ZM33.6408 505.017L32.6411 504.99L32.6408 505.004V505.017H33.6408ZM33.6547 572.235L32.6547 572.235L32.6551 573.235H33.6547V572.235ZM67.2953 538.625H68.2953V537.625H67.2953V538.625ZM67.2953 673.06H66.2953V674.06H67.2953V673.06ZM100.936 572.235H101.936V571.235H100.936V572.235ZM100.936 605.846H99.936V605.846L100.936 605.846ZM100.95 639.452L99.95 639.452L99.9504 640.452H100.95V639.452ZM168.217 639.452L169.217 639.451L169.217 638.452H168.217V639.452ZM168.231 706.666H167.231V707.666H168.231V706.666ZM201.872 673.06H202.872V672.06H201.872V673.06ZM235.514 706.666H236.514V705.666H235.514V706.666ZM235.514 740.27V741.27H236.514V740.27H235.514ZM201.872 740.27H200.872V741.27H201.872V740.27ZM269.182 706.666V707.666H270.182V706.666H269.182ZM235.54 706.666H234.54V707.666H235.54V706.666ZM235.54 673.06V672.06H234.54V673.06H235.54ZM370.117 605.846H371.117V605.845L370.117 605.846ZM370.117 673.06V674.06H371.117V673.06H370.117ZM269.182 639.452V638.452H268.182V639.452H269.182ZM336.477 639.452V640.452H337.478L337.477 639.451L336.477 639.452ZM336.463 605.846H335.463V605.846L336.463 605.846ZM336.463 572.235V571.235H335.463V572.235H336.463ZM403.758 572.235V573.235H404.758V572.235H403.758ZM370.103 538.625V537.625H369.103V538.625H370.103ZM437.412 504.502H438.412V503.502H437.412V504.502ZM437.412 538.625V539.625H438.412V538.625H437.412ZM370.103 504.502H369.103V505.502H370.103V504.502ZM403.758 470.893H404.758V469.893H403.758V470.893ZM336.463 437.281L335.463 437.281V437.281H336.463ZM336.463 470.893H335.463V471.893H336.463V470.893ZM370.117 437.281L371.117 437.282V437.281H370.117ZM370.117 370.068H371.117V369.068H370.117V370.068ZM269.182 336.463H270.182V335.463H269.182V336.463ZM235.54 336.463V335.463H234.54V336.463H235.54ZM235.54 370.068H234.54V371.068H235.54V370.068ZM269.182 403.676H268.182V404.676H269.182V403.676ZM336.477 403.676L337.477 403.677L337.478 402.676H336.477V403.676ZM201.872 303.857H235.514V301.857H201.872V303.857ZM234.514 302.857V336.463H236.514V302.857H234.514ZM235.514 335.463H201.872V337.463H235.514V335.463ZM202.872 336.463V302.857H200.872V336.463H202.872ZM169.231 370.068V336.463H167.231V370.068H169.231ZM168.231 337.463H201.872V335.463H168.231V337.463ZM200.872 336.463V370.068H202.872V336.463H200.872ZM201.872 369.068H168.231V371.068H201.872V369.068ZM68.2953 470.893V437.281H66.2953V470.893H68.2953ZM68.2953 437.281V403.676H66.2953V437.281H68.2953ZM68.2953 403.676V370.068H66.2953V403.676H68.2953ZM67.2953 371.068H100.95V369.068H67.2953V371.068ZM100.95 371.068H134.577V369.068H100.95V371.068ZM134.577 371.068H168.231V369.068H134.577V371.068ZM167.231 370.067L167.217 403.676L169.217 403.677L169.231 370.068L167.231 370.067ZM168.217 402.676H134.577V404.676H168.217V402.676ZM134.577 402.676H100.95V404.676H134.577V402.676ZM99.95 403.676L99.936 437.281L101.936 437.282L101.95 403.677L99.95 403.676ZM99.936 437.281V470.893H101.936V437.281H99.936ZM100.936 469.893H67.2953V471.893H100.936V469.893ZM34.6547 504.502V470.893H32.6547V504.502H34.6547ZM33.6547 471.893H67.2953V469.893H33.6547V471.893ZM66.2953 470.893V504.502H68.2953V470.893H66.2953ZM67.2953 503.502H33.6547V505.502H67.2953V503.502ZM33.6408 537.625H0V539.625H33.6408V537.625ZM1 538.625V538.11H-1V538.625H1ZM1 538.11V505.017H-1V538.11H1ZM1 505.017V504.502H-1V505.017H1ZM0 505.502H33.6547V503.502H0V505.502ZM32.655 504.475L32.6411 504.99L34.6404 505.044L34.6543 504.529L32.655 504.475ZM32.6408 505.017V538.11H34.6408V505.017H32.6408ZM32.6408 538.11V538.625H34.6408V538.11H32.6408ZM67.2953 571.235H33.6547V573.235H67.2953V571.235ZM34.6547 572.234L34.6408 538.625L32.6408 538.625L32.6547 572.235L34.6547 572.234ZM33.6408 539.625H67.2953V537.625H33.6408V539.625ZM66.2953 538.625V572.235H68.2953V538.625H66.2953ZM168.231 672.06H134.577V674.06H168.231V672.06ZM134.577 672.06H100.95V674.06H134.577V672.06ZM100.95 672.06H67.2953V674.06H100.95V672.06ZM68.2953 673.06V639.452H66.2953V673.06H68.2953ZM68.2953 639.452V605.846H66.2953V639.452H68.2953ZM68.2953 605.846V572.235H66.2953V605.846H68.2953ZM67.2953 573.235H100.936V571.235H67.2953V573.235ZM99.936 572.235V605.846H101.936V572.235H99.936ZM99.936 605.846L99.95 639.452L101.95 639.451L101.936 605.845L99.936 605.846ZM100.95 640.452H134.577V638.452H100.95V640.452ZM134.577 640.452H168.217V638.452H134.577V640.452ZM167.217 639.452L167.231 673.06L169.231 673.059L169.217 639.451L167.217 639.452ZM201.872 705.666H168.231V707.666H201.872V705.666ZM169.231 706.666V673.06H167.231V706.666H169.231ZM168.231 674.06H201.872V672.06H168.231V674.06ZM200.872 673.06V706.666H202.872V673.06H200.872ZM201.872 707.666H235.514V705.666H201.872V707.666ZM234.514 706.666V740.27H236.514V706.666H234.514ZM235.514 739.27H201.872V741.27H235.514V739.27ZM202.872 740.27V706.666H200.872V740.27H202.872ZM269.182 705.666H235.54V707.666H269.182V705.666ZM236.54 706.666V673.06H234.54V706.666H236.54ZM235.54 674.06H269.182V672.06H235.54V674.06ZM268.182 673.06V706.666H270.182V673.06H268.182ZM369.103 572.235L369.117 605.846L371.117 605.845L371.103 572.234L369.103 572.235ZM369.117 605.846V639.452H371.117V605.846H369.117ZM369.117 639.452V673.06H371.117V639.452H369.117ZM370.117 672.06H336.477V674.06H370.117V672.06ZM336.477 672.06H302.836V674.06H336.477V672.06ZM302.836 672.06H269.182V674.06H302.836V672.06ZM270.182 673.06V639.452H268.182V673.06H270.182ZM269.182 640.452H302.836V638.452H269.182V640.452ZM302.836 640.452H336.477V638.452H302.836V640.452ZM337.477 639.451L337.463 605.845L335.463 605.846L335.477 639.452L337.477 639.451ZM337.463 605.846V572.235H335.463V605.846H337.463ZM336.463 573.235H370.103V571.235H336.463V573.235ZM402.758 538.625V572.235H404.758V538.625H402.758ZM403.758 571.235H370.103V573.235H403.758V571.235ZM371.103 572.235V538.625H369.103V572.235H371.103ZM370.103 539.625H403.758V537.625H370.103V539.625ZM403.758 505.502H437.412V503.502H403.758V505.502ZM436.412 504.502V505.017H438.412V504.502H436.412ZM436.412 505.017V538.11H438.412V505.017H436.412ZM436.412 538.11V538.625H438.412V538.11H436.412ZM437.412 537.625H403.758V539.625H437.412V537.625ZM404.758 538.625V538.11H402.758V538.625H404.758ZM404.758 538.11V505.017H402.758V538.11H404.758ZM404.758 505.017V504.502H402.758V505.017H404.758ZM369.103 470.893V504.502H371.103V470.893H369.103ZM370.103 505.502H403.758V503.502H370.103V505.502ZM404.758 504.502V470.893H402.758V504.502H404.758ZM403.758 469.893H370.103V471.893H403.758V469.893ZM335.463 437.281V470.893H337.463V437.281H335.463ZM336.463 471.893H370.103V469.893H336.463V471.893ZM371.103 470.894L371.117 437.282L369.117 437.281L369.103 470.893L371.103 470.894ZM371.117 437.281V403.676H369.117V437.281H371.117ZM371.117 403.676V370.068H369.117V403.676H371.117ZM370.117 369.068H336.477V371.068H370.117V369.068ZM336.477 369.068H302.836V371.068H336.477V369.068ZM302.836 369.068H269.182V371.068H302.836V369.068ZM270.182 370.068V336.463H268.182V370.068H270.182ZM269.182 335.463H235.54V337.463H269.182V335.463ZM234.54 336.463V370.068H236.54V336.463H234.54ZM235.54 371.068H269.182V369.068H235.54V371.068ZM268.182 370.068V403.676H270.182V370.068H268.182ZM269.182 404.676H302.836V402.676H269.182V404.676ZM302.836 404.676H336.477V402.676H302.836V404.676ZM335.477 403.676L335.463 437.281L337.463 437.282L337.477 403.677L335.477 403.676Z" fill="white" mask="url(#path-3-inside-2_481_2022)"/>
</g>
</g>
</g>
<path fill-rule="evenodd" clip-rule="evenodd" d="M471.102 470.893V437.281V403.676V370.068H504.757H572.038V336.463H605.679V302.857H639.32V336.463H672.988V370.068H773.924L773.909 470.893H807.565V504.502L841.219 505.017V538.625H807.565V572.235H773.909L773.924 673.06H672.988V706.666H639.347L639.32 740.27H605.679V706.666H572.038V673.06H471.102V572.235H437.461L437.447 538.625L403.807 538.11V505.017H437.447L437.461 470.893H471.102ZM437.447 538.625H403.807V538.11V505.017V504.502L437.447 505.017H403.807V538.11L437.447 538.625ZM773.924 673.06H740.284H706.642H773.924ZM807.565 504.502H841.219V505.017V538.11V538.625V504.502L807.565 505.017V504.502ZM773.924 370.068H740.284H706.642H773.924Z" fill="#010304"/>
<mask id="path-6-inside-3_481_2022" fill="white">
<path fill-rule="evenodd" clip-rule="evenodd" d="M605.679 302.857H639.32V336.463H605.679V302.857ZM572.038 370.068V336.463H605.679V370.068H572.038ZM471.102 470.893V437.281V403.676V370.068H504.757H538.383H572.038L572.024 403.676H538.383H504.757L504.743 437.281V470.893H471.102ZM437.461 504.502V470.893H471.102V504.502H437.461ZM437.447 538.625H403.807V538.11V505.017V504.502H437.461L437.447 505.017V538.11V538.625ZM471.102 572.235H437.461L437.447 538.625H471.102V572.235ZM572.038 673.06H538.383H504.757H471.102V639.452V605.846V572.235H504.743V605.846L504.757 639.452H538.383H572.024L572.038 673.06ZM605.679 706.666H572.038V673.06H605.679V706.666ZM605.679 706.666H639.32V740.27H605.679V706.666ZM672.988 706.666H639.347V673.06H672.988V706.666ZM773.909 572.235L773.924 605.846V639.452V673.06H740.284H706.642H672.988V639.452H706.642H740.284L740.27 605.846V572.235H773.909ZM807.565 538.625V572.235H773.909V538.625H807.565ZM807.565 504.502H841.219V505.017V538.11V538.625H807.565V538.11V505.017V504.502ZM773.909 470.893V504.502H807.565V470.893H773.909ZM740.27 437.281V470.893H773.909L773.924 437.281V403.676V370.068H740.284H706.642H672.988V336.463H639.347V370.068H672.988V403.676H706.642H740.284L740.27 437.281Z"/>
</mask>
<path fill-rule="evenodd" clip-rule="evenodd" d="M605.679 302.857H639.32V336.463H605.679V302.857ZM572.038 370.068V336.463H605.679V370.068H572.038ZM471.102 470.893V437.281V403.676V370.068H504.757H538.383H572.038L572.024 403.676H538.383H504.757L504.743 437.281V470.893H471.102ZM437.461 504.502V470.893H471.102V504.502H437.461ZM437.447 538.625H403.807V538.11V505.017V504.502H437.461L437.447 505.017V538.11V538.625ZM471.102 572.235H437.461L437.447 538.625H471.102V572.235ZM572.038 673.06H538.383H504.757H471.102V639.452V605.846V572.235H504.743V605.846L504.757 639.452H538.383H572.024L572.038 673.06ZM605.679 706.666H572.038V673.06H605.679V706.666ZM605.679 706.666H639.32V740.27H605.679V706.666ZM672.988 706.666H639.347V673.06H672.988V706.666ZM773.909 572.235L773.924 605.846V639.452V673.06H740.284H706.642H672.988V639.452H706.642H740.284L740.27 605.846V572.235H773.909ZM807.565 538.625V572.235H773.909V538.625H807.565ZM807.565 504.502H841.219V505.017V538.11V538.625H807.565V538.11V505.017V504.502ZM773.909 470.893V504.502H807.565V470.893H773.909ZM740.27 437.281V470.893H773.909L773.924 437.281V403.676V370.068H740.284H706.642H672.988V336.463H639.347V370.068H672.988V403.676H706.642H740.284L740.27 437.281Z" fill="#010304"/>
<path d="M605.679 302.857V277.857H580.679V302.857H605.679ZM639.32 302.857H664.32V277.857H639.32V302.857ZM639.32 336.463V361.463H664.32V336.463H639.32ZM572.038 336.463V311.463H547.038V336.463H572.038ZM605.679 370.068V395.068H630.679V370.068H605.679ZM471.102 370.068V345.068H446.102V370.068H471.102ZM572.024 403.676V428.676H597.014L597.024 403.687L572.024 403.676ZM504.757 403.676V378.676H479.767L479.757 403.666L504.757 403.676ZM504.743 437.281L479.743 437.271V437.281H504.743ZM504.743 470.893V495.893H529.743V470.893H504.743ZM437.461 470.893V445.893H412.461V470.893H437.461ZM471.102 504.502V529.502H496.102V504.502H471.102ZM403.807 538.625H378.807V563.625H403.807V538.625ZM403.807 504.502V479.502H378.807V504.502H403.807ZM437.447 505.017L412.457 504.342L412.447 504.68V505.017H437.447ZM437.461 572.235L412.461 572.245L412.472 597.235H437.461V572.235ZM471.102 538.625H496.102V513.625H471.102V538.625ZM471.102 673.06H446.102V698.06H471.102V673.06ZM504.743 572.235H529.743V547.235H504.743V572.235ZM504.743 605.846H479.743L479.743 605.856L504.743 605.846ZM504.757 639.452L479.757 639.462L479.767 664.452H504.757V639.452ZM572.024 639.452L597.024 639.442L597.014 614.452H572.024V639.452ZM572.038 706.666H547.038V731.666H572.038V706.666ZM605.679 673.06H630.679V648.06H605.679V673.06ZM639.32 706.666H664.32V681.666H639.32V706.666ZM639.32 740.27V765.27H664.32V740.27H639.32ZM605.679 740.27H580.679V765.27H605.679V740.27ZM672.988 706.666V731.666H697.988V706.666H672.988ZM639.347 706.666H614.347V731.666H639.347V706.666ZM639.347 673.06V648.06H614.347V673.06H639.347ZM773.924 605.846H798.924V605.835L773.924 605.846ZM773.924 673.06V698.06H798.924V673.06H773.924ZM672.988 639.452V614.452H647.988V639.452H672.988ZM740.284 639.452V664.452H765.294L765.284 639.441L740.284 639.452ZM740.27 605.846H715.27V605.857L740.27 605.846ZM740.27 572.235V547.235H715.27V572.235H740.27ZM807.565 572.235V597.235H832.565V572.235H807.565ZM773.909 538.625V513.625H748.909V538.625H773.909ZM841.219 504.502H866.219V479.502H841.219V504.502ZM841.219 538.625V563.625H866.219V538.625H841.219ZM773.909 504.502H748.909V529.502H773.909V504.502ZM807.565 470.893H832.565V445.893H807.565V470.893ZM740.27 437.281L715.27 437.271V437.281H740.27ZM740.27 470.893H715.27V495.893H740.27V470.893ZM773.924 437.281L798.924 437.292V437.281H773.924ZM773.924 370.068H798.924V345.068H773.924V370.068ZM672.988 336.463H697.988V311.463H672.988V336.463ZM639.347 336.463V311.463H614.347V336.463H639.347ZM639.347 370.068H614.347V395.068H639.347V370.068ZM672.988 403.676H647.988V428.676H672.988V403.676ZM740.284 403.676L765.284 403.687L765.294 378.676H740.284V403.676ZM605.679 327.857H639.32V277.857H605.679V327.857ZM614.32 302.857V336.463H664.32V302.857H614.32ZM639.32 311.463H605.679V361.463H639.32V311.463ZM630.679 336.463V302.857H580.679V336.463H630.679ZM597.038 370.068V336.463H547.038V370.068H597.038ZM572.038 361.463H605.679V311.463H572.038V361.463ZM580.679 336.463V370.068H630.679V336.463H580.679ZM605.679 345.068H572.038V395.068H605.679V345.068ZM496.102 470.893V437.281H446.102V470.893H496.102ZM496.102 437.281V403.676H446.102V437.281H496.102ZM496.102 403.676V370.068H446.102V403.676H496.102ZM471.102 395.068H504.757V345.068H471.102V395.068ZM504.757 395.068H538.383V345.068H504.757V395.068ZM538.383 395.068H572.038V345.068H538.383V395.068ZM547.038 370.057L547.024 403.666L597.024 403.687L597.038 370.078L547.038 370.057ZM572.024 378.676H538.383V428.676H572.024V378.676ZM538.383 378.676H504.757V428.676H538.383V378.676ZM479.757 403.666L479.743 437.271L529.743 437.292L529.757 403.687L479.757 403.666ZM479.743 437.281V470.893H529.743V437.281H479.743ZM504.743 445.893H471.102V495.893H504.743V445.893ZM462.461 504.502V470.893H412.461V504.502H462.461ZM437.461 495.893H471.102V445.893H437.461V495.893ZM446.102 470.893V504.502H496.102V470.893H446.102ZM471.102 479.502H437.461V529.502H471.102V479.502ZM437.447 513.625H403.807V563.625H437.447V513.625ZM428.807 538.625V538.11H378.807V538.625H428.807ZM428.807 538.11V505.017H378.807V538.11H428.807ZM428.807 505.017V504.502H378.807V505.017H428.807ZM403.807 529.502H437.461V479.502H403.807V529.502ZM412.47 503.827L412.457 504.342L462.438 505.693L462.452 505.177L412.47 503.827ZM412.447 505.017V538.11H462.447V505.017H412.447ZM412.447 538.11V538.625H462.447V538.11H412.447ZM471.102 547.235H437.461V597.235H471.102V547.235ZM462.461 572.224L462.447 538.615L412.447 538.635L412.461 572.245L462.461 572.224ZM437.447 563.625H471.102V513.625H437.447V563.625ZM446.102 538.625V572.235H496.102V538.625H446.102ZM572.038 648.06H538.383V698.06H572.038V648.06ZM538.383 648.06H504.757V698.06H538.383V648.06ZM504.757 648.06H471.102V698.06H504.757V648.06ZM496.102 673.06V639.452H446.102V673.06H496.102ZM496.102 639.452V605.846H446.102V639.452H496.102ZM496.102 605.846V572.235H446.102V605.846H496.102ZM471.102 597.235H504.743V547.235H471.102V597.235ZM479.743 572.235V605.846H529.743V572.235H479.743ZM479.743 605.856L479.757 639.462L529.757 639.442L529.743 605.836L479.743 605.856ZM504.757 664.452H538.383V614.452H504.757V664.452ZM538.383 664.452H572.024V614.452H538.383V664.452ZM547.024 639.462L547.038 673.07L597.038 673.049L597.024 639.442L547.024 639.462ZM605.679 681.666H572.038V731.666H605.679V681.666ZM597.038 706.666V673.06H547.038V706.666H597.038ZM572.038 698.06H605.679V648.06H572.038V698.06ZM580.679 673.06V706.666H630.679V673.06H580.679ZM605.679 731.666H639.32V681.666H605.679V731.666ZM614.32 706.666V740.27H664.32V706.666H614.32ZM639.32 715.27H605.679V765.27H639.32V715.27ZM630.679 740.27V706.666H580.679V740.27H630.679ZM672.988 681.666H639.347V731.666H672.988V681.666ZM664.347 706.666V673.06H614.347V706.666H664.347ZM639.347 698.06H672.988V648.06H639.347V698.06ZM647.988 673.06V706.666H697.988V673.06H647.988ZM748.909 572.245L748.924 605.857L798.924 605.835L798.909 572.224L748.909 572.245ZM748.924 605.846V639.452H798.924V605.846H748.924ZM748.924 639.452V673.06H798.924V639.452H748.924ZM773.924 648.06H740.284V698.06H773.924V648.06ZM740.284 648.06H706.642V698.06H740.284V648.06ZM706.642 648.06H672.988V698.06H706.642V648.06ZM697.988 673.06V639.452H647.988V673.06H697.988ZM672.988 664.452H706.642V614.452H672.988V664.452ZM706.642 664.452H740.284V614.452H706.642V664.452ZM765.284 639.441L765.27 605.835L715.27 605.857L715.284 639.462L765.284 639.441ZM765.27 605.846V572.235H715.27V605.846H765.27ZM740.27 597.235H773.909V547.235H740.27V597.235ZM782.565 538.625V572.235H832.565V538.625H782.565ZM807.565 547.235H773.909V597.235H807.565V547.235ZM798.909 572.235V538.625H748.909V572.235H798.909ZM773.909 563.625H807.565V513.625H773.909V563.625ZM807.565 529.502H841.219V479.502H807.565V529.502ZM816.219 504.502V505.017H866.219V504.502H816.219ZM816.219 505.017V538.11H866.219V505.017H816.219ZM816.219 538.11V538.625H866.219V538.11H816.219ZM841.219 513.625H807.565V563.625H841.219V513.625ZM832.565 538.625V538.11H782.565V538.625H832.565ZM832.565 538.11V505.017H782.565V538.11H832.565ZM832.565 505.017V504.502H782.565V505.017H832.565ZM748.909 470.893V504.502H798.909V470.893H748.909ZM773.909 529.502H807.565V479.502H773.909V529.502ZM832.565 504.502V470.893H782.565V504.502H832.565ZM807.565 445.893H773.909V495.893H807.565V445.893ZM715.27 437.281V470.893H765.27V437.281H715.27ZM740.27 495.893H773.909V445.893H740.27V495.893ZM798.909 470.904L798.924 437.292L748.924 437.271L748.909 470.883L798.909 470.904ZM798.924 437.281V403.676H748.924V437.281H798.924ZM798.924 403.676V370.068H748.924V403.676H798.924ZM773.924 345.068H740.284V395.068H773.924V345.068ZM740.284 345.068H706.642V395.068H740.284V345.068ZM706.642 345.068H672.988V395.068H706.642V345.068ZM697.988 370.068V336.463H647.988V370.068H697.988ZM672.988 311.463H639.347V361.463H672.988V311.463ZM614.347 336.463V370.068H664.347V336.463H614.347ZM639.347 395.068H672.988V345.068H639.347V395.068ZM647.988 370.068V403.676H697.988V370.068H647.988ZM672.988 428.676H706.642V378.676H672.988V428.676ZM706.642 428.676H740.284V378.676H706.642V428.676ZM715.284 403.666L715.27 437.271L765.27 437.292L765.284 403.687L715.284 403.666Z" fill="url(#paint0_linear_481_2022)" mask="url(#path-6-inside-3_481_2022)"/>
<g opacity="0.6">
<g opacity="0.5">
<g filter="url(#filter2_i_481_2022)">
<mask id="path-8-inside-4_481_2022" fill="white">
<path fill-rule="evenodd" clip-rule="evenodd" d="M807.582 0H841.224V33.6051H807.582V0ZM773.941 67.2102V33.6051H807.582V67.2102H773.941ZM673.005 168.036V134.424V100.819V67.2102H706.66H740.287H773.941L773.927 100.819H740.287H706.66L706.646 134.424V168.036H673.005ZM639.365 201.645V168.036H673.005V201.645H639.365ZM639.351 235.768H605.71V235.253V202.16V201.645H639.365L639.351 202.16V235.253V235.768ZM673.005 269.377H639.365L639.351 235.768H673.005V269.377ZM773.941 370.202H740.287H706.66H673.005V336.594V302.988V269.377H706.646V302.988L706.66 336.594H740.287H773.927L773.941 370.202ZM807.582 403.808H773.941V370.202H807.582V403.808ZM807.582 403.808H841.224V437.412H807.582V403.808ZM874.892 403.808H841.25V370.202H874.892V403.808ZM975.813 269.377L975.827 302.988V336.594V370.202H942.187H908.546H874.892V336.594H908.546H942.187L942.173 302.988V269.377H975.813ZM1009.47 235.768V269.377H975.813V235.768H1009.47ZM1009.47 201.645H1043.12V202.16V235.253V235.768H1009.47V235.253V202.16V201.645ZM975.813 168.036V201.645H1009.47V168.036H975.813ZM942.173 134.424V168.036H975.813L975.827 134.424V100.819V67.2102H942.187H908.546H874.892V33.6051H841.25V67.2102H874.892V100.819H908.546H942.187L942.173 134.424Z"/>
</mask>
<path d="M807.582 0V-1H806.582V0H807.582ZM841.224 0H842.224V-1H841.224V0ZM841.224 33.6051V34.6051H842.224V33.6051H841.224ZM773.941 33.6051V32.6051H772.941V33.6051H773.941ZM807.582 67.2102V68.2102H808.582V67.2102H807.582ZM673.005 67.2102V66.2102H672.005V67.2102H673.005ZM773.927 100.819V101.819H774.927L774.927 100.819L773.927 100.819ZM706.66 100.819V99.8188H705.66L705.66 100.818L706.66 100.819ZM706.646 134.424L705.646 134.423V134.424H706.646ZM706.646 168.036V169.036H707.646V168.036H706.646ZM639.365 168.036V167.036H638.365V168.036H639.365ZM673.005 201.645V202.645H674.005V201.645H673.005ZM605.71 235.768H604.71V236.768H605.71V235.768ZM605.71 201.645V200.645H604.71V201.645H605.71ZM639.351 202.16L638.351 202.133L638.351 202.146V202.16H639.351ZM639.365 269.377L638.365 269.378L638.365 270.377H639.365V269.377ZM673.005 235.768H674.005V234.768H673.005V235.768ZM673.005 370.202H672.005V371.202H673.005V370.202ZM706.646 269.377H707.646V268.377H706.646V269.377ZM706.646 302.988H705.646V302.989L706.646 302.988ZM706.66 336.594L705.66 336.595L705.66 337.594H706.66V336.594ZM773.927 336.594L774.927 336.594L774.927 335.594H773.927V336.594ZM773.941 403.808H772.941V404.808H773.941V403.808ZM807.582 370.202H808.582V369.202H807.582V370.202ZM841.224 403.808H842.224V402.808H841.224V403.808ZM841.224 437.412V438.412H842.224V437.412H841.224ZM807.582 437.412H806.582V438.412H807.582V437.412ZM874.892 403.808V404.808H875.892V403.808H874.892ZM841.25 403.808H840.25V404.808H841.25V403.808ZM841.25 370.202V369.202H840.25V370.202H841.25ZM975.827 302.988H976.827V302.988L975.827 302.988ZM975.827 370.202V371.202H976.827V370.202H975.827ZM874.892 336.594V335.594H873.892V336.594H874.892ZM942.187 336.594V337.594H943.188L943.187 336.594L942.187 336.594ZM942.173 302.988H941.173V302.989L942.173 302.988ZM942.173 269.377V268.377H941.173V269.377H942.173ZM1009.47 269.377V270.377H1010.47V269.377H1009.47ZM975.813 235.768V234.768H974.813V235.768H975.813ZM1043.12 201.645H1044.12V200.645H1043.12V201.645ZM1043.12 235.768V236.768H1044.12V235.768H1043.12ZM975.813 201.645H974.813V202.645H975.813V201.645ZM1009.47 168.036H1010.47V167.036H1009.47V168.036ZM942.173 134.424L941.173 134.423V134.424H942.173ZM942.173 168.036H941.173V169.036H942.173V168.036ZM975.827 134.424L976.827 134.424V134.424H975.827ZM975.827 67.2102H976.827V66.2102H975.827V67.2102ZM874.892 33.6051H875.892V32.6051H874.892V33.6051ZM841.25 33.6051V32.6051H840.25V33.6051H841.25ZM841.25 67.2102H840.25V68.2102H841.25V67.2102ZM874.892 100.819H873.892V101.819H874.892V100.819ZM942.187 100.819L943.187 100.819L943.188 99.8188H942.187V100.819ZM807.582 1H841.224V-1H807.582V1ZM840.224 0V33.6051H842.224V0H840.224ZM841.224 32.6051H807.582V34.6051H841.224V32.6051ZM808.582 33.6051V0H806.582V33.6051H808.582ZM774.941 67.2102V33.6051H772.941V67.2102H774.941ZM773.941 34.6051H807.582V32.6051H773.941V34.6051ZM806.582 33.6051V67.2102H808.582V33.6051H806.582ZM807.582 66.2102H773.941V68.2102H807.582V66.2102ZM674.005 168.036V134.424H672.005V168.036H674.005ZM674.005 134.424V100.819H672.005V134.424H674.005ZM674.005 100.819V67.2102H672.005V100.819H674.005ZM673.005 68.2102H706.66V66.2102H673.005V68.2102ZM706.66 68.2102H740.287V66.2102H706.66V68.2102ZM740.287 68.2102H773.941V66.2102H740.287V68.2102ZM772.941 67.2098L772.927 100.818L774.927 100.819L774.941 67.2106L772.941 67.2098ZM773.927 99.8188H740.287V101.819H773.927V99.8188ZM740.287 99.8188H706.66V101.819H740.287V99.8188ZM705.66 100.818L705.646 134.423L707.646 134.424L707.66 100.819L705.66 100.818ZM705.646 134.424V168.036H707.646V134.424H705.646ZM706.646 167.036H673.005V169.036H706.646V167.036ZM640.365 201.645V168.036H638.365V201.645H640.365ZM639.365 169.036H673.005V167.036H639.365V169.036ZM672.005 168.036V201.645H674.005V168.036H672.005ZM673.005 200.645H639.365V202.645H673.005V200.645ZM639.351 234.768H605.71V236.768H639.351V234.768ZM606.71 235.768V235.253H604.71V235.768H606.71ZM606.71 235.253V202.16H604.71V235.253H606.71ZM606.71 202.16V201.645H604.71V202.16H606.71ZM605.71 202.645H639.365V200.645H605.71V202.645ZM638.365 201.618L638.351 202.133L640.35 202.187L640.364 201.672L638.365 201.618ZM638.351 202.16V235.253H640.351V202.16H638.351ZM638.351 235.253V235.768H640.351V235.253H638.351ZM673.005 268.377H639.365V270.377H673.005V268.377ZM640.365 269.377L640.351 235.767L638.351 235.768L638.365 269.378L640.365 269.377ZM639.351 236.768H673.005V234.768H639.351V236.768ZM672.005 235.768V269.377H674.005V235.768H672.005ZM773.941 369.202H740.287V371.202H773.941V369.202ZM740.287 369.202H706.66V371.202H740.287V369.202ZM706.66 369.202H673.005V371.202H706.66V369.202ZM674.005 370.202V336.594H672.005V370.202H674.005ZM674.005 336.594V302.988H672.005V336.594H674.005ZM674.005 302.988V269.377H672.005V302.988H674.005ZM673.005 270.377H706.646V268.377H673.005V270.377ZM705.646 269.377V302.988H707.646V269.377H705.646ZM705.646 302.989L705.66 336.595L707.66 336.594L707.646 302.988L705.646 302.989ZM706.66 337.594H740.287V335.594H706.66V337.594ZM740.287 337.594H773.927V335.594H740.287V337.594ZM772.927 336.595L772.941 370.203L774.941 370.202L774.927 336.594L772.927 336.595ZM807.582 402.808H773.941V404.808H807.582V402.808ZM774.941 403.808V370.202H772.941V403.808H774.941ZM773.941 371.202H807.582V369.202H773.941V371.202ZM806.582 370.202V403.808H808.582V370.202H806.582ZM807.582 404.808H841.224V402.808H807.582V404.808ZM840.224 403.808V437.412H842.224V403.808H840.224ZM841.224 436.412H807.582V438.412H841.224V436.412ZM808.582 437.412V403.808H806.582V437.412H808.582ZM874.892 402.808H841.25V404.808H874.892V402.808ZM842.25 403.808V370.202H840.25V403.808H842.25ZM841.25 371.202H874.892V369.202H841.25V371.202ZM873.892 370.202V403.808H875.892V370.202H873.892ZM974.813 269.378L974.827 302.989L976.827 302.988L976.813 269.377L974.813 269.378ZM974.827 302.988V336.594H976.827V302.988H974.827ZM974.827 336.594V370.202H976.827V336.594H974.827ZM975.827 369.202H942.187V371.202H975.827V369.202ZM942.187 369.202H908.546V371.202H942.187V369.202ZM908.546 369.202H874.892V371.202H908.546V369.202ZM875.892 370.202V336.594H873.892V370.202H875.892ZM874.892 337.594H908.546V335.594H874.892V337.594ZM908.546 337.594H942.187V335.594H908.546V337.594ZM943.187 336.594L943.173 302.988L941.173 302.989L941.187 336.595L943.187 336.594ZM943.173 302.988V269.377H941.173V302.988H943.173ZM942.173 270.377H975.813V268.377H942.173V270.377ZM1008.47 235.768V269.377H1010.47V235.768H1008.47ZM1009.47 268.377H975.813V270.377H1009.47V268.377ZM976.813 269.377V235.768H974.813V269.377H976.813ZM975.813 236.768H1009.47V234.768H975.813V236.768ZM1009.47 202.645H1043.12V200.645H1009.47V202.645ZM1042.12 201.645V202.16H1044.12V201.645H1042.12ZM1042.12 202.16V235.253H1044.12V202.16H1042.12ZM1042.12 235.253V235.768H1044.12V235.253H1042.12ZM1043.12 234.768H1009.47V236.768H1043.12V234.768ZM1010.47 235.768V235.253H1008.47V235.768H1010.47ZM1010.47 235.253V202.16H1008.47V235.253H1010.47ZM1010.47 202.16V201.645H1008.47V202.16H1010.47ZM974.813 168.036V201.645H976.813V168.036H974.813ZM975.813 202.645H1009.47V200.645H975.813V202.645ZM1010.47 201.645V168.036H1008.47V201.645H1010.47ZM1009.47 167.036H975.813V169.036H1009.47V167.036ZM941.173 134.424V168.036H943.173V134.424H941.173ZM942.173 169.036H975.813V167.036H942.173V169.036ZM976.813 168.036L976.827 134.424L974.827 134.423L974.813 168.036L976.813 168.036ZM976.827 134.424V100.819H974.827V134.424H976.827ZM976.827 100.819V67.2102H974.827V100.819H976.827ZM975.827 66.2102H942.187V68.2102H975.827V66.2102ZM942.187 66.2102H908.546V68.2102H942.187V66.2102ZM908.546 66.2102H874.892V68.2102H908.546V66.2102ZM875.892 67.2102V33.6051H873.892V67.2102H875.892ZM874.892 32.6051H841.25V34.6051H874.892V32.6051ZM840.25 33.6051V67.2102H842.25V33.6051H840.25ZM841.25 68.2102H874.892V66.2102H841.25V68.2102ZM873.892 67.2102V100.819H875.892V67.2102H873.892ZM874.892 101.819H908.546V99.8188H874.892V101.819ZM908.546 101.819H942.187V99.8188H908.546V101.819ZM941.187 100.818L941.173 134.423L943.173 134.424L943.187 100.819L941.187 100.818Z" fill="white" mask="url(#path-8-inside-4_481_2022)"/>
</g>
</g>
</g>
<defs>
<filter id="filter0_i_481_2022" x="201.903" y="0" width="437.413" height="441.412" filterUnits="userSpaceOnUse" color-interpolation-filters="sRGB">
<feFlood flood-opacity="0" result="BackgroundImageFix"/>
<feBlend mode="normal" in="SourceGraphic" in2="BackgroundImageFix" result="shape"/>
<feColorMatrix in="SourceAlpha" type="matrix" values="0 0 0 0 0 0 0 0 0 0 0 0 0 0 0 0 0 0 127 0" result="hardAlpha"/>
<feOffset dy="4"/>
<feGaussianBlur stdDeviation="2"/>
<feComposite in2="hardAlpha" operator="arithmetic" k2="-1" k3="1"/>
<feColorMatrix type="matrix" values="0 0 0 0 0 0 0 0 0 0 0 0 0 0 0 0 0 0 0.25 0"/>
<feBlend mode="normal" in2="shape" result="effect1_innerShadow_481_2022"/>
</filter>
<filter id="filter1_i_481_2022" x="0" y="302.857" width="437.413" height="441.412" filterUnits="userSpaceOnUse" color-interpolation-filters="sRGB">
<feFlood flood-opacity="0" result="BackgroundImageFix"/>
<feBlend mode="normal" in="SourceGraphic" in2="BackgroundImageFix" result="shape"/>
<feColorMatrix in="SourceAlpha" type="matrix" values="0 0 0 0 0 0 0 0 0 0 0 0 0 0 0 0 0 0 127 0" result="hardAlpha"/>
<feOffset dy="4"/>
<feGaussianBlur stdDeviation="2"/>
<feComposite in2="hardAlpha" operator="arithmetic" k2="-1" k3="1"/>
<feColorMatrix type="matrix" values="0 0 0 0 0 0 0 0 0 0 0 0 0 0 0 0 0 0 0.25 0"/>
<feBlend mode="normal" in2="shape" result="effect1_innerShadow_481_2022"/>
</filter>
<filter id="filter2_i_481_2022" x="605.71" y="0" width="437.413" height="441.412" filterUnits="userSpaceOnUse" color-interpolation-filters="sRGB">
<feFlood flood-opacity="0" result="BackgroundImageFix"/>
<feBlend mode="normal" in="SourceGraphic" in2="BackgroundImageFix" result="shape"/>
<feColorMatrix in="SourceAlpha" type="matrix" values="0 0 0 0 0 0 0 0 0 0 0 0 0 0 0 0 0 0 127 0" result="hardAlpha"/>
<feOffset dy="4"/>
<feGaussianBlur stdDeviation="2"/>
<feComposite in2="hardAlpha" operator="arithmetic" k2="-1" k3="1"/>
<feColorMatrix type="matrix" values="0 0 0 0 0 0 0 0 0 0 0 0 0 0 0 0 0 0 0.25 0"/>
<feBlend mode="normal" in2="shape" result="effect1_innerShadow_481_2022"/>
</filter>
<linearGradient id="paint0_linear_481_2022" x1="403.807" y1="521.564" x2="841.219" y2="521.564" gradientUnits="userSpaceOnUse">
<stop stop-color="#36FFF3"/>
<stop offset="0.791667" stop-color="#18FFAC"/>
</linearGradient>
</defs>
</svg>
