<svg fill="none" height="90" viewBox="0 0 91 90" width="90" xmlns="http://www.w3.org/2000/svg" xmlns:xlink="http://www.w3.org/1999/xlink"><filter id="a" color-interpolation-filters="sRGB" filterUnits="userSpaceOnUse" height="630.309" width="1154.3" x="-552.015" y="-394.162"><feFlood flood-opacity="0" result="BackgroundImageFix"/><feBlend in="SourceGraphic" in2="BackgroundImageFix" mode="normal" result="shape"/><feGaussianBlur result="effect1_foregroundBlur_14_172" stdDeviation="10.545"/></filter><filter id="b" color-interpolation-filters="sRGB" filterUnits="userSpaceOnUse" height="519.191" width="944.15" x="-455.431" y="-305.309"><feFlood flood-opacity="0" result="BackgroundImageFix"/><feBlend in="SourceGraphic" in2="BackgroundImageFix" mode="normal" result="shape"/><feGaussianBlur result="effect1_foregroundBlur_14_172" stdDeviation="10.545"/></filter><filter id="c" color-interpolation-filters="sRGB" filterUnits="userSpaceOnUse" height="510.383" width="944.15" x="-455.429" y="-305.309"><feFlood flood-opacity="0" result="BackgroundImageFix"/><feBlend in="SourceGraphic" in2="BackgroundImageFix" mode="normal" result="shape"/><feGaussianBlur result="effect1_foregroundBlur_14_172" stdDeviation="10.545"/></filter><filter id="d" color-interpolation-filters="sRGB" filterUnits="userSpaceOnUse" height="592.711" width="1098.09" x="-531.973" y="-351.232"><feFlood flood-opacity="0" result="BackgroundImageFix"/><feBlend in="SourceGraphic" in2="BackgroundImageFix" mode="normal" result="shape"/><feGaussianBlur result="effect1_foregroundBlur_14_172" stdDeviation="22.2616"/></filter><filter id="e" color-interpolation-filters="sRGB" filterUnits="userSpaceOnUse" height="489.77" width="944.15" x="-455.429" y="-305.308"><feFlood flood-opacity="0" result="BackgroundImageFix"/><feBlend in="SourceGraphic" in2="BackgroundImageFix" mode="normal" result="shape"/><feGaussianBlur result="effect1_foregroundBlur_14_172" stdDeviation="10.545"/></filter><filter id="f" color-interpolation-filters="sRGB" filterUnits="userSpaceOnUse" height="471.083" width="944.15" x="-455.43" y="-305.308"><feFlood flood-opacity="0" result="BackgroundImageFix"/><feBlend in="SourceGraphic" in2="BackgroundImageFix" mode="normal" result="shape"/><feGaussianBlur result="effect1_foregroundBlur_14_172" stdDeviation="10.545"/></filter><mask id="g" height="90" maskUnits="userSpaceOnUse" width="91" x="0" y="0"><path d="m45.5391 0 13.7766 11.7403 18.0432 1.4399 1.4398 18.0432 11.7404 13.7766-11.7404 13.7766-1.4398 18.0432-18.0432 1.4399-13.7766 11.7403-13.7766-11.7403-18.0432-1.4399-1.4399-18.0432-11.740338-13.7766 11.740338-13.7766 1.4399-18.0432 18.0432-1.4399z" fill="#d9d9d9"/></mask><g mask="url(#g)"><path d="m-3.16245-12.3329h98.6301v115.89h-98.6301z" fill="#0d0d0e"/><g filter="url(#a)"><path d="m581.197-373.072c-156.272 182.889-597.4766 526.789-1112.122 439.2727 176.982 179.5413 647.182 343.0453 1112.122-439.2727z" fill="#002e48"/></g><g filter="url(#b)"><path d="m467.629-284.219c-126.736 148.338-484.5612 427.263-901.97 356.2529 143.55 145.6381 524.9145 278.2811 901.97-356.2529z" fill="#0072a3"/></g><g filter="url(#c)"><path d="m467.631-284.219c-126.736 148.339-468.9594 479.724-901.97 356.2536 143.55 145.6384 533.1482 249.1934 901.97-356.2536z" fill="#00c2ce"/></g><g filter="url(#d)"><path d="m521.589-306.709c-149.216 153.878-546.9075 502.107-1009.039 414.767 145.283 130.802 561.652 202.054 1009.039-414.767z" fill="#ef6619"/></g><g filter="url(#e)"><path d="m467.631-284.218c-126.736 148.339-458.31394 515.322-901.97 356.2537 139.975 110.8853 526.6294 229.8823 901.97-356.2537z" fill="#cf7154"/></g><g filter="url(#f)"><path d="m467.63-284.219c-126.736 148.339-439.6242 563.862-901.97 356.2539 192.031 114.9971 532.1667 154.3081 901.97-356.2539z" fill="#f1f9a0"/></g></g></svg>