<svg width="268" height="90" viewBox="0 0 268 90" fill="none" xmlns="http://www.w3.org/2000/svg">
<g clip-path="url(#clip0_2540_6162)">
<path d="M59.31 74H49.68V13.7H59.31V74ZM14.22 74H4.5V13.7H14.22V74ZM54.45 47.99H7.65V39.26H54.45V47.99ZM74.6965 74H63.8965L90.8065 13.7H104.486L131.396 74H120.416L101.426 31.25L97.9165 22.7H97.1965L93.6865 31.25L74.6965 74ZM117.446 58.34H77.2165V49.61H117.446V58.34ZM165.506 74.9C159.206 74.9 153.686 73.64 148.946 71.12C144.266 68.54 140.606 64.94 137.966 60.32C135.386 55.64 134.096 50.15 134.096 43.85C134.096 37.55 135.386 32.09 137.966 27.47C140.606 22.79 144.266 19.19 148.946 16.67C153.686 14.09 159.206 12.8 165.506 12.8C171.926 12.8 177.476 14.09 182.156 16.67C186.836 19.19 190.466 22.79 193.046 27.47C195.686 32.09 197.006 37.55 197.006 43.85C197.006 50.15 195.686 55.64 193.046 60.32C190.466 64.94 186.836 68.54 182.156 71.12C177.476 73.64 171.926 74.9 165.506 74.9ZM185.306 86.69H173.066L158.756 67.43H169.646L185.306 86.69ZM165.506 65.54C170.246 65.54 174.176 64.79 177.296 63.29C180.476 61.73 182.846 59.36 184.406 56.18C185.966 52.94 186.746 48.83 186.746 43.85C186.746 38.81 185.966 34.7 184.406 31.52C182.846 28.34 180.476 26 177.296 24.5C174.176 22.94 170.246 22.16 165.506 22.16C160.766 22.16 156.806 22.94 153.626 24.5C150.506 26 148.166 28.34 146.606 31.52C145.106 34.7 144.356 38.81 144.356 43.85C144.356 48.83 145.106 52.94 146.606 56.18C148.166 59.36 150.506 61.73 153.626 63.29C156.806 64.79 160.766 65.54 165.506 65.54ZM233.798 74.9C227.498 74.9 221.978 73.64 217.238 71.12C212.558 68.54 208.898 64.94 206.258 60.32C203.678 55.64 202.388 50.15 202.388 43.85C202.388 37.55 203.678 32.09 206.258 27.47C208.898 22.79 212.558 19.19 217.238 16.67C221.978 14.09 227.498 12.8 233.798 12.8C240.218 12.8 245.768 14.09 250.448 16.67C255.128 19.19 258.758 22.79 261.338 27.47C263.978 32.09 265.298 37.55 265.298 43.85C265.298 50.15 263.978 55.64 261.338 60.32C258.758 64.94 255.128 68.54 250.448 71.12C245.768 73.64 240.218 74.9 233.798 74.9ZM253.598 86.69H241.358L227.048 67.43H237.938L253.598 86.69ZM233.798 65.54C238.538 65.54 242.468 64.79 245.588 63.29C248.768 61.73 251.138 59.36 252.698 56.18C254.258 52.94 255.038 48.83 255.038 43.85C255.038 38.81 254.258 34.7 252.698 31.52C251.138 28.34 248.768 26 245.588 24.5C242.468 22.94 238.538 22.16 233.798 22.16C229.058 22.16 225.098 22.94 221.918 24.5C218.798 26 216.458 28.34 214.898 31.52C213.398 34.7 212.648 38.81 212.648 43.85C212.648 48.83 213.398 52.94 214.898 56.18C216.458 59.36 218.798 61.73 221.918 63.29C225.098 64.79 229.058 65.54 233.798 65.54Z" fill="white"/>
</g>
<defs>
<clipPath id="clip0_2540_6162">
<rect width="268" height="90" fill="white"/>
</clipPath>
</defs>
</svg>
