<svg width="2005" height="54" viewBox="0 0 2005 54" fill="none" xmlns="http://www.w3.org/2000/svg">
<g clip-path="url(#clip0_12_454)">
<g opacity="0.24">
<mask id="path-1-inside-1_12_454" fill="white">
<path fill-rule="evenodd" clip-rule="evenodd" d="M0 26.5569C40.364 26.3449 72.899 14.7892 72.899 0.565104C72.899 0.376259 72.8933 0.187884 72.8819 0H73.4819C73.4705 0.187884 73.4648 0.376259 73.4648 0.565104C73.4648 14.789 105.999 26.3446 146.362 26.5569V27.128C105.999 27.3403 73.4648 38.8959 73.4648 53.1198C73.4648 53.4985 73.4878 53.8753 73.5335 54.25H72.8303C72.8759 53.8753 72.899 53.4985 72.899 53.1198C72.899 38.8957 40.364 27.34 0 27.128V26.5569Z"/>
</mask>
<path d="M0 26.5569L-0.00525265 25.5569L-1 25.5622V26.5569H0ZM72.8819 0V-1H71.8193L71.8837 0.0606362L72.8819 0ZM73.4819 0L74.4801 0.0606362L74.5445 -1H73.4819V0ZM146.362 26.5569H147.362V25.5622L146.367 25.5569L146.362 26.5569ZM146.362 27.128L146.367 28.128L147.362 28.1227V27.128H146.362ZM73.5335 54.25V55.25H74.6627L74.5261 54.1291L73.5335 54.25ZM72.8303 54.25L71.8376 54.1291L71.7011 55.25H72.8303V54.25ZM0 27.128H-1V28.1227L-0.00525265 28.128L0 27.128ZM0.00525265 27.5569C20.2684 27.4505 38.6102 24.4981 51.9215 19.7576C58.5727 17.3889 64.0218 14.555 67.8273 11.3635C71.6275 8.17647 73.899 4.5328 73.899 0.565104H71.899C71.899 3.70944 70.1036 6.84427 66.5421 9.83107C62.986 12.8134 57.7786 15.5487 51.2505 17.8735C38.2033 22.5199 20.0956 25.4514 -0.00525265 25.5569L0.00525265 27.5569ZM73.899 0.565104C73.899 0.356019 73.8927 0.147423 73.88 -0.0606362L71.8837 0.0606362C71.8939 0.228345 71.899 0.396499 71.899 0.565104H73.899ZM72.8819 1H73.4819V-1H72.8819V1ZM74.4648 0.565104C74.4648 0.396499 74.4699 0.228345 74.4801 0.0606362L72.4837 -0.0606362C72.4711 0.147423 72.4648 0.356019 72.4648 0.565104H74.4648ZM146.367 25.5569C126.267 25.4512 108.16 22.5197 95.1127 17.8733C88.5848 15.5485 83.3775 12.8133 79.8215 9.83094C76.2601 6.84417 74.4648 3.7094 74.4648 0.565104H72.4648C72.4648 4.53274 74.7362 8.17636 78.5363 11.3634C82.3417 14.5548 87.7907 17.3887 94.4417 19.7574C107.753 24.4978 126.094 27.4503 146.357 27.5569L146.367 25.5569ZM145.362 26.5569V27.128H147.362V26.5569H145.362ZM146.357 26.128C126.094 26.2346 107.753 29.1871 94.4417 33.9275C87.7907 36.2962 82.3417 39.1301 78.5363 42.3215C74.7362 45.5085 72.4648 49.1522 72.4648 53.1198H74.4648C74.4648 49.9755 76.2601 46.8407 79.8215 43.854C83.3775 40.8716 88.5848 38.1364 95.1127 35.8116C108.16 31.1652 126.267 28.2337 146.367 28.128L146.357 26.128ZM72.4648 53.1198C72.4648 53.5392 72.4903 53.9563 72.5408 54.3709L74.5261 54.1291C74.4853 53.7942 74.4648 53.4578 74.4648 53.1198H72.4648ZM73.5335 53.25H72.8303V55.25H73.5335V53.25ZM73.8229 54.3709C73.8735 53.9563 73.899 53.5392 73.899 53.1198H71.899C71.899 53.4578 71.8784 53.7942 71.8376 54.1291L73.8229 54.3709ZM73.899 53.1198C73.899 49.1521 71.6275 45.5084 67.8273 42.3214C64.0218 39.1299 58.5727 36.296 51.9215 33.9273C38.6102 29.1868 20.2684 26.2344 0.00525265 26.128L-0.00525265 28.128C20.0956 28.2335 38.2033 31.165 51.2505 35.8114C57.7786 38.1362 62.986 40.8715 66.5421 43.8538C70.1036 46.8406 71.899 49.9755 71.899 53.1198H73.899ZM1 27.128V26.5569H-1V27.128H1Z" fill="white" fill-opacity="0.5" mask="url(#path-1-inside-1_12_454)"/>
<mask id="path-3-inside-2_12_454" fill="white">
<path fill-rule="evenodd" clip-rule="evenodd" d="M236.215 26.5569C331.593 26.3449 408.471 14.7892 408.471 0.565104C408.471 0.376259 408.457 0.187884 408.43 0H409.847C409.82 0.187884 409.807 0.376259 409.807 0.565104C409.807 14.789 486.683 26.3446 582.059 26.5569V27.128C486.683 27.3403 409.807 38.8959 409.807 53.1198C409.807 53.4985 409.861 53.8753 409.969 54.25H408.308C408.416 53.8753 408.471 53.4985 408.471 53.1198C408.471 38.8957 331.592 27.34 236.215 27.128V26.5569Z"/>
</mask>
<path d="M236.215 26.5569L236.213 25.5569L235.215 25.5592V26.5569H236.215ZM408.43 0V-1H407.277L407.44 0.14205L408.43 0ZM409.847 0L410.837 0.14205L411.001 -1H409.847V0ZM582.059 26.5569H583.059V25.5591L582.061 25.5569L582.059 26.5569ZM582.059 27.128L582.061 28.128L583.059 28.1258V27.128H582.059ZM409.969 54.25V55.25H411.298L410.93 53.9734L409.969 54.25ZM408.308 54.25L407.347 53.9734L406.98 55.25H408.308V54.25ZM236.215 27.128H235.215V28.1257L236.213 28.128L236.215 27.128ZM236.217 27.5569C283.939 27.4509 327.054 24.5072 358.258 19.8044C373.853 17.4541 386.516 14.6582 395.303 11.5397C399.69 9.98264 403.17 8.3248 405.572 6.5636C407.947 4.82252 409.471 2.82625 409.471 0.565104H407.471C407.471 1.85998 406.592 3.33635 404.39 4.95063C402.215 6.54479 398.944 8.12504 394.634 9.6549C386.025 12.7103 373.508 15.4835 357.96 17.8267C326.881 22.5108 283.868 25.451 236.213 25.5569L236.217 27.5569ZM409.471 0.565104C409.471 0.328246 409.454 0.092404 409.42 -0.14205L407.44 0.14205C407.461 0.283364 407.471 0.424271 407.471 0.565104H409.471ZM408.43 1H409.847V-1H408.43V1ZM410.807 0.565104C410.807 0.424271 410.817 0.283364 410.837 0.14205L408.857 -0.14205C408.824 0.092404 408.807 0.328246 408.807 0.565104H410.807ZM582.061 25.5569C534.406 25.4508 491.394 22.5106 460.316 17.8265C444.769 15.4833 432.252 12.7101 423.643 9.65477C419.333 8.12493 416.062 6.5447 413.887 4.95056C411.686 3.33631 410.807 1.85996 410.807 0.565104H408.807C408.807 2.82622 410.33 4.82246 412.705 6.56353C415.107 8.3247 418.587 9.98252 422.974 11.5396C431.761 14.658 444.424 17.4539 460.018 19.8042C491.221 24.507 534.335 27.4507 582.056 27.5569L582.061 25.5569ZM581.059 26.5569V27.128H583.059V26.5569H581.059ZM582.056 26.128C534.335 26.2342 491.221 29.1779 460.018 33.8807C444.424 36.2309 431.761 39.0269 422.974 42.1453C418.587 43.7024 415.107 45.3602 412.705 47.1214C410.33 48.8624 408.807 50.8587 408.807 53.1198H410.807C410.807 51.8249 411.686 50.3486 413.887 48.7343C416.062 47.1402 419.333 45.56 423.643 44.0301C432.252 40.9748 444.769 38.2016 460.316 35.8584C491.394 31.1743 534.406 28.234 582.061 28.128L582.056 26.128ZM408.807 53.1198C408.807 53.5957 408.875 54.0656 409.008 54.5266L410.93 53.9734C410.847 53.6849 410.807 53.4012 410.807 53.1198H408.807ZM409.969 53.25H408.308V55.25H409.969V53.25ZM409.269 54.5266C409.402 54.0656 409.471 53.5957 409.471 53.1198H407.471C407.471 53.4012 407.43 53.6849 407.347 53.9734L409.269 54.5266ZM409.471 53.1198C409.471 50.8586 407.947 48.8624 405.572 47.1213C403.17 45.3601 399.69 43.7023 395.303 42.1452C386.516 39.0267 373.853 36.2308 358.258 33.8805C327.054 29.1777 283.939 26.234 236.217 26.128L236.213 28.128C283.868 28.2339 326.881 31.1741 357.96 35.8582C373.508 38.2014 386.025 40.9746 394.634 44.03C398.944 45.5599 402.215 47.1401 404.39 48.7343C406.592 50.3485 407.471 51.8249 407.471 53.1198H409.471ZM237.215 27.128V26.5569H235.215V27.128H237.215Z" fill="white" fill-opacity="0.5" mask="url(#path-3-inside-2_12_454)"/>
<mask id="path-5-inside-3_12_454" fill="white">
<path fill-rule="evenodd" clip-rule="evenodd" d="M146.363 26.5569C171.3 26.3456 191.4 14.7896 191.4 0.565104C191.4 0.376259 191.396 0.187884 191.389 0H191.759C191.752 0.187884 191.748 0.376259 191.748 0.565104C191.748 14.7887 211.846 26.3442 236.78 26.5569V27.128C211.846 27.3407 191.748 38.8961 191.748 53.1198C191.748 53.4985 191.762 53.8753 191.79 54.25H191.357C191.385 53.8753 191.4 53.4985 191.4 53.1198C191.4 38.8953 171.3 27.3393 146.363 27.1279V26.5569Z"/>
</mask>
<path d="M146.363 26.5569L146.355 25.557L145.363 25.5654V26.5569H146.363ZM191.389 0V-1H190.351L190.39 0.0374944L191.389 0ZM191.759 0L192.758 0.0374944L192.797 -1H191.759V0ZM236.78 26.5569H237.78V25.5654L236.788 25.5569L236.78 26.5569ZM236.78 27.128L236.788 28.1279L237.78 28.1195V27.128H236.78ZM191.79 54.25V55.25H192.869L192.788 54.175L191.79 54.25ZM191.357 54.25L190.36 54.175L190.279 55.25H191.357V54.25ZM146.363 27.1279H145.363V28.1195L146.355 28.1279L146.363 27.1279ZM146.372 27.5569C158.979 27.45 170.414 24.477 178.732 19.6823C187.022 14.9036 192.4 8.18897 192.4 0.565104H190.4C190.4 7.16571 185.727 13.3413 177.733 17.9496C169.767 22.5419 158.683 25.4525 146.355 25.557L146.372 27.5569ZM192.4 0.565104C192.4 0.363745 192.396 0.16287 192.388 -0.0374944L190.39 0.0374944C190.396 0.212898 190.4 0.388772 190.4 0.565104H192.4ZM191.389 1H191.759V-1H191.389V1ZM192.748 0.565104C192.748 0.388772 192.751 0.212898 192.758 0.0374944L190.759 -0.0374944C190.752 0.16287 190.748 0.363745 190.748 0.565104H192.748ZM236.788 25.5569C224.461 25.4518 213.379 22.541 205.413 17.9488C197.42 13.3406 192.748 7.16532 192.748 0.565104H190.748C190.748 8.18853 196.125 14.9028 204.414 19.6815C212.731 24.4761 224.165 27.4493 236.771 27.5569L236.788 25.5569ZM235.78 26.5569V27.128H237.78V26.5569H235.78ZM236.771 26.128C224.165 26.2356 212.731 29.2088 204.414 34.0034C196.125 38.7821 190.748 45.4964 190.748 53.1198H192.748C192.748 46.5196 197.42 40.3443 205.413 35.7361C213.379 31.1439 224.461 28.2331 236.788 28.1279L236.771 26.128ZM190.748 53.1198C190.748 53.5236 190.763 53.9254 190.793 54.325L192.788 54.175C192.761 53.8251 192.748 53.4734 192.748 53.1198H190.748ZM191.79 53.25H191.357V55.25H191.79V53.25ZM192.354 54.325C192.384 53.9254 192.4 53.5236 192.4 53.1198H190.4C190.4 53.4734 190.386 53.8251 190.36 54.175L192.354 54.325ZM192.4 53.1198C192.4 45.4959 187.022 38.7813 178.732 34.0026C170.414 29.2079 158.979 26.2349 146.372 26.128L146.355 28.1279C158.683 28.2324 169.767 31.143 177.733 35.7353C185.727 40.3436 190.4 46.5192 190.4 53.1198H192.4ZM147.363 27.1279V26.5569H145.363V27.1279H147.363Z" fill="white" fill-opacity="0.5" mask="url(#path-5-inside-3_12_454)"/>
<mask id="path-7-inside-4_12_454" fill="white">
<path fill-rule="evenodd" clip-rule="evenodd" d="M580.363 26.5569C973.249 26.3449 1289.93 14.7891 1289.93 0.565104C1289.93 0.376259 1289.87 0.187884 1289.76 0H1295.6C1295.49 0.187884 1295.44 0.376259 1295.44 0.565104C1295.44 14.789 1612.11 26.3446 2004.99 26.5569V27.128C1612.11 27.3403 1295.44 38.8959 1295.44 53.1198C1295.44 53.4985 1295.66 53.8753 1296.11 54.25H1289.26C1289.71 53.8753 1289.93 53.4985 1289.93 53.1198C1289.93 38.8958 973.249 27.34 580.363 27.128L580.363 26.5569Z"/>
</mask>
<path d="M580.363 26.5569L580.363 25.5569L579.363 25.5575L579.363 26.5569L580.363 26.5569ZM1289.76 0V-1H1288.01L1288.9 0.508939L1289.76 0ZM1295.6 0L1296.47 0.508939L1297.36 -1H1295.6V0ZM2004.99 26.5569H2005.99V25.5575L2004.99 25.5569L2004.99 26.5569ZM2004.99 27.128L2004.99 28.128L2005.99 28.1274V27.128H2004.99ZM1296.11 54.25V55.25H1298.84L1296.75 53.4855L1296.11 54.25ZM1289.26 54.25L1288.62 53.4855L1286.52 55.25H1289.26V54.25ZM580.363 27.128L579.363 27.128L579.363 28.1274L580.363 28.128L580.363 27.128ZM580.364 27.5569C776.815 27.4509 954.219 24.5088 1082.52 19.8148C1146.66 17.4679 1198.54 14.6826 1234.4 11.5936C1252.32 10.0495 1266.26 8.42741 1275.73 6.74163C1280.46 5.90007 1284.12 5.03502 1286.62 4.14004C1287.86 3.6948 1288.87 3.22137 1289.59 2.7027C1290.28 2.20785 1290.93 1.50558 1290.93 0.565104H1288.93C1288.93 0.513628 1288.96 0.695149 1288.43 1.07835C1287.93 1.43773 1287.11 1.83661 1285.94 2.2574C1283.61 3.09451 1280.08 3.93645 1275.38 4.77257C1266 6.44214 1252.13 8.05816 1234.22 9.60096C1198.42 12.6858 1146.58 15.4696 1082.44 17.8162C954.177 22.5091 776.798 25.4509 580.363 25.5569L580.364 27.5569ZM1290.93 0.565104C1290.93 0.170126 1290.81 -0.192045 1290.62 -0.508939L1288.9 0.508939C1288.92 0.539937 1288.93 0.558687 1288.93 0.565582C1288.93 0.571678 1288.93 0.570625 1288.93 0.565104H1290.93ZM1289.76 1H1295.6V-1H1289.76V1ZM1296.44 0.565104C1296.44 0.570625 1296.44 0.571678 1296.44 0.565582C1296.44 0.558687 1296.45 0.539937 1296.47 0.508939L1294.74 -0.508939C1294.56 -0.192045 1294.44 0.170126 1294.44 0.565104H1296.44ZM2004.99 25.5569C1808.56 25.4508 1631.18 22.5089 1502.92 17.816C1438.79 15.4695 1386.94 12.6856 1351.14 9.60086C1333.24 8.05807 1319.37 6.44206 1309.99 4.77251C1305.29 3.9364 1301.76 3.09447 1299.43 2.25738C1298.25 1.83659 1297.44 1.43771 1296.94 1.07833C1296.41 0.695144 1296.44 0.513628 1296.44 0.565104H1294.44C1294.44 1.50557 1295.09 2.20784 1295.77 2.70269C1296.5 3.22135 1297.51 3.69477 1298.75 4.14001C1301.25 5.03498 1304.91 5.90002 1309.64 6.74157C1319.11 8.42733 1333.05 10.0494 1350.97 11.5935C1386.82 14.6825 1438.7 17.4678 1502.85 19.8147C1631.14 24.5087 1808.54 27.4508 2004.99 27.5569L2004.99 25.5569ZM2003.99 26.5569V27.128H2005.99V26.5569H2003.99ZM2004.99 26.128C1808.54 26.2341 1631.14 29.1762 1502.85 33.8702C1438.7 36.2171 1386.82 39.0024 1350.97 42.0914C1333.05 43.6355 1319.11 45.2576 1309.64 46.9433C1304.91 47.7849 1301.25 48.6499 1298.75 49.5449C1297.51 49.9901 1296.5 50.4635 1295.77 50.9822C1295.09 51.4771 1294.44 52.1793 1294.44 53.1198H1296.44C1296.44 53.1713 1296.41 52.9897 1296.94 52.6066C1297.44 52.2472 1298.25 51.8483 1299.43 51.4275C1301.76 50.5904 1305.29 49.7485 1309.99 48.9124C1319.37 47.2428 1333.24 45.6268 1351.14 44.084C1386.94 40.9993 1438.79 38.2154 1502.92 35.8689C1631.18 31.176 1808.56 28.2341 2004.99 28.128L2004.99 26.128ZM1294.44 53.1198C1294.44 53.9241 1294.92 54.5545 1295.46 55.0145L1296.75 53.4855C1296.41 53.196 1296.44 53.0728 1296.44 53.1198H1294.44ZM1296.11 53.25H1289.26V55.25H1296.11V53.25ZM1289.91 55.0145C1290.45 54.5545 1290.93 53.9241 1290.93 53.1198H1288.93C1288.93 53.0728 1288.96 53.196 1288.62 53.4855L1289.91 55.0145ZM1290.93 53.1198C1290.93 52.1793 1290.28 51.477 1289.59 50.9822C1288.87 50.4635 1287.86 49.9901 1286.62 49.5448C1284.12 48.6499 1280.46 47.7848 1275.73 46.9433C1266.26 45.2575 1252.32 43.6354 1234.4 42.0913C1198.54 39.0023 1146.66 36.217 1082.52 33.8701C954.219 29.176 776.815 26.234 580.364 26.128L580.363 28.128C776.798 28.234 954.177 31.1758 1082.44 35.8687C1146.58 38.2152 1198.42 40.9991 1234.22 44.0839C1252.13 45.6267 1266 47.2428 1275.38 48.9123C1280.08 49.7484 1283.61 50.5904 1285.94 51.4275C1287.11 51.8483 1287.93 52.2472 1288.43 52.6065C1288.96 52.9897 1288.93 53.1713 1288.93 53.1198H1290.93ZM581.363 27.128L581.363 26.5569L579.363 26.5569L579.363 27.128L581.363 27.128Z" fill="white" fill-opacity="0.5" mask="url(#path-7-inside-4_12_454)"/>
</g>
</g>
<defs>
<clipPath id="clip0_12_454">
<rect width="2005" height="54" fill="white"/>
</clipPath>
</defs>
</svg>
