<svg width="3553" height="96" viewBox="0 0 3553 96" fill="none" xmlns="http://www.w3.org/2000/svg">
<g clip-path="url(#clip0_12_228)">
<g opacity="0.24">
<mask id="path-1-inside-1_12_228" fill="white">
<path fill-rule="evenodd" clip-rule="evenodd" d="M0 46.9947C71.4271 46.6194 129 26.1706 129 1C129 0.665822 128.99 0.332477 128.97 0H130.03C130.01 0.332477 130 0.665822 130 1C130 26.1706 187.573 46.6194 259 46.9947V48.0053C187.573 48.3806 130 68.8294 130 94C130 94.6701 130.041 95.3369 130.122 96H128.878C128.959 95.3369 129 94.6701 129 94C129 68.8294 71.4271 48.3806 0 48.0053L0 46.9947Z"/>
</mask>
<path d="M0 46.9947L-0.00525527 45.9948L-1 46V46.9947H0ZM128.97 0V-1H127.907L127.972 0.0606065L128.97 0ZM130.03 0L131.029 0.0606065L131.093 -1H130.03V0ZM259 46.9947H260V46L259.005 45.9948L259 46.9947ZM259 48.0053L259.005 49.0052L260 49V48.0053H259ZM130.122 96V97H131.251L131.114 95.8791L130.122 96ZM128.878 96L127.886 95.8791L127.749 97H128.878V96ZM0 48.0053H-1V49L-0.00525527 49.0052L0 48.0053ZM0.00525527 47.9947C35.7999 47.8066 68.167 42.5901 91.6207 34.2376C103.343 30.063 112.893 25.0861 119.531 19.5189C126.164 13.9563 130 7.70432 130 1H128C128 6.88097 124.64 12.6241 118.246 17.9865C111.857 23.3445 102.549 28.2227 90.9497 32.3535C67.7601 40.6119 35.6272 45.8075 -0.00525527 45.9948L0.00525527 47.9947ZM130 1C130 0.645567 129.989 0.29201 129.968 -0.0606065L127.972 0.0606065C127.99 0.372944 128 0.686078 128 1H130ZM128.97 1H130.03V-1H128.97V1ZM131 1C131 0.686078 131.01 0.372944 131.029 0.0606065L129.032 -0.0606065C129.011 0.29201 129 0.645567 129 1H131ZM259.005 45.9948C223.373 45.8075 191.24 40.6119 168.05 32.3535C156.451 28.2227 147.143 23.3445 140.754 17.9865C134.36 12.6241 131 6.88097 131 1H129C129 7.70432 132.836 13.9563 139.469 19.5189C146.107 25.0861 155.657 30.063 167.379 34.2376C190.833 42.5901 223.2 47.8066 258.995 47.9947L259.005 45.9948ZM258 46.9947V48.0053H260V46.9947H258ZM258.995 47.0053C223.2 47.1934 190.833 52.4099 167.379 60.7624C155.657 64.937 146.107 69.9139 139.469 75.4811C132.836 81.0437 129 87.2957 129 94H131C131 88.119 134.36 82.3759 140.754 77.0135C147.143 71.6555 156.451 66.7773 168.05 62.6465C191.24 54.3881 223.373 49.1925 259.005 49.0052L258.995 47.0053ZM129 94C129 94.7108 129.043 95.418 129.129 96.1209L131.114 95.8791C131.038 95.2558 131 94.6294 131 94H129ZM130.122 95H128.878V97H130.122V95ZM129.871 96.1209C129.957 95.418 130 94.7108 130 94H128C128 94.6294 127.962 95.2558 127.886 95.8791L129.871 96.1209ZM130 94C130 87.2957 126.164 81.0437 119.531 75.4811C112.893 69.9139 103.343 64.937 91.6207 60.7624C68.167 52.4099 35.7999 47.1934 0.00525527 47.0053L-0.00525527 49.0052C35.6272 49.1925 67.7601 54.3881 90.9497 62.6465C102.549 66.7773 111.857 71.6555 118.246 77.0135C124.64 82.3759 128 88.119 128 94H130ZM1 48.0053V46.9947H-1V48.0053H1Z" fill="white" fill-opacity="0.5" mask="url(#path-1-inside-1_12_228)"/>
<mask id="path-3-inside-2_12_228" fill="white">
<path fill-rule="evenodd" clip-rule="evenodd" d="M418 46.9948C586.78 46.6197 722.823 26.1708 722.823 1C722.823 0.665822 722.799 0.332477 722.751 0H725.259C725.211 0.332477 725.188 0.665822 725.188 1C725.188 26.1703 861.225 46.6189 1030 46.9947V48.0053C861.225 48.3811 725.188 68.8297 725.188 94C725.188 94.6701 725.284 95.3369 725.475 96H722.536C722.727 95.3369 722.823 94.6701 722.823 94C722.823 68.8292 586.78 48.3803 418 48.0052V46.9948Z"/>
</mask>
<path d="M418 46.9948L417.998 45.9948L417 45.997V46.9948H418ZM722.751 0V-1H721.598L721.762 0.1421L722.751 0ZM725.259 0L726.249 0.1421L726.413 -1H725.259V0ZM1030 46.9947H1031V45.997L1030 45.9947L1030 46.9947ZM1030 48.0053L1030 49.0053L1031 49.003V48.0053H1030ZM725.475 96V97H726.803L726.436 95.7234L725.475 96ZM722.536 96L721.575 95.7234L721.207 97H722.536V96ZM418 48.0052H417V49.003L417.998 49.0052L418 48.0052ZM418.002 47.9948C502.425 47.8072 578.682 42.5995 633.853 34.2846C661.431 30.1284 683.784 25.1894 699.264 19.6953C706.998 16.9504 713.076 14.0465 717.239 10.9942C721.375 7.96201 723.823 4.62949 723.823 1H721.823C721.823 3.66322 720.02 6.47584 716.057 9.38124C712.121 12.2665 706.252 15.0928 698.595 17.8105C683.292 23.2415 661.086 28.1578 633.555 32.307C578.509 40.603 502.355 45.8073 417.998 45.9948L418.002 47.9948ZM723.823 1C723.823 0.617852 723.796 0.237022 723.741 -0.1421L721.762 0.1421C721.803 0.427932 721.823 0.713793 721.823 1H723.823ZM722.751 1H725.259V-1H722.751V1ZM726.188 1C726.188 0.713793 726.208 0.427932 726.249 0.1421L724.269 -0.1421C724.215 0.237022 724.188 0.617852 724.188 1H726.188ZM1030 45.9947C945.648 45.8069 869.496 40.6025 814.452 32.3064C786.923 28.1573 764.717 23.2411 749.415 17.8101C741.758 15.0925 735.889 12.2663 731.954 9.38106C727.991 6.47572 726.188 3.66316 726.188 1H724.188C724.188 4.62941 726.635 7.96187 730.771 10.994C734.935 14.0463 741.012 16.9501 748.746 19.6949C764.226 25.189 786.578 30.1279 814.154 34.2841C869.323 42.5989 945.577 47.8067 1030 47.9947L1030 45.9947ZM1029 46.9947V48.0053H1031V46.9947H1029ZM1030 47.0053C945.577 47.1933 869.323 52.4011 814.154 60.7159C786.578 64.8721 764.226 69.811 748.746 75.3051C741.012 78.0499 734.935 80.9537 730.771 84.006C726.635 87.0381 724.188 90.3706 724.188 94H726.188C726.188 91.3368 727.991 88.5243 731.954 85.6189C735.889 82.7337 741.758 79.9075 749.415 77.1899C764.717 71.7589 786.923 66.8427 814.452 62.6936C869.496 54.3975 945.648 49.1931 1030 49.0053L1030 47.0053ZM724.188 94C724.188 94.7674 724.298 95.5272 724.514 96.2766L726.436 95.7234C726.27 95.1465 726.188 94.5728 726.188 94H724.188ZM725.475 95H722.536V97H725.475V95ZM723.497 96.2766C723.713 95.5272 723.823 94.7674 723.823 94H721.823C721.823 94.5728 721.741 95.1465 721.575 95.7234L723.497 96.2766ZM723.823 94C723.823 90.3705 721.375 87.038 717.239 84.0058C713.076 80.9535 706.998 78.0496 699.264 75.3047C683.784 69.8106 661.431 64.8716 633.853 60.7154C578.682 52.4005 502.425 47.1928 418.002 47.0052L417.998 49.0052C502.355 49.1927 578.509 54.397 633.555 62.693C661.086 66.8422 683.292 71.7585 698.595 77.1895C706.252 79.9072 712.121 82.7335 716.057 85.6188C720.02 88.5242 721.823 91.3368 721.823 94H723.823ZM419 48.0052V46.9948H417V48.0052H419Z" fill="white" fill-opacity="0.5" mask="url(#path-3-inside-2_12_228)"/>
<mask id="path-5-inside-3_12_228" fill="white">
<path fill-rule="evenodd" clip-rule="evenodd" d="M259 46.9948C303.128 46.6212 338.697 26.1717 338.697 1C338.697 0.665822 338.691 0.332477 338.678 0H339.331C339.319 0.332477 339.312 0.665822 339.312 1C339.312 26.1699 374.877 46.6183 419 46.9947V48.0053C374.877 48.3817 339.312 68.8301 339.312 94C339.312 94.6701 339.338 95.3369 339.388 96H338.622C338.672 95.3369 338.697 94.6701 338.697 94C338.697 68.8283 303.128 48.3788 259 48.0052V46.9948Z"/>
</mask>
<path d="M259 46.9948L258.992 45.9948L258 46.0032V46.9948H259ZM338.678 0V-1H337.64L337.679 0.0374922L338.678 0ZM339.331 0L340.331 0.0374922L340.369 -1H339.331V0ZM419 46.9947H420V46.0032L419.009 45.9948L419 46.9947ZM419 48.0053L419.009 49.0052L420 48.9968V48.0053H419ZM339.388 96V97H340.466L340.385 95.925L339.388 96ZM338.622 96L337.625 95.925L337.544 97H338.622V96ZM259 48.0052H258V48.9968L258.992 49.0052L259 48.0052ZM259.008 47.9948C281.212 47.8068 301.312 42.5698 315.896 34.1631C330.452 25.7723 339.697 14.0975 339.697 1H337.697C337.697 13.0742 329.157 24.21 314.897 32.4303C300.664 40.6347 280.916 45.8092 258.992 45.9948L259.008 47.9948ZM339.697 1C339.697 0.653309 339.691 0.307464 339.678 -0.0374922L337.679 0.0374922C337.691 0.35749 337.697 0.678336 337.697 1H339.697ZM338.678 1H339.331V-1H338.678V1ZM340.312 1C340.312 0.678336 340.319 0.35749 340.331 0.0374922L338.332 -0.0374922C338.319 0.307464 338.312 0.653309 338.312 1H340.312ZM419.009 45.9948C397.086 45.8077 377.34 40.6327 363.11 32.4286C348.851 24.2084 340.312 13.0733 340.312 1H338.312C338.312 14.0966 347.556 25.7706 362.111 34.1612C376.693 42.5678 396.79 47.8053 418.991 47.9947L419.009 45.9948ZM418 46.9947V48.0053H420V46.9947H418ZM418.991 47.0053C396.79 47.1947 376.693 52.4322 362.111 60.8388C347.556 69.2294 338.312 80.9035 338.312 94H340.312C340.312 81.9267 348.851 70.7916 363.11 62.5714C377.34 54.3673 397.086 49.1923 419.009 49.0052L418.991 47.0053ZM338.312 94C338.312 94.6952 338.339 95.387 338.39 96.075L340.385 95.925C340.337 95.2867 340.312 94.645 340.312 94H338.312ZM339.388 95H338.622V97H339.388V95ZM339.619 96.075C339.671 95.387 339.697 94.6952 339.697 94H337.697C337.697 94.645 337.673 95.2867 337.625 95.925L339.619 96.075ZM339.697 94C339.697 80.9025 330.452 69.2277 315.896 60.8369C301.312 52.4302 281.212 47.1932 259.008 47.0052L258.992 49.0052C280.916 49.1908 300.664 54.3653 314.897 62.5697C329.157 70.79 337.697 81.9258 337.697 94H339.697ZM260 48.0052V46.9948H258V48.0052H260Z" fill="white" fill-opacity="0.5" mask="url(#path-5-inside-3_12_228)"/>
<mask id="path-7-inside-4_12_228" fill="white">
<path fill-rule="evenodd" clip-rule="evenodd" d="M1027 46.9948C1722.24 46.6195 2282.64 26.1706 2282.64 1C2282.64 0.665822 2282.54 0.332477 2282.34 0H2292.68C2292.48 0.332477 2292.38 0.665822 2292.38 1C2292.38 26.1704 2852.77 46.6191 3548 46.9947V48.0053C2852.77 48.3809 2292.38 68.8296 2292.38 94C2292.38 94.6701 2292.78 95.3369 2293.57 96H2281.45C2282.24 95.3369 2282.64 94.6701 2282.64 94C2282.64 68.8294 1722.24 48.3805 1027 48.0052L1027 46.9948Z"/>
</mask>
<path d="M1027 46.9948L1027 45.9948L1026 45.9953V46.9948H1027ZM2282.34 0V-1H2280.59L2281.48 0.508863L2282.34 0ZM2292.68 0L2293.54 0.508863L2294.43 -1H2292.68V0ZM3548 46.9947H3549V45.9953L3548 45.9947L3548 46.9947ZM3548 48.0053L3548 49.0053L3549 49.0047V48.0053H3548ZM2293.57 96V97H2296.3L2294.21 95.2355L2293.57 96ZM2281.45 96L2280.81 95.2355L2278.72 97H2281.45V96ZM1027 48.0052H1026V49.0047L1027 49.0052L1027 48.0052ZM1027 47.9948C1374.63 47.8071 1688.55 42.601 1915.57 34.295C2029.08 30.1421 2120.87 25.2138 2184.3 19.7491C2216.01 17.0171 2240.65 14.1491 2257.38 11.1722C2265.73 9.68509 2272.16 8.1632 2276.51 6.60173C2278.68 5.82324 2280.4 5.01416 2281.59 4.15763C2282.75 3.32491 2283.64 2.28256 2283.64 1H2281.64C2281.64 1.29061 2281.43 1.8122 2280.43 2.53327C2279.46 3.23051 2277.94 3.96506 2275.84 4.71909C2271.64 6.22269 2265.35 7.72147 2257.03 9.20314C2240.39 12.1638 2215.82 15.0258 2184.13 17.7565C2120.75 23.2169 2029 28.1438 1915.5 32.2963C1688.51 40.6012 1374.61 45.8071 1027 45.9948L1027 47.9948ZM2283.64 1C2283.64 0.459635 2283.48 -0.0474805 2283.2 -0.508863L2281.48 0.508863C2281.6 0.712435 2281.64 0.87201 2281.64 1H2283.64ZM2282.34 1H2292.68V-1H2282.34V1ZM2293.38 1C2293.38 0.87201 2293.42 0.712435 2293.54 0.508863L2291.82 -0.508863C2291.54 -0.0474805 2291.38 0.459635 2291.38 1H2293.38ZM3548 45.9947C3200.39 45.8069 2886.5 40.6009 2659.51 32.2961C2546.02 28.1435 2454.27 23.2167 2390.89 17.7563C2359.2 15.0257 2334.63 12.1637 2317.99 9.20306C2309.67 7.72139 2303.38 6.22263 2299.18 4.71905C2297.08 3.96502 2295.57 3.23049 2294.59 2.53325C2293.59 1.81219 2293.38 1.2906 2293.38 1H2291.38C2291.38 2.28255 2292.27 3.32488 2293.43 4.1576C2294.62 5.01413 2296.34 5.8232 2298.51 6.60169C2302.86 8.16313 2309.29 9.68501 2317.64 11.1721C2334.37 14.149 2359.01 17.017 2390.72 19.7489C2454.14 25.2136 2545.94 30.1418 2659.44 34.2947C2886.46 42.6007 3200.37 47.8069 3548 47.9947L3548 45.9947ZM3547 46.9947V48.0053H3549V46.9947H3547ZM3548 47.0053C3200.37 47.1931 2886.46 52.3993 2659.44 60.7053C2545.94 64.8582 2454.14 69.7864 2390.72 75.2511C2359.01 77.983 2334.37 80.851 2317.64 83.8279C2309.29 85.315 2302.86 86.8369 2298.51 88.3983C2296.34 89.1768 2294.62 89.9859 2293.43 90.8424C2292.27 91.6751 2291.38 92.7175 2291.38 94H2293.38C2293.38 93.7094 2293.59 93.1878 2294.59 92.4668C2295.57 91.7695 2297.08 91.035 2299.18 90.281C2303.38 88.7774 2309.67 87.2786 2317.99 85.7969C2334.63 82.8363 2359.2 79.9743 2390.89 77.2437C2454.27 71.7833 2546.02 66.8565 2659.51 62.7039C2886.5 54.3991 3200.39 49.1931 3548 49.0053L3548 47.0053ZM2291.38 94C2291.38 95.0958 2292.03 96.0161 2292.92 96.7645L2294.21 95.2355C2293.53 94.6576 2293.38 94.2444 2293.38 94H2291.38ZM2293.57 95H2281.45V97H2293.57V95ZM2282.1 96.7645C2282.99 96.0161 2283.64 95.0958 2283.64 94H2281.64C2281.64 94.2444 2281.5 94.6576 2280.81 95.2355L2282.1 96.7645ZM2283.64 94C2283.64 92.7174 2282.75 91.6751 2281.59 90.8424C2280.4 89.9858 2278.68 89.1768 2276.51 88.3983C2272.16 86.8368 2265.73 85.3149 2257.38 83.8278C2240.65 80.8509 2216.01 77.9829 2184.3 75.2509C2120.87 69.7862 2029.08 64.8579 1915.57 60.705C1688.55 52.399 1374.63 47.1929 1027 47.0052L1027 49.0052C1374.61 49.1929 1688.51 54.3988 1915.5 62.7037C2029 66.8562 2120.75 71.7831 2184.13 77.2435C2215.82 79.9742 2240.39 82.8362 2257.03 85.7969C2265.35 87.2785 2271.64 88.7773 2275.84 90.2809C2277.94 91.0349 2279.46 91.7695 2280.43 92.4667C2281.43 93.1878 2281.64 93.7094 2281.64 94H2283.64ZM1028 48.0052V46.9948H1026V48.0052H1028Z" fill="white" fill-opacity="0.5" mask="url(#path-7-inside-4_12_228)"/>
</g>
</g>
<defs>
<clipPath id="clip0_12_228">
<rect width="3553" height="96" fill="white"/>
</clipPath>
</defs>
</svg>
