<svg width="256" height="256" viewBox="0 0 256 256" fill="none" xmlns="http://www.w3.org/2000/svg">
<g clip-path="url(#clip0_26_2)">
<path fill-rule="evenodd" clip-rule="evenodd" d="M127.999 0C163.345 0 195.347 14.3276 218.51 37.4901C241.398 60.3787 255.657 91.8972 255.992 126.741V126.814L255.996 127.289L256 127.994L255.992 129.173V129.251C255.657 164.094 241.398 195.609 218.51 218.498C195.347 241.66 163.348 255.987 127.999 255.987C92.6554 255.987 60.6536 241.66 37.4907 218.498C14.3278 195.335 0 163.333 0 127.989C0 92.6464 14.3278 60.6485 37.4907 37.4861C60.6536 14.3236 92.6554 0 127.999 0ZM201.568 73.5625C206.42 73.5625 211.128 74.203 215.61 75.3912C202.409 62.5814 184.409 54.6928 164.561 54.6928C144.317 54.6928 125.99 62.8955 112.73 76.16C99.465 89.4238 91.2625 107.751 91.2625 127.994C91.2625 148.237 99.465 166.563 112.73 179.823C125.995 193.088 144.321 201.291 164.561 201.291C184.409 201.291 202.413 193.402 215.61 180.592C211.132 181.784 206.425 182.421 201.571 182.421C186.543 182.421 172.933 176.328 163.086 166.478C153.236 156.628 147.144 143.018 147.144 127.989C147.144 112.962 153.236 99.3506 163.086 89.5014C172.929 79.6589 186.535 73.5625 201.568 73.5625ZM227.227 102.334C220.659 95.7704 211.587 91.7075 201.564 91.7075C191.541 91.7075 182.469 95.7704 175.901 102.334C169.333 108.902 165.273 117.975 165.273 127.998C165.273 138.021 169.336 147.093 175.901 153.661C182.469 160.225 191.541 164.287 201.564 164.287C211.587 164.287 220.659 160.225 227.227 153.661C233.791 147.093 237.855 138.021 237.855 127.998L237.85 127.531C237.73 117.688 233.69 108.798 227.227 102.334ZM164.557 36.5518C175.956 36.5518 186.866 38.6377 196.933 42.4512C178.083 27.2458 154.103 18.141 127.999 18.141C97.6655 18.141 70.1972 30.4391 50.3165 50.3156C30.4395 70.1922 18.1413 97.6595 18.1413 127.994C18.1413 158.332 30.4355 185.795 50.3165 205.676C70.1972 225.553 97.661 237.851 127.999 237.851C154.107 237.851 178.083 228.746 196.933 213.536C186.866 217.35 175.956 219.436 164.557 219.436C139.307 219.436 116.442 209.199 99.8995 192.653C83.3536 176.106 73.117 153.246 73.117 127.998C73.117 102.749 83.3536 79.8848 99.8995 63.3385C116.442 46.7881 139.307 36.5518 164.557 36.5518Z" fill="#04D484"/>
</g>
<defs>
<clipPath id="clip0_26_2">
<rect width="256" height="256" fill="white"/>
</clipPath>
</defs>
</svg>
