<svg width="268" height="196" viewBox="0 0 268 196" fill="none" xmlns="http://www.w3.org/2000/svg">
<g clip-path="url(#clip0_2540_6164)">
<mask id="mask0_2540_6164" style="mask-type:alpha" maskUnits="userSpaceOnUse" x="89" y="0" width="90" height="90">
<path d="M134 0L147.777 11.7403L165.82 13.1802L167.26 31.2234L179 45L167.26 58.7766L165.82 76.8198L147.777 78.2597L134 90L120.223 78.2597L102.18 76.8198L100.74 58.7766L89 45L100.74 31.2234L102.18 13.1802L120.223 11.7403L134 0Z" fill="#D9D9D9"/>
</mask>
<g mask="url(#mask0_2540_6164)">
<rect x="85.2985" y="-12.333" width="98.6301" height="115.89" fill="#0D0D0E"/>
<g filter="url(#filter0_f_2540_6164)">
<path d="M669.658 -373.072C513.386 -190.183 72.1813 153.717 -442.464 66.2007C-265.482 245.742 204.718 409.246 669.658 -373.072Z" fill="#002E48"/>
</g>
<g filter="url(#filter1_f_2540_6164)">
<path d="M556.09 -284.219C429.354 -135.881 71.5287 143.044 -345.88 72.034C-202.33 217.672 179.034 350.315 556.09 -284.219Z" fill="#0072A3"/>
</g>
<g filter="url(#filter2_f_2540_6164)">
<path d="M556.092 -284.219C429.356 -135.88 87.1325 195.505 -345.878 72.0347C-202.328 217.673 187.27 321.228 556.092 -284.219Z" fill="#00C2CE"/>
</g>
<g filter="url(#filter3_f_2540_6164)">
<path d="M610.05 -306.709C460.834 -152.831 63.1424 195.398 -398.989 108.058C-253.706 238.86 162.663 310.112 610.05 -306.709Z" fill="#EF6619"/>
</g>
<g filter="url(#filter4_f_2540_6164)">
<path d="M556.092 -284.218C429.356 -135.879 97.778 231.104 -345.878 72.0357C-205.903 182.921 180.751 301.918 556.092 -284.218Z" fill="#CF7154"/>
</g>
<g filter="url(#filter5_f_2540_6164)">
<path d="M556.091 -284.219C429.355 -135.88 116.467 279.643 -345.879 72.0349C-153.848 187.032 186.288 226.343 556.091 -284.219Z" fill="#F1F9A0"/>
</g>
</g>
<path d="M59.31 180H49.68V119.7H59.31V180ZM14.22 180H4.5V119.7H14.22V180ZM54.45 153.99H7.65V145.26H54.45V153.99ZM74.6965 180H63.8965L90.8065 119.7H104.486L131.396 180H120.416L101.426 137.25L97.9165 128.7H97.1965L93.6865 137.25L74.6965 180ZM117.446 164.34H77.2165V155.61H117.446V164.34ZM165.506 180.9C159.206 180.9 153.686 179.64 148.946 177.12C144.266 174.54 140.606 170.94 137.966 166.32C135.386 161.64 134.096 156.15 134.096 149.85C134.096 143.55 135.386 138.09 137.966 133.47C140.606 128.79 144.266 125.19 148.946 122.67C153.686 120.09 159.206 118.8 165.506 118.8C171.926 118.8 177.476 120.09 182.156 122.67C186.836 125.19 190.466 128.79 193.046 133.47C195.686 138.09 197.006 143.55 197.006 149.85C197.006 156.15 195.686 161.64 193.046 166.32C190.466 170.94 186.836 174.54 182.156 177.12C177.476 179.64 171.926 180.9 165.506 180.9ZM185.306 192.69H173.066L158.756 173.43H169.646L185.306 192.69ZM165.506 171.54C170.246 171.54 174.176 170.79 177.296 169.29C180.476 167.73 182.846 165.36 184.406 162.18C185.966 158.94 186.746 154.83 186.746 149.85C186.746 144.81 185.966 140.7 184.406 137.52C182.846 134.34 180.476 132 177.296 130.5C174.176 128.94 170.246 128.16 165.506 128.16C160.766 128.16 156.806 128.94 153.626 130.5C150.506 132 148.166 134.34 146.606 137.52C145.106 140.7 144.356 144.81 144.356 149.85C144.356 154.83 145.106 158.94 146.606 162.18C148.166 165.36 150.506 167.73 153.626 169.29C156.806 170.79 160.766 171.54 165.506 171.54ZM233.798 180.9C227.498 180.9 221.978 179.64 217.238 177.12C212.558 174.54 208.898 170.94 206.258 166.32C203.678 161.64 202.388 156.15 202.388 149.85C202.388 143.55 203.678 138.09 206.258 133.47C208.898 128.79 212.558 125.19 217.238 122.67C221.978 120.09 227.498 118.8 233.798 118.8C240.218 118.8 245.768 120.09 250.448 122.67C255.128 125.19 258.758 128.79 261.338 133.47C263.978 138.09 265.298 143.55 265.298 149.85C265.298 156.15 263.978 161.64 261.338 166.32C258.758 170.94 255.128 174.54 250.448 177.12C245.768 179.64 240.218 180.9 233.798 180.9ZM253.598 192.69H241.358L227.048 173.43H237.938L253.598 192.69ZM233.798 171.54C238.538 171.54 242.468 170.79 245.588 169.29C248.768 167.73 251.138 165.36 252.698 162.18C254.258 158.94 255.038 154.83 255.038 149.85C255.038 144.81 254.258 140.7 252.698 137.52C251.138 134.34 248.768 132 245.588 130.5C242.468 128.94 238.538 128.16 233.798 128.16C229.058 128.16 225.098 128.94 221.918 130.5C218.798 132 216.458 134.34 214.898 137.52C213.398 140.7 212.648 144.81 212.648 149.85C212.648 154.83 213.398 158.94 214.898 162.18C216.458 165.36 218.798 167.73 221.918 169.29C225.098 170.79 229.058 171.54 233.798 171.54Z" fill="white"/>
</g>
<defs>
<filter id="filter0_f_2540_6164" x="-463.554" y="-394.162" width="1154.3" height="630.309" filterUnits="userSpaceOnUse" color-interpolation-filters="sRGB">
<feFlood flood-opacity="0" result="BackgroundImageFix"/>
<feBlend mode="normal" in="SourceGraphic" in2="BackgroundImageFix" result="shape"/>
<feGaussianBlur stdDeviation="10.545" result="effect1_foregroundBlur_2540_6164"/>
</filter>
<filter id="filter1_f_2540_6164" x="-366.97" y="-305.309" width="944.15" height="519.191" filterUnits="userSpaceOnUse" color-interpolation-filters="sRGB">
<feFlood flood-opacity="0" result="BackgroundImageFix"/>
<feBlend mode="normal" in="SourceGraphic" in2="BackgroundImageFix" result="shape"/>
<feGaussianBlur stdDeviation="10.545" result="effect1_foregroundBlur_2540_6164"/>
</filter>
<filter id="filter2_f_2540_6164" x="-366.968" y="-305.309" width="944.15" height="510.383" filterUnits="userSpaceOnUse" color-interpolation-filters="sRGB">
<feFlood flood-opacity="0" result="BackgroundImageFix"/>
<feBlend mode="normal" in="SourceGraphic" in2="BackgroundImageFix" result="shape"/>
<feGaussianBlur stdDeviation="10.545" result="effect1_foregroundBlur_2540_6164"/>
</filter>
<filter id="filter3_f_2540_6164" x="-443.512" y="-351.232" width="1098.09" height="592.711" filterUnits="userSpaceOnUse" color-interpolation-filters="sRGB">
<feFlood flood-opacity="0" result="BackgroundImageFix"/>
<feBlend mode="normal" in="SourceGraphic" in2="BackgroundImageFix" result="shape"/>
<feGaussianBlur stdDeviation="22.2616" result="effect1_foregroundBlur_2540_6164"/>
</filter>
<filter id="filter4_f_2540_6164" x="-366.968" y="-305.308" width="944.15" height="489.77" filterUnits="userSpaceOnUse" color-interpolation-filters="sRGB">
<feFlood flood-opacity="0" result="BackgroundImageFix"/>
<feBlend mode="normal" in="SourceGraphic" in2="BackgroundImageFix" result="shape"/>
<feGaussianBlur stdDeviation="10.545" result="effect1_foregroundBlur_2540_6164"/>
</filter>
<filter id="filter5_f_2540_6164" x="-366.969" y="-305.308" width="944.15" height="471.083" filterUnits="userSpaceOnUse" color-interpolation-filters="sRGB">
<feFlood flood-opacity="0" result="BackgroundImageFix"/>
<feBlend mode="normal" in="SourceGraphic" in2="BackgroundImageFix" result="shape"/>
<feGaussianBlur stdDeviation="10.545" result="effect1_foregroundBlur_2540_6164"/>
</filter>
<clipPath id="clip0_2540_6164">
<rect width="268" height="196" fill="white"/>
</clipPath>
</defs>
</svg>
