<svg
  width="215"
  height="34"
  viewBox="0 0 215 34"
  fill="none"
  xmlns="http://www.w3.org/2000/svg"
>
  <path
    fill-rule="evenodd"
    clip-rule="evenodd"
    d="M16.9356 0.206055C21.5182 0.206055 25.6674 2.06369 28.6706 5.06682C31.6383 8.03444 33.487 12.121 33.5304 16.6387V16.6481L33.5309 16.7097L33.5315 16.8011L33.5304 16.954V16.964C33.487 21.4817 31.6383 25.5677 28.6706 28.5353C25.6674 31.5384 21.5187 33.3961 16.9356 33.3961C12.3531 33.3961 8.20387 31.5384 5.20069 28.5353C2.19751 25.5322 0.339844 21.383 0.339844 16.8005C0.339844 12.2181 2.19751 8.06943 5.20069 5.0663C8.20387 2.06317 12.3531 0.206055 16.9356 0.206055ZM26.4741 9.74378C27.1032 9.74378 27.7136 9.82683 28.2947 9.98085C26.5832 8.32003 24.2493 7.29724 21.6759 7.29724C19.0512 7.29724 16.6751 8.36075 14.9558 10.0806C13.236 11.8003 12.1725 14.1765 12.1725 16.8011C12.1725 19.4256 13.236 21.8018 14.9558 23.521C16.6756 25.2408 19.0518 26.3044 21.6759 26.3044C24.2493 26.3044 26.5837 25.2815 28.2947 23.6207C27.7141 23.7753 27.1038 23.8578 26.4746 23.8578C24.5261 23.8578 22.7614 23.0679 21.4848 21.7907C20.2077 20.5137 19.4178 18.749 19.4178 16.8005C19.4178 14.852 20.2077 13.0873 21.4848 11.8103C22.7609 10.5342 24.525 9.74378 26.4741 9.74378ZM29.801 13.4742C28.9494 12.6232 27.7731 12.0964 26.4735 12.0964C25.174 12.0964 23.9977 12.6232 23.1462 13.4742C22.2946 14.3258 21.7683 15.502 21.7683 16.8016C21.7683 18.1011 22.2951 19.2774 23.1462 20.1289C23.9977 20.98 25.174 21.5067 26.4735 21.5067C27.7731 21.5067 28.9494 20.98 29.801 20.1289C30.652 19.2774 31.1788 18.1011 31.1788 16.8016L31.1783 16.741C31.1626 15.465 30.6389 14.3122 29.801 13.4742ZM21.6754 4.94517C23.1535 4.94517 24.5678 5.21562 25.8731 5.71005C23.4291 3.7386 20.32 2.55812 16.9356 2.55812C13.0026 2.55812 9.44125 4.15262 6.86362 6.72971C4.28648 9.30681 2.69195 12.8681 2.69195 16.8011C2.69195 20.7345 4.28595 24.2953 6.86362 26.8729C9.44125 29.45 13.0021 31.0445 16.9356 31.0445C20.3205 31.0445 23.4291 29.8641 25.8731 27.8921C24.5678 28.3865 23.1535 28.6569 21.6754 28.6569C18.4017 28.6569 15.4372 27.3298 13.2923 25.1844C11.147 23.0391 9.81981 20.0751 9.81981 16.8016C9.81981 13.528 11.147 10.5635 13.2923 8.41819C15.4372 6.27236 18.4017 4.94517 21.6754 4.94517Z"
    fill="#04D484"
  />
  <path
    fill-rule="evenodd"
    clip-rule="evenodd"
    d="M139.419 28.4411C136.908 28.4411 134.808 27.6104 133.118 25.9481C131.452 24.2646 130.618 22.22 130.618 19.8143C130.618 17.3654 131.452 15.3208 133.118 13.6806C134.808 12.0187 136.907 11.1875 139.419 11.1875C141.041 11.1875 142.52 11.5702 143.853 12.3356C145.187 13.1011 146.186 14.129 146.853 15.419L143.753 17.1902C143.375 16.4032 142.803 15.7852 142.036 15.3367C141.27 14.8883 140.386 14.6643 139.386 14.6643C137.919 14.6643 136.685 15.1564 135.686 16.1402C134.708 17.1461 134.219 18.3707 134.219 19.8138C134.219 21.2568 134.708 22.4815 135.686 23.4873C136.685 24.4717 137.919 24.9633 139.386 24.9633C140.364 24.9633 141.247 24.7393 142.036 24.2908C142.825 23.8428 143.42 23.2249 143.819 22.4378L146.92 24.1762C146.209 25.4882 145.18 26.5269 143.836 27.2925C142.492 28.0588 141.02 28.4411 139.419 28.4411Z"
    fill="#04D484"
  />
  <path d="M127.845 11.6143H124.245V28.0146H127.845V11.6143Z" fill="#04D484" />
  <path
    fill-rule="evenodd"
    clip-rule="evenodd"
    d="M127.645 8.49876C127.201 8.93594 126.667 9.15478 126.045 9.15478C125.423 9.15478 124.879 8.93594 124.412 8.49876C123.968 8.0395 123.745 7.5037 123.745 6.89135C123.745 6.27901 123.968 5.7545 124.412 5.31681C124.857 4.85756 125.401 4.62793 126.045 4.62793C126.69 4.62793 127.235 4.85756 127.679 5.31681C128.123 5.75399 128.346 6.27901 128.346 6.89135C128.345 7.5037 128.112 8.0395 127.645 8.49876Z"
    fill="#04D484"
  />
  <path
    fill-rule="evenodd"
    clip-rule="evenodd"
    d="M114.538 11.1875C116.428 11.1875 117.95 11.7885 119.106 12.9916C120.26 14.1942 120.839 15.8125 120.839 17.8463V28.0142H117.238V18.0759C117.238 16.9606 116.949 16.0857 116.372 15.4519C115.794 14.8174 115.005 14.5004 114.005 14.5004C112.871 14.5004 111.983 14.8667 111.338 15.5993C110.694 16.3319 110.37 17.4086 110.37 18.83V28.0142H106.771V18.0759C106.771 16.9385 106.499 16.0586 105.954 15.4354C105.409 14.8123 104.637 14.5004 103.637 14.5004C102.526 14.5004 101.631 14.8724 100.953 15.6158C100.275 16.359 99.9359 17.4307 99.9359 18.83V28.0142H96.3359V11.6144H99.9359V13.5824C101.003 11.9864 102.592 11.188 104.703 11.188C106.836 11.188 108.415 12.0521 109.438 13.7792C110.527 12.0516 112.227 11.1875 114.538 11.1875Z"
    fill="#04D484"
  />
  <path d="M72.0887 5.05371H68.4883V28.0142H72.0887V5.05371Z" fill="#04D484" />
  <path
    fill-rule="evenodd"
    clip-rule="evenodd"
    d="M57.0147 16.1402C57.0147 16.6432 57.2815 17.0531 57.8145 17.3706C58.3481 17.6875 59.1261 17.988 60.1478 18.2727C60.9258 18.4473 61.6035 18.6333 62.1815 18.83C62.7595 19.0268 63.3703 19.3165 64.0152 19.6992C64.66 20.082 65.1544 20.5849 65.4985 21.208C65.843 21.8311 66.0038 22.5581 65.9814 23.3892C65.9814 24.9638 65.3591 26.1993 64.1148 27.0952C62.8702 27.9916 61.3257 28.4401 59.4811 28.4401C57.8365 28.4401 56.4252 28.101 55.2473 27.4234C54.0695 26.7459 53.2137 25.8052 52.6807 24.6026L55.7809 22.8314C56.3365 24.4059 57.5697 25.1929 59.4811 25.1929C61.3701 25.1929 62.3146 24.5805 62.3146 23.3558C62.3146 22.4594 61.2589 21.7597 59.1475 21.2568C58.3476 21.0601 57.6751 20.8633 57.1306 20.6666C56.586 20.4698 55.9862 20.1852 55.3303 19.8138C54.6746 19.4418 54.1744 18.9502 53.8303 18.3379C53.4858 17.7256 53.3244 17.015 53.3469 16.206C53.3469 14.6972 53.9248 13.4838 55.0802 12.5653C56.2581 11.6472 57.7138 11.1875 59.4477 11.1875C60.8256 11.1875 62.0536 11.4881 63.1312 12.0896C64.2094 12.6907 65.0369 13.5269 65.6149 14.5986L62.5814 16.2712C62.0259 15.025 60.9812 14.4018 59.4477 14.4018C58.7366 14.4018 58.1529 14.5549 57.6976 14.8611C57.2423 15.1672 57.0147 15.5936 57.0147 16.1402Z"
    fill="#04D484"
  />
  <path d="M49.8085 5.05371H45.9746V28.0142H49.8085V5.05371Z" fill="#04D484" />
  <path
    fill-rule="evenodd"
    clip-rule="evenodd"
    d="M88.9965 13.9431V11.6144H92.5973V28.0147H88.9965V25.6532C87.641 27.5118 85.6962 28.4411 83.1624 28.4411C80.8734 28.4411 78.9176 27.6105 77.2949 25.9481C75.6726 24.2862 74.8613 22.2416 74.8613 19.8143C74.8613 17.387 75.6726 15.3425 77.2949 13.6806C78.9176 12.0187 80.8729 11.1875 83.1624 11.1875C85.6962 11.1875 87.6405 12.106 88.9965 13.9431ZM79.9623 23.5865C80.9627 24.5703 82.2184 25.0624 83.7294 25.0624C85.2403 25.0624 86.4966 24.5703 87.4964 23.5865C88.4968 22.5807 88.9965 21.3231 88.9965 19.8143C88.9965 18.3055 88.4962 17.0592 87.4964 16.075C86.4966 15.0692 85.2403 14.5662 83.7294 14.5662C82.2179 14.5662 80.9627 15.0692 79.9623 16.075C78.9625 17.0592 78.4623 18.305 78.4623 19.8143C78.4618 21.301 78.962 22.5586 79.9623 23.5865Z"
    fill="#04D484"
  />
  <path
    fill-rule="evenodd"
    clip-rule="evenodd"
    d="M187.166 26.1834C185.477 27.8452 183.399 28.6765 180.932 28.6765C178.464 28.6765 176.386 27.8457 174.697 26.1834C172.986 24.5 172.13 22.4554 172.13 20.0497C172.13 17.6439 172.986 15.5999 174.697 13.9159C176.386 12.254 178.464 11.4229 180.932 11.4229C183.399 11.4229 185.477 12.2535 187.166 13.9159C188.877 15.5993 189.732 17.6444 189.732 20.0497C189.732 22.4548 188.877 24.5 187.166 26.1834ZM175.731 20.0502C175.731 21.5374 176.231 22.7723 177.231 23.7566C178.231 24.7403 179.465 25.2325 180.931 25.2325C182.397 25.2325 183.631 24.7403 184.631 23.7566C185.631 22.7723 186.132 21.5374 186.132 20.0502C186.132 18.5634 185.631 17.3279 184.631 16.3437C183.631 15.3594 182.397 14.8678 180.931 14.8678C179.464 14.8678 178.231 15.3599 177.231 16.3437C176.231 17.3274 175.731 18.5629 175.731 20.0502Z"
    fill="#04D484"
  />
  <path
    fill-rule="evenodd"
    clip-rule="evenodd"
    d="M208.449 11.1875C210.382 11.1875 211.932 11.7942 213.099 13.0081C214.266 14.222 214.85 15.8674 214.85 17.9449V28.0147H211.249V18.3055C211.249 17.0814 210.916 16.1407 210.249 15.4847C209.582 14.8287 208.671 14.501 207.515 14.501C206.204 14.501 205.17 14.9001 204.414 15.6979C203.659 16.4962 203.281 17.6716 203.281 19.224V28.0147H199.681V11.6144H203.281V13.7135C204.393 12.0295 206.115 11.1875 208.449 11.1875Z"
    fill="#04D484"
  />
  <path d="M195.975 11.6143H192.374V28.0146H195.975V11.6143Z" fill="#04D484" />
  <path
    fill-rule="evenodd"
    clip-rule="evenodd"
    d="M195.775 8.49876C195.331 8.93594 194.797 9.15478 194.175 9.15478C193.552 9.15478 193.008 8.93594 192.541 8.49876C192.097 8.0395 191.874 7.5037 191.874 6.89135C191.874 6.27901 192.097 5.7545 192.541 5.31681C192.985 4.85756 193.53 4.62793 194.175 4.62793C194.819 4.62793 195.364 4.85756 195.808 5.31681C196.252 5.75399 196.475 6.27901 196.475 6.89135C196.475 7.5037 196.242 8.0395 195.775 8.49876Z"
    fill="#04D484"
  />
  <path
    fill-rule="evenodd"
    clip-rule="evenodd"
    d="M160.426 28.4406C156.915 28.4406 154.004 27.3037 151.692 25.0295C149.381 22.7117 148.226 19.8801 148.226 16.5343C148.226 13.1669 149.381 10.3461 151.692 8.07186C153.981 5.77608 156.893 4.62793 160.426 4.62793C162.538 4.62793 164.488 5.12006 166.278 6.10383C168.067 7.08811 169.461 8.42171 170.461 10.1056L167.128 12.0079C166.505 10.8711 165.6 9.96902 164.41 9.30173C163.221 8.63489 161.893 8.30149 160.426 8.30149C157.96 8.30149 155.937 9.07768 154.359 10.6307C152.826 12.1615 152.059 14.1295 152.059 16.5348C152.059 18.94 152.826 20.908 154.359 22.4389C155.937 23.9913 157.96 24.768 160.426 24.768C161.893 24.768 163.227 24.4341 164.427 23.7674C165.627 23.1006 166.527 22.1985 167.128 21.0616L170.461 22.9311C169.505 24.5929 168.117 25.9378 166.294 26.9652C164.538 27.949 162.583 28.4406 160.426 28.4406Z"
    fill="#04D484"
  />
</svg>
