<svg fill="none" height="91" viewBox="0 0 90 91" width="90" xmlns="http://www.w3.org/2000/svg" xmlns:xlink="http://www.w3.org/1999/xlink"><filter id="a" color-interpolation-filters="sRGB" filterUnits="userSpaceOnUse" height="630.309" width="1154.3" x="-552.554" y="-393.298"><feFlood flood-opacity="0" result="BackgroundImageFix"/><feBlend in="SourceGraphic" in2="BackgroundImageFix" mode="normal" result="shape"/><feGaussianBlur result="effect1_foregroundBlur_1188_4627" stdDeviation="10.545"/></filter><filter id="b" color-interpolation-filters="sRGB" filterUnits="userSpaceOnUse" height="519.191" width="944.15" x="-455.97" y="-304.446"><feFlood flood-opacity="0" result="BackgroundImageFix"/><feBlend in="SourceGraphic" in2="BackgroundImageFix" mode="normal" result="shape"/><feGaussianBlur result="effect1_foregroundBlur_1188_4627" stdDeviation="10.545"/></filter><filter id="c" color-interpolation-filters="sRGB" filterUnits="userSpaceOnUse" height="510.384" width="944.15" x="-455.968" y="-304.445"><feFlood flood-opacity="0" result="BackgroundImageFix"/><feBlend in="SourceGraphic" in2="BackgroundImageFix" mode="normal" result="shape"/><feGaussianBlur result="effect1_foregroundBlur_1188_4627" stdDeviation="10.545"/></filter><filter id="d" color-interpolation-filters="sRGB" filterUnits="userSpaceOnUse" height="592.711" width="1098.09" x="-532.512" y="-350.368"><feFlood flood-opacity="0" result="BackgroundImageFix"/><feBlend in="SourceGraphic" in2="BackgroundImageFix" mode="normal" result="shape"/><feGaussianBlur result="effect1_foregroundBlur_1188_4627" stdDeviation="22.2616"/></filter><filter id="e" color-interpolation-filters="sRGB" filterUnits="userSpaceOnUse" height="489.77" width="944.15" x="-455.968" y="-304.444"><feFlood flood-opacity="0" result="BackgroundImageFix"/><feBlend in="SourceGraphic" in2="BackgroundImageFix" mode="normal" result="shape"/><feGaussianBlur result="effect1_foregroundBlur_1188_4627" stdDeviation="10.545"/></filter><filter id="f" color-interpolation-filters="sRGB" filterUnits="userSpaceOnUse" height="471.082" width="944.15" x="-455.969" y="-304.445"><feFlood flood-opacity="0" result="BackgroundImageFix"/><feBlend in="SourceGraphic" in2="BackgroundImageFix" mode="normal" result="shape"/><feGaussianBlur result="effect1_foregroundBlur_1188_4627" stdDeviation="10.545"/></filter><mask id="g" height="91" maskUnits="userSpaceOnUse" width="90" x="0" y="0"><path d="m45 .86377 13.7766 11.74033 18.0432 1.4399 1.4399 18.0432 11.7403 13.7766-11.7403 13.7766-1.4399 18.0432-18.0432 1.4398-13.7766 11.7404-13.7766-11.7404-18.0432-1.4398-1.4399-18.0432-11.7403-13.7766 11.7403-13.7766 1.4399-18.0432 18.0432-1.4399z" fill="#d9d9d9"/></mask><g mask="url(#g)"><path d="m-3.70151-11.4692h98.6301v115.89h-98.6301z" fill="#0d0d0e"/><g filter="url(#a)"><path d="m580.658-372.208c-156.272 182.889-597.4767 526.789-1112.122 439.2725 176.982 179.5415 647.182 343.0445 1112.122-439.2725z" fill="#002e48"/></g><g filter="url(#b)"><path d="m467.09-283.356c-126.736 148.339-484.5613 427.264-901.97 356.2538 143.55 145.6382 524.9144 278.2812 901.97-356.2538z" fill="#0072a3"/></g><g filter="url(#c)"><path d="m467.092-283.355c-126.736 148.339-468.95949 479.724-901.97 356.2534 143.55 145.6386 533.1481 249.1936 901.97-356.2534z" fill="#00c2ce"/></g><g filter="url(#d)"><path d="m521.05-305.845c-149.216 153.877-546.9076 502.107-1009.039 414.767 145.283 130.802 561.6519 202.054 1009.039-414.767z" fill="#ef6619"/></g><g filter="url(#e)"><path d="m467.092-283.354c-126.736 148.339-458.31401 515.322-901.97 356.2535 139.975 110.8855 526.6294 229.8825 901.97-356.2535z" fill="#cf7154"/></g><g filter="url(#f)"><path d="m467.091-283.355c-126.736 148.339-439.6243 563.862-901.97 356.2537 192.031 114.9973 532.1667 154.3083 901.97-356.2537z" fill="#f1f9a0"/></g></g></svg>