<svg width="324" height="370" viewBox="0 0 324 370" fill="none" xmlns="http://www.w3.org/2000/svg">
<g clip-path="url(#clip0_2767_8294)">
<path fill-rule="evenodd" clip-rule="evenodd" d="M284.083 165.644L393.14 165.644C399.794 165.644 405.188 160.245 405.188 153.585L405.188 110.429C405.188 103.77 399.794 98.371 393.14 98.371L284.083 98.371C277.429 98.371 272.035 103.77 272.035 110.429L272.035 153.585C272.035 160.245 277.429 165.644 284.083 165.644ZM393.14 166.278C400.144 166.278 405.822 160.596 405.822 153.585L405.822 110.429C405.822 103.419 400.144 97.7363 393.14 97.7363L284.083 97.7363C277.079 97.7363 271.401 103.419 271.401 110.429L271.401 153.585C271.401 160.596 277.079 166.278 284.083 166.278L393.14 166.278Z" fill="#2A2A2B"/>
<path fill-rule="evenodd" clip-rule="evenodd" d="M284.083 233.551L393.14 233.551C399.794 233.551 405.188 228.152 405.188 221.493L405.188 178.337C405.188 171.677 399.794 166.278 393.14 166.278L284.083 166.278C277.429 166.278 272.035 171.677 272.035 178.337L272.035 221.493C272.035 228.152 277.429 233.551 284.083 233.551ZM393.14 234.186C400.144 234.186 405.822 228.503 405.822 221.493L405.822 178.337C405.822 171.327 400.144 165.644 393.14 165.644L284.083 165.644C277.079 165.644 271.401 171.327 271.401 178.337L271.401 221.493C271.401 228.503 277.079 234.186 284.083 234.186L393.14 234.186Z" fill="#2A2A2B"/>
<path fill-rule="evenodd" clip-rule="evenodd" d="M296.769 29.8289L314.524 29.8289C328.182 29.829 339.255 18.7474 339.255 5.07767L339.255 -12.6925C339.255 -26.3623 328.182 -37.4438 314.524 -37.4438L296.769 -37.4438C283.11 -37.4438 272.038 -26.3622 272.038 -12.6925L272.038 5.07766C272.038 18.7474 283.11 29.8289 296.769 29.8289ZM314.524 30.4636C328.533 30.4636 339.889 19.0979 339.889 5.07767L339.889 -12.6925C339.889 -26.7128 328.533 -38.0784 314.524 -38.0784L296.769 -38.0784C282.76 -38.0784 271.404 -26.7128 271.404 -12.6925L271.404 5.07766C271.404 19.0979 282.76 30.4636 296.769 30.4636L314.524 30.4636Z" fill="#2A2A2B"/>
<path fill-rule="evenodd" clip-rule="evenodd" d="M296.767 97.7363L314.522 97.7363C328.18 97.7363 339.253 86.6548 339.253 72.9851L339.253 55.2149C339.253 41.5451 328.18 30.4636 314.522 30.4636L296.767 30.4636C283.108 30.4636 272.036 41.5451 272.036 55.2149L272.036 72.985C272.036 86.6548 283.108 97.7363 296.767 97.7363ZM314.522 98.371C328.531 98.371 339.887 87.0053 339.887 72.9851L339.887 55.2149C339.887 41.1946 328.531 29.829 314.522 29.829L296.767 29.829C282.758 29.829 271.402 41.1946 271.402 55.2149L271.402 72.985C271.402 87.0053 282.758 98.371 296.767 98.371L314.522 98.371Z" fill="#2A2A2B"/>
<path fill-rule="evenodd" clip-rule="evenodd" d="M235.258 165.644L240.331 165.644C257.492 165.644 271.403 151.721 271.403 134.546L271.403 129.469C271.403 112.294 257.492 98.3709 240.331 98.3709L235.258 98.3709C218.098 98.3709 204.187 112.294 204.187 129.469L204.187 134.546C204.187 151.721 218.098 165.644 235.258 165.644ZM240.331 166.278C257.842 166.278 272.037 152.071 272.037 134.546L272.037 129.469C272.037 111.943 257.842 97.7363 240.331 97.7363L235.258 97.7363C217.748 97.7363 203.552 111.943 203.552 129.469L203.552 134.546C203.552 152.071 217.748 166.278 235.258 166.278L240.331 166.278Z" fill="#2A2A2B"/>
<path fill-rule="evenodd" clip-rule="evenodd" d="M235.258 233.551L240.331 233.551C257.492 233.551 271.403 219.628 271.403 202.453L271.403 197.376C271.403 180.201 257.492 166.278 240.331 166.278L235.258 166.278C218.098 166.278 204.187 180.201 204.187 197.376L204.187 202.453C204.187 219.628 218.098 233.551 235.258 233.551ZM240.331 234.186C257.842 234.186 272.037 219.979 272.037 202.453L272.037 197.376C272.037 179.851 257.842 165.644 240.331 165.644L235.258 165.644C217.748 165.644 203.552 179.851 203.552 197.376L203.552 202.453C203.552 219.979 217.748 234.186 235.258 234.186L240.331 234.186Z" fill="#2A2A2B"/>
<path fill-rule="evenodd" clip-rule="evenodd" d="M167.409 233.551L172.482 233.551C189.642 233.551 203.553 219.628 203.553 202.453L203.553 197.376C203.553 180.201 189.642 166.278 172.482 166.278L167.409 166.278C150.248 166.278 136.337 180.201 136.337 197.376L136.337 202.453C136.337 219.628 150.248 233.551 167.409 233.551ZM172.482 234.186C189.992 234.186 204.188 219.979 204.188 202.453L204.188 197.376C204.188 179.851 189.992 165.644 172.482 165.644L167.409 165.644C149.898 165.644 135.703 179.851 135.703 197.376L135.703 202.453C135.703 219.979 149.898 234.186 167.409 234.186L172.482 234.186Z" fill="#2A2A2B"/>
<path fill-rule="evenodd" clip-rule="evenodd" d="M169.943 301.458L238.109 301.458C256.671 301.458 271.717 286.398 271.717 267.822C271.717 249.245 256.671 234.185 238.109 234.185L169.943 234.185C151.382 234.185 136.335 249.245 136.335 267.822C136.335 286.398 151.382 301.458 169.943 301.458ZM238.109 302.093C257.021 302.093 272.352 286.749 272.352 267.822C272.352 248.894 257.021 233.551 238.109 233.551L169.943 233.551C151.032 233.551 135.701 248.894 135.701 267.822C135.701 286.749 151.032 302.093 169.943 302.093L238.109 302.093Z" fill="#2A2A2B"/>
<path fill-rule="evenodd" clip-rule="evenodd" d="M305.963 369.365L374.129 369.365C392.69 369.365 407.737 354.306 407.737 335.729C407.737 317.152 392.69 302.093 374.129 302.093L305.963 302.093C287.401 302.093 272.354 317.152 272.354 335.729C272.354 354.306 287.401 369.365 305.963 369.365ZM374.129 370C393.04 370 408.371 354.656 408.371 335.729C408.371 316.802 393.04 301.458 374.129 301.458L305.963 301.458C287.051 301.458 271.72 316.802 271.72 335.729C271.72 354.656 287.051 370 305.963 370L374.129 370Z" fill="#2A2A2B"/>
<path fill-rule="evenodd" clip-rule="evenodd" d="M169.943 369.365L238.109 369.365C256.671 369.365 271.717 354.306 271.717 335.729C271.717 317.152 256.671 302.093 238.109 302.093L169.943 302.093C151.382 302.093 136.335 317.152 136.335 335.729C136.335 354.306 151.382 369.365 169.943 369.365ZM238.109 370C257.021 370 272.352 354.656 272.352 335.729C272.352 316.802 257.021 301.458 238.109 301.458L169.943 301.458C151.032 301.458 135.701 316.802 135.701 335.729C135.701 354.656 151.032 370 169.943 370L238.109 370Z" fill="#2A2A2B"/>
<path fill-rule="evenodd" clip-rule="evenodd" d="M153.142 29.8289L254.282 29.829C263.738 29.829 271.403 22.1571 271.403 12.6935L271.403 -20.3083C271.403 -29.7719 263.738 -37.4438 254.282 -37.4438L153.142 -37.4438C143.686 -37.4438 136.02 -29.772 136.02 -20.3083L136.02 12.6934C136.02 22.1571 143.686 29.8289 153.142 29.8289ZM254.282 30.4636C264.088 30.4636 272.037 22.5076 272.037 12.6935L272.037 -20.3083C272.037 -30.1224 264.088 -38.0784 254.282 -38.0784L153.142 -38.0784C143.336 -38.0784 135.386 -30.1225 135.386 -20.3083L135.386 12.6934C135.386 22.5076 143.336 30.4636 153.142 30.4636L254.282 30.4636Z" fill="#2A2A2B"/>
<path fill-rule="evenodd" clip-rule="evenodd" d="M17.7569 29.8289L118.897 29.8289C128.353 29.8289 136.018 22.1571 136.018 12.6934L136.018 -20.3083C136.018 -29.772 128.353 -37.4438 118.897 -37.4438L17.7569 -37.4438C8.30109 -37.4438 0.635671 -29.772 0.63567 -20.3083L0.635667 12.6934C0.635667 22.1571 8.30107 29.8289 17.7569 29.8289ZM118.897 30.4636C128.703 30.4636 136.652 22.5076 136.652 12.6934L136.652 -20.3083C136.652 -30.1225 128.703 -38.0784 118.897 -38.0784L17.7569 -38.0784C7.95087 -38.0784 0.00156169 -30.1225 0.00156084 -20.3083L0.00155795 12.6934C0.00155709 22.5076 7.95087 30.4636 17.7569 30.4636L118.897 30.4636Z" fill="#2A2A2B"/>
<path fill-rule="evenodd" clip-rule="evenodd" d="M153.142 97.7363L254.282 97.7363C263.738 97.7363 271.403 90.0645 271.403 80.6008L271.403 47.5991C271.403 38.1354 263.738 30.4636 254.282 30.4636L153.142 30.4636C143.686 30.4636 136.02 38.1354 136.02 47.5991L136.02 80.6008C136.02 90.0645 143.686 97.7363 153.142 97.7363ZM254.282 98.371C264.088 98.371 272.037 90.415 272.037 80.6008L272.037 47.5991C272.037 37.7849 264.088 29.829 254.282 29.829L153.142 29.829C143.336 29.829 135.386 37.7849 135.386 47.5991L135.386 80.6008C135.386 90.415 143.336 98.371 153.142 98.371L254.282 98.371Z" fill="#2A2A2B"/>
<path fill-rule="evenodd" clip-rule="evenodd" d="M17.7569 97.7363L118.897 97.7363C128.353 97.7363 136.018 90.0645 136.018 80.6008L136.018 47.5991C136.018 38.1354 128.353 30.4636 118.897 30.4636L17.7569 30.4636C8.30109 30.4636 0.635671 38.1354 0.63567 47.5991L0.635667 80.6008C0.635667 90.0645 8.30107 97.7363 17.7569 97.7363ZM118.897 98.371C128.703 98.371 136.652 90.415 136.652 80.6008L136.652 47.5991C136.652 37.7849 128.703 29.829 118.897 29.829L17.7569 29.829C7.95087 29.829 0.00156169 37.7849 0.00156084 47.5991L0.00155795 80.6008C0.00155709 90.415 7.95087 98.371 17.7569 98.371L118.897 98.371Z" fill="#2A2A2B"/>
<path fill-rule="evenodd" clip-rule="evenodd" d="M93.2159 165.644L110.971 165.644C124.63 165.644 135.702 154.562 135.702 140.892L135.702 123.122C135.702 109.452 124.63 98.3709 110.971 98.3709L93.2159 98.3709C79.5576 98.3709 68.4853 109.452 68.4853 123.122L68.4853 140.892C68.4853 154.562 79.5576 165.644 93.2159 165.644ZM110.971 166.278C124.98 166.278 136.336 154.913 136.336 140.892L136.336 123.122C136.336 109.102 124.98 97.7363 110.971 97.7363L93.2159 97.7363C79.2074 97.7363 67.8512 109.102 67.8512 123.122L67.8512 140.892C67.8512 154.913 79.2074 166.278 93.2159 166.278L110.971 166.278Z" fill="#2A2A2B"/>
<path fill-rule="evenodd" clip-rule="evenodd" d="M25.3644 165.644L43.1197 165.644C56.778 165.644 67.8503 154.562 67.8503 140.892L67.8503 123.122C67.8503 109.452 56.778 98.3709 43.1197 98.3709L25.3644 98.3709C11.706 98.3709 0.633786 109.452 0.633785 123.122L0.633784 140.892C0.633782 154.562 11.7061 165.644 25.3644 165.644ZM43.1197 166.278C57.1282 166.278 68.4844 154.913 68.4844 140.892L68.4844 123.122C68.4844 109.102 57.1282 97.7363 43.1197 97.7363L25.3644 97.7363C11.3558 97.7363 -0.000330695 109.102 -0.000331921 123.122L-0.000333474 140.892C-0.0003347 154.913 11.3558 166.278 25.3644 166.278L43.1197 166.278Z" fill="#2A2A2B"/>
<path fill-rule="evenodd" clip-rule="evenodd" d="M93.2159 233.551L110.971 233.551C124.63 233.551 135.702 222.469 135.702 208.8L135.702 191.03C135.702 177.36 124.63 166.278 110.971 166.278L93.2159 166.278C79.5576 166.278 68.4853 177.36 68.4853 191.03L68.4853 208.8C68.4853 222.469 79.5576 233.551 93.2159 233.551ZM110.971 234.186C124.98 234.186 136.336 222.82 136.336 208.8L136.336 191.03C136.336 177.009 124.98 165.644 110.971 165.644L93.2159 165.644C79.2074 165.644 67.8512 177.009 67.8512 191.03L67.8512 208.8C67.8512 222.82 79.2074 234.186 93.2159 234.186L110.971 234.186Z" fill="#2A2A2B"/>
<path fill-rule="evenodd" clip-rule="evenodd" d="M25.3644 233.551L43.1197 233.551C56.778 233.551 67.8503 222.469 67.8503 208.8L67.8503 191.03C67.8503 177.36 56.778 166.278 43.1197 166.278L25.3644 166.278C11.706 166.278 0.633786 177.36 0.633785 191.03L0.633784 208.8C0.633782 222.469 11.7061 233.551 25.3644 233.551ZM43.1197 234.186C57.1282 234.186 68.4844 222.82 68.4844 208.8L68.4844 191.03C68.4844 177.009 57.1282 165.644 43.1197 165.644L25.3644 165.644C11.3558 165.644 -0.000330695 177.009 -0.000331921 191.03L-0.000333474 208.8C-0.0003347 222.82 11.3558 234.186 25.3644 234.186L43.1197 234.186Z" fill="#2A2A2B"/>
<path fill-rule="evenodd" clip-rule="evenodd" d="M167.407 165.644L172.48 165.644C189.64 165.644 203.551 151.721 203.551 134.546L203.551 129.469C203.551 112.294 189.64 98.371 172.48 98.371L167.407 98.371C150.246 98.371 136.335 112.294 136.335 129.469L136.335 134.546C136.335 151.721 150.246 165.644 167.407 165.644ZM172.48 166.278C189.99 166.278 204.186 152.071 204.186 134.546L204.186 129.469C204.186 111.943 189.99 97.7363 172.48 97.7363L167.407 97.7363C149.896 97.7363 135.701 111.943 135.701 129.469L135.701 134.546C135.701 152.071 149.896 166.278 167.407 166.278L172.48 166.278Z" fill="#266680"/>
<path fill-rule="evenodd" clip-rule="evenodd" d="M305.963 301.458L374.129 301.458C392.69 301.458 407.737 286.398 407.737 267.822C407.737 249.245 392.69 234.185 374.129 234.185L305.963 234.185C287.401 234.185 272.354 249.245 272.354 267.822C272.354 286.398 287.401 301.458 305.963 301.458ZM374.129 302.093C393.04 302.093 408.371 286.749 408.371 267.822C408.371 248.894 393.04 233.551 374.129 233.551L305.963 233.551C287.051 233.551 271.72 248.894 271.72 267.822C271.72 286.749 287.051 302.093 305.963 302.093L374.129 302.093Z" fill="#CD7246"/>
</g>
<defs>
<clipPath id="clip0_2767_8294">
<rect width="539" height="370" fill="white" transform="translate(539 370) rotate(-180)"/>
</clipPath>
</defs>
</svg>
