<svg width="871" height="807" viewBox="0 0 871 807" fill="none" xmlns="http://www.w3.org/2000/svg">
<g clip-path="url(#clip0_3286_30548)">
<path d="M225 199C237.15 199 247 189.15 247 177H248C248 189.703 237.703 200 225 200V199Z" fill="#2A2A2B"/>
<path d="M225 200C237.15 200 247 209.85 247 222H248C248 209.297 237.703 199 225 199V200Z" fill="#2A2A2B"/>
<path fill-rule="evenodd" clip-rule="evenodd" d="M72 199L227 199L227 200L72 200L72 199Z" fill="#2A2A2B"/>
<path fill-rule="evenodd" clip-rule="evenodd" d="M2.03571 200L0 200L8.74228e-08 199L2.03571 199L2.03571 200ZM10.1786 200L6.10714 200L6.10714 199L10.1786 199L10.1786 200ZM18.3214 200L14.25 200L14.25 199L18.3214 199L18.3214 200ZM26.4643 200L22.3929 200L22.3929 199L26.4643 199L26.4643 200ZM34.6071 200L30.5357 200L30.5357 199L34.6071 199L34.6071 200ZM42.75 200L38.6786 200L38.6786 199L42.75 199L42.75 200ZM50.8929 200L46.8214 200L46.8214 199L50.8929 199L50.8929 200ZM57 200L54.9643 200L54.9643 199L57 199L57 200Z" fill="#2A2A2B"/>
<path d="M449 361C449 348.85 439.15 339 427 339L427 338C439.703 338 450 348.297 450 361L449 361Z" fill="#2A2A2B"/>
<path d="M450 361C450 348.85 459.85 339 472 339L472 338C459.297 338 449 348.297 449 361L450 361Z" fill="#2A2A2B"/>
<path fill-rule="evenodd" clip-rule="evenodd" d="M449 807L449 359L450 359L450 807L449 807Z" fill="#2A2A2B"/>
<path fill-rule="evenodd" clip-rule="evenodd" d="M479 98L499.188 98C511.234 98 521 88.2342 521 76.1875L521 61.8125C521 49.7658 511.234 40 499.188 40L479 40C462.984 40 450 52.9837 450 69C450 85.0163 462.984 98 479 98ZM499.188 99C511.786 99 522 88.7865 522 76.1875L522 61.8125C522 49.2135 511.787 39 499.188 39L479 39C462.431 39 449 52.4315 449 69C449 85.5685 462.431 99 479 99L499.188 99Z" fill="#2A2A2B"/>
<path fill-rule="evenodd" clip-rule="evenodd" d="M541 98L574 98C584.493 98 593 89.4934 593 79L593 59C593 48.5066 584.493 40 574 40L541 40C530.507 40 522 48.5066 522 59L522 79C522 89.4934 530.507 98 541 98ZM574 99C585.046 99 594 90.0457 594 79L594 59C594 47.9543 585.046 39 574 39L541 39C529.954 39 521 47.9543 521 59L521 79C521 90.0457 529.954 99 541 99L574 99Z" fill="#2A2A2B"/>
<path fill-rule="evenodd" clip-rule="evenodd" d="M326 99H270C257.85 99 248 108.85 248 121V177C248 189.15 257.85 199 270 199H326C338.15 199 348 189.15 348 177V121C348 108.85 338.15 99 326 99ZM270 98C257.297 98 247 108.297 247 121V177C247 189.703 257.297 200 270 200H326C338.703 200 349 189.703 349 177V121C349 108.297 338.703 98 326 98H270Z" fill="#2A2A2B"/>
<path fill-rule="evenodd" clip-rule="evenodd" d="M427 99H371C358.85 99 349 108.85 349 121V177C349 189.15 358.85 199 371 199H427C439.15 199 449 189.15 449 177V121C449 108.85 439.15 99 427 99ZM371 98C358.297 98 348 108.297 348 121V177C348 189.703 358.297 200 371 200H427C439.703 200 450 189.703 450 177V121C450 108.297 439.703 98 427 98H371Z" fill="#2A2A2B"/>
<path fill-rule="evenodd" clip-rule="evenodd" d="M427 200H371C358.85 200 349 209.85 349 222V278C349 290.15 358.85 300 371 300H427C439.15 300 449 290.15 449 278V222C449 209.85 439.15 200 427 200ZM371 199C358.297 199 348 209.297 348 222V278C348 290.703 358.297 301 371 301H427C439.703 301 450 290.703 450 278V222C450 209.297 439.703 199 427 199H371Z" fill="#2A2A2B"/>
<path fill-rule="evenodd" clip-rule="evenodd" d="M413 213H385C372.297 213 362 223.297 362 236V264C362 276.703 372.297 287 385 287H413C425.703 287 436 276.703 436 264V236C436 223.297 425.703 213 413 213ZM385 212C371.745 212 361 222.745 361 236V264C361 277.255 371.745 288 385 288H413C426.255 288 437 277.255 437 264V236C437 222.745 426.255 212 413 212H385Z" fill="#2A2A2B"/>
<path fill-rule="evenodd" clip-rule="evenodd" d="M412 219H386C376.059 219 368 227.059 368 237V263C368 272.941 376.059 281 386 281H412C421.941 281 430 272.941 430 263V237C430 227.059 421.941 219 412 219ZM386 218C375.507 218 367 226.507 367 237V263C367 273.493 375.507 282 386 282H412C422.493 282 431 273.493 431 263V237C431 226.507 422.493 218 412 218H386Z" fill="#414141"/>
<path fill-rule="evenodd" clip-rule="evenodd" d="M412 225H386C379.373 225 374 230.373 374 237V263C374 269.627 379.373 275 386 275H412C418.627 275 424 269.627 424 263V237C424 230.373 418.627 225 412 225ZM386 224C378.82 224 373 229.82 373 237V263C373 270.18 378.82 276 386 276H412C419.18 276 425 270.18 425 263V237C425 229.82 419.18 224 412 224H386Z" fill="#2A2A2B"/>
<path fill-rule="evenodd" clip-rule="evenodd" d="M409 232H389C384.582 232 381 235.582 381 240V260C381 264.418 384.582 268 389 268H409C413.418 268 417 264.418 417 260V240C417 235.582 413.418 232 409 232ZM389 231C384.029 231 380 235.029 380 240V260C380 264.971 384.029 269 389 269H409C413.971 269 418 264.971 418 260V240C418 235.029 413.971 231 409 231H389Z" fill="#2A2A2B"/>
<path fill-rule="evenodd" clip-rule="evenodd" d="M326 200H270C257.85 200 248 209.85 248 222V278C248 290.15 257.85 300 270 300H326C338.15 300 348 290.15 348 278V222C348 209.85 338.15 200 326 200ZM270 199C257.297 199 247 209.297 247 222V278C247 290.703 257.297 301 270 301H326C338.703 301 349 290.703 349 278V222C349 209.297 338.703 199 326 199H270Z" fill="#2A2A2B"/>
<path fill-rule="evenodd" clip-rule="evenodd" d="M615.813 98L636 98C652.016 98 665 85.0163 665 69C665 52.9837 652.016 40 636 40L615.813 40C603.766 40 594 49.7658 594 61.8125L594 76.1875C594 88.2342 603.766 98 615.813 98ZM636 99C652.569 99 666 85.5685 666 69C666 52.4315 652.569 39 636 39L615.813 39C603.214 39 593 49.2135 593 61.8125L593 76.1875C593 88.7865 603.214 99 615.812 99L636 99Z" fill="#2A2A2B"/>
<path fill-rule="evenodd" clip-rule="evenodd" d="M479 39L499.188 39C511.234 39 521 29.2342 521 17.1875L521 2.81251C521 -9.2342 511.234 -19 499.188 -19L479 -19C462.984 -19 450 -6.01626 450 10C450 26.0163 462.984 39 479 39ZM499.188 40C511.786 40 522 29.7865 522 17.1875L522 2.81251C522 -9.78649 511.787 -20 499.188 -20L479 -20C462.431 -20 449 -6.56855 449 10C449 26.5685 462.431 40 479 40L499.188 40Z" fill="#2A2A2B"/>
<path fill-rule="evenodd" clip-rule="evenodd" d="M541 39L574 39C584.493 39 593 30.4934 593 20L593 7.54197e-06C593 -10.4934 584.493 -19 574 -19L541 -19C530.507 -19 522 -10.4934 522 -2.47974e-06L522 20C522 30.4934 530.507 39 541 39ZM574 40C585.046 40 594 31.0457 594 20L594 7.62939e-06C594 -11.0457 585.046 -20 574 -20L541 -20C529.954 -20 521 -11.0457 521 -2.56717e-06L521 20C521 31.0457 529.954 40 541 40L574 40Z" fill="#2A2A2B"/>
<path fill-rule="evenodd" clip-rule="evenodd" d="M615.813 39L636 39C652.016 39 665 26.0163 665 10C665 -6.01625 652.016 -19 636 -19L615.813 -19C603.766 -19 594 -9.23421 594 2.8125L594 17.1875C594 29.2342 603.766 39 615.813 39ZM636 40C652.569 40 666 26.5685 666 10C666 -6.56854 652.569 -20 636 -20L615.813 -20C603.214 -20 593 -9.7865 593 2.8125L593 17.1875C593 29.7865 603.214 40 615.812 40L636 40Z" fill="#2A2A2B"/>
<path fill-rule="evenodd" clip-rule="evenodd" d="M277 98L420 98C436.016 98 449 85.0163 449 69C449 52.9837 436.016 40 420 40L277 40C260.984 40 248 52.9837 248 69C248 85.0162 260.984 98 277 98ZM420 99C436.569 99 450 85.5685 450 69C450 52.4315 436.569 39 420 39L277 39C260.431 39 247 52.4314 247 69C247 85.5685 260.431 99 277 99L420 99Z" fill="#2A2A2B"/>
<path fill-rule="evenodd" clip-rule="evenodd" d="M277 39L420 39C436.016 39 449 26.0163 449 10C449 -6.01626 436.016 -19 420 -19L277 -19C260.984 -19 248 -6.01628 248 9.99998C248 26.0162 260.984 39 277 39ZM420 40C436.569 40 450 26.5685 450 10C450 -6.56854 436.569 -20 420 -20L277 -20C260.431 -20 247 -6.56856 247 9.99998C247 26.5685 260.431 40 277 40L420 40Z" fill="#2A2A2B"/>
<path fill-rule="evenodd" clip-rule="evenodd" d="M722 306L817 306C846.271 306 870 282.271 870 253C870 223.729 846.271 200 817 200L722 200C692.729 200 669 223.729 669 253C669 282.271 692.729 306 722 306ZM817 307C846.823 307 871 282.823 871 253C871 223.177 846.823 199 817 199L722 199C692.177 199 668 223.177 668 253C668 282.823 692.177 307 722 307L817 307Z" fill="#2A2A2B"/>
<path fill-rule="evenodd" clip-rule="evenodd" d="M769 148.999C769 121.386 746.614 99 719 99C691.387 99 669.001 121.386 669.001 148.999C669.001 176.613 691.386 198.999 719 198.999C746.614 198.999 769 176.613 769 148.999ZM719 199.999C747.167 199.999 770 177.166 770 148.999C770 120.833 747.167 98 719 98C690.834 98 668.001 120.833 668.001 148.999C668.001 177.166 690.834 199.999 719 199.999Z" fill="#2A2A2B"/>
<path fill-rule="evenodd" clip-rule="evenodd" d="M742.887 184.497C749.083 175.455 752.947 162.908 752.947 149.001C752.947 135.093 749.083 122.546 742.887 113.504C736.688 104.457 728.227 99.001 719.003 99.001C709.779 99.001 701.317 104.457 695.118 113.504C688.923 122.546 685.059 135.093 685.059 149.001C685.059 162.908 688.923 175.455 695.118 184.497C701.317 193.544 709.779 199 719.003 199C728.227 199 736.688 193.544 742.887 184.497ZM719.003 200C738.302 200 753.947 177.167 753.947 149.001C753.947 120.834 738.302 98.001 719.003 98.001C699.704 98.001 684.059 120.834 684.059 149.001C684.059 177.167 699.704 200 719.003 200Z" fill="#2A2A2B"/>
<path fill-rule="evenodd" clip-rule="evenodd" d="M732.093 184.7C735.627 175.613 737.834 162.992 737.834 149.001C737.834 135.009 735.627 122.388 732.093 113.301C730.325 108.754 728.244 105.143 725.985 102.686C723.726 100.229 721.365 99.001 719.001 99.001C716.637 99.001 714.276 100.229 712.017 102.686C709.758 105.143 707.677 108.754 705.909 113.301C702.375 122.388 700.168 135.009 700.168 149.001C700.168 162.992 702.375 175.613 705.909 184.7C707.677 189.247 709.758 192.858 712.017 195.315C714.276 197.772 716.637 199 719.001 199C721.365 199 723.726 197.772 725.985 195.315C728.244 192.858 730.325 189.247 732.093 184.7ZM719.001 200C729.955 200 738.834 177.167 738.834 149.001C738.834 120.834 729.955 98.001 719.001 98.001C708.048 98.001 699.168 120.834 699.168 149.001C699.168 177.167 708.048 200 719.001 200Z" fill="#2A2A2B"/>
<path fill-rule="evenodd" clip-rule="evenodd" d="M721.343 184.97C722.194 175.781 722.722 163.063 722.722 149.001C722.722 134.938 722.194 122.22 721.343 113.031C720.917 108.43 720.413 104.743 719.861 102.223C719.583 100.954 719.304 100.033 719.04 99.4494C719.026 99.4187 719.013 99.3897 719 99.3621C718.986 99.3897 718.973 99.4187 718.959 99.4494C718.695 100.033 718.416 100.954 718.138 102.223C717.586 104.743 717.082 108.43 716.656 113.031C715.805 122.22 715.277 134.938 715.277 149.001C715.277 163.063 715.805 175.781 716.656 184.97C717.082 189.571 717.586 193.258 718.138 195.778C718.416 197.047 718.695 197.968 718.959 198.552C718.973 198.582 718.986 198.611 719 198.639C719.013 198.611 719.026 198.582 719.04 198.552C719.304 197.968 719.583 197.047 719.861 195.778C720.413 193.258 720.917 189.571 721.343 184.97ZM718.725 199.082C718.725 199.082 718.725 199.081 718.727 199.08C718.725 199.081 718.725 199.082 718.725 199.082ZM719.272 199.08C719.274 199.081 719.275 199.082 719.274 199.082C719.274 199.082 719.274 199.082 719.272 199.08ZM719.274 98.919C719.274 98.919 719.274 98.9197 719.272 98.9209C719.274 98.9195 719.274 98.9189 719.274 98.919ZM718.727 98.9209C718.725 98.9197 718.725 98.919 718.725 98.919C718.725 98.9189 718.725 98.9195 718.727 98.9209ZM719 200C721.608 200 723.722 177.167 723.722 149.001C723.722 120.834 721.608 98.001 719 98.001C716.392 98.001 714.277 120.834 714.277 149.001C714.277 177.167 716.392 200 719 200Z" fill="#2A2A2B"/>
<path fill-rule="evenodd" clip-rule="evenodd" d="M870 148.999C870 121.385 847.614 98.999 820 98.999C792.386 98.999 770 121.385 770 148.999C770 176.613 792.386 198.999 820 198.999C847.614 198.999 870 176.613 870 148.999ZM820 199.999C848.167 199.999 871 177.166 871 148.999C871 120.833 848.167 97.999 820 97.999C791.833 97.999 769 120.832 769 148.999C769 177.166 791.833 199.999 820 199.999Z" fill="#2A2A2B"/>
<path fill-rule="evenodd" clip-rule="evenodd" d="M472 198.999L618 198.999C645.614 198.999 668 176.613 668 148.999C668 121.385 645.614 98.999 618 98.999L472 98.999C459.85 98.999 450 108.849 450 120.999L450 176.999C450 189.149 459.85 198.999 472 198.999ZM618 199.999C646.167 199.999 669 177.166 669 148.999C669 120.833 646.167 97.999 618 97.999L472 97.999C459.297 97.999 449 108.296 449 120.999L449 176.999C449 189.702 459.297 199.999 472 199.999L618 199.999Z" fill="#2A2A2B"/>
<path fill-rule="evenodd" clip-rule="evenodd" d="M503.343 137.174L498.506 133L493.668 137.174L487.332 137.686L486.826 144.102L482.703 149L486.826 153.898L487.332 160.314L493.668 160.826L498.506 165L503.343 160.826L509.68 160.314L510.185 153.898L514.308 149L510.185 144.102L509.68 137.686L503.343 137.174ZM508.75 138.614L502.937 138.145L498.506 134.321L494.074 138.145L488.262 138.614L487.798 144.5L484.01 149L487.798 153.5L488.262 159.386L494.074 159.855L498.506 163.679L502.937 159.855L508.75 159.386L509.214 153.5L513.001 149L509.214 144.5L508.75 138.614Z" fill="#262626"/>
<path fill-rule="evenodd" clip-rule="evenodd" d="M543.343 137.174L538.506 133L533.668 137.174L527.332 137.686L526.826 144.102L522.703 149L526.826 153.898L527.332 160.314L533.668 160.826L538.506 165L543.343 160.826L549.68 160.314L550.185 153.898L554.308 149L550.185 144.102L549.68 137.686L543.343 137.174ZM548.75 138.614L542.937 138.145L538.506 134.321L534.074 138.145L528.262 138.614L527.798 144.5L524.01 149L527.798 153.5L528.262 159.386L534.074 159.855L538.506 163.679L542.937 159.855L548.75 159.386L549.214 153.5L553.001 149L549.214 144.5L548.75 138.614Z" fill="#262626"/>
<path fill-rule="evenodd" clip-rule="evenodd" d="M583.343 137.174L578.506 133L573.668 137.174L567.332 137.686L566.826 144.102L562.703 149L566.826 153.898L567.332 160.314L573.668 160.826L578.506 165L583.343 160.826L589.68 160.314L590.185 153.898L594.308 149L590.185 144.102L589.68 137.686L583.343 137.174ZM588.75 138.614L582.937 138.145L578.506 134.321L574.074 138.145L568.262 138.614L567.798 144.5L564.01 149L567.798 153.5L568.262 159.386L574.074 159.855L578.506 163.679L582.937 159.855L588.75 159.386L589.214 153.5L593.001 149L589.214 144.5L588.75 138.614Z" fill="#262626"/>
<path fill-rule="evenodd" clip-rule="evenodd" d="M623.343 137.174L618.506 133L613.668 137.174L607.332 137.686L606.826 144.102L602.703 149L606.826 153.898L607.332 160.314L613.668 160.826L618.506 165L623.343 160.826L629.68 160.314L630.185 153.898L634.308 149L630.185 144.102L629.68 137.686L623.343 137.174ZM628.75 138.614L622.937 138.145L618.506 134.321L614.074 138.145L608.262 138.614L607.798 144.5L604.01 149L607.798 153.5L608.262 159.386L614.074 159.855L618.506 163.679L622.937 159.855L628.75 159.386L629.214 153.5L633.001 149L629.214 144.5L628.75 138.614Z" fill="#262626"/>
<path fill-rule="evenodd" clip-rule="evenodd" d="M472 300L618 300C645.614 300 668 277.614 668 250C668 222.386 645.614 200 618 200L472 200C459.85 200 450 209.85 450 222L450 278C450 290.15 459.85 300 472 300ZM618 301C646.167 301 669 278.167 669 250C669 221.833 646.167 199 618 199L472 199C459.297 199 449 209.297 449 222L449 278C449 290.703 459.297 301 472 301L618 301Z" fill="#2A2A2B"/>
<path fill-rule="evenodd" clip-rule="evenodd" d="M468.5 338L545.5 338C555.717 338 564 329.717 564 319.5C564 309.283 555.717 301 545.5 301L468.5 301C458.283 301 450 309.283 450 319.5C450 329.717 458.283 338 468.5 338ZM545.5 339C556.27 339 565 330.27 565 319.5C565 308.73 556.27 300 545.5 300L468.5 300C457.73 300 449 308.73 449 319.5C449 330.27 457.73 339 468.5 339L545.5 339Z" fill="#2A2A2B"/>
<path fill-rule="evenodd" clip-rule="evenodd" d="M417.5 338L430.5 338C440.717 338 449 329.717 449 319.5C449 309.283 440.717 301 430.5 301L417.5 301C407.283 301 399 309.283 399 319.5C399 329.717 407.283 338 417.5 338ZM430.5 339C441.27 339 450 330.27 450 319.5C450 308.73 441.27 300 430.5 300L417.5 300C406.73 300 398 308.73 398 319.5C398 330.27 406.73 339 417.5 339L430.5 339Z" fill="#2A2A2B"/>
<path fill-rule="evenodd" clip-rule="evenodd" d="M367.5 338L379.5 338C389.717 338 398 329.717 398 319.5C398 309.283 389.717 301 379.5 301L367.5 301C357.283 301 349 309.283 349 319.5C349 329.717 357.283 338 367.5 338ZM379.5 339C390.27 339 399 330.27 399 319.5C399 308.73 390.27 300 379.5 300L367.5 300C356.73 300 348 308.73 348 319.5C348 330.27 356.73 339 367.5 339L379.5 339Z" fill="#2A2A2B"/>
</g>
<defs>
<clipPath id="clip0_3286_30548">
<rect width="871" height="807" fill="white"/>
</clipPath>
</defs>
</svg>
