<svg width="888" height="614" viewBox="0 0 888 614" fill="none" xmlns="http://www.w3.org/2000/svg">
<g clip-path="url(#clip0_213_235)">
<path d="M225 199C237.15 199 247 189.15 247 177H248C248 189.703 237.703 200 225 200V199Z" fill="#2A2A2B"/>
<path d="M225 200C237.15 200 247 209.85 247 222H248C248 209.297 237.703 199 225 199V200Z" fill="#2A2A2B"/>
<path d="M227 199.5L72 199.5" stroke="#2A2A2B"/>
<path d="M57 199.5L0 199.5" stroke="#2A2A2B" stroke-dasharray="4 4"/>
<path d="M449 361C449 348.85 439.15 339 427 339L427 338C439.703 338 450 348.297 450 361L449 361Z" fill="#2A2A2B"/>
<path d="M450 361C450 348.85 459.85 339 472 339L472 338C459.297 338 449 348.297 449 361L450 361Z" fill="#2A2A2B"/>
<path d="M449.5 359L449.5 614" stroke="#2A2A2B"/>
<path d="M499.188 98.5L479 98.5C462.708 98.5 449.5 85.2924 449.5 69C449.5 52.7076 462.708 39.5 479 39.5L499.188 39.5C511.51 39.5 521.5 49.4897 521.5 61.8125L521.5 76.1875C521.5 88.5104 511.51 98.5 499.188 98.5Z" stroke="#2A2A2B"/>
<rect x="593.5" y="98.5" width="72" height="59" rx="19.5" transform="rotate(-180 593.5 98.5)" stroke="#2A2A2B"/>
<rect x="247.5" y="98.5" width="101" height="101" rx="22.5" stroke="#2A2A2B"/>
<rect x="348.5" y="98.5" width="101" height="101" rx="22.5" stroke="#2A2A2B"/>
<rect x="348.5" y="199.5" width="101" height="101" rx="22.5" stroke="#2A2A2B"/>
<rect x="361.5" y="212.5" width="75" height="75" rx="23.5" stroke="#2A2A2B"/>
<rect x="367.5" y="218.5" width="63" height="63" rx="18.5" stroke="#414141"/>
<rect x="373.5" y="224.5" width="51" height="51" rx="12.5" stroke="#2A2A2B"/>
<rect x="380.5" y="231.5" width="37" height="37" rx="8.5" stroke="#2A2A2B"/>
<rect x="247.5" y="199.5" width="101" height="101" rx="22.5" stroke="#2A2A2B"/>
<path d="M636 98.5L615.813 98.5C603.49 98.5 593.5 88.5103 593.5 76.1875L593.5 61.8125C593.5 49.4896 603.49 39.5 615.813 39.5L636 39.5C652.292 39.5 665.5 52.7076 665.5 69C665.5 85.2924 652.292 98.5 636 98.5Z" stroke="#2A2A2B"/>
<path d="M499.188 39.5L479 39.5C462.708 39.5 449.5 26.2924 449.5 10C449.5 -6.2924 462.708 -19.5 479 -19.5L499.188 -19.5C511.51 -19.5 521.5 -9.51035 521.5 2.81251L521.5 17.1875C521.5 29.5104 511.51 39.5 499.188 39.5Z" stroke="#2A2A2B"/>
<rect x="593.5" y="39.5" width="72" height="59" rx="19.5" transform="rotate(-180 593.5 39.5)" stroke="#2A2A2B"/>
<path d="M636 39.5L615.813 39.5C603.49 39.5 593.5 29.5103 593.5 17.1875L593.5 2.8125C593.5 -9.51036 603.49 -19.5 615.813 -19.5L636 -19.5C652.292 -19.5 665.5 -6.2924 665.5 10C665.5 26.2924 652.292 39.5 636 39.5Z" stroke="#2A2A2B"/>
<rect x="449.5" y="98.5" width="202" height="59" rx="29.5" transform="rotate(-180 449.5 98.5)" stroke="#2A2A2B"/>
<rect x="449.5" y="39.5" width="202" height="59" rx="29.5" transform="rotate(-180 449.5 39.5)" stroke="#2A2A2B"/>
<rect x="887.5" y="306.5" width="219" height="107" rx="53.5" transform="rotate(-180 887.5 306.5)" stroke="#2A2A2B"/>
<rect x="769.5" y="199.499" width="100.999" height="100.999" rx="50.4995" transform="rotate(-180 769.5 199.499)" stroke="#2A2A2B"/>
<path d="M753.446 149.001C753.446 162.996 749.558 175.644 743.299 184.78C737.037 193.918 728.438 199.5 719.002 199.5C709.565 199.5 700.966 193.918 694.705 184.78C688.445 175.644 684.558 162.996 684.558 149.001C684.558 135.005 688.445 122.357 694.705 113.221C700.966 104.083 709.565 98.501 719.002 98.501C728.438 98.501 737.037 104.083 743.299 113.221C749.558 122.357 753.446 135.005 753.446 149.001Z" stroke="#2A2A2B"/>
<path d="M738.333 149.001C738.333 163.038 736.12 175.723 732.558 184.881C730.777 189.462 728.668 193.135 726.352 195.654C724.036 198.172 721.551 199.5 719 199.5C716.449 199.5 713.964 198.172 711.648 195.654C709.332 193.135 707.223 189.462 705.442 184.881C701.881 175.723 699.667 163.038 699.667 149.001C699.667 134.963 701.881 122.278 705.442 113.12C707.223 108.539 709.332 104.866 711.648 102.347C713.964 99.8285 716.449 98.501 719 98.501C721.551 98.501 724.036 99.8285 726.352 102.347C728.668 104.866 730.777 108.539 732.558 113.12C736.12 122.278 738.333 134.963 738.333 149.001Z" stroke="#2A2A2B"/>
<path d="M723.221 149.001C723.221 163.073 722.692 175.807 721.84 185.017C721.413 189.624 720.907 193.335 720.348 195.885C720.068 197.165 719.78 198.126 719.495 198.758C719.351 199.075 719.22 199.281 719.112 199.4C719.054 199.463 719.016 199.488 718.999 199.497C718.981 199.488 718.943 199.463 718.885 199.4C718.777 199.281 718.646 199.075 718.502 198.758C718.217 198.126 717.929 197.165 717.649 195.885C717.09 193.335 716.584 189.624 716.157 185.017C715.305 175.807 714.776 163.073 714.776 149.001C714.776 134.928 715.305 122.194 716.157 112.984C716.584 108.377 717.09 104.666 717.649 102.116C717.929 100.836 718.217 99.8747 718.502 99.2432C718.646 98.9258 718.777 98.7201 718.885 98.6012C718.943 98.5377 718.981 98.5133 718.999 98.5044C719.016 98.5133 719.054 98.5377 719.112 98.6012C719.22 98.7201 719.351 98.9258 719.495 99.2432C719.78 99.8747 720.068 100.836 720.348 102.116C720.907 104.666 721.413 108.377 721.84 112.984C722.692 122.194 723.221 134.928 723.221 149.001ZM718.987 199.501C718.987 199.501 718.987 199.501 718.989 199.501L718.987 199.501ZM719.008 199.501C719.01 199.501 719.01 199.501 719.01 199.501L719.008 199.501ZM719.01 98.4997C719.01 98.4998 719.01 98.5 719.008 98.5003L719.01 98.4997ZM718.989 98.5003C718.987 98.5 718.987 98.4998 718.987 98.4997L718.989 98.5003Z" stroke="#2A2A2B"/>
<rect x="870.5" y="199.499" width="101" height="101" rx="50.5" transform="rotate(-180 870.5 199.499)" stroke="#2A2A2B"/>
<path d="M618 199.499L472 199.499C459.574 199.499 449.5 189.425 449.5 176.999L449.5 120.999C449.5 108.573 459.574 98.499 472 98.499L618 98.499C645.89 98.499 668.5 121.109 668.5 148.999C668.5 176.889 645.89 199.499 618 199.499Z" stroke="#2A2A2B"/>
<path d="M503.017 137.553L503.14 137.66L503.303 137.673L509.215 138.15L509.687 144.141L509.699 144.301L509.803 144.424L513.655 149L509.803 153.576L509.699 153.699L509.687 153.859L509.215 159.85L503.303 160.327L503.14 160.34L503.017 160.447L498.506 164.34L493.994 160.447L493.871 160.34L493.708 160.327L487.797 159.85L487.324 153.859L487.312 153.699L487.208 153.576L483.357 149L487.208 144.424L487.312 144.301L487.324 144.141L487.797 138.15L493.708 137.673L493.871 137.66L493.994 137.553L498.506 133.66L503.017 137.553Z" stroke="#262626"/>
<path d="M543.017 137.553L543.14 137.66L543.303 137.673L549.215 138.15L549.687 144.141L549.699 144.301L549.803 144.424L553.655 149L549.803 153.576L549.699 153.699L549.687 153.859L549.215 159.85L543.303 160.327L543.14 160.34L543.017 160.447L538.506 164.34L533.994 160.447L533.871 160.34L533.708 160.327L527.797 159.85L527.324 153.859L527.312 153.699L527.208 153.576L523.357 149L527.208 144.424L527.312 144.301L527.324 144.141L527.797 138.15L533.708 137.673L533.871 137.66L533.994 137.553L538.506 133.66L543.017 137.553Z" stroke="#262626"/>
<path d="M583.017 137.553L583.14 137.66L583.303 137.673L589.215 138.15L589.687 144.141L589.699 144.301L589.803 144.424L593.655 149L589.803 153.576L589.699 153.699L589.687 153.859L589.215 159.85L583.303 160.327L583.14 160.34L583.017 160.447L578.506 164.34L573.994 160.447L573.871 160.34L573.708 160.327L567.797 159.85L567.324 153.859L567.312 153.699L567.208 153.576L563.357 149L567.208 144.424L567.312 144.301L567.324 144.141L567.797 138.15L573.708 137.673L573.871 137.66L573.994 137.553L578.506 133.66L583.017 137.553Z" stroke="#262626"/>
<path d="M623.017 137.553L623.14 137.66L623.303 137.673L629.215 138.15L629.687 144.141L629.699 144.301L629.803 144.424L633.655 149L629.803 153.576L629.699 153.699L629.687 153.859L629.215 159.85L623.303 160.327L623.14 160.34L623.017 160.447L618.506 164.34L613.994 160.447L613.871 160.34L613.708 160.327L607.797 159.85L607.324 153.859L607.312 153.699L607.208 153.576L603.357 149L607.208 144.424L607.312 144.301L607.324 144.141L607.797 138.15L613.708 137.673L613.871 137.66L613.994 137.553L618.506 133.66L623.017 137.553Z" stroke="#262626"/>
<path d="M618 300.5L472 300.5C459.574 300.5 449.5 290.426 449.5 278L449.5 222C449.5 209.574 459.574 199.5 472 199.5L618 199.5C645.89 199.5 668.5 222.11 668.5 250C668.5 277.89 645.89 300.5 618 300.5Z" stroke="#2A2A2B"/>
<rect x="564.5" y="338.5" width="115" height="38" rx="19" transform="rotate(-180 564.5 338.5)" stroke="#2A2A2B"/>
<rect x="449.5" y="338.5" width="51" height="38" rx="19" transform="rotate(-180 449.5 338.5)" stroke="#2A2A2B"/>
<rect x="398.5" y="338.5" width="50" height="38" rx="19" transform="rotate(-180 398.5 338.5)" stroke="#2A2A2B"/>
</g>
<defs>
<clipPath id="clip0_213_235">
<rect width="888" height="614" fill="white"/>
</clipPath>
</defs>
</svg>
