<svg width="684" height="200" viewBox="0 0 684 200" fill="none" xmlns="http://www.w3.org/2000/svg">
<g clip-path="url(#clip0_18_843)">
<rect width="684" height="200" fill="#262629"/>
<path fill-rule="evenodd" clip-rule="evenodd" d="M340.503 323.636L338.551 325.588C321.594 342.545 299.491 351.218 277.269 351.609C261.556 335.574 251.929 313.55 252.053 289.202L252.062 287.371L303.974 287.107L340.503 323.636ZM251.067 286.377L249.232 286.386C224.884 286.51 202.861 276.883 186.826 261.17C187.215 238.947 195.889 216.842 212.847 199.884L214.799 197.932L251.332 234.464L251.067 286.377ZM252.067 286.371L252.327 235.459L302.98 286.112L252.067 286.371ZM252.334 234.052L304.387 286.105L378.411 285.728L431.026 233.113L431.403 159.112L379.327 107.036L305.318 107.413L252.71 160.02L252.334 234.052ZM252.718 158.599L303.896 107.42L252.977 107.679L252.718 158.599ZM251.977 107.684L251.713 159.604L214.799 196.518L214.165 195.883C196.829 178.547 188.062 155.888 187.865 133.167C204.025 117.512 225.988 107.817 250.142 107.694L251.977 107.684ZM252.982 106.679L304.901 106.415L341.804 69.5127L341.169 68.8784C323.835 51.5435 301.176 42.7768 278.456 42.5783C262.807 58.7376 253.114 80.6978 252.991 104.847L252.982 106.679ZM277.08 42.5768C261.644 58.8493 252.114 80.7747 251.991 104.852L251.982 106.684L250.147 106.694C226.065 106.816 204.136 116.349 187.863 131.79C188.012 109.004 196.779 86.2639 214.165 68.8784C231.551 51.4921 254.293 42.7249 277.08 42.5768ZM278.044 41.5757C254.679 41.4793 231.284 50.3445 213.458 68.1713C195.632 85.9974 186.766 109.391 186.862 132.755C170 149.243 159.47 172.182 159.341 197.5C159.213 222.623 169.352 245.298 185.82 261.59C185.523 284.974 194.297 308.452 212.14 326.295C229.984 344.139 253.464 352.913 276.85 352.615C293.141 369.083 315.817 379.221 340.939 379.093C366.253 378.964 389.188 368.437 405.676 351.58C429.044 351.679 452.442 342.814 470.271 324.985C488.101 307.155 496.966 283.755 496.867 260.387C513.728 243.898 524.259 220.959 524.388 195.642C524.516 170.514 514.374 147.835 497.901 131.543C498.193 108.164 489.419 84.6929 471.581 66.8541C453.743 49.0166 430.274 40.2432 406.896 40.534C390.604 24.0605 367.925 13.9181 342.797 14.046C317.475 14.1749 294.533 24.709 278.044 41.5757ZM279.426 41.5918C302.076 42.028 324.593 50.8878 341.877 68.1713L342.511 68.8056L344.462 66.8541C361.373 49.9432 383.346 41.1792 405.503 40.5621C389.443 24.6715 367.295 14.9213 342.792 15.046C318.092 15.1717 295.682 25.3087 279.426 41.5918ZM406.477 41.5404C384.246 41.9244 362.133 50.598 345.169 67.5612L343.218 69.5127L379.739 106.034L431.674 105.77L431.684 103.937C431.807 79.5942 422.184 57.5745 406.477 41.5404ZM431.669 106.77L380.734 107.029L431.41 157.705L431.669 106.77ZM432.405 158.7L432.669 106.765L434.496 106.755C458.84 106.631 480.86 116.255 496.894 131.963C496.509 154.192 487.836 176.303 470.874 193.265L468.922 195.217L432.405 158.7ZM432.398 160.107L432.031 232.108L468.215 195.924L432.398 160.107ZM431.019 234.534L379.832 285.721L430.76 285.462L431.019 234.534ZM431.76 285.457L432.024 233.529L468.922 196.631L469.564 197.273C486.896 214.605 495.663 237.259 495.864 259.974C479.704 275.629 457.74 285.325 433.587 285.448L431.76 285.457ZM430.755 286.462L378.827 286.726L341.917 323.636L342.559 324.278C359.892 341.611 382.547 350.377 405.264 350.578C420.923 334.417 430.622 312.45 430.745 288.292L430.755 286.462ZM406.641 350.579C422.086 334.305 431.623 312.373 431.745 288.287L431.755 286.457L433.582 286.448C457.663 286.325 479.592 276.792 495.866 261.351C495.721 284.142 486.953 306.888 469.564 324.278C452.176 341.666 429.431 350.433 406.641 350.579ZM404.293 351.564C381.647 351.126 359.133 342.266 341.852 324.985L341.21 324.343L339.258 326.295C322.354 343.2 300.391 351.963 278.243 352.587C294.302 368.471 316.447 378.218 340.944 378.093C365.636 377.967 388.039 367.838 404.293 351.564ZM432.674 105.765L432.684 103.932C432.807 79.6642 423.351 57.6796 407.864 41.5272C430.664 41.4869 453.477 50.1649 470.874 67.5612C488.271 84.9588 496.949 107.774 496.908 130.576C480.755 115.088 458.77 105.632 434.502 105.755L432.674 105.765ZM275.883 351.622C253.073 351.669 230.25 342.991 212.847 325.588C195.445 308.186 186.767 285.365 186.813 262.557C202.966 278.05 224.954 287.509 249.227 287.386L251.062 287.377L251.053 289.207C250.929 313.48 260.39 335.469 275.883 351.622ZM251.705 161.025L251.339 233.057L215.506 197.225L251.705 161.025ZM160.341 197.495C160.216 221.993 169.963 244.137 185.848 260.197C186.47 238.047 195.234 216.082 212.14 199.177L214.092 197.225L213.457 196.59C196.173 179.306 187.313 156.788 186.878 134.137C170.6 150.392 160.466 172.799 160.341 197.495ZM341.21 322.929L305.382 287.1L377.405 286.733L341.21 322.929ZM523.388 195.647C523.262 220.343 513.129 242.75 496.85 259.004C496.411 236.359 487.552 213.846 470.271 196.566L469.629 195.924L471.581 193.972C488.49 177.063 497.254 155.092 497.873 132.936C513.763 148.996 523.513 171.145 523.388 195.647ZM342.511 70.2198L378.332 106.041L306.323 106.408L342.511 70.2198Z" fill="url(#paint0_radial_18_843)"/>
<mask id="mask0_18_843" style="mask-type:alpha" maskUnits="userSpaceOnUse" x="-16" y="-84" width="717" height="258">
<path d="M343.5 173L-15.5 138.703M343.5 173L206.5 -42.2969M343.5 173L490 -82.7969M343.5 173L700.5 123" stroke="black"/>
</mask>
<g mask="url(#mask0_18_843)">
<ellipse cx="346" cy="191" rx="369" ry="198" fill="url(#paint1_radial_18_843)"/>
</g>
<rect x="341.758" y="157" width="19.4576" height="19.4576" transform="rotate(45 341.758 157)" fill="white"/>
</g>
<defs>
<radialGradient id="paint0_radial_18_843" cx="0" cy="0" r="1" gradientUnits="userSpaceOnUse" gradientTransform="translate(341.864 196.578) rotate(147.39) scale(190.972 188.613)">
<stop stop-color="white"/>
<stop offset="1" stop-color="#161717"/>
</radialGradient>
<radialGradient id="paint1_radial_18_843" cx="0" cy="0" r="1" gradientUnits="userSpaceOnUse" gradientTransform="translate(346 191) rotate(90) scale(188.5 351.295)">
<stop stop-color="white"/>
<stop offset="1" stop-color="#161717"/>
</radialGradient>
<clipPath id="clip0_18_843">
<rect width="684" height="200" fill="white"/>
</clipPath>
</defs>
</svg>
