<svg width="684" height="200" viewBox="0 0 684 200" fill="none" xmlns="http://www.w3.org/2000/svg">
<path fill-rule="evenodd" clip-rule="evenodd" d="M-68 218L-270 116.88L-68 15L134 116.88L-68 218ZM538 116.88L336 15L134 116.88L336 218L538 116.88ZM538 116.88L740 15L942 116.88L740 218L538 116.88Z" fill="#262629"/>
<path d="M-270 116.88L-270.225 116.434L-271.114 116.882L-270.224 117.327L-270 116.88ZM-68 218L-68.2238 218.447L-68 218.559L-67.7762 218.447L-68 218ZM-68 15L-67.7748 14.5536L-68 14.44L-68.2252 14.5536L-68 15ZM336 15L336.225 14.5536L336 14.44L335.775 14.5536L336 15ZM336 218L335.776 218.447L336 218.559L336.224 218.447L336 218ZM740 15L740.225 14.5536L740 14.44L739.775 14.5536L740 15ZM942 116.88L942.224 117.327L943.114 116.882L942.225 116.434L942 116.88ZM740 218L739.776 218.447L740 218.559L740.224 218.447L740 218ZM-270.224 117.327L-68.2238 218.447L-67.7762 217.553L-269.776 116.433L-270.224 117.327ZM-68.2252 14.5536L-270.225 116.434L-269.775 117.327L-67.7748 15.4464L-68.2252 14.5536ZM134.225 116.434L-67.7748 14.5536L-68.2252 15.4464L133.775 117.327L134.225 116.434ZM-67.7762 218.447L134.224 117.327L133.776 116.433L-68.2238 217.553L-67.7762 218.447ZM538.225 116.434L336.225 14.5536L335.775 15.4464L537.775 117.327L538.225 116.434ZM335.775 14.5536L133.775 116.434L134.225 117.327L336.225 15.4464L335.775 14.5536ZM133.776 117.327L335.776 218.447L336.224 217.553L134.224 116.433L133.776 117.327ZM336.224 218.447L538.224 117.327L537.776 116.433L335.776 217.553L336.224 218.447ZM538.225 117.327L740.225 15.4464L739.775 14.5536L537.775 116.434L538.225 117.327ZM739.775 15.4464L941.775 117.327L942.225 116.434L740.225 14.5536L739.775 15.4464ZM941.776 116.433L739.776 217.553L740.224 218.447L942.224 117.327L941.776 116.433ZM740.224 217.553L538.224 116.433L537.776 117.327L739.776 218.447L740.224 217.553Z" fill="url(#paint0_linear_1303_6919)"/>
<path fill-rule="evenodd" clip-rule="evenodd" d="M740 -188L942 -86.8801L740 15L538 -86.8801L740 -188ZM134 -86.8801L336 15L538 -86.8801L336 -188L134 -86.8801ZM134 -86.8801L-68 15L-270 -86.8801L-68 -188L134 -86.8801Z" fill="#262629"/>
<path d="M942 -86.8801L942.225 -86.4337L943.114 -86.8818L942.224 -87.3273L942 -86.8801ZM740 -188L740.224 -188.447L740 -188.559L739.776 -188.447L740 -188ZM740 15L739.775 15.4464L740 15.56L740.225 15.4464L740 15ZM336 15L335.775 15.4464L336 15.56L336.225 15.4464L336 15ZM336 -188L336.224 -188.447L336 -188.559L335.776 -188.447L336 -188ZM-68 15L-68.2252 15.4464L-68 15.56L-67.7748 15.4464L-68 15ZM-270 -86.8801L-270.224 -87.3273L-271.114 -86.8818L-270.225 -86.4337L-270 -86.8801ZM-68 -188L-67.7762 -188.447L-68 -188.559L-68.2238 -188.447L-68 -188ZM942.224 -87.3273L740.224 -188.447L739.776 -187.553L941.776 -86.433L942.224 -87.3273ZM740.225 15.4464L942.225 -86.4337L941.775 -87.3266L739.775 14.5536L740.225 15.4464ZM537.775 -86.4337L739.775 15.4464L740.225 14.5536L538.225 -87.3266L537.775 -86.4337ZM739.776 -188.447L537.776 -87.3273L538.224 -86.433L740.224 -187.553L739.776 -188.447ZM133.775 -86.4337L335.775 15.4464L336.225 14.5536L134.225 -87.3266L133.775 -86.4337ZM336.225 15.4464L538.225 -86.4337L537.775 -87.3266L335.775 14.5536L336.225 15.4464ZM538.224 -87.3273L336.224 -188.447L335.776 -187.553L537.776 -86.433L538.224 -87.3273ZM335.776 -188.447L133.776 -87.3273L134.224 -86.433L336.224 -187.553L335.776 -188.447ZM133.775 -87.3266L-68.2252 14.5536L-67.7748 15.4464L134.225 -86.4337L133.775 -87.3266ZM-67.7748 14.5536L-269.775 -87.3266L-270.225 -86.4337L-68.2252 15.4464L-67.7748 14.5536ZM-269.776 -86.433L-67.7762 -187.553L-68.2238 -188.447L-270.224 -87.3273L-269.776 -86.433ZM-68.2238 -187.553L133.776 -86.433L134.224 -87.3273L-67.7762 -188.447L-68.2238 -187.553Z" fill="url(#paint1_linear_1303_6919)"/>
<path d="M133.461 139.837L65.0938 105.524L133.461 70.9531L201.829 105.524L133.461 139.837Z" fill="#262629" stroke="white"/>
<path d="M65.0938 117.907V105.523L133.461 139.578L202.345 105.523V117.649L133.461 151.962L65.0938 117.907Z" fill="white"/>
<rect x="538.883" y="107" width="13.972" height="13.972" transform="rotate(45 538.883 107)" fill="url(#paint2_linear_1303_6919)"/>
<defs>
<linearGradient id="paint0_linear_1303_6919" x1="336" y1="15" x2="336" y2="210" gradientUnits="userSpaceOnUse">
<stop stop-color="white"/>
<stop offset="1" stop-color="#222223"/>
</linearGradient>
<linearGradient id="paint1_linear_1303_6919" x1="336" y1="15" x2="336" y2="-180" gradientUnits="userSpaceOnUse">
<stop stop-color="white"/>
<stop offset="1" stop-color="#222223"/>
</linearGradient>
<linearGradient id="paint2_linear_1303_6919" x1="538.259" y1="121.766" x2="553.461" y2="106.564" gradientUnits="userSpaceOnUse">
<stop stop-color="#878787"/>
<stop offset="1" stop-color="#909090"/>
</linearGradient>
</defs>
</svg>
