<svg width="684" height="200" viewBox="0 0 684 200" fill="none" xmlns="http://www.w3.org/2000/svg">
<g clip-path="url(#clip0_16_762)">
<rect width="684" height="200" fill="#262629"/>
<path fill-rule="evenodd" clip-rule="evenodd" d="M341.994 -22.9931L341.813 -23.3043L341.455 -22.6822L236.632 37.8373L236.44 37.7248L236.243 38.0623L235.763 38.339L129.521 -23L23.6475 38.1262L23.4288 37.7487L23.0865 37.9471L-82.4769 -23L-188.998 38.5V161.5L-82.4769 223L23.5221 161.801L129.521 223L235.763 161.661L341.315 222.601V223.004H342.315V222.822L448.264 161.651L553.82 222.594L553.886 222.708L554.32 223.457L554.612 222.949L660.523 161.801L766.523 223L873.044 161.5V38.5L766.523 -23L660.523 38.1991L554.523 -23L448.264 38.3486L448.241 38.3348L447.885 37.7241L447.535 37.9277L342.005 -23L341.994 -22.9931ZM555.608 221.219L660.002 160.947V39.903L555.608 221.219ZM659.503 38.765L554.523 -21.8453L449.002 39.0774V39.7377L554.317 221.457L659.503 38.765ZM449.002 41.7321V160.923L552.814 220.859L449.002 41.7321ZM24.0442 160.948V40.805L128.686 221.363L24.0442 160.948ZM235.042 160.923L129.747 221.715L129.752 221.707L234.937 39.0164L235.042 39.0774V160.923ZM129.317 220.457L234.071 38.5164L129.521 -21.8453L24.1489 38.9914L129.317 220.457ZM340.459 -20.9525L237.625 38.4187L288.967 68.4808L340.459 -20.9525ZM288.468 69.3474L236.629 38.994L236.484 39.0774V159.635L288.468 69.3474ZM237.549 159.79L289.331 69.8527L340.821 100.001L237.549 159.79ZM289.83 68.9861L341.816 -21.3051L394.144 68.9856L341.815 99.4248L289.83 68.9861ZM395.008 68.4827L342.987 -21.2785L446.539 38.5072L395.008 68.4827ZM394.645 69.8508L342.813 100.001L446.771 159.794L394.645 69.8508ZM447.527 159.103L395.509 69.348L447.527 39.0896V159.103ZM-82.4769 -21.8453L-187.998 39.0774V160.923L-82.4769 221.845L23 160.948V39.0518L-82.4769 -21.8453ZM447.128 161.153L342.315 221.667V100.868L447.128 161.153ZM341.315 100.871L237.037 161.242L341.315 221.446V100.871ZM661.044 160.947L766.523 221.845L872.044 160.923V39.0774L766.523 -21.8453L661.044 39.053V160.947Z" fill="url(#paint0_radial_16_762)"/>
<rect x="342.502" y="86.9375" width="19.4576" height="19.4576" transform="rotate(45 342.502 86.9375)" fill="white"/>
<rect x="19" y="156" width="10" height="10" fill="url(#paint1_linear_16_762)"/>
<rect x="231.002" y="33" width="9" height="9" rx="4.5" fill="white"/>
<rect x="656.002" y="35" width="10" height="10" rx="5" fill="url(#paint2_linear_16_762)"/>
<rect x="440.004" y="31" width="17" height="17" fill="white"/>
</g>
<defs>
<radialGradient id="paint0_radial_16_762" cx="0" cy="0" r="1" gradientUnits="userSpaceOnUse" gradientTransform="translate(342.002 94.0004) rotate(90.0762) scale(149 385.529)">
<stop stop-color="white"/>
<stop offset="1" stop-color="#161717"/>
</radialGradient>
<linearGradient id="paint1_linear_16_762" x1="27.9915" y1="160.455" x2="19.8148" y2="157.366" gradientUnits="userSpaceOnUse">
<stop stop-color="#242525"/>
<stop offset="1" stop-color="#2E2F2F"/>
</linearGradient>
<linearGradient id="paint2_linear_16_762" x1="663.002" y1="36.5" x2="661.002" y2="45" gradientUnits="userSpaceOnUse">
<stop stop-color="#262727"/>
<stop offset="1" stop-color="#313232"/>
</linearGradient>
<clipPath id="clip0_16_762">
<rect width="684" height="200" fill="white"/>
</clipPath>
</defs>
</svg>
