<svg width="90" height="91" viewBox="0 0 90 91" fill="none" xmlns="http://www.w3.org/2000/svg">
<mask id="mask0_1188_4627" style="mask-type:alpha" maskUnits="userSpaceOnUse" x="0" y="0" width="90" height="91">
<path d="M45 0.86377L58.7766 12.6041L76.8198 14.044L78.2597 32.0872L90 45.8638L78.2597 59.6404L76.8198 77.6836L58.7766 79.1234L45 90.8638L31.2234 79.1234L13.1802 77.6836L11.7403 59.6404L0 45.8638L11.7403 32.0872L13.1802 14.044L31.2234 12.6041L45 0.86377Z" fill="#D9D9D9"/>
</mask>
<g mask="url(#mask0_1188_4627)">
<rect x="-3.70151" y="-11.4692" width="98.6301" height="115.89" fill="#0D0D0E"/>
<g filter="url(#filter0_f_1188_4627)">
<path d="M580.658 -372.208C424.386 -189.319 -16.8187 154.581 -531.464 67.0645C-354.482 246.606 115.718 410.109 580.658 -372.208Z" fill="#002E48"/>
</g>
<g filter="url(#filter1_f_1188_4627)">
<path d="M467.09 -283.356C340.354 -135.017 -17.4713 143.908 -434.88 72.8978C-291.33 218.536 90.0344 351.179 467.09 -283.356Z" fill="#0072A3"/>
</g>
<g filter="url(#filter2_f_1188_4627)">
<path d="M467.092 -283.355C340.356 -135.016 -1.86749 196.369 -434.878 72.8984C-291.328 218.537 98.2701 322.092 467.092 -283.355Z" fill="#00C2CE"/>
</g>
<g filter="url(#filter3_f_1188_4627)">
<path d="M521.05 -305.845C371.834 -151.968 -25.8576 196.262 -487.989 108.922C-342.706 239.724 73.6629 310.976 521.05 -305.845Z" fill="#EF6619"/>
</g>
<g filter="url(#filter4_f_1188_4627)">
<path d="M467.092 -283.354C340.356 -135.015 8.77799 231.968 -434.878 72.8995C-294.903 183.785 91.7514 302.782 467.092 -283.354Z" fill="#CF7154"/>
</g>
<g filter="url(#filter5_f_1188_4627)">
<path d="M467.091 -283.355C340.355 -135.016 27.4667 280.507 -434.879 72.8987C-242.848 187.896 97.2877 227.207 467.091 -283.355Z" fill="#F1F9A0"/>
</g>
</g>
<defs>
<filter id="filter0_f_1188_4627" x="-552.554" y="-393.298" width="1154.3" height="630.309" filterUnits="userSpaceOnUse" color-interpolation-filters="sRGB">
<feFlood flood-opacity="0" result="BackgroundImageFix"/>
<feBlend mode="normal" in="SourceGraphic" in2="BackgroundImageFix" result="shape"/>
<feGaussianBlur stdDeviation="10.545" result="effect1_foregroundBlur_1188_4627"/>
</filter>
<filter id="filter1_f_1188_4627" x="-455.97" y="-304.446" width="944.15" height="519.191" filterUnits="userSpaceOnUse" color-interpolation-filters="sRGB">
<feFlood flood-opacity="0" result="BackgroundImageFix"/>
<feBlend mode="normal" in="SourceGraphic" in2="BackgroundImageFix" result="shape"/>
<feGaussianBlur stdDeviation="10.545" result="effect1_foregroundBlur_1188_4627"/>
</filter>
<filter id="filter2_f_1188_4627" x="-455.968" y="-304.445" width="944.15" height="510.384" filterUnits="userSpaceOnUse" color-interpolation-filters="sRGB">
<feFlood flood-opacity="0" result="BackgroundImageFix"/>
<feBlend mode="normal" in="SourceGraphic" in2="BackgroundImageFix" result="shape"/>
<feGaussianBlur stdDeviation="10.545" result="effect1_foregroundBlur_1188_4627"/>
</filter>
<filter id="filter3_f_1188_4627" x="-532.512" y="-350.368" width="1098.09" height="592.711" filterUnits="userSpaceOnUse" color-interpolation-filters="sRGB">
<feFlood flood-opacity="0" result="BackgroundImageFix"/>
<feBlend mode="normal" in="SourceGraphic" in2="BackgroundImageFix" result="shape"/>
<feGaussianBlur stdDeviation="22.2616" result="effect1_foregroundBlur_1188_4627"/>
</filter>
<filter id="filter4_f_1188_4627" x="-455.968" y="-304.444" width="944.15" height="489.77" filterUnits="userSpaceOnUse" color-interpolation-filters="sRGB">
<feFlood flood-opacity="0" result="BackgroundImageFix"/>
<feBlend mode="normal" in="SourceGraphic" in2="BackgroundImageFix" result="shape"/>
<feGaussianBlur stdDeviation="10.545" result="effect1_foregroundBlur_1188_4627"/>
</filter>
<filter id="filter5_f_1188_4627" x="-455.969" y="-304.445" width="944.15" height="471.082" filterUnits="userSpaceOnUse" color-interpolation-filters="sRGB">
<feFlood flood-opacity="0" result="BackgroundImageFix"/>
<feBlend mode="normal" in="SourceGraphic" in2="BackgroundImageFix" result="shape"/>
<feGaussianBlur stdDeviation="10.545" result="effect1_foregroundBlur_1188_4627"/>
</filter>
</defs>
</svg>
