<svg width="19" height="20" viewBox="0 0 19 20" fill="none" xmlns="http://www.w3.org/2000/svg">
<g clip-path="url(#clip0_32_1186)">
<path d="M16.4612 3.6418L11.0113 0.495082C10.4474 0.170712 9.80819 0 9.15763 0C8.50707 0 7.86791 0.170712 7.30398 0.495082L1.85625 3.6418C1.2929 3.96766 0.824959 4.43569 0.499211 4.9991C0.173463 5.56252 0.00132222 6.20157 0 6.85237L0 13.1458C0.00132222 13.7966 0.173463 14.4357 0.499211 14.9991C0.824959 15.5625 1.2929 16.0305 1.85625 16.3564L5.03119 18.1911C5.20159 18.2891 5.40389 18.3155 5.59374 18.2646C5.78359 18.2136 5.9455 18.0895 6.04396 17.9193C6.10956 17.8067 6.14391 17.6785 6.14345 17.5481V13.4525L8.12519 14.5967C8.43933 14.7772 8.79532 14.8722 9.15763 14.8722C9.51995 14.8722 9.87593 14.7772 10.1901 14.5967L12.6225 13.1918C12.9361 13.0102 13.1966 12.7493 13.3778 12.4355C13.5591 12.1216 13.6548 11.7656 13.6553 11.4032V8.59502C13.6548 8.23257 13.5591 7.87661 13.3778 7.56273C13.1966 7.24884 12.9361 6.98802 12.6225 6.80634L10.1901 5.40153C9.87596 5.22095 9.51996 5.12591 9.15763 5.12591C8.7953 5.12591 8.43931 5.22095 8.12519 5.40153L5.69275 6.80634C5.37912 6.98802 5.11867 7.24884 4.93742 7.56273C4.75618 7.87661 4.6605 8.23257 4.65993 8.59502V16.2606L2.59875 15.0726C2.26083 14.8771 1.98012 14.5963 1.78468 14.2583C1.58924 13.9203 1.48591 13.537 1.485 13.1466V6.85237C1.48566 6.46201 1.5889 6.07866 1.78437 5.74076C1.97984 5.40286 2.26068 5.12225 2.59875 4.92707L8.04574 1.78184C8.38461 1.58706 8.76863 1.48455 9.15949 1.48455C9.55035 1.48455 9.93437 1.58706 10.2732 1.78184L15.7232 4.9293C16.0613 5.12448 16.3421 5.40508 16.5376 5.74299C16.733 6.08089 16.8363 6.46423 16.8369 6.8546V13.148C16.836 13.5385 16.7327 13.9218 16.5373 14.2598C16.3418 14.5978 16.0611 14.8786 15.7232 15.0741L10.2732 18.2201C9.93448 18.4151 9.55037 18.5175 9.15949 18.5171C8.96257 18.5171 8.77371 18.5953 8.63446 18.7345C8.49522 18.8738 8.41699 19.0626 8.41699 19.2596C8.41699 19.4565 8.49522 19.6453 8.63446 19.7846C8.77371 19.9238 8.96257 20.0021 9.15949 20.0021C9.81111 20.0023 10.4513 19.8309 11.0157 19.5053L16.4657 16.3586C17.029 16.0328 17.497 15.5647 17.8227 15.0013C18.1485 14.4379 18.3206 13.7988 18.3219 13.148V6.85237C18.3202 6.20114 18.1474 5.56179 17.8208 4.99833C17.4943 4.43488 17.0254 3.96709 16.4612 3.6418ZM6.14048 8.59502C6.14124 8.49294 6.1688 8.39284 6.2204 8.30476C6.27201 8.21667 6.34584 8.14368 6.43451 8.09309L8.86694 6.68902C8.95542 6.63829 9.05564 6.61159 9.15763 6.61159C9.25963 6.61159 9.35984 6.63829 9.44832 6.68902L11.88 8.09309C11.9685 8.14424 12.0419 8.21775 12.093 8.30623C12.1441 8.39472 12.171 8.49508 12.1711 8.59725V11.4054C12.1709 11.5075 12.144 11.6077 12.0929 11.696C12.0418 11.7844 11.9684 11.8578 11.88 11.9088L9.44758 13.3136C9.3591 13.3644 9.25888 13.391 9.15689 13.391C9.0549 13.391 8.95468 13.3644 8.8662 13.3136L6.43451 11.9066C6.34612 11.8555 6.27271 11.7822 6.22162 11.6938C6.17053 11.6055 6.14358 11.5052 6.14345 11.4032L6.14048 8.59502Z" fill="white"/>
</g>
<defs>
<clipPath id="clip0_32_1186">
<rect width="18.3153" height="20" fill="white"/>
</clipPath>
</defs>
</svg>
