<svg width="24" height="26" viewBox="0 0 24 26" fill="none" xmlns="http://www.w3.org/2000/svg">
<g clip-path="url(#clip0_47_754)">
<path d="M21.7349 4.73385L14.5389 0.643541C13.7943 0.221903 12.9504 0 12.0914 0C11.2324 0 10.3885 0.221903 9.64392 0.643541L2.45093 4.73385C1.7071 5.15742 1.08925 5.7658 0.659141 6.49816C0.229034 7.23052 0.00174581 8.06121 0 8.90717L0 17.0878C0.00174581 17.9337 0.229034 18.7644 0.659141 19.4968C1.08925 20.2292 1.7071 20.8375 2.45093 21.2611L6.643 23.646C6.868 23.7734 7.13511 23.8077 7.38579 23.7415C7.63646 23.6753 7.85023 23.5139 7.98023 23.2927C8.06685 23.1463 8.1122 22.9797 8.1116 22.8102V17.4864L10.7282 18.9737C11.143 19.2083 11.613 19.3318 12.0914 19.3318C12.5698 19.3318 13.0398 19.2083 13.4546 18.9737L16.6663 17.1476C17.0804 16.9115 17.4243 16.5724 17.6636 16.1644C17.903 15.7564 18.0293 15.2937 18.03 14.8226V11.1724C18.0293 10.7012 17.903 10.2385 17.6636 9.83053C17.4243 9.42252 17.0804 9.08349 16.6663 8.84733L13.4546 7.02126C13.0399 6.78653 12.5698 6.663 12.0914 6.663C11.613 6.663 11.143 6.78653 10.7282 7.02126L7.51652 8.84733C7.10241 9.08349 6.75851 9.42252 6.5192 9.83053C6.2799 10.2385 6.15356 10.7012 6.15282 11.1724V21.1366L3.4313 19.5924C2.98512 19.3382 2.61448 18.9732 2.35643 18.5339C2.09838 18.0946 1.96194 17.5962 1.96075 17.0888V8.90717C1.96162 8.39974 2.09793 7.90145 2.35602 7.46222C2.61412 7.02299 2.98493 6.65824 3.4313 6.40453L10.6233 2.31615C11.0707 2.06296 11.5778 1.92972 12.0939 1.92972C12.61 1.92972 13.117 2.06296 13.5644 2.31615L20.7604 6.40743C21.2067 6.66114 21.5776 7.02588 21.8356 7.46511C22.0937 7.90434 22.2301 8.40264 22.2309 8.91006V17.0907C22.2297 17.5982 22.0933 18.0965 21.8352 18.5358C21.5772 18.9751 21.2066 19.3401 20.7604 19.5943L13.5644 23.6836C13.1171 23.9371 12.61 24.0703 12.0939 24.0697C11.8339 24.0697 11.5845 24.1714 11.4006 24.3524C11.2168 24.5334 11.1135 24.7789 11.1135 25.0348C11.1135 25.2908 11.2168 25.5363 11.4006 25.7173C11.5845 25.8983 11.8339 26 12.0939 26C12.9543 26.0003 13.7995 25.7776 14.5448 25.3543L21.7407 21.264C22.4846 20.8404 23.1024 20.2321 23.5325 19.4997C23.9626 18.7673 24.1899 17.9366 24.1917 17.0907V8.90717C24.1893 8.06064 23.9612 7.22958 23.53 6.49716C23.0988 5.76475 22.4798 5.15669 21.7349 4.73385ZM8.10768 11.1724C8.10869 11.0397 8.14508 10.9096 8.21321 10.7951C8.28134 10.6806 8.37883 10.5857 8.49591 10.5199L11.7076 8.69483C11.8244 8.62888 11.9568 8.59418 12.0914 8.59418C12.2261 8.59418 12.3584 8.62888 12.4752 8.69483L15.686 10.5199C15.8027 10.5864 15.8997 10.682 15.9672 10.797C16.0346 10.912 16.0702 11.0425 16.0703 11.1753V14.8255C16.0701 14.9581 16.0345 15.0884 15.9671 15.2033C15.8996 15.3181 15.8027 15.4135 15.686 15.4798L12.4743 17.3059C12.3574 17.3719 12.2251 17.4066 12.0904 17.4066C11.9558 17.4066 11.8235 17.3719 11.7066 17.3059L8.49591 15.477C8.3792 15.4106 8.28226 15.3152 8.21481 15.2004C8.14736 15.0855 8.11177 14.9552 8.1116 14.8226L8.10768 11.1724Z" fill="white"/>
</g>
<defs>
<clipPath id="clip0_47_754">
<rect width="24" height="26" fill="white"/>
</clipPath>
</defs>
</svg>
