<svg width="1440" height="104" viewBox="0 0 1440 104" fill="none" xmlns="http://www.w3.org/2000/svg">
<rect x="-27.5" y="31.5" width="107" height="118" rx="12.5" stroke="#2A2A2B"/>
<rect x="186.5" y="31.5" width="107" height="118" rx="12.5" stroke="#2A2A2B"/>
<rect x="79.5" y="31.5" width="107" height="118" rx="12.5" stroke="#2A2A2B"/>
<rect x="293.5" y="31.5" width="107" height="118" rx="12.5" stroke="#2A2A2B"/>
<rect x="400.5" y="31.5" width="107" height="118" rx="12.5" stroke="#2A2A2B"/>
<rect x="507.5" y="31.5" width="107" height="118" rx="12.5" stroke="#2A2A2B"/>
<rect x="614.5" y="31.5" width="107" height="118" rx="12.5" stroke="#2A2A2B"/>
<rect x="721.5" y="31.5" width="107" height="118" rx="12.5" stroke="#2A2A2B"/>
<rect x="828.5" y="31.5" width="107" height="118" rx="12.5" stroke="#2A2A2B"/>
<rect x="935.5" y="31.5" width="107" height="118" rx="12.5" stroke="#2A2A2B"/>
<rect x="1042.5" y="31.5" width="107" height="118" rx="12.5" stroke="#2A2A2B"/>
<rect x="1149.5" y="31.5" width="107" height="118" rx="12.5" stroke="#2A2A2B"/>
<rect x="1256.5" y="31.5" width="107" height="118" rx="12.5" stroke="#2A2A2B"/>
<rect x="1363.5" y="31.5" width="107" height="118" rx="12.5" stroke="#2A2A2B"/>
<rect x="-27.5" y="0.5" width="107" height="31" rx="15.5" stroke="#2A2A2B"/>
<rect x="186.5" y="0.5" width="107" height="31" rx="15.5" stroke="#2A2A2B"/>
<rect x="79.5" y="0.5" width="107" height="31" rx="15.5" stroke="#2A2A2B"/>
<rect x="293.5" y="0.5" width="428" height="31" rx="15.5" stroke="#2A2A2B"/>
<rect x="721.5" y="0.5" width="428" height="31" rx="15.5" stroke="#2A2A2B"/>
<rect x="1149.5" y="0.5" width="107" height="31" rx="15.5" stroke="#2A2A2B"/>
<rect x="1256.5" y="0.5" width="107" height="31" rx="15.5" stroke="#2A2A2B"/>
<rect x="1363.5" y="0.5" width="107" height="31" rx="15.5" stroke="#2A2A2B"/>
</svg>
