<svg width="850" height="583" viewBox="0 0 850 583" fill="none" xmlns="http://www.w3.org/2000/svg">
<g clip-path="url(#clip0_2709_13699)">
<rect x="849.5" y="261.501" width="210.981" height="107" rx="19.5" transform="rotate(-180 849.5 261.501)" stroke="#2A2A2B"/>
<rect x="639.48" y="261.501" width="210.981" height="107" rx="19.5" transform="rotate(-180 639.48 261.501)" stroke="#2A2A2B"/>
<rect x="849.5" y="368.501" width="210.981" height="107" rx="19.5" transform="rotate(-180 849.5 368.501)" stroke="#2A2A2B"/>
<rect x="639.48" y="368.501" width="210.981" height="107" rx="19.5" transform="rotate(-180 639.48 368.501)" stroke="#2A2A2B"/>
<rect x="642.5" y="47.5009" width="107" height="107" rx="39.5" transform="rotate(-180 642.5 47.5009)" stroke="#2A2A2B"/>
<rect x="535.5" y="47.5009" width="107" height="107" rx="39.5" transform="rotate(-180 535.5 47.5009)" stroke="#2A2A2B"/>
<rect x="535.5" y="154.501" width="107" height="107" rx="39.5" transform="rotate(-180 535.5 154.501)" stroke="#2A2A2B"/>
<rect x="428.5" y="261.501" width="107" height="107" rx="49.5" transform="rotate(-180 428.5 261.501)" stroke="#2A2A2B"/>
<rect x="428.5" y="368.501" width="107" height="107" rx="49.5" transform="rotate(-180 428.5 368.501)" stroke="#2A2A2B"/>
<rect x="321.5" y="368.501" width="107" height="107" rx="49.5" transform="rotate(-180 321.5 368.501)" stroke="#2A2A2B"/>
<rect x="428.998" y="475.5" width="214.498" height="107" rx="53.5" transform="rotate(-180 428.998 475.5)" stroke="#2A2A2B"/>
<rect x="643.5" y="582.5" width="214.498" height="107" rx="53.5" transform="rotate(-180 643.5 582.5)" stroke="#2A2A2B"/>
<rect x="428.998" y="582.5" width="214.498" height="107" rx="53.5" transform="rotate(-180 428.998 582.5)" stroke="#2A2A2B"/>
<rect x="428.5" y="47.5009" width="214.498" height="107" rx="27.5" transform="rotate(-180 428.5 47.5009)" stroke="#2A2A2B"/>
<rect x="214.998" y="47.5008" width="214.498" height="107" rx="27.5" transform="rotate(-180 214.998 47.5008)" stroke="#2A2A2B"/>
<rect x="428.5" y="154.501" width="214.498" height="107" rx="27.5" transform="rotate(-180 428.5 154.501)" stroke="#2A2A2B"/>
<rect x="214.998" y="154.501" width="214.498" height="107" rx="27.5" transform="rotate(-180 214.998 154.501)" stroke="#2A2A2B"/>
<rect x="214.5" y="261.501" width="107" height="107" rx="39.5" transform="rotate(-180 214.5 261.501)" stroke="#2A2A2B"/>
<rect x="107.5" y="261.501" width="107" height="107" rx="39.5" transform="rotate(-180 107.5 261.501)" stroke="#2A2A2B"/>
<rect x="214.5" y="368.501" width="107" height="107" rx="39.5" transform="rotate(-180 214.5 368.501)" stroke="#2A2A2B"/>
<rect x="107.5" y="368.501" width="107" height="107" rx="39.5" transform="rotate(-180 107.5 368.501)" stroke="#2A2A2B"/>
<rect x="642.5" y="154.501" width="107" height="107" rx="39.5" transform="rotate(-180 642.5 154.501)" stroke="#6F6F6F"/>
<rect x="321.5" y="261.501" width="107" height="107" rx="49.5" transform="rotate(-180 321.5 261.501)" stroke="#266680"/>
<rect x="643.5" y="475.5" width="214.498" height="107" rx="53.5" transform="rotate(-180 643.5 475.5)" stroke="#CD7246"/>
</g>
<defs>
<clipPath id="clip0_2709_13699">
<rect width="850" height="583" fill="white" transform="translate(850 583) rotate(-180)"/>
</clipPath>
</defs>
</svg>
