<svg fill="none" height="272" viewBox="0 0 271 272" width="271" xmlns="http://www.w3.org/2000/svg"><g opacity=".5" stroke="#04a96a" stroke-width="2"><path d="m86.9147 82.5174.9062 1.8362c.2913.5902.8545.9994 1.5059 1.094l2.0264.2945-1.4663 1.4293c-.4714.4594-.6865 1.1214-.5752 1.7702l.3461 2.0182-1.8124-.9528c-.5827-.3064-1.2787-.3064-1.8614 0l-1.8124.9528.3461-2.0182c.1113-.6488-.1038-1.3108-.5752-1.7702l-1.4663-1.4293 2.0264-.2945c.6514-.0946 1.2146-.5038 1.5059-1.094z"/><path d="m72.8629 100.101 1.4293 1.467c.4595.471 1.1215.686 1.7702.575l2.0182-.346-.9528 1.812c-.3063.583-.3063 1.279 0 1.861l.9528 1.813-2.0182-.346c-.6487-.112-1.3107.104-1.7702.575l-1.4293 1.466-.2944-2.026c-.0947-.652-.5038-1.215-1.0941-1.506l-1.8362-.906 1.8362-.906c.5903-.292.9994-.855 1.0941-1.506z"/><path d="m64.9327 121.167 1.8124.953c.5827.306 1.2788.306 1.8614 0l1.8124-.953-.3461 2.018c-.1113.649.1038 1.311.5752 1.771l1.4663 1.429-2.0264.294c-.6514.095-1.2145.504-1.5059 1.094l-.9062 1.837-.9062-1.837c-.2913-.59-.8545-.999-1.5059-1.094l-2.0263-.294 1.4663-1.429c.4713-.46.6864-1.122.5751-1.771z"/><path d="m63.9002 143.652 2.0182.347c.6488.111 1.3108-.104 1.7703-.576l1.4293-1.466.2944 2.026c.0947.652.5038 1.215 1.0941 1.506l1.8362.907-1.8362.906c-.5903.291-.9994.854-1.0941 1.506l-.2944 2.026-1.4293-1.466c-.4595-.472-1.1215-.687-1.7703-.575l-2.0182.346.9529-1.813c.3063-.582.3063-1.279 0-1.861z"/><path d="m69.8666 165.356 2.0263-.294c.6515-.095 1.2146-.504 1.5059-1.094l.9062-1.836.9063 1.836c.2913.59.8544.999 1.5058 1.094l2.0264.294-1.4663 1.43c-.4714.459-.6865 1.121-.5752 1.77l.3462 2.018-1.8125-.953c-.5826-.306-1.2787-.306-1.8613 0l-1.8125.953.3462-2.018c.1112-.649-.1039-1.311-.5752-1.77z"/><path d="m82.2478 184.154 1.8362-.906c.5903-.291.9995-.855 1.0941-1.506l.2945-2.026 1.4292 1.466c.4595.471 1.1215.686 1.7703.575l2.0182-.346-.9529 1.812c-.3063.583-.3063 1.279 0 1.862l.9529 1.812-2.0182-.346c-.6488-.111-1.3108.104-1.7703.575l-1.4292 1.467-.2945-2.027c-.0946-.651-.5038-1.214-1.0941-1.506z"/><path d="m99.832 198.206 1.466-1.429c.472-.46.687-1.122.575-1.771l-.346-2.018 1.813.953c.582.306 1.278.306 1.861 0l1.813-.953-.347 2.018c-.111.649.104 1.311.576 1.771l1.466 1.429-2.026.294c-.652.095-1.215.504-1.506 1.094l-.907 1.837-.906-1.837c-.291-.59-.854-.999-1.506-1.094z"/><path d="m120.898 206.136.953-1.812c.306-.583.306-1.279 0-1.862l-.953-1.812 2.018.346c.649.111 1.311-.104 1.77-.575l1.429-1.466.295 2.026c.094.651.504 1.215 1.094 1.506l1.836.906-1.836.906c-.59.292-1 .855-1.094 1.506l-.295 2.027-1.429-1.467c-.459-.471-1.121-.686-1.77-.575z"/><path d="m143.383 207.169.346-2.019c.111-.648-.104-1.31-.575-1.77l-1.466-1.429 2.026-.295c.651-.094 1.215-.503 1.506-1.094l.906-1.836.906 1.836c.292.591.855 1 1.506 1.094l2.027.295-1.467 1.429c-.471.46-.686 1.122-.575 1.77l.346 2.019-1.812-.953c-.583-.307-1.279-.307-1.862 0z"/><path d="m165.087 201.202-.294-2.026c-.095-.652-.504-1.215-1.095-1.506l-1.836-.906 1.836-.906c.591-.292 1-.855 1.095-1.506l.294-2.027 1.429 1.467c.46.471 1.122.686 1.77.575l2.019-.346-.953 1.812c-.306.583-.306 1.279 0 1.861l.953 1.813-2.018-.346c-.649-.112-1.311.104-1.771.575z"/><path d="m183.885 188.821-.907-1.836c-.291-.591-.854-1-1.505-1.094l-2.027-.295 1.466-1.429c.472-.46.687-1.122.576-1.77l-.346-2.018 1.812.952c.583.307 1.279.307 1.861 0l1.813-.952-.346 2.018c-.112.648.103 1.31.575 1.77l1.466 1.429-2.026.295c-.652.094-1.215.503-1.506 1.094z"/><path d="m197.936 171.237-1.429-1.466c-.459-.472-1.121-.687-1.77-.576l-2.018.347.953-1.813c.306-.583.306-1.279 0-1.861l-.953-1.813 2.018.346c.649.112 1.311-.103 1.77-.575l1.429-1.466.295 2.026c.095.652.504 1.215 1.094 1.506l1.836.906-1.836.907c-.59.291-.999.854-1.094 1.506z"/><path d="m205.867 150.171-1.813-.953c-.582-.306-1.279-.306-1.861 0l-1.813.953.347-2.018c.111-.649-.104-1.311-.576-1.77l-1.466-1.43 2.026-.294c.652-.095 1.215-.504 1.506-1.094l.907-1.836.906 1.836c.291.59.854.999 1.506 1.094l2.026.294-1.466 1.43c-.472.459-.687 1.121-.575 1.77z"/><path d="m206.899 127.686-2.018-.346c-.649-.112-1.311.104-1.77.575l-1.43 1.466-.294-2.026c-.095-.652-.504-1.215-1.094-1.506l-1.836-.906 1.836-.906c.59-.292.999-.855 1.094-1.506l.294-2.027 1.43 1.467c.459.471 1.121.686 1.77.575l2.018-.346-.953 1.812c-.306.583-.306 1.279 0 1.861z"/><path d="m200.933 105.982-2.027.294c-.651.095-1.214.504-1.505 1.094l-.907 1.837-.906-1.837c-.291-.59-.854-.999-1.506-1.094l-2.026-.294 1.466-1.429c.472-.46.687-1.122.575-1.771l-.346-2.018 1.813.953c.582.306 1.278.306 1.861 0l1.812-.953-.346 2.018c-.111.649.104 1.311.575 1.771z"/><path d="m188.552 87.1842-1.837.9063c-.59.2913-.999.8544-1.094 1.5058l-.294 2.0264-1.429-1.4663c-.46-.4714-1.122-.6865-1.771-.5752l-2.018.3462.953-1.8125c.306-.5826.306-1.2787 0-1.8613l-.953-1.8125 2.018.3462c.649.1112 1.311-.1039 1.771-.5752l1.429-1.4663.294 2.0263c.095.6515.504 1.2146 1.094 1.5059z"/><path d="m170.968 73.1323-1.467 1.4293c-.471.4595-.686 1.1215-.575 1.7703l.346 2.0182-1.812-.9529c-.583-.3063-1.279-.3063-1.862 0l-1.812.9529.346-2.0182c.111-.6488-.104-1.3108-.575-1.7703l-1.466-1.4293 2.026-.2944c.651-.0947 1.215-.5038 1.506-1.0941l.906-1.8362.906 1.8362c.292.5903.855.9994 1.506 1.0941z"/><path d="m149.902 65.2021-.953 1.8125c-.307.5826-.307 1.2787 0 1.8613l.953 1.8125-2.019-.3462c-.648-.1112-1.31.1039-1.77.5752l-1.429 1.4663-.295-2.0263c-.094-.6515-.503-1.2146-1.094-1.5059l-1.836-.9062 1.836-.9063c.591-.2913 1-.8544 1.094-1.5058l.295-2.0264 1.429 1.4663c.46.4714 1.122.6865 1.77.5752z"/><path d="m127.416 64.1697-.346 2.0182c-.111.6487.104 1.3107.575 1.7702l1.467 1.4293-2.027.2944c-.651.0947-1.214.5038-1.506 1.0941l-.906 1.8362-.906-1.8362c-.291-.5903-.854-.9994-1.506-1.0941l-2.026-.2944 1.466-1.4293c.471-.4595.687-1.1215.575-1.7702l-.346-2.0182 1.813.9528c.582.3064 1.278.3064 1.861 0z"/><path d="m105.713 70.136.294 2.0264c.095.6514.504 1.2145 1.094 1.5059l1.836.9062-1.836.9062c-.59.2913-.999.8545-1.094 1.5059l-.294 2.0263-1.43-1.4663c-.459-.4713-1.121-.6864-1.77-.5751l-2.018.3461.953-1.8124c.306-.5827.306-1.2788 0-1.8614l-.953-1.8124 2.018.3461c.649.1113 1.311-.1038 1.77-.5752z"/></g><g fill="#04925b" opacity=".3"><path d="m67.978 77.3118c2.7258.0062 5.2959-1.2672 6.9423-3.4397.1246-.1689.1272-.3983.0071-.5702-.1204-.1718-.3368-.2479-.5382-.1887-4.2754 1.4087-8.914-1.9805-8.8407-6.4929.0085-2.4117 1.2877-4.6402 3.3662-5.8635.1786-.1097.2678-.3212.2212-.5255-.0468-.2047-.2186-.3567-.4272-.3779-.2412-.0201-.4836-.0364-.7306-.0364-11.604.48-11.6015 17.0157 0 17.4948zm-.8028-16.4817c-5.58 5.0021-1.4846 14.2807 5.9842 13.5243-4.8911 4.4824-13.0103.8594-12.957-5.79.0023-1.9222.716-3.7762 2.0034-5.2038 1.287-1.428 3.0573-2.3294 4.9691-2.5305z"/><path d="m68.0021 64.6448c-.0592.1832-.0052.384.1383.5122l2.3792 2.1283-.6743 3.1201c-.0403.1881.0339.3827.1897.4956.1556.1133.3635.1237.5298.0271l2.7593-1.6051 2.7593 1.6047v.0003c.1662.0967.3742.0863.5297-.027.1559-.1129.2301-.3075.1898-.4956l-.674-3.1201 2.3789-2.1283c.1435-.1282.1978-.329.1383-.5122-.0596-.1829-.2216-.3137-.413-.3333l-3.1758-.3234-1.2887-2.9201c-.0777-.176-.2518-.2896-.4445-.2896-.1926 0-.3671.1136-.4448.2896l-1.2884 2.9201-3.1758.3234c-.1913.0196-.3534.1504-.413.3333zm3.9686.2818c.1737-.0179.3247-.1276.3954-.2874l.958-2.1711.958 2.1715v-.0003c.0707.1597.2217.2694.3954.2873l2.3617.2405-1.7693 1.5829v-.0004c-.1302.1165-.1878.2939-.151.4644l.5011 2.3203c-.1152-.0397-2.2256-1.3681-2.2959-1.2594-.0657-.1109-2.1872 1.2233-2.2959 1.2594l.5012-2.3203c.0367-.1705-.0209-.3479-.151-.4644l-1.7693-1.5828z"/><path d="m51.9728 103.934c2.5635-.926 4.5431-3.002 5.3471-5.6066.0594-.2013-.0166-.4178-.1882-.5382-.1719-.1203-.4013-.1178-.5704.0068-3.5357 2.786-9.0538 1.1877-10.5282-3.0777-.8169-2.2691-.377-4.8007 1.1577-6.6612.1304-.1641.1418-.3934.0282-.5695-.114-.1763-.3275-.2604-.5307-.2089-.2335.0635-.4669.1311-.699.2156-10.7401 4.4199-5.0821 19.9577 5.9836 16.4397zm-6.3915-15.2131c-3.5326 6.6089 3.4893 13.9271 10.2489 10.662-3.0631 5.8851-11.9317 5.2571-14.1558-1.0092-.6553-1.8072-.6188-3.7934.1027-5.5753.721-1.782 2.0762-3.2345 3.804-4.0774z"/><path d="m47.6632 92.0226c.007.1924.1265.3626.3052.434l2.9636 1.1862.4336 3.1626c.0264.1905.1627.348.3477.4008.185.0532.3839-.0081.5071-.1558l2.0439-2.4519 3.1417.5642.0001.0003c.1894.0339.3812-.047.4886-.2066.1079-.1594.1111-.3677.0088-.5306l-1.7005-2.7015 1.5075-2.8136c.091-.1695.0734-.3768-.0452-.5286-.1185-.1515-.3155-.219-.502-.1719l-3.0949.7822-2.2097-2.3031c-.1333-.1389-.3358-.1861-.5168-.1202s-.3061.2323-.319.4243l-.2119 3.1846-2.8736 1.3902c-.1732.0838-.2807.2621-.2741.4544zm3.8256-1.0925c.1572-.0763.2616-.231.2733-.4053l.1577-2.3679 1.643 1.7129-.0001-.0003c.121.126.3004.1774.4698.1348l2.3014-.5818-1.1212 2.0926-.0001-.0003c-.0825.154-.076.3403.0169.488l1.2645 2.009c-.1218.002-2.5592-.5244-2.5881-.3982-.0997-.0818-1.6369 1.8976-1.7267 1.9686l-.3227-2.3517c-.0238-.1729-.1385-.3198-.3007-.3848l-2.204-.8822z"/><path d="m46.0384 134.425c2.092-1.748 3.2423-4.375 3.107-7.098-.0131-.209-.1585-.387-.361-.441-.2027-.054-.4174.027-.5336.201-2.3696 3.828-8.1016 4.213-10.9459.709-1.5438-1.853-1.9963-4.382-1.1904-6.655.0664-.199-.0013-.418-.1683-.545-.1675-.127-.3968-.133-.5702-.015-.1977.14-.3938.283-.583.442-8.5807 7.827 2.0502 20.492 11.2454 13.402zm-11.2093-12.11c-1.0592 7.419 8.0422 11.894 13.2774 6.514-.8656 6.577-9.414 9.021-13.6473 3.893-1.2338-1.474-1.8788-3.353-1.8103-5.274.068-1.921.8447-3.75 2.18-5.133z"/><path d="m37.9144 124.706c.0724.178.2428.297.4352.303l3.1906.101 1.489 2.824c.09.17.272.271.464.257.1919-.013.3579-.138.4232-.319l1.082-3.004 3.1452-.544h.0002c.1895-.032.3421-.174.3885-.361.0468-.187-.0215-.383-.1733-.501l-2.5218-1.957.4542-3.16c.0276-.19-.0599-.379-.2232-.481-.1632-.102-.3715-.098-.5306.01l-2.6407 1.794-2.8642-1.409c-.1727-.085-.3791-.06-.5267.064s-.2082.323-.1546.508l.89 3.065-2.2248 2.289c-.1341.138-.1741.342-.1022.521zm3.2212-2.335c.1216-.126.1668-.307.1182-.475l-.6617-2.279 2.1297 1.048h-.0002c.1568.077.343.064.4876-.034l1.9637-1.334-.3379 2.35-.0002-.001c-.0249.173.045.346.1828.453l1.8754 1.456c-.1138.043-2.5843.382-2.5683.511-.1217-.043-.8892 2.343-.9492 2.44l-1.1076-2.1c-.0815-.154-.2396-.253-.4142-.258l-2.3728-.075z"/><path d="m50.8901 165.106c1.3683-2.357 1.5505-5.22.4923-7.732-.084-.192-.2814-.309-.4902-.291-.209.019-.3832.168-.4326.372-.9177 4.407-6.1722 6.729-10.0434 4.41-2.0843-1.213-3.3746-3.436-3.3948-5.847-.0057-.21-.1443-.393-.3445-.455-.2007-.061-.4182.011-.5409.182-.138.198-.2733.4-.3968.614-5.3863 10.289 8.9353 18.555 15.1509 8.747zm-14.675-7.545c1.5419 7.333 11.6252 8.426 14.7045 1.58 1.4363 6.477-5.7609 11.696-11.4927 8.326-1.6636-.963-2.9123-2.508-3.505-4.337-.5932-1.829-.4887-3.813.2931-5.569z"/><path d="m39.9322 158.752c.129.143.3299.196.5127.136l3.0327-.996 2.365 2.144c.1428.129.3484.162.5241.084.1759-.079.2889-.253.2883-.446l-.0104-3.192 2.7694-1.587h.0002c.1669-.096.2619-.281.2416-.472-.0199-.192-.1513-.353-.3344-.412l-3.0391-.977-.6537-3.124c-.0393-.189-.186-.336-.3745-.376-.1881-.04-.3824.035-.495.191l-1.8681 2.589-3.1731-.344c-.1914-.021-.3768.073-.4731.24-.0964.167-.0852.374.0284.53l1.8846 2.576-1.3077 2.912c-.0788.175-.0465.381.0821.524zm2.2283-3.296c.0714-.159.0519-.345-.0512-.486l-1.4012-1.915 2.3596.256h-.0003c.1737.018.3442-.058.4465-.199l1.3891-1.925.4862 2.323h-.0003c.0358.171.1606.31.3266.363l2.2601.726c-.092.08-2.2976 1.244-2.2386 1.359-.129.001-.0342 2.506-.0573 2.618l-1.7589-1.594c-.1293-.117-.3117-.156-.4777-.102l-2.2554.741z"/><path d="m65.9431 192.278c.4794-2.683-.3283-5.435-2.1819-7.434-.1447-.152-.3702-.194-.5603-.106-.1901.089-.3027.289-.2793.498.6449 4.455-3.4983 8.434-7.9294 7.579-2.3736-.428-4.3461-2.074-5.1899-4.334-.077-.195-.2698-.319-.4792-.309-.2097.011-.3892.154-.4462.355-.0618.234-.1199.47-.1628.713-1.5423 11.512 14.7427 14.38 17.229 3.038zm-16.3707-2.071c3.9571 6.364 13.806 3.942 14.358-3.545 3.5649 5.595-1.4129 12.962-7.952 11.755-1.8926-.336-3.5945-1.361-4.7769-2.877-1.1828-1.515-1.7631-3.415-1.6292-5.333z"/><path d="m53.4727 190.055c.1701.09.3772.072.5284-.047l2.5091-1.974 2.9557 1.206c.1782.073.3827.033.521-.101.1385-.133.1849-.336.1186-.517l-1.1015-2.996 2.0595-2.438h.0003c.124-.147.1499-.354.0654-.527-.0842-.173-.2629-.28-.4552-.273l-3.1897.122-1.6829-2.712c-.1014-.164-.2897-.252-.4804-.225-.1905.027-.3474.164-.3999.349l-.87 3.071-3.0995.762c-.1869.046-.329.198-.3624.388-.0335.189.0481.381.208.488l2.6519 1.776-.2329 3.183c-.014.192.0867.375.2565.465zm.9666-3.859c.0126-.175-.0692-.342-.2143-.44l-1.9718-1.32 2.3049-.566-.0003-.001c.1696-.041.3038-.171.3516-.339l.6469-2.284 1.2516 2.017h-.0003c.0921.149.2568.236.4311.23l2.3721-.091c-.0591.106-1.7338 1.954-1.639 2.042-.1207.046.825 2.367.8416 2.48l-2.198-.896c-.1616-.066-.3462-.04-.4836.068l-1.866 1.467z"/><path d="m89.3819 212.663c-.4673-2.685-2.1676-4.995-4.593-6.239-.188-.094-.4144-.056-.5627.092s-.1858.375-.0925.563c2.1298 3.966-.4025 9.122-4.859 9.834-2.3766.41-4.7933-.463-6.359-2.297-.139-.157-.3628-.208-.556-.127-.1934.082-.3132.277-.2979.486.022.241.0481.483.091.726 2.4877 11.345 18.7718 8.471 17.229-3.038zm-16.092 3.653c5.8951 4.627 14.3216-1.018 12.2797-8.242 5.2636 4.039 3.1056 12.664-3.452 13.766-1.8935.331-3.8432-.05-5.4727-1.069-1.6298-1.02-2.8249-2.607-3.3549-4.455z"/><path d="m76.903 214.839c.1907.027.379-.061.4804-.225l1.6828-2.713 3.1898.123c.1923.007.371-.1.4552-.273.0845-.173.0586-.38-.0654-.527l-2.0598-2.438 1.1012-2.996h.0003c.0663-.181.0199-.384-.1186-.517-.1383-.134-.3428-.174-.5211-.101l-2.9557 1.205-2.509-1.973c-.1512-.119-.3584-.138-.5285-.047-.1697.09-.2704.273-.2564.464l.2329 3.184-2.6519 1.776c-.1599.107-.2415.299-.208.488.0334.19.1755.342.3624.388l3.0994.762.8701 3.071c.0524.185.2094.322.3998.349zm-.4116-3.957c-.0478-.168-.1821-.298-.3517-.34l-2.3045-.566 1.9721-1.321h-.0003c.1451-.097.2269-.265.2143-.439l-.1732-2.367 1.866 1.467h-.0003c.1373.108.322.134.4835.068l2.1981-.896c-.0191.12-.9609 2.429-.8416 2.48-.0979.084 1.5845 1.941 1.6389 2.042l-2.3721-.091c-.1743-.006-.3389.081-.4311.23l-1.2515 2.017z"/><path d="m118.379 223.802c-1.358-2.363-3.746-3.952-6.45-4.292-.209-.023-.409.089-.497.279-.089.19-.047.416.105.56 3.358 2.999 2.742 8.71-1.202 10.903-2.093 1.199-4.663 1.205-6.761.017-.185-.1-.413-.072-.566.071-.154.143-.2.368-.114.559.103.219.21.437.334.651 6.218 9.809 20.537 1.539 15.151-8.748zm-13.872 8.936c7.122 2.332 13.109-5.854 8.72-11.944 6.327 1.994 7.249 10.837 1.464 14.116-1.666.959-3.628 1.268-5.508.867s-3.546-1.483-4.676-3.038z"/><path d="m107.397 230.115c.188-.04.335-.188.374-.376l.654-3.124 3.039-.977c.183-.059.314-.22.334-.412.021-.191-.074-.376-.241-.472l-2.77-1.587.01-3.192c.001-.193-.112-.367-.288-.446-.176-.078-.381-.045-.524.084l-2.365 2.144-3.033-.996c-.182-.06-.383-.007-.512.136s-.161.349-.082.524l1.307 2.912-1.884 2.576c-.114.156-.125.363-.029.53.097.167.282.261.473.241l3.174-.345 1.868 2.589c.112.156.306.231.495.191zm-1.741-3.578c-.102-.141-.272-.217-.446-.199l-2.359.256 1.401-1.915c.103-.141.122-.327.051-.486l-.973-2.165 2.256.74v.001c.166.054.348.015.477-.102l1.759-1.594c.023.12-.072 2.611.057 2.618-.063.112 2.153 1.282 2.239 1.359l-2.26.726c-.166.053-.291.192-.327.363l-.486 2.323z"/><path d="m149.437 224.352c-2.084-1.757-4.871-2.433-7.529-1.827-.204.049-.354.223-.372.432s.099.406.291.49c4.181 1.669 5.556 7.247 2.599 10.657-1.557 1.842-3.969 2.727-6.348 2.328-.207-.031-.411.074-.507.26-.096.187-.062.414.084.564.172.171.347.339.537.498 9.197 7.091 19.824-5.578 11.245-13.402zm-9.979 13.142c7.49-.245 10.317-9.986 4.109-14.207 6.628-.29 10.519 7.705 6.204 12.764-1.238 1.471-2.976 2.432-4.88 2.699-1.904.266-3.839-.181-5.433-1.256z"/><path d="m141.276 234.04c.163-.102.251-.291.224-.481l-.455-3.16 2.522-1.957c.152-.118.22-.315.173-.501-.046-.187-.199-.329-.388-.361l-3.145-.545-1.083-3.002.001-.001c-.066-.181-.232-.306-.424-.32-.192-.013-.374.088-.464.258l-1.489 2.824-3.19.101c-.193.006-.363.125-.435.303-.072.179-.032.383.102.521l2.225 2.289-.89 3.065c-.054.185.007.384.154.508.148.124.354.149.527.064l2.864-1.409 2.641 1.794c.159.108.367.112.53.01zm-2.859-2.767c-.144-.098-.33-.111-.487-.034l-2.13 1.048.662-2.28v.001c.049-.168.003-.349-.118-.475l-1.655-1.702 2.373-.075c.174-.006.333-.104.414-.259l1.108-2.099c.062.104.825 2.478.949 2.44-.021.128 2.462.469 2.568.511l-1.875 1.456c-.138.107-.208.28-.183.452l.338 2.35z"/><path d="m178.81 214.246c-2.559-.938-5.41-.621-7.7.858-.175.116-.256.331-.202.533.055.203.232.348.441.362 4.5.138 7.699 4.909 6.087 9.125-.833 2.263-2.797 3.92-5.168 4.358-.206.042-.362.21-.388.418-.026.209.083.41.272.502.22.101.442.199.674.284 11.069 3.518 16.722-12.022 5.984-16.44zm-4.883 15.762c6.955-2.792 6.28-12.911-.998-14.755 6.13-2.539 12.52 3.642 10.196 9.872-.66 1.806-1.965 3.304-3.663 4.205-1.697.902-3.669 1.143-5.535.678z"/><path d="m174.455 226.141c.118-.152.136-.359.045-.529l-1.508-2.813 1.701-2.702c.102-.163.099-.371-.009-.53-.107-.16-.299-.241-.488-.207l-3.142.565-2.044-2.452c-.123-.148-.322-.209-.507-.156s-.322.21-.348.401l-.434 3.162-2.963 1.186c-.179.072-.299.242-.305.434-.007.193.101.371.274.455l2.873 1.39.213 3.185c.012.192.137.358.318.424s.384.019.517-.12l2.21-2.303 3.095.782c.186.047.383-.021.502-.172zm-3.633-1.622c-.17-.043-.349.009-.47.135l-1.643 1.712-.157-2.368c-.012-.174-.117-.329-.274-.405l-2.137-1.034 2.204-.882c.162-.065.277-.212.301-.384l.323-2.352c.094.076 1.623 2.047 1.726 1.968.024.127 2.474-.401 2.588-.398l-1.264 2.009c-.093.148-.1.334-.017.488l1.121 2.093z"/><path d="m202.955 194.703c-2.726-.006-5.296 1.268-6.942 3.44-.125.169-.127.398-.007.57s.337.248.538.189c4.275-1.409 8.914 1.981 8.841 6.493-.009 2.412-1.288 4.64-3.366 5.863-.179.11-.268.322-.222.526.047.205.219.357.428.378.241.02.483.036.73.036 11.604-.48 11.602-17.016 0-17.495zm.803 16.482c5.58-5.002 1.485-14.281-5.984-13.524 4.891-4.483 13.01-.86 12.957 5.79-.003 1.922-.716 3.776-2.004 5.204-1.287 1.428-3.057 2.329-4.969 2.53z"/><path d="m202.931 207.371c.059-.184.005-.384-.138-.513l-2.379-2.128.674-3.12c.04-.188-.034-.383-.19-.496-.155-.113-.363-.123-.53-.027l-2.759 1.605-2.759-1.604v-.001c-.166-.096-.374-.086-.53.027s-.23.308-.19.496l.674 3.12-2.379 2.128c-.143.129-.197.329-.138.513.06.182.222.313.413.333l3.176.323 1.289 2.92c.077.176.251.29.444.29s.367-.114.445-.29l1.288-2.92 3.176-.323c.191-.02.353-.151.413-.333zm-3.968-.282c-.174.018-.325.127-.396.287l-.958 2.171-.958-2.171c-.071-.16-.222-.269-.395-.287l-2.362-.241 1.769-1.583v.001c.13-.117.188-.294.151-.465l-.501-2.32c.115.04 2.226 1.368 2.296 1.259.066.111 2.187-1.223 2.296-1.259l-.501 2.32c-.037.171.021.348.151.465l1.769 1.583z"/><path d="m218.96 168.081c-2.563.927-4.543 3.002-5.347 5.607-.059.201.017.418.188.538.172.12.402.118.571-.007 3.535-2.786 9.053-1.187 10.528 3.078.817 2.269.377 4.801-1.158 6.661-.13.164-.142.394-.028.57s.327.26.531.209c.233-.064.467-.132.699-.216 10.74-4.42 5.082-19.958-5.984-16.44zm6.392 15.213c3.532-6.609-3.49-13.927-10.249-10.662 3.063-5.885 11.931-5.257 14.156 1.01.655 1.807.618 3.793-.103 5.575s-2.076 3.234-3.804 4.077z"/><path d="m223.27 179.993c-.007-.193-.127-.363-.305-.434l-2.964-1.187-.433-3.162c-.027-.191-.163-.348-.348-.401s-.384.008-.507.156l-2.044 2.452-3.142-.564v-.001c-.189-.034-.381.047-.489.207-.108.159-.111.367-.008.53l1.7 2.702-1.507 2.813c-.091.17-.074.377.045.529.118.152.315.219.502.172l3.095-.782 2.209 2.303c.134.139.336.186.517.12s.306-.232.319-.424l.212-3.185 2.874-1.39c.173-.084.28-.262.274-.454zm-3.826 1.092c-.157.076-.261.231-.273.405l-.158 2.368-1.643-1.713v.001c-.121-.126-.3-.178-.469-.135l-2.302.582 1.121-2.093c.083-.154.076-.34-.016-.488l-1.265-2.009c.122-.002 2.559.525 2.588.399.1.081 1.637-1.898 1.727-1.969l.323 2.352c.023.173.138.32.3.384l2.204.883z"/><path d="m224.895 137.59c-2.092 1.748-3.243 4.375-3.107 7.098.013.209.158.387.361.441.202.054.417-.026.533-.201 2.37-3.828 8.102-4.213 10.946-.709 1.544 1.853 1.997 4.382 1.191 6.655-.067.199.001.419.168.545.167.127.397.133.57.015.198-.14.394-.283.583-.442 8.581-7.826-2.05-20.492-11.245-13.401zm11.209 12.11c1.059-7.418-8.042-11.894-13.277-6.513.865-6.578 9.414-9.022 13.647-3.894 1.234 1.474 1.879 3.353 1.81 5.274-.068 1.922-.844 3.75-2.18 5.133z"/><path d="m233.019 147.31c-.073-.179-.243-.298-.436-.304l-3.19-.101-1.489-2.824c-.09-.17-.272-.271-.464-.257-.192.013-.358.139-.423.32l-1.082 3.003-3.146.544c-.189.033-.342.174-.388.361-.047.187.021.384.173.502l2.522 1.957-.454 3.159c-.028.191.059.379.223.481.163.102.371.098.53-.01l2.641-1.793 2.864 1.408c.173.085.379.06.527-.064s.208-.323.155-.507l-.89-3.066 2.224-2.289c.134-.138.175-.342.103-.52zm-3.222 2.335c-.121.125-.166.306-.118.474l.662 2.279-2.13-1.048v.001c-.156-.077-.343-.064-.487.034l-1.964 1.333.338-2.349c.025-.173-.045-.346-.183-.453l-1.875-1.455c.114-.044 2.584-.383 2.568-.511.122.042.889-2.343.95-2.441l1.107 2.1c.082.154.24.253.414.258l2.373.076z"/><path d="m220.043 106.909c-1.368 2.357-1.551 5.22-.492 7.732.084.192.281.309.49.291s.383-.168.432-.372c.918-4.407 6.173-6.729 10.044-4.41 2.084 1.214 3.374 3.436 3.395 5.847.005.21.144.393.344.455.201.062.418-.011.541-.181.138-.199.273-.401.397-.615 5.386-10.289-8.935-18.5549-15.151-8.747zm14.675 7.545c-1.542-7.333-11.625-8.426-14.705-1.579-1.436-6.477 5.761-11.697 11.493-8.326 1.664.963 2.912 2.508 3.505 4.336.593 1.829.489 3.813-.293 5.569z"/><path d="m231.001 113.263c-.129-.143-.33-.196-.513-.136l-3.033.996-2.365-2.144c-.142-.129-.348-.162-.524-.083-.176.078-.289.253-.288.445l.01 3.192-2.769 1.587c-.167.096-.262.281-.242.473.02.191.151.353.334.412l3.04.976.653 3.124c.04.189.186.336.375.376.188.04.382-.035.495-.191l1.868-2.588 3.173.344c.191.02.377-.074.473-.241.096-.166.085-.374-.028-.53l-1.885-2.575 1.308-2.912c.079-.176.046-.382-.082-.525zm-2.229 3.296c-.071.16-.052.345.052.486l1.401 1.916-2.36-.256c-.173-.019-.344.057-.446.198l-1.389 1.925-.486-2.323c-.036-.171-.161-.31-.327-.363l-2.26-.726c.092-.08 2.298-1.244 2.239-1.359.129-.001.034-2.506.057-2.618l1.759 1.594c.129.117.312.156.478.102l2.255-.741z"/><path d="m204.99 79.7368c-.479 2.6832.328 5.4355 2.182 7.434.145.1521.37.1945.56.1061.19-.0887.303-.2886.28-.4973-.645-4.455 3.498-8.4347 7.929-7.5789 2.374.4271 4.346 2.0739 5.19 4.3332.077.195.27.3195.479.3092.21-.0106.389-.1534.446-.3552.062-.2339.12-.4699.163-.7131 1.542-11.5111-14.743-14.3801-17.229-3.038zm16.371 2.0714c-3.957-6.3639-13.806-3.9419-14.358 3.5448-3.565-5.5952 1.413-12.9619 7.952-11.7547 1.892.336 3.594 1.3608 4.777 2.8765 1.182 1.5155 1.763 3.4154 1.629 5.3331z"/><path d="m217.461 81.9601c-.171-.0901-.378-.0718-.529.0473l-2.509 1.9735-2.956-1.2059c-.178-.0724-.382-.0331-.521.1008-.138.1335-.185.3365-.118.5171l1.101 2.996-2.059 2.4387-.001-.0001c-.124.147-.149.3536-.065.5265.084.1731.263.28.455.2729l3.19-.1219 1.683 2.7123c.101.1636.289.252.48.2251s.348-.1637.4-.3488l.87-3.0714 3.1-.762c.186-.0461.329-.1978.362-.3875s-.048-.3812-.208-.4884l-2.652-1.7758.233-3.1838c.014-.1918-.087-.3741-.256-.4645zm-.967 3.8594c-.013.1742.069.342.214.4393l1.972 1.3205-2.305.5664c-.169.0418-.303.1715-.351.3395l-.647 2.284-1.252-2.0173.001.0001c-.093-.1484-.257-.236-.431-.2294l-2.373.0907c.06-.1066 1.734-1.9542 1.639-2.0424.121-.0454-.825-2.3663-.841-2.4797l2.198.8965c.161.0658.346.0399.483-.0681l1.866-1.4675z"/><path d="m181.552 59.3518c.467 2.6855 2.167 4.9954 4.592 6.2395.188.0934.415.0562.563-.0919.149-.1484.186-.3748.093-.5629-2.13-3.9658.402-9.1225 4.859-9.8338 2.376-.4105 4.793.4623 6.359 2.2968.139.1569.362.208.556.1267.193-.0817.313-.2773.298-.4864-.022-.241-.049-.4826-.091-.7258-2.488-11.3444-18.772-8.4706-17.229 3.0379zm16.091-3.6526c-5.895-4.6266-14.321 1.0178-12.279 8.2418-5.264-4.0385-3.106-12.6634 3.452-13.7656 1.893-.3315 3.843.0494 5.472 1.0693 1.63 1.0195 2.825 2.6064 3.355 4.4542z"/><path d="m194.03 57.176c-.19-.0265-.379.0616-.48.2252l-1.683 2.7126-3.19-.1222c-.192-.0071-.371.0998-.455.2729-.084.1729-.058.3794.066.5264l2.059 2.4387-1.101 2.996c-.066.1806-.02.3835.118.5171.139.1339.343.1731.522.1007l2.955-1.2055 2.509 1.9732c.151.119.359.1377.529.0472.169-.0904.27-.2727.256-.4645l-.233-3.1837 2.652-1.7762c.16-.1072.242-.2984.208-.4881-.033-.1897-.175-.3418-.362-.3878l-3.1-.7617-.87-3.0714c-.052-.185-.209-.3219-.4-.3488zm.412 3.9573c.048.168.182.2976.352.3394l2.304.5665-1.972 1.3206v-.0001c-.145.0973-.227.2651-.214.4393l.173 2.3675-1.866-1.4676h.001c-.138-.108-.322-.1339-.484-.0681l-2.198.8965c.019-.1204.961-2.4294.842-2.4797.097-.084-1.585-1.9415-1.639-2.0424l2.372.0907c.174.0066.339-.081.431-.2294l1.251-2.0173z"/><path d="m152.554 48.2129c1.358 2.3637 3.746 3.9528 6.45 4.2923.209.0235.409-.089.498-.2789.088-.1902.046-.4157-.106-.5605-3.358-2.9982-2.742-8.71 1.203-10.9027 2.092-1.1985 4.662-1.2049 6.761-.0166.184.0999.412.0714.565-.0711.154-.1429.2-.3677.114-.559-.103-.2189-.21-.437-.334-.6509-6.217-9.8094-20.537-1.5393-15.151 8.7474zm13.872-8.9361c-7.121-2.3314-13.109 5.8547-8.72 11.9446-6.327-1.9947-7.249-10.8375-1.464-14.116 1.666-.9592 3.628-1.2681 5.508-.8671 1.88.4007 3.546 1.4831 4.676 3.0382z"/><path d="m163.537 41.9003c-.189.0403-.336.1875-.375.3759l-.653 3.1246-3.04.9761c-.183.0591-.314.2207-.334.4122-.02.1913.075.3766.241.4723l2.77 1.587-.01 3.192v.0001c-.001.1924.112.3673.288.4453.176.0786.381.0455.524-.0835l2.365-2.1437 3.033.996c.183.0602.384.0069.513-.1363.128-.143.16-.3488.082-.5242l-1.308-2.9121 1.884-2.5761c.114-.1554.125-.3629.029-.5298-.096-.1668-.282-.2611-.473-.2404l-3.173.3443-1.868-2.5886c-.113-.156-.307-.2309-.495-.191zm1.74 3.5778c.102.1416.273.2175.446.1988l2.36-.2559-1.402 1.9154v-.0001c-.103.141-.122.3266-.051.486l.973 2.1655-2.256-.7408.001-.0002c-.166-.0545-.349-.0157-.478.1014l-1.759 1.5942c-.023-.1196.072-2.6115-.057-2.618.063-.1124-2.153-1.2825-2.239-1.3586l2.26-.7261c.166-.0535.291-.192.327-.363l.486-2.3237z"/><path d="m121.496 47.6632c2.084 1.7568 4.872 2.4334 7.529 1.8274.204-.0492.354-.2233.372-.4321.019-.2091-.098-.4065-.291-.4906-4.18-1.669-5.555-7.2469-2.598-10.6565 1.556-1.8421 3.969-2.7269 6.347-2.328.207.0308.412-.0739.507-.2604.096-.1869.062-.4137-.084-.564-.172-.1705-.347-.3388-.536-.4976-9.198-7.0912-19.825 5.5775-11.246 13.4018zm9.98-13.1418c-7.49.2451-10.317 9.9854-4.11 14.2068-6.628.2898-10.518-7.7045-6.203-12.7639 1.237-1.4711 2.975-2.4326 4.879-2.6987 1.904-.2666 3.84.1808 5.433 1.2557z"/><path d="m129.657 37.9751c-.163.1023-.251.2908-.223.4813l.454 3.1597-2.522 1.9567c-.152.1182-.22.315-.173.5016.046.1868.199.3284.388.3613l3.146.5441 1.082 3.0029v.0002c.065.1809.231.3066.423.3199.192.0137.374-.0877.464-.2578l1.489-2.8233 3.191-.1013c.192-.006.363-.1248.435-.3035.072-.1783.032-.3827-.102-.5207l-2.225-2.2891.89-3.0653c.053-.1848-.007-.3837-.155-.5076-.147-.1238-.354-.1489-.527-.0641l-2.864 1.4088-2.64-1.7936c-.16-.108-.368-.112-.531-.0102zm2.859 2.7668c.145.098.331.1111.488.0341l2.129-1.0474-.662 2.2793v-.0003c-.048.1678-.003.3489.119.4743l1.654 1.7022-2.373.0753.001-.0003c-.175.0056-.333.1045-.415.2587l-1.107 2.0996c-.063-.1044-.826-2.4786-.949-2.4405.021-.1273-2.462-.4688-2.569-.511l1.876-1.4554c.137-.1069.207-.2798.182-.4528l-.337-2.3498z"/><path d="m92.1233 57.7692c2.5592.9381 5.4099.6205 7.7-.8579.1749-.116.2557-.3307.2017-.5333-.0543-.2026-.2317-.3482-.4412-.3614-4.4994-.1385-7.6991-4.9099-6.0868-9.1251.8328-2.2633 2.797-3.9199 5.1686-4.3585.2053-.042.3615-.2103.3876-.4182.026-.2084-.0835-.41-.2722-.5012-.2197-.1014-.442-.1996-.6741-.2841-11.0684-3.5178-16.7216 12.0216-5.9836 16.4397zm4.8826-15.7623c-6.9543 2.7919-6.2793 12.9117.9978 14.7554-6.1292 2.5392-12.5196-3.6422-10.1953-9.8723.6596-1.8056 1.9643-3.3036 3.6623-4.2049 1.6978-.9017 3.6697-1.1432 5.535-.6783z"/><path d="m96.4785 45.8743c-.1184.1519-.1363.3591-.0453.5286l1.5078 2.8137-1.7007 2.7014c-.1023.1629-.0991.3712.0087.5306.1075.1596.2993.2405.4886.2066l3.1418-.5646 2.0436 2.4517v.0003c.124.1477.323.209.507.1558.186-.0528.322-.2103.348-.4008l.434-3.1625 2.963-1.1863c.179-.0714.299-.2415.306-.434.006-.1923-.101-.3706-.275-.4544l-2.873-1.3902-.212-3.1847c-.013-.192-.138-.3583-.319-.4242s-.384-.0188-.517.12l-2.21 2.3033-3.0945-.7822c-.1865-.0471-.3835.0204-.502.1719zm3.6325 1.6221c.17.0427.349-.0087.47-.1347l1.643-1.7126.158 2.3682v-.0003c.011.1743.116.329.273.4053l2.137 1.0337-2.204.8822v-.0003c-.162.065-.277.2119-.301.3848l-.322 2.3517c-.095-.0767-1.624-2.0467-1.727-1.9686-.024-.1268-2.4737.4014-2.5882.3981l1.2645-2.0089c.0929-.1477.0994-.3341.0169-.488l-1.1212-2.0926z"/></g><g opacity=".1" stroke="#058d59" stroke-width="2"><path d="m49.5602 40.6352 2.1947 3.5143c.3523.5643.9622.9164 1.6271.9394l4.1408.1435-1.9462 3.6578c-.3124.5873-.3124 1.2915 0 1.8788l1.9462 3.6578-4.1408.1435c-.6649.023-1.2748.3752-1.6271.9394l-2.1947 3.5143-2.1947-3.5143c-.3524-.5642-.9622-.9164-1.6271-.9394l-4.1408-.1435 1.9461-3.6578c.3125-.5873.3125-1.2915 0-1.8788l-1.9461-3.6578 4.1408-.1435c.6649-.023 1.2747-.3751 1.6271-.9394z"/><path d="m24.3817 71.8297 3.1733 2.6641c.5095.4277 1.1983.5741 1.8377.3906l3.9825-1.1431-.7206 4.0801c-.1157.6551.102 1.3249.5806 1.7869l2.9812 2.8774-3.8938 1.416c-.6252.2274-1.0964.7507-1.2571 1.3963l-1.0013 4.0204-3.1733-2.6641c-.5095-.4277-1.1983-.5741-1.8377-.3906l-3.9825 1.1431.7206-4.0801c.1157-.6551-.102-1.3249-.5806-1.7869l-2.9812-2.8774 3.8938-1.416c.6252-.2274 1.0964-.7507 1.2571-1.3963z"/><path d="m10.0754 109.278 3.8412 1.553c.6167.249 1.3171.176 1.8685-.196l3.4343-2.318.5756 4.103c.0924.659.5063 1.228 1.1043 1.52l3.7245 1.815-3.2657 2.55c-.5243.41-.8107 1.053-.7641 1.717l.2901 4.133-3.8412-1.553c-.6167-.25-1.3171-.176-1.8685.196l-3.4343 2.318-.5756-4.103c-.0924-.659-.5063-1.229-1.1043-1.52l-3.72448-1.816 3.26563-2.55c.52435-.409.81075-1.052.76415-1.716z"/><path d="m8.04133 149.314 4.13307.29c.6637.047 1.307-.24 1.7164-.764l2.55-3.266 1.8153 3.725c.2915.598.8612 1.012 1.52 1.104l4.1031.576-2.3178 3.434c-.3721.551-.4457 1.252-.1964 1.868l1.5532 3.842-4.1331-.29c-.6637-.047-1.307.239-1.7164.764l-2.55 3.265-1.8153-3.724c-.2915-.598-.8612-1.012-1.52-1.104l-4.10315-.576 2.31781-3.434c.37215-.552.44576-1.252.19639-1.869z"/><path d="m18.4786 188.019 4.0204-1.001c.6456-.161 1.1689-.632 1.3963-1.257l1.416-3.894 2.8774 2.981c.462.479 1.1318.697 1.7869.581l4.0801-.721-1.1431 3.983c-.1835.639-.0371 1.328.3906 1.838l2.6641 3.173-4.0204 1.001c-.6456.161-1.1689.632-1.3963 1.257l-1.416 3.894-2.8774-2.981c-.462-.479-1.1318-.696-1.7869-.581l-4.0801.721 1.1431-3.983c.1835-.639.0371-1.328-.3906-1.837z"/><path d="m40.3658 221.605 3.5143-2.195c.5642-.352.9163-.962.9394-1.627l.1435-4.141 3.6578 1.946c.5873.313 1.2915.313 1.8788 0l3.6578-1.946.1435 4.141c.023.665.3751 1.275.9394 1.627l3.5143 2.195-3.5143 2.195c-.5643.352-.9164.962-.9394 1.627l-.1435 4.14-3.6578-1.946c-.5873-.312-1.2915-.312-1.8788 0l-3.6578 1.946-.1435-4.14c-.0231-.665-.3752-1.275-.9394-1.627z"/><path d="m71.5601 246.783 2.6641-3.173c.4278-.51.5742-1.198.3907-1.838l-1.1431-3.982 4.0801.72c.6551.116 1.3249-.102 1.7869-.58l2.8774-2.982 1.416 3.894c.2274.625.7507 1.097 1.3962 1.257l4.0205 1.002-2.6641 3.173c-.4277.509-.5741 1.198-.3906 1.838l1.1431 3.982-4.0801-.72c-.6552-.116-1.3249.102-1.7869.58l-2.8774 2.981-1.416-3.893c-.2274-.626-.7507-1.097-1.3963-1.258z"/><path d="m109.008 261.09 1.554-3.842c.249-.616.175-1.317-.197-1.868l-2.318-3.434 4.103-.576c.659-.092 1.229-.506 1.52-1.104l1.816-3.725 2.55 3.266c.409.524 1.052.811 1.716.764l4.133-.29-1.553 3.841c-.249.617-.176 1.317.196 1.869l2.318 3.434-4.103.576c-.659.092-1.228.506-1.52 1.104l-1.815 3.724-2.55-3.265c-.41-.525-1.053-.811-1.716-.765z"/><path d="m149.044 263.124.29-4.133c.047-.664-.239-1.307-.764-1.717l-3.265-2.55 3.724-1.815c.598-.292 1.012-.861 1.104-1.52l.576-4.103 3.434 2.318c.552.372 1.252.445 1.869.196l3.841-1.553-.29 4.133c-.047.664.24 1.307.764 1.716l3.266 2.55-3.725 1.816c-.598.291-1.012.861-1.104 1.52l-.576 4.103-3.434-2.318c-.551-.372-1.252-.446-1.868-.196z"/><path d="m187.75 252.686-1.002-4.02c-.16-.646-.632-1.169-1.257-1.396l-3.893-1.416 2.981-2.878c.478-.462.696-1.132.58-1.787l-.72-4.08 3.982 1.143c.64.184 1.328.037 1.838-.39l3.173-2.664 1.001 4.02c.161.646.632 1.169 1.258 1.396l3.893 1.416-2.981 2.878c-.478.462-.696 1.131-.58 1.787l.72 4.08-3.982-1.143c-.64-.184-1.329-.038-1.838.39z"/><path d="m221.335 230.799-2.194-3.514c-.353-.564-.963-.916-1.627-.939l-4.141-.144 1.946-3.658c.312-.587.312-1.291 0-1.879l-1.946-3.657 4.141-.144c.664-.023 1.274-.375 1.627-.939l2.194-3.515 2.195 3.515c.352.564.962.916 1.627.939l4.141.144-1.946 3.657c-.313.588-.313 1.292 0 1.879l1.946 3.658-4.141.144c-.665.023-1.275.375-1.627.939z"/><path d="m246.514 199.605-3.174-2.664c-.509-.428-1.198-.574-1.837-.391l-3.983 1.143.721-4.08c.115-.655-.102-1.325-.581-1.787l-2.981-2.877 3.894-1.416c.625-.228 1.096-.751 1.257-1.396l1.001-4.021 3.173 2.664c.51.428 1.199.574 1.838.391l3.983-1.143-.721 4.08c-.116.655.102 1.325.581 1.787l2.981 2.877-3.894 1.416c-.625.228-1.096.751-1.257 1.396z"/><path d="m260.82 162.157-3.841-1.553c-.617-.25-1.317-.176-1.869.196l-3.434 2.318-.575-4.103c-.093-.659-.507-1.229-1.105-1.52l-3.724-1.816 3.265-2.55c.525-.409.811-1.052.765-1.716l-.291-4.133 3.842 1.553c.616.249 1.317.176 1.868-.196l3.434-2.318.576 4.103c.092.659.506 1.228 1.104 1.52l3.725 1.815-3.266 2.55c-.524.41-.811 1.053-.764 1.717z"/><path d="m262.854 122.121-4.133-.291c-.664-.046-1.307.24-1.716.765l-2.55 3.265-1.816-3.724c-.291-.598-.861-1.012-1.52-1.105l-4.103-.575 2.318-3.434c.372-.552.446-1.252.196-1.869l-1.553-3.841 4.133.29c.664.047 1.307-.24 1.717-.764l2.55-3.266 1.815 3.725c.292.598.861 1.012 1.52 1.104l4.103.576-2.318 3.434c-.372.551-.445 1.252-.196 1.868z"/><path d="m252.417 83.4153-4.021 1.0012c-.645.1608-1.169.632-1.396 1.2572l-1.416 3.8938-2.877-2.9812c-.462-.4786-1.132-.6963-1.787-.5806l-4.08.7206 1.143-3.9825c.183-.6394.037-1.3283-.391-1.8377l-2.664-3.1733 4.02-1.0013c.646-.1607 1.169-.6319 1.397-1.2571l1.416-3.8938 2.877 2.9812c.462.4786 1.132.6962 1.787.5806l4.08-.7206-1.143 3.9825c-.184.6394-.037 1.3282.391 1.8377z"/><path d="m230.53 49.8296-3.515 2.1947c-.564.3524-.916.9622-.939 1.6271l-.143 4.1408-3.658-1.9461c-.588-.3125-1.292-.3125-1.879 0l-3.658 1.9461-.143-4.1408c-.023-.6649-.376-1.2747-.94-1.6271l-3.514-2.1947 3.514-2.1947c.564-.3523.917-.9622.94-1.6271l.143-4.1408 3.658 1.9462c.587.3124 1.291.3124 1.879 0l3.658-1.9462.143 4.1408c.023.6649.375 1.2748.939 1.6271z"/><path d="m199.335 24.6513-2.664 3.1732c-.427.5095-.574 1.1983-.39 1.8378l1.143 3.9824-4.08-.7205c-.656-.1157-1.325.1019-1.787.5806l-2.878 2.9812-1.416-3.8938c-.227-.6252-.75-1.0964-1.396-1.2572l-4.02-1.0013 2.664-3.1732c.427-.5095.574-1.1984.39-1.8378l-1.143-3.9825 4.08.7206c.655.1157 1.325-.1019 1.787-.5806l2.878-2.9812 1.416 3.8938c.227.6252.75 1.0964 1.396 1.2572z"/><path d="m161.887 10.345-1.553 3.8411c-.249.6168-.176 1.3171.196 1.8686l2.318 3.4343-4.103.5755c-.659.0924-1.228.5064-1.52 1.1044l-1.815 3.7244-2.55-3.2656c-.41-.5244-1.053-.8108-1.717-.7642l-4.133.2901 1.553-3.8412c.25-.6167.176-1.3171-.196-1.8685l-2.318-3.4343 4.103-.5756c.659-.0924 1.229-.5063 1.52-1.1043l1.816-3.72445 2.55 3.26563c.409.52432 1.052.81082 1.716.76422z"/><path d="m121.851 8.31086-.29 4.13314c-.047.6636.24 1.3069.764 1.7164l3.266 2.55-3.725 1.8153c-.598.2914-1.012.8612-1.104 1.52l-.575 4.1031-3.435-2.3178c-.551-.3722-1.252-.4458-1.868-.1964l-3.842 1.5531.291-4.1331c.046-.6636-.24-1.307-.765-1.7164l-3.265-2.55 3.724-1.8153c.598-.2915 1.012-.8612 1.105-1.52l.575-4.10312 3.434 2.31781c.552.37211 1.252.44581 1.869.19639z"/><path d="m83.1458 18.7481 1.0012 4.0205c.1608.6455.632 1.1688 1.2572 1.3962l3.8938 1.4161-2.9812 2.8773c-.4787.462-.6963 1.1318-.5806 1.7869l.7206 4.0801-3.9825-1.1431c-.6394-.1835-1.3283-.0371-1.8378.3907l-3.1732 2.6641-1.0013-4.0205c-.1607-.6455-.632-1.1689-1.2572-1.3962l-3.8937-1.4161 2.9811-2.8774c.4787-.462.6963-1.1317.5806-1.7868l-.7205-4.0802 3.9825 1.1431c.6394.1836 1.3282.0371 1.8377-.3906z"/></g><path clip-rule="evenodd" d="m136.451 79.7956c15.138 0 28.844 6.1368 38.765 16.0577 9.803 9.8037 15.911 23.3037 16.054 38.2277v.031l.001.204.002.302-.003.505v.033c-.143 14.924-6.251 28.422-16.054 38.226-9.921 9.921-23.625 16.058-38.765 16.058-15.138 0-28.844-6.137-38.7646-16.058s-16.0572-23.628-16.0572-38.766 6.1366-28.844 16.0572-38.7644c9.9206-9.9209 23.6266-16.056 38.7646-16.056zm31.509 31.5084c2.078 0 4.095.274 6.014.783-5.653-5.487-13.363-8.865-21.864-8.865-8.67 0-16.519 3.513-22.199 9.194-5.681 5.682-9.194 13.531-9.194 22.202 0 8.67 3.513 16.52 9.194 22.199 5.681 5.682 13.531 9.195 22.199 9.195 8.501 0 16.212-3.379 21.864-8.865-1.918.51-3.934.783-6.012.783-6.437 0-12.266-2.61-16.483-6.829-4.219-4.218-6.828-10.048-6.828-16.485s2.609-12.267 6.828-16.486c4.215-4.215 10.043-6.826 16.481-6.826zm10.99 12.323c-2.813-2.811-6.699-4.551-10.992-4.551-4.292 0-8.178 1.74-10.991 4.551-2.813 2.813-4.552 6.699-4.552 10.992s1.74 8.179 4.552 10.992c2.813 2.812 6.699 4.552 10.991 4.552 4.293 0 8.179-1.74 10.992-4.552 2.811-2.813 4.552-6.699 4.552-10.992l-.002-.2c-.052-4.215-1.782-8.023-4.55-10.792zm-26.842-28.1756c4.883 0 9.555.8935 13.867 2.5268-8.073-6.5127-18.344-10.4125-29.524-10.4125-12.992 0-24.756 5.2675-33.271 13.7813-8.5136 8.513-13.7809 20.278-13.7809 33.271 0 12.994 5.2656 24.757 13.7809 33.272 8.515 8.514 20.277 13.781 33.271 13.781 11.182 0 21.451-3.899 29.524-10.414-4.312 1.633-8.984 2.527-13.867 2.527-10.814 0-20.607-4.385-27.692-11.472-7.087-7.087-11.471-16.878-11.471-27.693 0-10.814 4.384-20.607 11.471-27.694 7.085-7.0892 16.878-11.4736 27.692-11.4736z" fill="#05b571" fill-rule="evenodd"/></svg>