<svg fill="none" height="34" viewBox="0 0 33 34" width="33" xmlns="http://www.w3.org/2000/svg"><path clip-rule="evenodd" d="m16.7289.848633c4.4503 0 8.4798 1.804057 11.3963 4.720567 2.882 2.88202 4.6775 6.8506 4.7195 11.2381v.0091l.0005.0598.0006.0888-.0011.1485v.0097c-.042 4.3874-1.8375 8.3555-4.7195 11.2375-2.9165 2.9166-6.9455 4.7206-11.3963 4.7206-4.4503 0-8.47977-1.804-11.39628-4.7206-2.9165-2.9165-4.720559-6.9459-4.720559-11.3962s1.804059-8.4793 4.720559-11.39581c2.91651-2.91651 6.94598-4.720057 11.39628-4.720057zm9.2632 9.262667c.6109 0 1.2037.0806 1.768.2302-1.6621-1.61292-3.9285-2.60622-6.4278-2.60622-2.5489 0-4.8564 1.03285-6.5261 2.70302-1.6702 1.6702-2.703 3.9778-2.703 6.5267s1.0328 4.8564 2.703 6.5261c1.6702 1.6702 3.9777 2.7031 6.5261 2.7031 2.4993 0 4.7662-.9933 6.4278-2.6062-.5638.15-1.1565.2302-1.7675.2302-1.8923 0-3.6061-.7672-4.8458-2.0074-1.2403-1.2403-2.0074-2.9541-2.0074-4.8463 0-1.8923.7671-3.6061 2.0074-4.8463 1.2392-1.2393 2.9525-2.0069 4.8453-2.0069zm3.2308 3.6228c-.827-.8265-1.9693-1.3381-3.2313-1.3381-1.2621 0-2.4044.5116-3.2314 1.3381-.827.827-1.3381 1.9693-1.3381 3.2314 0 1.262.5116 2.4044 1.3381 3.2314.827.8264 1.9693 1.338 3.2314 1.338 1.262 0 2.4043-.5116 3.2313-1.338.8265-.827 1.3381-1.9694 1.3381-3.2314l-.0005-.0588c-.0152-1.2393-.5238-2.3588-1.3376-3.1726zm-7.8911-8.28305c1.4355 0 2.8091.26265 4.0767.74282-2.3735-1.91459-5.3929-3.06101-8.6796-3.06101-3.8195 0-7.27808 1.54851-9.78135 4.05127-2.50276 2.50276-4.05126 5.96127-4.05126 9.78087 0 3.82 1.548 7.2781 4.05126 9.7813 2.50327 2.5028 5.96125 4.0513 9.78135 4.0513 3.2872 0 6.3061-1.1464 8.6796-3.0615-1.2676.4801-2.6412.7428-4.0767.7428-3.1791 0-6.0581-1.2889-8.141-3.3724-2.0835-2.0834-3.37237-4.9619-3.37237-8.141 0-3.1792 1.28887-6.0582 3.37237-8.1416 2.0829-2.08394 4.9619-3.37285 8.141-3.37285z" fill="#04d484" fill-rule="evenodd"/></svg>