<svg width="2147" height="600" viewBox="0 0 2147 600" fill="none" xmlns="http://www.w3.org/2000/svg">
<rect x="117.36" y="122.223" width="361.737" height="355.553" fill="#5BABCD"/>
<rect x="298.228" y="46.3998" width="361.737" height="355.553" transform="rotate(45 298.228 46.3998)" fill="#5BABCD"/>
<path d="M711.229 458.022V198.127C711.229 183.607 709.092 171.992 704.818 163.28C700.872 154.246 691.501 149.729 676.704 149.729H668.319V138.597H716.655C728.163 138.597 737.041 140.211 743.289 143.437C749.865 146.664 754.469 152.633 757.099 161.344C759.73 169.733 761.045 181.994 761.045 198.127V283.307H905.065V138.597H954.388V398.493C954.388 413.013 956.36 424.789 960.306 433.824C964.581 442.535 974.116 446.891 988.913 446.891H997.791V458.022H949.455C937.947 458.022 928.904 456.57 922.328 453.667C916.081 450.44 911.642 444.471 909.011 435.759C906.381 427.048 905.065 414.626 905.065 398.493V303.15H761.045V458.022H711.229Z" fill="currentColor"/>
<path d="M1017.84 458.022L1155.19 139.02H1157.78L1295.14 458.022H1243.03L1143.14 208.313L1175.43 187.61L1062.62 458.022H1017.84ZM1100.94 343.097H1212.89L1228.39 381.124H1087.59L1100.94 343.097Z" fill="currentColor"/>
<path d="M1544.46 414.925H1649.96V458.022H1484.61L1544.46 414.925ZM1317.11 305.07C1317.11 283.944 1321.13 263.945 1329.17 245.072C1337.49 226.2 1348.98 209.581 1363.62 195.215C1378.26 180.568 1395.19 169.16 1414.43 160.991C1433.66 152.541 1454.18 148.315 1476 148.315C1497.82 148.315 1518.34 152.541 1537.57 160.991C1557.09 169.16 1574.17 180.568 1588.81 195.215C1603.74 209.581 1615.37 226.2 1623.69 245.072C1632.02 263.945 1636.18 283.944 1636.18 305.07C1636.18 326.76 1632.02 347.041 1623.69 365.913C1615.37 384.786 1603.74 401.405 1588.81 415.77C1574.17 430.136 1557.09 441.403 1537.57 449.572C1518.34 457.459 1497.82 461.403 1476 461.403C1454.18 461.403 1433.66 457.459 1414.43 449.572C1395.19 441.403 1378.26 430.277 1363.62 416.193C1348.98 402.109 1337.49 385.631 1329.17 366.758C1321.13 347.604 1317.11 327.041 1317.11 305.07ZM1363.62 305.493C1363.62 326.055 1368.64 344.928 1378.69 362.11C1388.73 379.293 1402.37 392.954 1419.59 403.095C1436.82 413.235 1456.05 418.306 1477.29 418.306C1498.25 418.306 1517.19 413.235 1534.13 403.095C1551.07 392.954 1564.56 379.293 1574.61 362.11C1584.65 344.928 1589.68 325.915 1589.68 305.07C1589.68 289.578 1586.66 275.071 1580.63 261.551C1574.89 247.748 1566.85 235.777 1556.52 225.637C1546.19 215.214 1534.13 207.046 1520.35 201.13C1506.86 195.215 1492.22 192.257 1476.43 192.257C1455.19 192.257 1435.96 197.469 1418.73 207.891C1401.8 218.031 1388.3 231.693 1378.26 248.875C1368.5 266.058 1363.62 284.93 1363.62 305.493Z" fill="currentColor"/>
<path d="M1926.7 414.925H2032.19V458.022H1866.84L1926.7 414.925ZM1699.35 305.07C1699.35 283.944 1703.36 263.945 1711.4 245.072C1719.73 226.2 1731.21 209.581 1745.85 195.215C1760.49 180.568 1777.43 169.16 1796.66 160.991C1815.89 152.541 1836.42 148.315 1858.23 148.315C1880.05 148.315 1900.57 152.541 1919.81 160.991C1939.33 169.16 1956.41 180.568 1971.05 195.215C1985.97 209.581 1997.6 226.2 2005.93 245.072C2014.25 263.945 2018.41 283.944 2018.41 305.07C2018.41 326.76 2014.25 347.041 2005.93 365.913C1997.6 384.786 1985.97 401.405 1971.05 415.77C1956.41 430.136 1939.33 441.403 1919.81 449.572C1900.57 457.459 1880.05 461.403 1858.23 461.403C1836.42 461.403 1815.89 457.459 1796.66 449.572C1777.43 441.403 1760.49 430.277 1745.85 416.193C1731.21 402.109 1719.73 385.631 1711.4 366.758C1703.36 347.604 1699.35 327.041 1699.35 305.07ZM1745.85 305.493C1745.85 326.055 1750.87 344.928 1760.92 362.11C1770.97 379.293 1784.6 392.954 1801.83 403.095C1819.05 413.235 1838.28 418.306 1859.52 418.306C1880.48 418.306 1899.43 413.235 1916.36 403.095C1933.3 392.954 1946.79 379.293 1956.84 362.11C1966.88 344.928 1971.91 325.915 1971.91 305.07C1971.91 289.578 1968.89 275.071 1962.87 261.551C1957.12 247.748 1949.09 235.777 1938.75 225.637C1928.42 215.214 1916.36 207.046 1902.58 201.13C1889.09 195.215 1874.45 192.257 1858.66 192.257C1837.42 192.257 1818.19 197.469 1800.96 207.891C1784.03 218.031 1770.54 231.693 1760.49 248.875C1750.73 266.058 1745.85 284.93 1745.85 305.493Z" fill="currentColor"/>
</svg>
