<svg width="222" height="80" viewBox="0 0 222 80" fill="none" xmlns="http://www.w3.org/2000/svg">
<g clip-path="url(#clip0_610_53681)">
<path d="M19.6676 17.6599C19.6676 16.7432 18.9244 16 18.0076 16C17.0909 16 16.3477 16.7432 16.3477 17.6599C16.3477 18.5767 17.0909 19.3199 18.0076 19.3199C18.9244 19.3199 19.6676 18.5767 19.6676 17.6599Z" fill="white"/>
<path d="M19.6676 37.5789C19.6676 36.6621 18.9244 35.9189 18.0076 35.9189C17.0909 35.9189 16.3477 36.6621 16.3477 37.5789C16.3477 38.4957 17.0909 39.2389 18.0076 39.2389C18.9244 39.2389 19.6676 38.4957 19.6676 37.5789Z" fill="white"/>
<path d="M16.3477 27.6199C16.3477 26.7031 17.0909 25.96 18.0076 25.96C18.9244 25.96 19.6676 26.7031 19.6676 27.6199C19.6676 28.5366 18.9244 29.2798 18.0076 29.2798C17.0909 29.2798 16.3477 28.5366 16.3477 27.6199Z" fill="white"/>
<path d="M19.6676 47.4002C19.6676 46.4834 18.9244 45.7402 18.0076 45.7402C17.0909 45.7402 16.3477 46.4834 16.3477 47.4002C16.3477 48.317 17.0909 49.0601 18.0076 49.0601C18.9244 49.0601 19.6676 48.317 19.6676 47.4002Z" fill="white"/>
<path d="M16.3477 57.3601C16.3477 56.4434 17.0909 55.7002 18.0076 55.7002C18.9244 55.7002 19.6676 56.4434 19.6676 57.3601C19.6676 58.2769 18.9244 59.02 18.0076 59.02C17.0909 59.02 16.3477 58.2769 16.3477 57.3601Z" fill="white"/>
<path d="M19.6676 22.6394C19.6676 21.7227 18.9244 20.9795 18.0076 20.9795C17.0909 20.9795 16.3477 21.7227 16.3477 22.6394C16.3477 23.5562 17.0909 24.2993 18.0076 24.2993C18.9244 24.2993 19.6676 23.5562 19.6676 22.6394Z" fill="white"/>
<path d="M16.3477 42.4207C16.3477 41.5039 17.0909 40.7607 18.0076 40.7607C18.9244 40.7607 19.6676 41.5039 19.6676 42.4207C19.6676 43.3374 18.9244 44.0806 18.0076 44.0806C17.0909 44.0806 16.3477 43.3374 16.3477 42.4207Z" fill="white"/>
<path d="M19.6676 32.5994C19.6676 31.6826 18.9244 30.9395 18.0076 30.9395C17.0909 30.9395 16.3477 31.6826 16.3477 32.5994C16.3477 33.5161 17.0909 34.2593 18.0076 34.2593C18.9244 34.2593 19.6676 33.5161 19.6676 32.5994Z" fill="white"/>
<path d="M16.3477 52.3806C16.3477 51.4639 17.0909 50.7207 18.0076 50.7207C18.9244 50.7207 19.6676 51.4639 19.6676 52.3806C19.6676 53.2974 18.9244 54.0405 18.0076 54.0405C17.0909 54.0405 16.3477 53.2974 16.3477 52.3806Z" fill="white"/>
<path d="M19.6676 62.3397C19.6676 61.4229 18.9244 60.6797 18.0076 60.6797C17.0909 60.6797 16.3477 61.4229 16.3477 62.3397C16.3477 63.2564 17.0909 63.9996 18.0076 63.9996C18.9244 63.9996 19.6676 63.2564 19.6676 62.3397Z" fill="white"/>
<path d="M41.1094 17.6599C41.1094 16.7432 41.8525 16 42.7693 16C43.686 16 44.4292 16.7432 44.4292 17.6599C44.4292 18.5767 43.686 19.3199 42.7693 19.3199C41.8525 19.3199 41.1094 18.5767 41.1094 17.6599Z" fill="white"/>
<path d="M44.4292 37.5789C44.4292 36.6621 43.686 35.9189 42.7693 35.9189C41.8525 35.9189 41.1094 36.6621 41.1094 37.5789C41.1094 38.4957 41.8525 39.2389 42.7693 39.2389C43.686 39.2389 44.4292 38.4957 44.4292 37.5789Z" fill="white"/>
<path d="M41.1094 27.6199C41.1094 26.7032 41.8525 25.96 42.7693 25.96C43.686 25.96 44.4292 26.7032 44.4292 27.6199C44.4292 28.5367 43.686 29.2798 42.7693 29.2798C41.8525 29.2798 41.1094 28.5367 41.1094 27.6199Z" fill="white"/>
<path d="M44.4292 47.4002C44.4292 46.4834 43.686 45.7402 42.7693 45.7402C41.8525 45.7402 41.1094 46.4834 41.1094 47.4002C41.1094 48.317 41.8525 49.0601 42.7693 49.0601C43.686 49.0601 44.4292 48.317 44.4292 47.4002Z" fill="white"/>
<path d="M41.1094 57.3601C41.1094 56.4434 41.8525 55.7002 42.7693 55.7002C43.686 55.7002 44.4292 56.4434 44.4292 57.3601C44.4292 58.2769 43.686 59.02 42.7693 59.02C41.8525 59.02 41.1094 58.2769 41.1094 57.3601Z" fill="white"/>
<path d="M44.4292 22.6394C44.4292 21.7226 43.686 20.9795 42.7693 20.9795C41.8525 20.9795 41.1094 21.7226 41.1094 22.6394C41.1094 23.5561 41.8525 24.2993 42.7693 24.2993C43.686 24.2993 44.4292 23.5561 44.4292 22.6394Z" fill="white"/>
<path d="M41.1094 42.4207C41.1094 41.5039 41.8525 40.7607 42.7693 40.7607C43.686 40.7607 44.4292 41.5039 44.4292 42.4207C44.4292 43.3375 43.686 44.0807 42.7693 44.0807C41.8525 44.0807 41.1094 43.3375 41.1094 42.4207Z" fill="white"/>
<path d="M44.4292 32.5994C44.4292 31.6826 43.686 30.9395 42.7693 30.9395C41.8525 30.9395 41.1094 31.6826 41.1094 32.5994C41.1094 33.5161 41.8525 34.2593 42.7693 34.2593C43.686 34.2593 44.4292 33.5161 44.4292 32.5994Z" fill="white"/>
<path d="M41.1094 52.3806C41.1094 51.4638 41.8525 50.7207 42.7693 50.7207C43.686 50.7207 44.4292 51.4638 44.4292 52.3806C44.4292 53.2973 43.686 54.0405 42.7693 54.0405C41.8525 54.0405 41.1094 53.2973 41.1094 52.3806Z" fill="white"/>
<path d="M44.4292 62.3397C44.4292 61.4229 43.686 60.6797 42.7693 60.6797C41.8525 60.6797 41.1094 61.4229 41.1094 62.3397C41.1094 63.2564 41.8525 63.9996 42.7693 63.9996C43.686 63.9996 44.4292 63.2564 44.4292 62.3397Z" fill="white"/>
<path d="M21.3281 17.6599C21.3281 16.7432 22.0713 16 22.988 16C23.9048 16 24.648 16.7432 24.648 17.6599C24.648 18.5767 23.9048 19.3199 22.988 19.3199C22.0713 19.3199 21.3281 18.5767 21.3281 17.6599Z" fill="white"/>
<path d="M24.648 37.5789C24.648 36.6621 23.9048 35.9189 22.988 35.9189C22.0713 35.9189 21.3281 36.6621 21.3281 37.5789C21.3281 38.4957 22.0713 39.2389 22.988 39.2389C23.9048 39.2389 24.648 38.4957 24.648 37.5789Z" fill="white"/>
<path d="M21.3281 27.6199C21.3281 26.7031 22.0713 25.96 22.988 25.96C23.9048 25.96 24.648 26.7031 24.648 27.6199C24.648 28.5366 23.9048 29.2798 22.988 29.2798C22.0713 29.2798 21.3281 28.5366 21.3281 27.6199Z" fill="white"/>
<path d="M24.648 47.4002C24.648 46.4834 23.9048 45.7402 22.988 45.7402C22.0713 45.7402 21.3281 46.4834 21.3281 47.4002C21.3281 48.317 22.0713 49.0601 22.988 49.0601C23.9048 49.0601 24.648 48.317 24.648 47.4002Z" fill="white"/>
<path d="M21.3281 57.3601C21.3281 56.4434 22.0712 55.7002 22.988 55.7002C23.9048 55.7002 24.648 56.4434 24.648 57.3601C24.648 58.2769 23.9048 59.02 22.988 59.02C22.0712 59.02 21.3281 58.2769 21.3281 57.3601Z" fill="white"/>
<path d="M24.648 22.6394C24.648 21.7227 23.9048 20.9795 22.988 20.9795C22.0713 20.9795 21.3281 21.7227 21.3281 22.6394C21.3281 23.5562 22.0713 24.2993 22.988 24.2993C23.9048 24.2993 24.648 23.5562 24.648 22.6394Z" fill="white"/>
<path d="M21.3281 42.4207C21.3281 41.5039 22.0712 40.7607 22.988 40.7607C23.9048 40.7607 24.648 41.5039 24.648 42.4207C24.648 43.3374 23.9048 44.0806 22.988 44.0806C22.0712 44.0806 21.3281 43.3374 21.3281 42.4207Z" fill="white"/>
<path d="M24.648 32.5994C24.648 31.6826 23.9048 30.9395 22.988 30.9395C22.0713 30.9395 21.3281 31.6826 21.3281 32.5994C21.3281 33.5161 22.0713 34.2593 22.988 34.2593C23.9048 34.2593 24.648 33.5161 24.648 32.5994Z" fill="white"/>
<path d="M21.3281 52.3806C21.3281 51.4639 22.0713 50.7207 22.988 50.7207C23.9048 50.7207 24.648 51.4639 24.648 52.3806C24.648 53.2974 23.9048 54.0405 22.988 54.0405C22.0713 54.0405 21.3281 53.2974 21.3281 52.3806Z" fill="white"/>
<path d="M24.648 62.3397C24.648 61.4229 23.9048 60.6797 22.988 60.6797C22.0713 60.6797 21.3281 61.4229 21.3281 62.3397C21.3281 63.2564 22.0713 63.9996 22.988 63.9996C23.9048 63.9996 24.648 63.2564 24.648 62.3397Z" fill="white"/>
<path d="M46.0898 17.6599C46.0898 16.7432 46.833 16 47.7498 16C48.6666 16 49.4098 16.7432 49.4098 17.6599C49.4098 18.5767 48.6666 19.3199 47.7498 19.3199C46.833 19.3199 46.0898 18.5767 46.0898 17.6599Z" fill="white"/>
<path d="M49.4098 37.5789C49.4098 36.6621 48.6666 35.9189 47.7498 35.9189C46.833 35.9189 46.0898 36.6621 46.0898 37.5789C46.0898 38.4957 46.833 39.2389 47.7498 39.2389C48.6666 39.2389 49.4098 38.4957 49.4098 37.5789Z" fill="white"/>
<path d="M46.0898 27.6199C46.0898 26.7032 46.833 25.96 47.7498 25.96C48.6666 25.96 49.4098 26.7032 49.4098 27.6199C49.4098 28.5367 48.6666 29.2798 47.7498 29.2798C46.833 29.2798 46.0898 28.5367 46.0898 27.6199Z" fill="white"/>
<path d="M49.4098 47.4002C49.4098 46.4834 48.6666 45.7402 47.7498 45.7402C46.833 45.7402 46.0898 46.4834 46.0898 47.4002C46.0898 48.317 46.833 49.0601 47.7498 49.0601C48.6666 49.0601 49.4098 48.317 49.4098 47.4002Z" fill="white"/>
<path d="M46.0898 57.3601C46.0898 56.4434 46.833 55.7002 47.7498 55.7002C48.6666 55.7002 49.4098 56.4434 49.4098 57.3601C49.4098 58.2769 48.6666 59.02 47.7498 59.02C46.833 59.02 46.0898 58.2769 46.0898 57.3601Z" fill="white"/>
<path d="M49.4098 22.6394C49.4098 21.7226 48.6666 20.9795 47.7498 20.9795C46.833 20.9795 46.0898 21.7226 46.0898 22.6394C46.0898 23.5561 46.833 24.2993 47.7498 24.2993C48.6666 24.2993 49.4098 23.5561 49.4098 22.6394Z" fill="white"/>
<path d="M46.0898 42.4207C46.0898 41.5039 46.833 40.7607 47.7498 40.7607C48.6666 40.7607 49.4098 41.5039 49.4098 42.4207C49.4098 43.3374 48.6666 44.0806 47.7498 44.0806C46.833 44.0806 46.0898 43.3374 46.0898 42.4207Z" fill="white"/>
<path d="M49.4098 32.5994C49.4098 31.6826 48.6666 30.9395 47.7498 30.9395C46.833 30.9395 46.0898 31.6826 46.0898 32.5994C46.0898 33.5161 46.833 34.2593 47.7498 34.2593C48.6666 34.2593 49.4098 33.5161 49.4098 32.5994Z" fill="white"/>
<path d="M46.0898 52.3806C46.0898 51.4638 46.833 50.7207 47.7498 50.7207C48.6666 50.7207 49.4098 51.4638 49.4098 52.3806C49.4098 53.2973 48.6666 54.0405 47.7498 54.0405C46.833 54.0405 46.0898 53.2973 46.0898 52.3806Z" fill="white"/>
<path d="M49.4098 62.3397C49.4098 61.4229 48.6666 60.6797 47.7498 60.6797C46.833 60.6797 46.0898 61.4229 46.0898 62.3397C46.0898 63.2564 46.833 63.9996 47.7498 63.9996C48.6666 63.9996 49.4098 63.2564 49.4098 62.3397Z" fill="white"/>
<path d="M26.3086 17.6599C26.3086 16.7432 27.0518 16 27.9686 16C28.8853 16 29.6285 16.7432 29.6285 17.6599C29.6285 18.5767 28.8853 19.3199 27.9686 19.3199C27.0518 19.3199 26.3086 18.5767 26.3086 17.6599Z" fill="white"/>
<path d="M29.6285 37.5789C29.6285 36.6621 28.8853 35.9189 27.9686 35.9189C27.0518 35.9189 26.3086 36.6621 26.3086 37.5789C26.3086 38.4957 27.0518 39.2389 27.9686 39.2389C28.8853 39.2389 29.6285 38.4957 29.6285 37.5789Z" fill="white"/>
<path d="M26.3086 27.6199C26.3086 26.7032 27.0518 25.96 27.9686 25.96C28.8853 25.96 29.6285 26.7032 29.6285 27.6199C29.6285 28.5367 28.8853 29.2798 27.9686 29.2798C27.0518 29.2798 26.3086 28.5367 26.3086 27.6199Z" fill="white"/>
<path d="M29.6285 47.4002C29.6285 46.4834 28.8853 45.7402 27.9686 45.7402C27.0518 45.7402 26.3086 46.4834 26.3086 47.4002C26.3086 48.317 27.0518 49.0601 27.9686 49.0601C28.8853 49.0601 29.6285 48.317 29.6285 47.4002Z" fill="white"/>
<path d="M26.3086 57.3601C26.3086 56.4434 27.0518 55.7002 27.9686 55.7002C28.8853 55.7002 29.6285 56.4434 29.6285 57.3601C29.6285 58.2769 28.8853 59.02 27.9686 59.02C27.0518 59.02 26.3086 58.2769 26.3086 57.3601Z" fill="white"/>
<path d="M29.6285 22.6394C29.6285 21.7226 28.8853 20.9795 27.9686 20.9795C27.0518 20.9795 26.3086 21.7226 26.3086 22.6394C26.3086 23.5561 27.0518 24.2993 27.9686 24.2993C28.8853 24.2993 29.6285 23.5561 29.6285 22.6394Z" fill="white"/>
<path d="M26.3086 42.4207C26.3086 41.5039 27.0518 40.7607 27.9686 40.7607C28.8853 40.7607 29.6285 41.5039 29.6285 42.4207C29.6285 43.3374 28.8853 44.0806 27.9686 44.0806C27.0518 44.0806 26.3086 43.3374 26.3086 42.4207Z" fill="white"/>
<path d="M29.6285 32.5994C29.6285 31.6826 28.8853 30.9395 27.9686 30.9395C27.0518 30.9395 26.3086 31.6826 26.3086 32.5994C26.3086 33.5161 27.0518 34.2593 27.9686 34.2593C28.8853 34.2593 29.6285 33.5161 29.6285 32.5994Z" fill="white"/>
<path d="M26.3086 52.3806C26.3086 51.4638 27.0518 50.7207 27.9686 50.7207C28.8853 50.7207 29.6285 51.4638 29.6285 52.3806C29.6285 53.2973 28.8853 54.0405 27.9686 54.0405C27.0518 54.0405 26.3086 53.2973 26.3086 52.3806Z" fill="white"/>
<path d="M29.6285 62.3397C29.6285 61.4229 28.8853 60.6797 27.9686 60.6797C27.0518 60.6797 26.3086 61.4229 26.3086 62.3397C26.3086 63.2564 27.0518 63.9996 27.9686 63.9996C28.8853 63.9996 29.6285 63.2564 29.6285 62.3397Z" fill="white"/>
<path d="M51.0664 17.6599C51.0664 16.7432 51.8096 16 52.7263 16C53.6431 16 54.3863 16.7432 54.3863 17.6599C54.3863 18.5767 53.6431 19.3199 52.7263 19.3199C51.8096 19.3199 51.0664 18.5767 51.0664 17.6599Z" fill="white"/>
<path d="M54.3863 37.5789C54.3863 36.6621 53.6431 35.9189 52.7263 35.9189C51.8096 35.9189 51.0664 36.6621 51.0664 37.5789C51.0664 38.4957 51.8096 39.2389 52.7263 39.2389C53.6431 39.2389 54.3863 38.4957 54.3863 37.5789Z" fill="white"/>
<path d="M51.0664 27.6199C51.0664 26.7032 51.8096 25.96 52.7263 25.96C53.6431 25.96 54.3863 26.7032 54.3863 27.6199C54.3863 28.5367 53.6431 29.2798 52.7263 29.2798C51.8096 29.2798 51.0664 28.5367 51.0664 27.6199Z" fill="white"/>
<path d="M54.3863 47.4002C54.3863 46.4834 53.6431 45.7402 52.7263 45.7402C51.8096 45.7402 51.0664 46.4834 51.0664 47.4002C51.0664 48.317 51.8096 49.0601 52.7263 49.0601C53.6431 49.0601 54.3863 48.317 54.3863 47.4002Z" fill="white"/>
<path d="M51.0664 57.3601C51.0664 56.4434 51.8096 55.7002 52.7263 55.7002C53.6431 55.7002 54.3863 56.4434 54.3863 57.3601C54.3863 58.2769 53.6431 59.02 52.7263 59.02C51.8096 59.02 51.0664 58.2769 51.0664 57.3601Z" fill="white"/>
<path d="M54.3863 22.6394C54.3863 21.7226 53.6431 20.9795 52.7263 20.9795C51.8096 20.9795 51.0664 21.7226 51.0664 22.6394C51.0664 23.5561 51.8096 24.2993 52.7263 24.2993C53.6431 24.2993 54.3863 23.5561 54.3863 22.6394Z" fill="white"/>
<path d="M51.0664 42.4207C51.0664 41.5039 51.8096 40.7607 52.7263 40.7607C53.6431 40.7607 54.3863 41.5039 54.3863 42.4207C54.3863 43.3374 53.6431 44.0806 52.7263 44.0806C51.8096 44.0806 51.0664 43.3374 51.0664 42.4207Z" fill="white"/>
<path d="M54.3863 32.5994C54.3863 31.6826 53.6431 30.9395 52.7263 30.9395C51.8096 30.9395 51.0664 31.6826 51.0664 32.5994C51.0664 33.5161 51.8096 34.2593 52.7263 34.2593C53.6431 34.2593 54.3863 33.5161 54.3863 32.5994Z" fill="white"/>
<path d="M51.0664 52.3806C51.0664 51.4638 51.8096 50.7207 52.7263 50.7207C53.6431 50.7207 54.3863 51.4638 54.3863 52.3806C54.3863 53.2973 53.6431 54.0405 52.7263 54.0405C51.8096 54.0405 51.0664 53.2973 51.0664 52.3806Z" fill="white"/>
<path d="M54.3863 62.3397C54.3863 61.4229 53.6431 60.6797 52.7263 60.6797C51.8096 60.6797 51.0664 61.4229 51.0664 62.3397C51.0664 63.2564 51.8096 63.9996 52.7263 63.9996C53.6431 63.9996 54.3863 63.2564 54.3863 62.3397Z" fill="white"/>
<path d="M31.2852 17.6599C31.2852 16.7432 32.0284 16 32.9451 16C33.8619 16 34.605 16.7432 34.605 17.6599C34.605 18.5767 33.8619 19.3199 32.9451 19.3199C32.0284 19.3199 31.2852 18.5767 31.2852 17.6599Z" fill="white"/>
<path d="M34.605 37.5789C34.605 36.6621 33.8619 35.9189 32.9451 35.9189C32.0284 35.9189 31.2852 36.6621 31.2852 37.5789C31.2852 38.4957 32.0284 39.2389 32.9451 39.2389C33.8619 39.2389 34.605 38.4957 34.605 37.5789Z" fill="white"/>
<path d="M31.2852 27.6199C31.2852 26.7032 32.0284 25.96 32.9451 25.96C33.8619 25.96 34.605 26.7032 34.605 27.6199C34.605 28.5367 33.8619 29.2798 32.9451 29.2798C32.0284 29.2798 31.2852 28.5367 31.2852 27.6199Z" fill="white"/>
<path d="M34.605 47.4002C34.605 46.4834 33.8619 45.7402 32.9451 45.7402C32.0284 45.7402 31.2852 46.4834 31.2852 47.4002C31.2852 48.317 32.0284 49.0601 32.9451 49.0601C33.8619 49.0601 34.605 48.317 34.605 47.4002Z" fill="white"/>
<path d="M31.2852 57.3601C31.2852 56.4434 32.0284 55.7002 32.9451 55.7002C33.8619 55.7002 34.605 56.4434 34.605 57.3601C34.605 58.2769 33.8619 59.02 32.9451 59.02C32.0284 59.02 31.2852 58.2769 31.2852 57.3601Z" fill="white"/>
<path d="M34.605 22.6394C34.605 21.7226 33.8619 20.9795 32.9451 20.9795C32.0284 20.9795 31.2852 21.7226 31.2852 22.6394C31.2852 23.5561 32.0284 24.2993 32.9451 24.2993C33.8619 24.2993 34.605 23.5561 34.605 22.6394Z" fill="white"/>
<path d="M31.2852 42.4207C31.2852 41.5039 32.0284 40.7607 32.9451 40.7607C33.8619 40.7607 34.605 41.5039 34.605 42.4207C34.605 43.3374 33.8619 44.0806 32.9451 44.0806C32.0284 44.0806 31.2852 43.3374 31.2852 42.4207Z" fill="white"/>
<path d="M34.605 32.5994C34.605 31.6826 33.8619 30.9395 32.9451 30.9395C32.0284 30.9395 31.2852 31.6826 31.2852 32.5994C31.2852 33.5161 32.0284 34.2593 32.9451 34.2593C33.8619 34.2593 34.605 33.5161 34.605 32.5994Z" fill="white"/>
<path d="M31.2852 52.3806C31.2852 51.4638 32.0284 50.7207 32.9451 50.7207C33.8619 50.7207 34.605 51.4638 34.605 52.3806C34.605 53.2973 33.8619 54.0405 32.9451 54.0405C32.0284 54.0405 31.2852 53.2973 31.2852 52.3806Z" fill="white"/>
<path d="M34.605 62.3397C34.605 61.4229 33.8619 60.6797 32.9451 60.6797C32.0284 60.6797 31.2852 61.4229 31.2852 62.3397C31.2852 63.2564 32.0284 63.9996 32.9451 63.9996C33.8619 63.9996 34.605 63.2564 34.605 62.3397Z" fill="white"/>
<path d="M56.0469 17.6599C56.0469 16.7432 56.7901 16 57.7068 16C58.6236 16 59.3667 16.7432 59.3667 17.6599C59.3667 18.5767 58.6236 19.3199 57.7068 19.3199C56.7901 19.3199 56.0469 18.5767 56.0469 17.6599Z" fill="white"/>
<path d="M59.3667 37.5789C59.3667 36.6621 58.6236 35.9189 57.7068 35.9189C56.7901 35.9189 56.0469 36.6621 56.0469 37.5789C56.0469 38.4957 56.7901 39.2389 57.7068 39.2389C58.6236 39.2389 59.3667 38.4957 59.3667 37.5789Z" fill="white"/>
<path d="M56.0469 27.6199C56.0469 26.7032 56.7901 25.96 57.7068 25.96C58.6236 25.96 59.3667 26.7032 59.3667 27.6199C59.3667 28.5367 58.6236 29.2798 57.7068 29.2798C56.7901 29.2798 56.0469 28.5367 56.0469 27.6199Z" fill="white"/>
<path d="M59.3667 47.4002C59.3667 46.4834 58.6236 45.7402 57.7068 45.7402C56.7901 45.7402 56.0469 46.4834 56.0469 47.4002C56.0469 48.317 56.7901 49.0601 57.7068 49.0601C58.6236 49.0601 59.3667 48.317 59.3667 47.4002Z" fill="white"/>
<path d="M56.0469 57.3601C56.0469 56.4434 56.7901 55.7002 57.7068 55.7002C58.6236 55.7002 59.3667 56.4434 59.3667 57.3601C59.3667 58.2769 58.6236 59.02 57.7068 59.02C56.7901 59.02 56.0469 58.2769 56.0469 57.3601Z" fill="white"/>
<path d="M59.3667 22.6394C59.3667 21.7226 58.6236 20.9795 57.7068 20.9795C56.7901 20.9795 56.0469 21.7226 56.0469 22.6394C56.0469 23.5561 56.7901 24.2993 57.7068 24.2993C58.6236 24.2993 59.3667 23.5561 59.3667 22.6394Z" fill="white"/>
<path d="M56.0469 42.4207C56.0469 41.5039 56.7901 40.7607 57.7068 40.7607C58.6236 40.7607 59.3667 41.5039 59.3667 42.4207C59.3667 43.3374 58.6236 44.0806 57.7068 44.0806C56.7901 44.0806 56.0469 43.3374 56.0469 42.4207Z" fill="white"/>
<path d="M59.3667 32.5994C59.3667 31.6826 58.6236 30.9395 57.7068 30.9395C56.7901 30.9395 56.0469 31.6826 56.0469 32.5994C56.0469 33.5161 56.7901 34.2593 57.7068 34.2593C58.6236 34.2593 59.3667 33.5161 59.3667 32.5994Z" fill="white"/>
<path d="M56.0469 52.3806C56.0469 51.4638 56.7901 50.7207 57.7068 50.7207C58.6236 50.7207 59.3667 51.4638 59.3667 52.3806C59.3667 53.2973 58.6236 54.0405 57.7068 54.0405C56.7901 54.0405 56.0469 53.2973 56.0469 52.3806Z" fill="white"/>
<path d="M59.3667 62.3397C59.3667 61.4229 58.6236 60.6797 57.7068 60.6797C56.7901 60.6797 56.0469 61.4229 56.0469 62.3397C56.0469 63.2564 56.7901 63.9996 57.7068 63.9996C58.6236 63.9996 59.3667 63.2564 59.3667 62.3397Z" fill="white"/>
<path d="M36.2656 17.6599C36.2656 16.7432 37.0087 16 37.9255 16C38.8423 16 39.5855 16.7432 39.5855 17.6599C39.5855 18.5767 38.8423 19.3199 37.9255 19.3199C37.0087 19.3199 36.2656 18.5767 36.2656 17.6599Z" fill="white"/>
<path d="M39.5788 37.5521C39.5788 36.6242 38.8266 35.8721 37.8987 35.8721C36.9709 35.8721 36.2188 36.6242 36.2188 37.5521C36.2188 38.4799 36.9709 39.2321 37.8987 39.2321C38.8266 39.2321 39.5788 38.4799 39.5788 37.5521Z" fill="white"/>
<path d="M36.2656 27.6199C36.2656 26.7032 37.0087 25.96 37.9255 25.96C38.8423 25.96 39.5855 26.7032 39.5855 27.6199C39.5855 28.5367 38.8423 29.2798 37.9255 29.2798C37.0087 29.2798 36.2656 28.5367 36.2656 27.6199Z" fill="white"/>
<path d="M39.5855 47.4002C39.5855 46.4834 38.8423 45.7402 37.9255 45.7402C37.0088 45.7402 36.2656 46.4834 36.2656 47.4002C36.2656 48.317 37.0088 49.0601 37.9255 49.0601C38.8423 49.0601 39.5855 48.317 39.5855 47.4002Z" fill="white"/>
<path d="M36.2656 57.3601C36.2656 56.4434 37.0088 55.7002 37.9255 55.7002C38.8423 55.7002 39.5855 56.4434 39.5855 57.3601C39.5855 58.2769 38.8423 59.02 37.9255 59.02C37.0088 59.02 36.2656 58.2769 36.2656 57.3601Z" fill="white"/>
<path d="M39.5855 22.6394C39.5855 21.7226 38.8423 20.9795 37.9255 20.9795C37.0087 20.9795 36.2656 21.7226 36.2656 22.6394C36.2656 23.5561 37.0087 24.2993 37.9255 24.2993C38.8423 24.2993 39.5855 23.5561 39.5855 22.6394Z" fill="white"/>
<path d="M36.2656 42.4207C36.2656 41.5039 37.0087 40.7607 37.9255 40.7607C38.8423 40.7607 39.5855 41.5039 39.5855 42.4207C39.5855 43.3375 38.8423 44.0807 37.9255 44.0807C37.0087 44.0807 36.2656 43.3375 36.2656 42.4207Z" fill="white"/>
<path d="M39.5855 32.5994C39.5855 31.6826 38.8423 30.9395 37.9255 30.9395C37.0087 30.9395 36.2656 31.6826 36.2656 32.5994C36.2656 33.5161 37.0087 34.2593 37.9255 34.2593C38.8423 34.2593 39.5855 33.5161 39.5855 32.5994Z" fill="white"/>
<path d="M36.2656 52.3806C36.2656 51.4638 37.0087 50.7207 37.9255 50.7207C38.8423 50.7207 39.5855 51.4638 39.5855 52.3806C39.5855 53.2973 38.8423 54.0405 37.9255 54.0405C37.0087 54.0405 36.2656 53.2973 36.2656 52.3806Z" fill="white"/>
<path d="M39.5855 62.3397C39.5855 61.4229 38.8423 60.6797 37.9255 60.6797C37.0088 60.6797 36.2656 61.4229 36.2656 62.3397C36.2656 63.2564 37.0088 63.9996 37.9255 63.9996C38.8423 63.9996 39.5855 63.2564 39.5855 62.3397Z" fill="white"/>
<path d="M61.0273 17.6599C61.0273 16.7432 61.7705 16 62.6873 16C63.6041 16 64.3473 16.7432 64.3473 17.6599C64.3473 18.5767 63.6041 19.3199 62.6873 19.3199C61.7705 19.3199 61.0273 18.5767 61.0273 17.6599Z" fill="white"/>
<path d="M64.3473 37.5789C64.3473 36.6621 63.6041 35.9189 62.6873 35.9189C61.7705 35.9189 61.0273 36.6621 61.0273 37.5789C61.0273 38.4957 61.7705 39.2389 62.6873 39.2389C63.6041 39.2389 64.3473 38.4957 64.3473 37.5789Z" fill="white"/>
<path d="M61.0273 27.6199C61.0273 26.7031 61.7705 25.96 62.6873 25.96C63.6041 25.96 64.3473 26.7031 64.3473 27.6199C64.3473 28.5366 63.6041 29.2798 62.6873 29.2798C61.7705 29.2798 61.0273 28.5366 61.0273 27.6199Z" fill="white"/>
<path d="M64.3473 47.4002C64.3473 46.4834 63.6041 45.7402 62.6873 45.7402C61.7705 45.7402 61.0273 46.4834 61.0273 47.4002C61.0273 48.317 61.7705 49.0601 62.6873 49.0601C63.6041 49.0601 64.3473 48.317 64.3473 47.4002Z" fill="white"/>
<path d="M61.0273 57.3601C61.0273 56.4434 61.7705 55.7002 62.6873 55.7002C63.6041 55.7002 64.3473 56.4434 64.3473 57.3601C64.3473 58.2769 63.6041 59.02 62.6873 59.02C61.7705 59.02 61.0273 58.2769 61.0273 57.3601Z" fill="white"/>
<path d="M64.3473 22.6394C64.3473 21.7227 63.6041 20.9795 62.6873 20.9795C61.7705 20.9795 61.0273 21.7227 61.0273 22.6394C61.0273 23.5562 61.7705 24.2993 62.6873 24.2993C63.6041 24.2993 64.3473 23.5562 64.3473 22.6394Z" fill="white"/>
<path d="M61.0273 42.4207C61.0273 41.5039 61.7705 40.7607 62.6873 40.7607C63.6041 40.7607 64.3473 41.5039 64.3473 42.4207C64.3473 43.3374 63.6041 44.0806 62.6873 44.0806C61.7705 44.0806 61.0273 43.3374 61.0273 42.4207Z" fill="white"/>
<path d="M64.3473 32.5994C64.3473 31.6826 63.6041 30.9395 62.6873 30.9395C61.7705 30.9395 61.0273 31.6826 61.0273 32.5994C61.0273 33.5161 61.7705 34.2593 62.6873 34.2593C63.6041 34.2593 64.3473 33.5161 64.3473 32.5994Z" fill="white"/>
<path d="M61.0273 52.3806C61.0273 51.4639 61.7705 50.7207 62.6873 50.7207C63.6041 50.7207 64.3473 51.4639 64.3473 52.3806C64.3473 53.2974 63.6041 54.0405 62.6873 54.0405C61.7705 54.0405 61.0273 53.2974 61.0273 52.3806Z" fill="white"/>
<path d="M64.3473 62.3397C64.3473 61.4229 63.6041 60.6797 62.6873 60.6797C61.7705 60.6797 61.0273 61.4229 61.0273 62.3397C61.0273 63.2564 61.7705 63.9996 62.6873 63.9996C63.6041 63.9996 64.3473 63.2564 64.3473 62.3397Z" fill="white"/>
<path d="M100.492 53.6001V30.2774H104.341L114.779 30.2447C118.998 30.2447 122.271 31.2343 124.597 33.2131C126.924 35.192 128.087 38.0951 128.087 41.9224C128.087 45.7498 126.924 48.6528 124.597 50.6318C122.271 52.6107 118.998 53.6001 114.779 53.6001H100.492ZM114.42 34.4853H105.711V49.3596H114.42C117.16 49.3596 119.237 48.7616 120.651 47.5655C122.064 46.3695 122.771 44.4885 122.771 41.9224C122.771 39.3347 122.064 37.4536 120.651 36.2793C119.237 35.0833 117.16 34.4853 114.42 34.4853ZM131.359 53.6001V30.2774H156.28V34.5179H136.578V40.9765H153.735V45.217H136.578V53.6001H131.359ZM164.827 53.6001V34.5831H157.911V30.3427H169.883V53.6001H164.827ZM186.788 53.7632C182.591 53.7632 179.319 52.7738 176.97 50.7948C174.643 48.7942 173.479 45.8367 173.479 41.9224C173.479 38.0299 174.643 35.0942 176.97 33.1153C179.319 31.1146 182.591 30.1143 186.788 30.1143H191.029C195.247 30.1143 198.52 31.1146 200.847 33.1153C203.174 35.0942 204.338 38.0299 204.338 41.9224C204.338 45.8367 203.174 48.7942 200.847 50.7948C198.52 52.7738 195.247 53.7632 191.029 53.7632H186.788ZM178.797 41.9224C178.797 44.2927 179.373 46.0977 180.526 47.3372L193.312 34.5831C192.529 34.4309 191.649 34.3548 190.67 34.3548H187.147C184.407 34.3548 182.331 34.9528 180.917 36.1488C179.503 37.3449 178.797 39.2694 178.797 41.9224ZM187.147 49.5227H190.67C193.41 49.5227 195.487 48.9247 196.9 47.7287C198.314 46.5109 199.02 44.5755 199.02 41.9224C199.02 39.5521 198.434 37.7472 197.259 36.5076L184.44 49.2943C185.244 49.4466 186.147 49.5227 187.147 49.5227ZM211.908 53.6001V34.5831H204.993V30.3427H216.964V53.6001H211.908Z" fill="white"/>
<path d="M80.038 40.0004C80.038 18.0808 62.2686 0.311523 40.349 0.311523C18.4295 0.311523 0.660156 18.0809 0.660156 40.0005C0.660156 61.92 18.4296 79.6894 40.3491 79.6894C62.2687 79.6894 80.038 61.92 80.038 40.0004Z" fill="white" fill-opacity="0.02" stroke="white" stroke-width="0.777737"/>
</g>
<defs>
<clipPath id="clip0_610_53681">
<rect width="221.6" height="80" fill="white" transform="translate(0.347656)"/>
</clipPath>
</defs>
</svg>
