<svg width="141" height="46" viewBox="0 0 141 46" fill="none" xmlns="http://www.w3.org/2000/svg">
<path fill-rule="evenodd" clip-rule="evenodd" d="M117.36 8.63965V6.55455H120.531V21.2332H117.36V19.1201C116.166 20.7834 114.454 21.6157 112.222 21.6157C110.206 21.6157 108.484 20.8718 107.055 19.3843C105.627 17.8967 104.913 16.0661 104.913 13.8939C104.913 11.7216 105.627 9.89241 107.055 8.40486C108.484 6.91731 110.206 6.17352 112.222 6.17352C114.452 6.17352 116.166 6.99603 117.36 8.63965ZM57.2071 30.6591V33.713H53.5669V38.5101V40.1019V41.0747C53.5669 41.8536 54.2038 42.4907 54.9828 42.4907H57.2071V45.3378H54.1181C52.0709 45.3378 50.3964 43.6633 50.3964 41.6161V40.1005V38.5089V33.7114H47.6955V30.6577H50.3964V27.4871L53.5669 26.5478V30.6577H57.2071V30.6591ZM140.127 6.55595V9.60979H136.487V14.4071V15.9987V16.9716C136.487 17.7505 137.124 18.3889 137.905 18.3889H140.129V21.2361H137.04C134.993 21.2361 133.318 19.5616 133.318 17.5144V15.9987V14.4071V9.60979H132.102H130.617H127.528V21.2361H124.358V9.60979H122.126V6.55595H124.358V6.26213C124.358 4.22624 124.926 2.69085 126.06 1.65322C127.195 0.617001 128.84 0.165686 130.993 0.303475V3.35731C128.683 3.16188 127.528 4.13059 127.528 6.26349V6.55737H130.617H132.102H133.318V3.38682L136.489 2.44763V6.55737H140.127V6.55595ZM17.4144 24.7877H13.9049L8.77161 43.9457L3.63828 24.7877H0.128906L5.63623 45.3378H8.39902H9.14419H11.907L17.4144 24.7877ZM13.836 0.684496V3.91407H5.17506V9.66883H13.5422V12.8984H5.17506V21.2361H1.79784V0.685912H13.836V0.684496ZM25.7632 14.424V6.55595H28.9338V21.2347H25.7632V19.3563C24.7846 20.8635 23.2676 21.6171 21.2134 21.6171C19.5107 21.6171 18.1455 21.0744 17.1177 19.9876C16.0899 18.9007 15.5767 17.4286 15.5767 15.5685V6.55595H18.7473V15.2465C18.7473 16.3418 19.0411 17.1839 19.6274 17.7716C20.2151 18.3593 21.018 18.6517 22.0345 18.6517C23.1888 18.6517 24.0999 18.2947 24.765 17.5805C25.43 16.8648 25.7632 15.8131 25.7632 14.424ZM39.8921 6.55595V9.60979H36.252V14.4071V15.9987V16.9716C36.252 17.7505 36.8903 18.3889 37.6693 18.3889H39.8921V21.2361H36.8032C34.756 21.2361 33.0815 19.5616 33.0815 17.5144V15.9987V14.4071V9.60979H30.3805V6.55595H33.0815V3.38542L36.252 2.44621V6.55595H39.8921ZM51.8783 14.424V6.55595H55.0489V21.2347H51.8783V19.3563C50.8997 20.8635 49.3827 21.6171 47.3285 21.6171C45.6258 21.6171 44.2606 21.0744 43.2328 19.9876C42.205 18.9007 41.6918 17.4286 41.6918 15.5685V6.55595H44.8624V15.2465C44.8624 16.3418 45.1562 17.1839 45.7439 17.7716C46.3302 18.3593 47.1331 18.6517 48.151 18.6517C49.3067 18.6517 50.2164 18.2947 50.8815 17.5805C51.5465 16.8648 51.8783 15.8131 51.8783 14.424ZM60.9892 6.55595V9.02208C61.792 7.20131 63.2979 6.29164 65.5095 6.29164V9.72651C64.3158 9.64777 63.2585 9.94162 62.339 10.6067C61.4391 11.2534 60.9892 12.329 60.9892 13.8363V21.2347H57.8187V6.55595H60.9892ZM89.2471 21.6157C87.0354 21.6157 85.1851 20.8718 83.699 19.3843C82.2311 17.877 81.4972 16.0464 81.4972 13.8939C81.4972 11.7019 82.2311 9.87131 83.699 8.40486C85.1865 6.91731 87.0354 6.17352 89.2471 6.17352C90.6756 6.17352 91.9775 6.51661 93.1515 7.20134C94.3255 7.88606 95.207 8.80697 95.7933 9.96129L93.063 11.5473C92.7297 10.8428 92.2264 10.2903 91.5515 9.88818C90.8765 9.48747 90.0977 9.2864 89.2175 9.2864C87.9254 9.2864 86.84 9.72648 85.9584 10.608C85.0965 11.5079 84.6663 12.6046 84.6663 13.8967C84.6663 15.1889 85.0965 16.2842 85.9584 17.1853C86.8386 18.0656 87.9254 18.5071 89.2175 18.5071C90.0794 18.5071 90.8568 18.3059 91.5515 17.9051C92.2461 17.5044 92.7691 16.9506 93.122 16.2462L95.8525 17.8025C95.2254 18.9765 94.3213 19.906 93.1375 20.5922C91.9536 21.2741 90.6573 21.6157 89.2471 21.6157ZM100.471 6.55595H97.3007V21.2347H100.471V13.8363C100.471 12.329 100.921 11.2534 101.821 10.6067C102.74 9.94162 103.798 9.64777 104.991 9.72651V6.29164C102.78 6.29164 101.272 7.20131 100.471 9.02208V6.55595ZM40.9059 30.2781C42.6085 30.2781 43.9738 30.8208 45.0016 31.9077C46.0293 32.9931 46.5425 34.4666 46.5425 36.3253V45.3378H43.372V36.6487C43.372 35.552 43.0781 34.7111 42.4904 34.1234C41.9027 33.5357 41.1013 33.2432 40.0834 33.2432C38.929 33.2432 38.0179 33.6005 37.3529 34.3147C36.6879 35.029 36.3546 36.0807 36.3546 37.4712V45.3392H33.1841V30.6605H36.3546V32.5402C37.3332 31.0316 38.8503 30.2781 40.9059 30.2781ZM69.1946 38.5284V30.6605H72.3652V45.3392H69.1946V43.4607C68.2161 44.9679 66.699 45.7215 64.6434 45.7215C62.9407 45.7215 61.5755 45.1788 60.5477 44.092C59.5199 43.0051 59.0053 41.533 59.0053 39.6743V30.6605H62.1759V39.3511C62.1759 40.4477 62.4697 41.2885 63.056 41.8762C63.6437 42.4639 64.4452 42.7564 65.4631 42.7564C66.6174 42.7564 67.5285 42.3993 68.1936 41.685C68.8614 40.9694 69.1946 39.9175 69.1946 38.5284ZM78.3027 30.6591V33.1253C79.1056 31.3045 80.6128 30.3947 82.8244 30.3947V33.8297C81.6307 33.7509 80.5734 34.0447 79.6539 34.7097C78.7541 35.355 78.3027 36.4322 78.3027 37.9394V45.3378H75.1322V30.6591H78.3027ZM102.074 34.7111C102.074 35.161 102.309 35.5281 102.778 35.8121C103.248 36.0962 103.933 36.3646 104.834 36.619C105.519 36.7751 106.116 36.9426 106.625 37.1183C107.134 37.2941 107.673 37.5542 108.241 37.8958C108.809 38.2389 109.245 38.6888 109.547 39.247C109.851 39.8052 109.993 40.4548 109.973 41.1985C109.973 42.6074 109.424 43.7137 108.329 44.5166C107.233 45.3194 105.873 45.7202 104.249 45.7202C102.801 45.7202 101.558 45.4165 100.52 44.8106C99.4828 44.2046 98.729 43.3622 98.2594 42.2852L100.99 40.7008C101.479 42.1096 102.566 42.8139 104.249 42.8139C105.912 42.8139 106.745 42.2656 106.745 41.1703C106.745 40.3675 105.815 39.7418 103.955 39.2919C103.251 39.1161 102.659 38.9391 102.179 38.7633C101.7 38.5876 101.171 38.3331 100.593 37.9999C100.015 37.6667 99.5756 37.2266 99.2717 36.6782C98.968 36.1299 98.8262 35.4942 98.8458 34.7701C98.8458 33.4204 99.3548 32.3335 100.373 31.511C101.41 30.6885 102.691 30.2781 104.218 30.2781C105.432 30.2781 106.513 30.5467 107.462 31.0852C108.411 31.6237 109.14 32.3717 109.649 33.3305L106.978 34.8279C106.489 33.713 105.569 33.1548 104.218 33.1548C103.593 33.1548 103.078 33.2924 102.677 33.5652C102.274 33.8408 102.074 34.2218 102.074 34.7111ZM80.4314 15.2465C80.5102 14.7572 80.5481 14.317 80.5481 13.9248C80.5481 11.7722 79.8536 9.94161 78.4644 8.43437C77.0753 6.92714 75.3136 6.17352 73.1807 6.17352C70.8903 6.17352 69.0315 6.91731 67.6031 8.40486C66.1549 9.89241 65.4308 11.7216 65.4308 13.8939C65.4308 16.1251 66.1647 17.9742 67.6326 19.442C69.1201 20.8902 71.0478 21.6142 73.4155 21.6142C76.2739 21.6142 78.4166 20.547 79.8451 18.4141L77.2328 16.8872C76.3723 18.1006 75.1097 18.7081 73.4464 18.7081C72.2133 18.7081 71.1813 18.4043 70.349 17.7969C69.5166 17.1909 68.9837 16.339 68.7489 15.2437H80.4314V15.2465ZM68.718 12.6622C68.9331 11.5473 69.4323 10.6657 70.2154 10.0203C70.9986 9.37357 71.9771 9.05161 73.1511 9.05161C74.2281 9.05161 75.142 9.36515 75.8957 9.99082C76.6493 10.6179 77.1329 11.5079 77.3495 12.6622H68.718ZM31.3465 39.3496H19.6612C19.896 40.4463 20.4288 41.2968 21.2612 41.9042C22.0935 42.5102 23.1256 42.8139 24.3586 42.8139C26.0219 42.8139 27.2845 42.208 28.1464 40.9933L30.7587 42.5202C29.3302 44.6531 27.1875 45.7202 24.3291 45.7202C21.9614 45.7202 20.0323 44.9962 18.5462 43.548C17.0783 42.0801 16.3444 40.2298 16.3444 37.9999C16.3444 35.8276 17.0685 33.997 18.5167 32.5094C19.9452 31.0219 21.8053 30.2781 24.0943 30.2781C26.2272 30.2781 27.9889 31.0317 29.378 32.539C30.7672 34.0462 31.4632 35.8768 31.4632 38.028C31.4632 38.4203 31.4238 38.8604 31.3465 39.3496ZM19.6316 36.7668H28.2631C28.048 35.6125 27.5629 34.7211 26.8093 34.0954C26.0557 33.4697 25.1404 33.1562 24.0648 33.1562C22.8908 33.1562 21.9122 33.4796 21.129 34.1249C20.3459 34.7703 19.8468 35.6505 19.6316 36.7668ZM97.8377 39.3496H86.1525C86.3873 40.4463 86.9215 41.2968 87.7525 41.9042C88.5834 42.5102 89.6168 42.8139 90.8499 42.8139C92.5132 42.8139 93.7758 42.208 94.6363 40.9933L97.2486 42.5202C95.8201 44.6531 93.6774 45.7202 90.819 45.7202C88.4513 45.7202 86.5236 44.9962 85.0361 43.548C83.5682 42.0801 82.8343 40.2298 82.8343 37.9999C82.8343 35.8276 83.5584 33.997 85.0066 32.5094C86.4351 31.0219 88.2952 30.2781 90.5842 30.2781C92.7171 30.2781 94.4788 31.0317 95.8693 32.539C97.2583 34.0462 97.9529 35.8768 97.9529 38.028C97.9557 38.4203 97.9165 38.8604 97.8377 39.3496ZM86.1243 36.7668H94.7558C94.5407 35.6125 94.0556 34.7211 93.302 34.0954C92.5484 33.4697 91.6329 33.1562 90.5574 33.1562C89.3834 33.1562 88.4049 33.4796 87.6217 34.1249C86.8386 34.7703 86.3394 35.6505 86.1243 36.7668ZM109.404 17.2712C110.284 18.1513 111.39 18.5928 112.722 18.5928C114.052 18.5928 115.158 18.1527 116.038 17.2712C116.919 16.3713 117.36 15.2451 117.36 13.8953C117.36 12.5455 116.92 11.4292 116.038 10.549C115.158 9.64916 114.052 9.19783 112.722 9.19783C111.39 9.19783 110.285 9.64776 109.404 10.549C108.523 11.4292 108.082 12.5455 108.082 13.8953C108.083 15.2268 108.523 16.3517 109.404 17.2712Z" fill="white"/>
</svg>
