<svg
      width="850"
      height="583"
      viewBox="0 0 850 583"
      fill="none"
      xmlns="http://www.w3.org/2000/svg"
    >
      <g clipPath="url(#clip0_58_2067)">
        <rect
          x="0.5"
          y="261.5"
          width="210.981"
          height="107"
          rx="19.5"
          stroke="#2A2A2B"
        />
        <rect
          x="0.5"
          y="154.5"
          width="210.981"
          height="107"
          rx="19.5"
          stroke="#2A2A2B"
        />
        <rect
          x="210.523"
          y="154.5"
          width="210.981"
          height="107"
          rx="19.5"
          stroke="#2A2A2B"
        />
        <rect
          x="207.5"
          y="475.5"
          width="107"
          height="107"
          rx="39.5"
          stroke="#2A2A2B"
        />
        <rect
          x="314.5"
          y="475.5"
          width="107"
          height="107"
          rx="39.5"
          stroke="#2A2A2B"
        />
        <rect
          x="314.5"
          y="368.5"
          width="107"
          height="107"
          rx="39.5"
          stroke="#2A2A2B"
        />
        <rect
          x="421.5"
          y="261.5"
          width="107"
          height="107"
          rx="49.5"
          stroke="#2A2A2B"
        />
        <rect
          x="421.5"
          y="154.5"
          width="107"
          height="107"
          rx="49.5"
          stroke="#2A2A2B"
        />
        <rect
          x="421"
          y="47.501"
          width="214.498"
          height="107"
          rx="53.5"
          stroke="#2A2A2B"
        />
        <rect
          x="206.5"
          y="-59.499"
          width="214.498"
          height="107"
          rx="53.5"
          stroke="#2A2A2B"
        />
        <rect
          x="421"
          y="-59.499"
          width="214.498"
          height="107"
          rx="53.5"
          stroke="#2A2A2B"
        />
        <rect
          x="421.5"
          y="475.5"
          width="214.498"
          height="107"
          rx="27.5"
          stroke="#2A2A2B"
        />
        <rect
          x="635"
          y="475.5"
          width="214.498"
          height="107"
          rx="27.5"
          stroke="#2A2A2B"
        />
        <rect
          x="421.5"
          y="368.5"
          width="214.498"
          height="107"
          rx="27.5"
          stroke="#2A2A2B"
        />
        <rect
          x="635.5"
          y="261.5"
          width="107"
          height="107"
          rx="39.5"
          stroke="#2A2A2B"
        />
        <rect
          x="742.5"
          y="261.5"
          width="107"
          height="107"
          rx="39.5"
          stroke="#2A2A2B"
        />
        <rect
          x="635.5"
          y="154.5"
          width="107"
          height="107"
          rx="39.5"
          stroke="#2A2A2B"
        />
        <rect
          x="742.5"
          y="154.5"
          width="107"
          height="107"
          rx="39.5"
          stroke="#2A2A2B"
        />
        <rect
          x="635"
          y="368.5"
          width="214.498"
          height="107"
          rx="27.5"
          stroke="#6F6F6F"
        />
        <rect
          x="207.5"
          y="368.5"
          width="107"
          height="107"
          rx="39.5"
          stroke="#2A2A2B"
        />
        <rect
          x="528.5"
          y="261.5"
          width="107"
          height="107"
          rx="49.5"
          stroke="#2A2A2B"
        />
        <rect
          x="528.5"
          y="154.5"
          width="107"
          height="107"
          rx="49.5"
          stroke="#CD7246"
        />
        <rect
          x="210.516"
          y="261.5"
          width="210.981"
          height="107"
          rx="19.5"
          stroke="#266680"
        />
        <rect
          x="206.5"
          y="47.501"
          width="214.498"
          height="107"
          rx="53.5"
          stroke="#2A2A2B"
        />
      </g>
      <defs>
        <clipPath id="clip0_58_2067">
          <rect
            width="850"
            height="583"
            fill="white"
            transform="translate(850 583) rotate(-180)"
          />
        </clipPath>
      </defs>
    </svg>
