<svg
      width="2783"
      height="474"
      viewBox="0 0 2783 474"
      fill="none"
      xmlns="http://www.w3.org/2000/svg"
    >
      <rect
        x="642.5"
        y="442.5"
        width="107"
        height="31"
        rx="15.5"
        stroke="#2F2F2F"
      />
      <rect
        x="535.5"
        y="442.5"
        width="107"
        height="31"
        rx="15.5"
        stroke="#2F2F2F"
      />
      <rect
        x="428.5"
        y="442.5"
        width="107"
        height="31"
        rx="15.5"
        stroke="#2F2F2F"
      />
      <rect
        x="321.5"
        y="442.5"
        width="107"
        height="31"
        rx="15.5"
        stroke="#2F2F2F"
      />
      <rect
        x="214.5"
        y="442.5"
        width="107"
        height="31"
        rx="15.5"
        stroke="#2F2F2F"
      />
      <rect
        x="107.5"
        y="442.5"
        width="107"
        height="31"
        rx="15.5"
        stroke="#2F2F2F"
      />
      <rect
        x="0.5"
        y="442.5"
        width="107"
        height="31"
        rx="15.5"
        stroke="#2F2F2F"
      />
      <rect
        x="856.5"
        y="442.5"
        width="107"
        height="31"
        rx="15.5"
        stroke="#2F2F2F"
      />
      <rect
        x="749.5"
        y="442.5"
        width="107"
        height="31"
        rx="15.5"
        stroke="#2F2F2F"
      />
      <rect
        x="963.5"
        y="442.5"
        width="428"
        height="31"
        rx="15.5"
        stroke="#2F2F2F"
      />
      <rect
        x="1391.5"
        y="442.5"
        width="428"
        height="31"
        rx="15.5"
        stroke="#2F2F2F"
      />
      <rect
        x="1819.5"
        y="442.5"
        width="107"
        height="31"
        rx="15.5"
        stroke="#2F2F2F"
      />
      <rect
        x="1926.5"
        y="442.5"
        width="107"
        height="31"
        rx="15.5"
        stroke="#2F2F2F"
      />
      <rect
        x="2033.5"
        y="442.5"
        width="107"
        height="31"
        rx="15.5"
        stroke="#2F2F2F"
      />
      <rect
        x="2140.5"
        y="442.5"
        width="107"
        height="31"
        rx="15.5"
        stroke="#2F2F2F"
      />
      <rect
        x="2247.5"
        y="442.5"
        width="107"
        height="31"
        rx="15.5"
        stroke="#2F2F2F"
      />
      <rect
        x="2354.5"
        y="442.5"
        width="107"
        height="31"
        rx="15.5"
        stroke="#2F2F2F"
      />
      <rect
        x="2461.5"
        y="442.5"
        width="107"
        height="31"
        rx="15.5"
        stroke="#2F2F2F"
      />
      <rect
        x="2568.5"
        y="442.5"
        width="107"
        height="31"
        rx="15.5"
        stroke="#2F2F2F"
      />
      <rect
        x="2675.5"
        y="442.5"
        width="107"
        height="31"
        rx="15.5"
        stroke="#2F2F2F"
      />
      <path
        d="M734.5 442.5C739.5 442.667 749.5 440.6 749.5 431"
        stroke="#2F2F2F"
      />
      <path
        d="M764.5 442.5C759.5 442.667 749.5 440.6 749.5 431"
        stroke="#2F2F2F"
      />
      <path d="M749.5 431L749.5 1" stroke="#2F2F2F" />
      <path
        d="M841.5 442.5C846.5 442.667 856.5 440.6 856.5 431"
        stroke="#2F2F2F"
      />
      <path
        d="M871.5 442.5C866.5 442.667 856.5 440.6 856.5 431"
        stroke="#2F2F2F"
      />
      <path d="M856.5 432L856.5 1" stroke="#2F2F2F" />
      <path
        d="M1911.5 442.5C1916.5 442.667 1926.5 440.6 1926.5 431"
        stroke="#2F2F2F"
      />
      <path
        d="M1941.5 442.5C1936.5 442.667 1926.5 440.6 1926.5 431"
        stroke="#2F2F2F"
      />
      <path d="M1926.5 432L1926.5 1" stroke="#2F2F2F" />
      <path
        d="M2018.5 442.5C2023.5 442.667 2033.5 440.6 2033.5 431"
        stroke="#2F2F2F"
      />
      <path
        d="M2048.5 442.5C2043.5 442.667 2033.5 440.6 2033.5 431"
        stroke="#2F2F2F"
      />
      <path d="M2033.5 432L2033.5 1" stroke="#2F2F2F" />
      <path d="M8.2016e-05 1L2783 1" stroke="#2F2F2F" />
    </svg>
