<svg width="181" height="56" viewBox="0 0 181 56" fill="none" xmlns="http://www.w3.org/2000/svg">
<path d="M33.0474 12.3964C23.667 16.0125 22.8077 25.2734 20.118 29.5985C17.3964 33.9749 11.1613 36.3897 12.014 38.6197C12.8666 40.8501 19.1091 38.4548 24.0478 39.8778C28.9279 41.2837 35.7369 47.5893 45.1175 43.973C49.8961 42.1312 53.3563 38.3394 54.9474 33.8485C55.1185 33.3664 54.7984 32.8509 54.291 32.8032C53.9757 32.7735 53.6727 32.9394 53.5305 33.2236C52.0911 36.1025 49.622 38.4734 46.3909 39.7188C41.0565 41.7746 35.2199 40.1606 31.6354 36.1114C30.8213 35.192 30.125 34.1453 29.5753 32.9885C29.4242 32.6701 29.2805 32.3465 29.1531 32.0117C29.025 31.677 28.9161 31.34 28.8161 31.0015C31.6354 29.6818 34.8889 28.284 38.5771 26.8624C42.1936 25.4683 45.4847 24.3376 48.4152 23.433C50.3976 22.8215 52.2148 22.3127 53.8554 21.8968C53.9739 21.8671 54.0911 21.8373 54.2075 21.8083C54.4555 21.7465 54.7104 21.8797 54.8021 22.1192L54.8039 22.1237C54.8578 22.2658 54.9045 22.4086 54.9547 22.5514C55.2793 23.4731 55.5221 24.4045 55.6829 25.3381C55.7533 25.7465 56.1978 25.9689 56.5623 25.7726C57.9089 25.0465 59.141 24.3383 60.2416 23.6569C64.3432 21.1202 66.6176 18.9688 66.1507 17.7495C65.6849 16.5295 62.5617 16.4596 57.823 17.33C56.317 17.6067 54.6472 17.9786 52.8479 18.4391C52.537 18.5187 52.222 18.6013 51.9036 18.6861C50.3894 19.0893 48.7924 19.5513 47.1295 20.0683C44.0365 21.0302 40.7189 22.1825 37.2934 23.5029C34.0888 24.7385 31.0517 26.0196 28.2664 27.2961C28.2324 21.8782 31.494 16.7564 36.8282 14.7002C40.0586 13.4549 43.4735 13.5568 46.462 14.73C46.7568 14.846 47.0924 14.7657 47.3077 14.5314C47.653 14.1557 47.5472 13.5576 47.0989 13.3136C42.9239 11.0469 37.8261 10.5544 33.0474 12.3964Z" fill="white"/>
<path d="M87.7655 35.1384H78.3653V29.4019H87.2595C87.5439 29.4019 87.7339 29.2096 87.7339 28.9212V26.0049C87.7339 25.7165 87.5439 25.5242 87.2595 25.5242H78.3653V20.4608H87.7339C88.0183 20.4608 88.2083 20.2685 88.2083 19.9801V17.0638C88.2083 16.7754 88.0183 16.5831 87.7339 16.5831H74.507C74.2226 16.5831 74.0326 16.7754 74.0326 17.0638V38.5352C74.0326 38.8238 74.2226 39.0162 74.507 39.0162H87.7655C88.0499 39.0162 88.2399 38.8238 88.2399 38.5352V35.6191C88.2399 35.3305 88.0499 35.1384 87.7655 35.1384Z" fill="white"/>
<path d="M101.674 23.6975L97.9108 34.0808L94.116 23.6975C94.0208 23.4412 93.7996 23.313 93.5464 23.313H90.2893C89.9413 23.313 89.7833 23.5052 89.9097 23.8578L95.7288 38.6314C95.8236 38.8877 96.0452 39.0162 96.298 39.0162H99.5239C99.7767 39.0162 99.9983 38.8877 100.093 38.6314L105.881 23.8578C106.007 23.5052 105.849 23.313 105.501 23.313H102.243C101.991 23.313 101.769 23.4412 101.674 23.6975Z" fill="white"/>
<path d="M127.348 22.9605C124.818 22.9605 122.984 24.1783 121.877 25.8767C120.896 23.986 119.157 22.9605 117.101 22.9605C114.856 22.9605 113.211 24.2103 112.199 25.8767V25.8447L112.073 23.7937C112.041 23.5053 111.883 23.313 111.599 23.313H108.499C108.215 23.313 108.025 23.5053 108.025 23.7937V38.5352C108.025 38.8238 108.215 39.0162 108.499 39.0162H111.725C112.01 39.0162 112.199 38.8238 112.199 38.5352V29.9467C112.199 29.2096 113.275 26.8702 115.615 26.8702C117.133 26.8702 118.525 27.7675 118.525 30.3633V38.5352C118.525 38.8238 118.715 39.0162 118.999 39.0162H122.225C122.509 39.0162 122.699 38.8238 122.699 38.5352V29.8826C122.699 28.761 123.774 26.8702 126.115 26.8702C127.601 26.8702 128.993 27.7675 128.993 30.3633V38.5352C128.993 38.8238 129.182 39.0162 129.467 39.0162H132.693C132.977 39.0162 133.167 38.8238 133.167 38.5352V29.5942C133.167 25.396 130.732 22.9605 127.348 22.9605Z" fill="white"/>
<path d="M143.035 39.4326C147.494 39.4326 151.068 35.8115 151.068 31.1966C151.068 26.5818 147.494 22.9605 143.035 22.9605C138.576 22.9605 135.002 26.5818 135.002 31.1966C135.002 35.8115 138.576 39.4326 143.035 39.4326ZM143.035 35.5229C140.79 35.5229 139.019 33.7283 139.019 31.1966C139.019 28.6649 140.79 26.8702 143.035 26.8702C145.249 26.8702 147.051 28.6649 147.051 31.1966C147.051 33.7283 145.249 35.5229 143.035 35.5229Z" fill="white"/>
<path d="M156.906 27.7034C156.906 26.9023 157.634 26.3574 158.614 26.3574C159.721 26.3574 160.449 26.7741 161.65 27.5753C161.935 27.7996 162.156 27.8637 162.346 27.6073L163.548 26.0049C163.706 25.8127 163.769 25.5563 163.579 25.332C162.283 23.7937 160.259 22.9605 158.266 22.9605C155.484 22.9605 152.89 24.7231 152.89 27.7355C152.89 33.0232 160.385 32.0618 160.385 34.5616C160.385 35.5548 159.405 35.8754 158.393 35.8754C157.16 35.8754 155.8 35.2666 154.535 34.4335C154.25 34.209 154.028 34.1449 153.839 34.4012L152.606 36.164C152.479 36.356 152.416 36.5804 152.606 36.8047C153.712 38.1188 155.863 39.4326 158.52 39.4326C161.366 39.4326 164.433 37.6701 164.433 34.6255C164.433 28.8571 156.906 30.2672 156.906 27.7034Z" fill="white"/>
</svg>
