<svg width="180" height="48" viewBox="0 0 180 48" fill="none" xmlns="http://www.w3.org/2000/svg">
<path d="M48.2817 26.5438C48.2817 21.3637 52.072 17.6353 57.2795 17.6353C62.487 17.6353 66.2773 21.3637 66.2773 26.5438C66.2773 31.7239 62.487 35.4523 57.2795 35.4523C52.105 35.4523 48.2817 31.7239 48.2817 26.5438ZM62.5199 26.5438C62.5199 23.3104 60.4435 20.8688 57.2795 20.8688C54.1154 20.8688 52.0719 23.3104 52.0719 26.5438C52.0719 29.7443 54.1154 32.2189 57.2795 32.2189C60.4435 32.1859 62.5199 29.7443 62.5199 26.5438Z" fill="white"/>
<path d="M67.6942 32.7116L69.6718 29.9071C70.8913 31.1609 72.7699 32.2168 75.143 32.2168C77.1534 32.2168 78.1422 31.2929 78.1422 30.3031C78.1422 27.2676 68.2216 29.3463 68.2216 22.8463C68.2216 19.9758 70.6935 17.6002 74.7475 17.6002C77.483 17.6002 79.7572 18.425 81.4711 20.0088L79.4276 22.6813C78.0433 21.3945 76.1647 20.8007 74.4179 20.8007C72.8359 20.8007 71.9789 21.4936 71.9789 22.5163C71.9789 25.2549 81.8665 23.4072 81.8665 29.8411C81.8665 33.0086 79.6253 35.3842 74.9782 35.3842C71.6823 35.4502 69.3092 34.3284 67.6942 32.7116Z" fill="white"/>
<path d="M99.3348 35.1528V23.0767L94.4896 35.1528H92.8748L88.0299 23.0767V35.1528H84.3715V17.8966H89.513L93.6988 28.3228L97.8844 17.8966H103.059V35.1197H99.3348V35.1528Z" fill="white"/>
<path d="M105.597 26.542C105.597 21.3619 109.388 17.6335 114.595 17.6335C119.803 17.6335 123.593 21.3619 123.593 26.542C123.593 31.7222 119.803 35.4505 114.595 35.4505C109.388 35.4505 105.597 31.7222 105.597 26.542ZM119.836 26.542C119.836 23.3085 117.759 20.8669 114.595 20.8669C111.431 20.8669 109.388 23.3085 109.388 26.542C109.388 29.7425 111.431 32.217 114.595 32.217C117.759 32.1841 119.836 29.7425 119.836 26.542Z" fill="white"/>
<path d="M125.01 32.7116L126.988 29.9071C128.207 31.1609 130.086 32.2168 132.459 32.2168C134.469 32.2168 135.458 31.2929 135.458 30.3031C135.458 27.2676 125.537 29.3463 125.537 22.8463C125.537 19.9758 128.01 17.6002 132.063 17.6002C134.798 17.6002 137.073 18.425 138.787 20.0088L136.744 22.6813C135.359 21.3945 133.481 20.8007 131.734 20.8007C130.152 20.8007 129.294 21.4936 129.294 22.5163C129.294 25.2549 139.182 23.4072 139.182 29.8411C139.182 33.0086 136.941 35.3842 132.294 35.3842C128.998 35.4502 126.625 34.3284 125.01 32.7116Z" fill="white"/>
<path d="M141.654 35.1528V17.8966H145.346V35.1197H141.654V35.1528Z" fill="white"/>
<path d="M147.587 32.7116L149.564 29.9071C150.784 31.1609 152.663 32.2168 155.036 32.2168C157.046 32.2168 158.035 31.2929 158.035 30.3031C158.035 27.2676 148.114 29.3463 148.114 22.8463C148.114 19.9758 150.586 17.6002 154.64 17.6002C157.375 17.6002 159.65 18.425 161.364 20.0088L159.32 22.6813C157.936 21.3945 156.058 20.8007 154.311 20.8007C152.729 20.8007 151.871 21.4936 151.871 22.5163C151.871 25.2549 161.759 23.4072 161.759 29.8411C161.759 33.0086 159.518 35.3842 154.871 35.3842C151.542 35.4502 149.169 34.3284 147.587 32.7116Z" fill="white"/>
<path fill-rule="evenodd" clip-rule="evenodd" d="M37.8813 6.90185C40.1405 8.57759 41.3957 10.0829 41.7861 11.5882C42.0372 12.4403 41.8141 13.4628 41.2562 14.2296C40.6984 14.9965 39.8059 15.4226 38.7739 15.4226C38.3834 15.4226 37.9929 15.3657 37.6024 15.2521C37.371 15.9085 37.1788 16.555 37.0431 17.1678C38.7534 19.8148 39.7499 22.9821 39.7499 26.3859C39.7499 35.6735 32.3586 43.2001 23.2381 43.2001C14.1176 43.2001 6.72632 35.6735 6.72632 26.3859C6.72632 17.0983 14.1176 9.57166 23.2381 9.57166C25.2548 9.57166 27.189 9.94191 28.9784 10.6195C29.1784 10.5182 29.402 10.3987 29.6486 10.258C29.8141 10.1613 29.9927 10.0553 30.1824 9.93956C30.0155 9.68431 29.8763 9.40088 29.7649 9.17405C29.4581 8.43558 29.5696 7.21427 30.0438 6.3054C30.4343 5.53854 31.0479 5.0273 31.7452 4.88528C32.0241 4.82847 32.303 4.80008 32.6098 4.80008C34.1438 4.80008 36.0684 5.56694 37.8813 6.90185ZM29.9631 11.0298L29.9827 11.0179L29.988 11.0201C30.8805 10.5373 32.1635 9.71368 33.6417 8.52076C34.1996 8.74798 34.9247 9.14561 35.8173 9.7421C36.8772 10.4521 37.7976 11.2474 38.3833 11.8723C37.4089 13.1764 36.7678 14.9618 36.3772 16.2111C34.7075 13.9809 32.5037 12.1877 29.9631 11.0298ZM29.3829 11.7871C27.4979 10.9644 25.4207 10.509 23.2381 10.509C14.6196 10.509 7.64674 17.6096 7.64674 26.3859C7.64674 35.1622 14.6196 42.2628 23.2381 42.2628C31.8287 42.2628 38.8295 35.1622 38.8295 26.3859C38.8295 23.5546 38.1038 20.8978 36.8313 18.5974L36.8215 18.7173C35.1034 15.6798 32.5074 13.2452 29.3829 11.7871ZM31.1594 9.31603C31.0686 9.37674 30.9791 9.43566 30.8913 9.49288C30.7223 9.24889 30.5948 9.03375 30.518 8.86168C30.1832 8.06641 30.5737 5.99304 31.9125 5.70902C33.2513 5.42499 35.3432 6.04985 37.4071 7.58357C39.4711 9.1173 40.6426 10.4806 41.0051 11.8155C41.3349 13.1307 40.3381 15.08 37.8813 14.4582C37.9087 14.3915 37.9366 14.3248 37.9649 14.2581C38.0766 14.2865 38.2159 14.2865 38.3554 14.2865C38.6901 14.2865 39.0806 14.2296 39.3874 13.974C39.6106 13.8036 39.8616 13.4912 39.8336 12.9231C39.8336 12.3835 39.4153 11.7018 38.5507 10.8782C37.9371 10.2817 37.1003 9.62841 36.2636 9.032C33.8649 7.41307 32.1914 6.95863 31.4383 7.72549C30.9363 8.23674 30.992 8.86159 31.1594 9.31603ZM38.9133 12.5823C38.9969 12.7243 39.0248 12.8663 39.0248 12.9515C39.0248 13.2069 38.9413 13.2922 38.8856 13.3491C38.774 13.4342 38.5506 13.4912 38.3554 13.4912C38.5226 13.1509 38.7176 12.8671 38.9125 12.5835L38.9133 12.5823ZM32.024 8.35035C32.1077 8.26514 32.3309 8.20833 32.6935 8.26514C32.4145 8.49236 32.1357 8.69118 31.8567 8.88999C31.8288 8.69118 31.8567 8.49236 32.024 8.35035Z" fill="white"/>
<path d="M28.0913 19.2284C29.4776 19.2284 30.6015 18.0841 30.6015 16.6723C30.6015 15.2605 29.4776 14.1161 28.0913 14.1161C26.7049 14.1161 25.5811 15.2605 25.5811 16.6723C25.5811 18.0841 26.7049 19.2284 28.0913 19.2284Z" fill="white"/>
<path d="M32.1912 21.1315C32.7766 21.1315 33.2511 20.6483 33.2511 20.0521C33.2511 19.4561 32.7766 18.9729 32.1912 18.9729C31.6059 18.9729 31.1313 19.4561 31.1313 20.0521C31.1313 20.6483 31.6059 21.1315 32.1912 21.1315Z" fill="white"/>
<path fill-rule="evenodd" clip-rule="evenodd" d="M8.68518 29.1953C8.7146 29.2281 8.74444 29.2607 8.77466 29.293C9.57443 30.149 10.7061 30.9142 12.0876 31.519C14.8553 32.7307 18.7312 33.3462 23.3166 32.6855L23.3179 32.6853C26.7372 32.1879 29.0056 31.2824 30.9716 30.4978C31.6523 30.2262 32.2968 29.9688 32.9402 29.748C33.619 29.52 34.2825 29.3485 34.9153 29.193C35.0224 29.1667 35.1296 29.1406 35.2366 29.1145C35.7461 28.9906 36.2482 28.8685 36.6847 28.7335C37.1057 28.6031 37.5463 28.4382 37.9254 28.1951C36.9841 35.5971 30.7611 41.3254 23.2382 41.3254C16.0578 41.3254 10.0401 36.1068 8.68518 29.1953ZM22.9889 37.4345C22.9889 37.8737 22.6392 38.2297 22.208 38.2297C21.7766 38.2297 21.427 37.8737 21.427 37.4345C21.427 36.9953 21.7766 36.6392 22.208 36.6392C22.6392 36.6392 22.9889 36.9953 22.9889 37.4345ZM26.2802 37.832C26.7115 37.832 27.0611 37.4759 27.0611 37.0368C27.0611 36.5975 26.7115 36.2415 26.2802 36.2415C25.8489 36.2415 25.4993 36.5975 25.4993 37.0368C25.4993 37.4759 25.8489 37.832 26.2802 37.832ZM24.8558 39.0818C24.8558 39.4112 24.5936 39.6782 24.2701 39.6782C23.9465 39.6782 23.6843 39.4112 23.6843 39.0818C23.6843 38.7524 23.9465 38.4853 24.2701 38.4853C24.5936 38.4853 24.8558 38.7524 24.8558 39.0818ZM27.8682 39.2521C28.1917 39.2521 28.4539 38.9851 28.4539 38.6557C28.4539 38.3263 28.1917 38.0593 27.8682 38.0593C27.5447 38.0593 27.2825 38.3263 27.2825 38.6557C27.2825 38.9851 27.5447 39.2521 27.8682 39.2521ZM20.17 36.6392C20.17 37.3607 19.5956 37.9458 18.887 37.9458C18.1784 37.9458 17.604 37.3607 17.604 36.6392C17.604 35.9176 18.1784 35.3327 18.887 35.3327C19.5956 35.3327 20.17 35.9176 20.17 36.6392ZM30.3512 34.7362C31.0597 34.7362 31.6342 34.1512 31.6342 33.4296C31.6342 32.7081 31.0597 32.1232 30.3512 32.1232C29.6426 32.1232 29.0682 32.7081 29.0682 33.4296C29.0682 34.1512 29.6426 34.7362 30.3512 34.7362Z" fill="white"/>
<path d="M38.0207 26.3858C38.0207 24.6533 35.0642 23.6592 31.1315 23.3184C28.2866 23.0911 25.4138 23.3751 22.1226 24.3976C19.2776 25.2497 16.7115 25.1077 14.8428 24.8805C10.687 24.3976 8.3999 24.3408 8.3999 26.3858C8.3999 29.3397 14.3129 33.032 23.1824 31.7539C27.673 31.1006 29.988 29.7657 32.6377 28.8568C35.5105 27.8911 38.0207 27.9195 38.0207 26.3858Z" fill="white"/>
</svg>
